<svg xmlns="http://www.w3.org/2000/svg" version="1.1" xmlns:xlink="http://www.w3.org/1999/xlink" width="512" height="512" x="0" y="0" viewBox="0 0 100 100" style="enable-background:new 0 0 512 512" xml:space="preserve"><rect width="100" height="100" rx="20" ry="20" fill="#bac8d3" shape="rounded"></rect><g transform="matrix(0.6299999999999999,0,0,0.6299999999999999,18.50004781246186,18.4999534225464)"><linearGradient id="a"><stop offset=".184" stop-color="#29abe2"></stop><stop offset=".821" stop-color="#6200d2"></stop></linearGradient><linearGradient xlink:href="#a" id="b" x1="-13.527" x2="91.736" y1="7.152" y2="115.25" gradientUnits="userSpaceOnUse"></linearGradient><linearGradient xlink:href="#a" id="c" x1="-.433" x2="104.831" y1="-5.599" y2="102.499" gradientUnits="userSpaceOnUse"></linearGradient><linearGradient xlink:href="#a" id="d" x1="-2.919" x2="102.344" y1="-3.178" y2="104.92" gradientUnits="userSpaceOnUse"></linearGradient><linearGradient xlink:href="#a" id="e" x1="-5.313" x2="99.95" y1="-.846" y2="107.251" gradientUnits="userSpaceOnUse"></linearGradient><path fill="url(#b)" d="M93.821 65.264H31.052l-2.02-5.709h-1.109l-1.108-25.88c0-.736-.736-1.286-1.471-1.286s-1.472.55-1.472 1.285l-1.108 25.881h-1.108l-2.021 5.709h-6.883a3.699 3.699 0 0 0-3.687 3.688v13.625a3.702 3.702 0 0 0 3.687 3.687h5.16l.716 2.144c.234.7.89 1.172 1.627 1.172h3.239c.737 0 1.393-.472 1.627-1.172l.716-2.144h55.077l.716 2.144c.234.7.89 1.172 1.627 1.172h3.238c.738 0 1.393-.472 1.627-1.172l.717-2.144h4.973a3.702 3.702 0 0 0 3.688-3.687V68.942a3.69 3.69 0 0 0-3.679-3.678zm-72.044 12.34h-4.6c-1.11 0-1.845-.736-1.845-1.845 0-1.098.736-1.834 1.844-1.834h4.6c1.109 0 1.845.736 1.845 1.834 0 1.109-.736 1.844-1.844 1.844zm12.162 0h-4.61c-1.098 0-1.834-.736-1.834-1.845 0-1.098.736-1.834 1.835-1.834h4.61c1.108 0 1.843.736 1.843 1.834 0 1.109-.735 1.844-1.844 1.844zm50.849 2.393c-2.403 0-4.237-1.835-4.237-4.238 0-2.393 1.834-4.237 4.237-4.237 2.393 0 4.237 1.844 4.237 4.237 0 2.403-1.844 4.238-4.237 4.238z" opacity="1" data-original="url(#b)"></path><path fill="url(#c)" d="M5.632 22.072c10.869-10.869 28.738-10.869 39.608 0 .736.737 1.842.737 2.394 0 .922-.92.369-2.21 0-2.395-12.342-12.343-32.238-12.343-44.581 0-.737.737-.737 1.842 0 2.395.737.737 1.842.737 2.579 0z" opacity="1" data-original="url(#c)"></path><path fill="url(#d)" d="M42.66 27.046c.922-.921.369-2.21 0-2.395-9.58-9.58-25.054-9.58-34.633 0-.737.737-.737 1.842 0 2.395.737.737 1.842.737 2.395 0 8.105-8.106 21.554-8.106 29.66 0 .736.737 1.842.737 2.578 0z" opacity="1" data-original="url(#d)"></path><path fill="url(#e)" d="M13 29.441c-.736.737-.736 1.842 0 2.395.738.737 1.843.737 2.396 0a14.01 14.01 0 0 1 19.896 0c.736.737 1.842.737 2.394 0 .922-.921.369-2.21 0-2.395-6.816-6.816-17.87-6.816-24.685 0z" opacity="1" data-original="url(#e)"></path></g></svg>