<svg xmlns="http://www.w3.org/2000/svg" version="1.1" xmlns:xlink="http://www.w3.org/1999/xlink" width="512" height="512" x="0" y="0" viewBox="0 0 64 64" style="enable-background:new 0 0 512 512" xml:space="preserve" class=""><rect width="64" height="64" rx="12.8" ry="12.8" fill="#bac8d3" shape="rounded"></rect><g transform="matrix(0.6399999999999999,0,0,0.6399999999999999,11.518810107707981,11.52089933395386)"><linearGradient id="a" x1="32" x2="32" y1="1.22" y2="61.69" data-name="New Gradient Swatch copy" gradientUnits="userSpaceOnUse"><stop offset="0" stop-color="#2275e4"></stop><stop offset="1" stop-color="#003fb4"></stop></linearGradient><g fill="url(#a)"><path d="M56.02 58.42V30.23L32 10.17 7.98 30.23v28.19c0 .29.24.53.53.53h46.98c.29 0 .53-.24.53-.53zM20.18 27.9c1.79-1.79 4.71-1.79 6.49 0a4.605 4.605 0 0 1 0 6.5c-.89.89-2.07 1.34-3.25 1.34s-2.35-.45-3.25-1.34a4.605 4.605 0 0 1 0-6.5zm2.83 24.08c-.87 0-1.69-.34-2.31-.96a3.277 3.277 0 0 1 0-4.62l17.98-17.98c1.23-1.24 3.39-1.23 4.62 0a3.277 3.277 0 0 1 0 4.62L25.32 51.02c-.62.62-1.44.96-2.31.96zm20.81-.43c-.89.9-2.07 1.34-3.25 1.34s-2.35-.45-3.25-1.34a4.605 4.605 0 0 1 0-6.5c1.79-1.79 4.71-1.79 6.49 0a4.605 4.605 0 0 1 0 6.5z" fill="" opacity="1"></path><path d="M62.63 32.26c.28-.33.41-.75.36-1.19-.04-.43-.24-.82-.57-1.09L33.04 5.43c-.6-.5-1.47-.5-2.08 0L1.58 29.98c-.33.27-.54.66-.58 1.09s.09.86.36 1.19c.57.69 1.6.78 2.29.21L31.66 9.08a.543.543 0 0 1 .68 0l28 23.39c.65.54 1.74.45 2.29-.21z" fill="" opacity="1"></path><path d="M40.99 28.51c-.59 0-1.15.23-1.57.65L21.44 47.14c-.86.86-.86 2.27 0 3.14s2.3.84 3.14 0L42.56 32.3c.86-.86.86-2.27 0-3.14a2.21 2.21 0 0 0-1.57-.65zM25.93 33.65c.67-.67 1.04-1.56 1.04-2.5s-.37-1.84-1.04-2.5-1.6-1.04-2.5-1.04-1.81.34-2.5 1.04c-1.38 1.38-1.38 3.63 0 5.01s3.63 1.38 5.01 0zM40.58 44.75c-.91 0-1.81.35-2.5 1.04-.67.67-1.04 1.56-1.04 2.5s.37 1.84 1.04 2.5c1.38 1.38 3.63 1.38 5.01 0s1.38-3.63 0-5.01c-.69-.69-1.6-1.04-2.5-1.04z" fill="" opacity="1"></path></g></g></svg>