<svg xmlns="http://www.w3.org/2000/svg" version="1.1" xmlns:xlink="http://www.w3.org/1999/xlink" width="512" height="512" x="0" y="0" viewBox="0 0 60 60" style="enable-background:new 0 0 512 512" xml:space="preserve"><rect width="60" height="60" rx="12" ry="12" fill="#bac8d3" shape="rounded"></rect><g transform="matrix(0.5900000000000001,0,0,0.5900000000000001,12.299999999999997,12.709999999999997)"><linearGradient id="a" x1="30" x2="30" y1="11" y2="51" gradientUnits="userSpaceOnUse"><stop offset="0" stop-color="#ce9ffc"></stop><stop offset="1" stop-color="#7367f0"></stop></linearGradient><g fill="url(#a)"><path d="M59 20v-6a3 3 0 0 0-3-3H4a3 3 0 0 0-3 3v6zM1 24v24a3 3 0 0 0 3 3h52a3 3 0 0 0 3-3V24zm4 14h15v3H5zm20 9H5v-3h20z" fill="" opacity="1"></path></g></g></svg>