<svg xmlns="http://www.w3.org/2000/svg" version="1.1" xmlns:xlink="http://www.w3.org/1999/xlink" width="512" height="512" x="0" y="0" viewBox="0 0 64 64" style="enable-background:new 0 0 512 512" xml:space="preserve"><rect width="64" height="64" rx="12.8" ry="12.8" fill="#bac8d3" shape="rounded"></rect><g transform="matrix(0.6499999999999998,0,0,0.6499999999999998,11.199654948711402,11.200000000000006)"><defs><linearGradient id="a" x1="3.998" x2="60" y1="32" y2="32" gradientUnits="userSpaceOnUse"><stop offset="0" stop-color="#ffa68d"></stop><stop offset="1" stop-color="#fd3a84"></stop></linearGradient></defs><path d="M56 11H8a4.005 4.005 0 0 0-4 4c-.006 4.46.004 23.963 0 28v6a4.005 4.005 0 0 0 4 4h48a4.004 4.004 0 0 0 4-4V15a4.004 4.004 0 0 0-4-4Zm2 32a2.002 2.002 0 0 1-2 2H36.5v-4H56a3.954 3.954 0 0 0 2-.556ZM6 40.444A3.954 3.954 0 0 0 8 41h19.5v4H8a2.002 2.002 0 0 1-2-2Zm19.31-5.954c-5.456-4.028-5.456-12.952 0-16.98h2.19v16.98Zm-2.896 0H13.9A5.015 5.015 0 0 0 10 30.59v-9.18a5.015 5.015 0 0 0 3.9-3.9h8.514a12.861 12.861 0 0 0 0 16.98ZM29.5 13h5v38h-5Zm9.19 4.51c5.456 4.028 5.456 12.952 0 16.98H36.5V17.51Zm2.896 0H50.1A5.015 5.015 0 0 0 54 21.41v9.18a5.015 5.015 0 0 0-3.9 3.9h-8.514a12.86 12.86 0 0 0 0-16.98ZM58 15v22a2.002 2.002 0 0 1-2 2H36.5v-2.51H51a1 1 0 0 0 1-1 3.003 3.003 0 0 1 3-3 1 1 0 0 0 1-1V20.51a1 1 0 0 0-1-1 3.003 3.003 0 0 1-3-3 1 1 0 0 0-1-1H36.5V13H56a2.002 2.002 0 0 1 2 2ZM6 15a2.002 2.002 0 0 1 2-2h19.5v2.51H13a1 1 0 0 0-1 1 3.003 3.003 0 0 1-3 3 1 1 0 0 0-1 1v10.98a1 1 0 0 0 1 1 3.003 3.003 0 0 1 3 3 1 1 0 0 0 1 1h14.5V39H8a2.002 2.002 0 0 1-2-2Zm0 34v-2.556A3.954 3.954 0 0 0 8 47h19.5v4H8a2.002 2.002 0 0 1-2-2Zm50 2H36.5v-4H56a3.954 3.954 0 0 0 2-.556V49a2.002 2.002 0 0 1-2 2Z" class="cls-1" style="fill:url(#a)" fill=""></path></g></svg>