<svg xmlns="http://www.w3.org/2000/svg" version="1.1" xmlns:xlink="http://www.w3.org/1999/xlink" width="512" height="512" x="0" y="0" viewBox="0 0 520 520" style="enable-background:new 0 0 512 512" xml:space="preserve" class=""><rect width="520" height="520" rx="104" ry="104" fill="#bac8d3" shape="rounded"></rect><g transform="matrix(0.53,0,0,0.53,122.19999977588654,117.20070281982422)"><linearGradient id="a" x1="-94.331" x2="396.65" y1="424.269" y2="-66.712" gradientUnits="userSpaceOnUse"><stop offset="0" stop-color="#4158d0"></stop><stop offset="1" stop-color="#c850c0"></stop></linearGradient><linearGradient xlink:href="#a" id="b" x1="-59.422" x2="431.56" y1="459.178" y2="-31.803"></linearGradient><linearGradient xlink:href="#a" id="c" x1="-24.513" x2="466.468" y1="494.087" y2="3.106"></linearGradient><linearGradient xlink:href="#a" id="d" x1="10.396" x2="501.377" y1="528.996" y2="38.015"></linearGradient><linearGradient xlink:href="#a" id="e" x1="-55.543" x2="435.438" y1="463.057" y2="-27.924"></linearGradient><linearGradient xlink:href="#a" id="f" x1="-20.633" x2="470.348" y1="497.967" y2="6.986"></linearGradient><linearGradient xlink:href="#a" id="g" x1="14.275" x2="505.256" y1="532.875" y2="41.894"></linearGradient><linearGradient xlink:href="#a" id="h" x1="49.185" x2="540.166" y1="567.785" y2="76.804"></linearGradient><linearGradient xlink:href="#a" id="i" x1="-16.755" x2="474.226" y1="501.845" y2="10.864"></linearGradient><linearGradient xlink:href="#a" id="j" x1="18.154" x2="509.135" y1="536.754" y2="45.773"></linearGradient><linearGradient xlink:href="#a" id="k" x1="53.063" x2="544.044" y1="571.663" y2="80.682"></linearGradient><linearGradient xlink:href="#a" id="l" x1="87.972" x2="578.953" y1="606.572" y2="115.591"></linearGradient><linearGradient xlink:href="#a" id="m" x1="84.095" x2="575.076" y1="602.695" y2="111.714"></linearGradient><linearGradient xlink:href="#a" id="n" x1="107.367" x2="598.348" y1="625.967" y2="134.986"></linearGradient><linearGradient xlink:href="#a" id="o" x1="-154.45" x2="336.531" y1="364.15" y2="-126.831"></linearGradient><linearGradient xlink:href="#a" id="p" x1="-124.441" x2="366.54" y1="394.159" y2="-96.822"></linearGradient><linearGradient xlink:href="#a" id="q" x1="-100.146" x2="390.835" y1="418.454" y2="-72.527"></linearGradient><linearGradient xlink:href="#a" id="r" x1="-67.176" x2="423.805" y1="451.424" y2="-39.557"></linearGradient><linearGradient xlink:href="#a" id="s" x1="-38.086" x2="452.896" y1="480.514" y2="-10.467"></linearGradient><linearGradient xlink:href="#a" id="t" x1="24.206" x2="515.187" y1="542.806" y2="51.825"></linearGradient><path fill="url(#a)" d="M135.88 205.7h38.785a7.758 7.758 0 0 0 7.758-7.758v-46.55a7.758 7.758 0 0 0-7.758-7.758H135.88a7.759 7.759 0 0 0-7.758 7.758v46.547a7.759 7.759 0 0 0 7.758 7.761zm7.758-46.547h23.27v31.031h-23.27z" opacity="1" data-original="url(#a)"></path><path fill="url(#b)" d="M205.7 205.7h38.789a7.759 7.759 0 0 0 7.758-7.758v-46.55a7.759 7.759 0 0 0-7.758-7.758H205.7a7.759 7.759 0 0 0-7.758 7.758v46.547a7.759 7.759 0 0 0 7.758 7.761zm7.758-46.547h23.273v31.031h-23.276z" opacity="1" data-original="url(#b)"></path><path fill="url(#c)" d="M275.514 205.7H314.3a7.759 7.759 0 0 0 7.758-7.758v-46.55a7.759 7.759 0 0 0-7.758-7.758h-38.786a7.759 7.759 0 0 0-7.758 7.758v46.547a7.759 7.759 0 0 0 7.758 7.761zm7.758-46.547h23.273v31.031h-23.273z" opacity="1" data-original="url(#c)"></path><path fill="url(#d)" d="M345.335 205.7h38.785a7.759 7.759 0 0 0 7.758-7.758v-46.55a7.759 7.759 0 0 0-7.758-7.758h-38.785a7.758 7.758 0 0 0-7.758 7.758v46.547a7.758 7.758 0 0 0 7.758 7.761zm7.757-46.547h23.27v31.031h-23.27z" opacity="1" data-original="url(#d)"></path><path fill="url(#e)" d="M135.88 283.272h38.785a7.758 7.758 0 0 0 7.758-7.758V228.97a7.757 7.757 0 0 0-7.758-7.757H135.88a7.758 7.758 0 0 0-7.758 7.757v46.544a7.759 7.759 0 0 0 7.758 7.758zm7.758-46.544h23.27v31.028h-23.27z" opacity="1" data-original="url(#e)"></path><path fill="url(#f)" d="M205.7 283.272h38.789a7.759 7.759 0 0 0 7.758-7.758V228.97a7.758 7.758 0 0 0-7.758-7.757H205.7a7.758 7.758 0 0 0-7.758 7.757v46.544a7.759 7.759 0 0 0 7.758 7.758zm7.758-46.544h23.273v31.028h-23.276z" opacity="1" data-original="url(#f)"></path><path fill="url(#g)" d="M275.514 283.272H314.3a7.759 7.759 0 0 0 7.758-7.758V228.97a7.758 7.758 0 0 0-7.758-7.757h-38.786a7.758 7.758 0 0 0-7.758 7.757v46.544a7.759 7.759 0 0 0 7.758 7.758zm7.758-46.544h23.273v31.028h-23.273z" opacity="1" data-original="url(#g)"></path><path fill="url(#h)" d="M345.335 283.272h38.785a7.759 7.759 0 0 0 7.758-7.758V228.97a7.758 7.758 0 0 0-7.758-7.757h-38.785a7.757 7.757 0 0 0-7.758 7.757v46.544a7.758 7.758 0 0 0 7.758 7.758zm7.757-46.544h23.27v31.028h-23.27z" opacity="1" data-original="url(#h)"></path><path fill="url(#i)" d="M182.423 353.089v-46.544a7.758 7.758 0 0 0-7.758-7.758H135.88a7.759 7.759 0 0 0-7.758 7.758v46.544a7.759 7.759 0 0 0 7.758 7.758h38.785a7.758 7.758 0 0 0 7.758-7.758zm-15.515-7.758h-23.27V314.3h23.27z" opacity="1" data-original="url(#i)"></path><path fill="url(#j)" d="M205.7 360.847h38.789a7.759 7.759 0 0 0 7.758-7.758v-46.544a7.759 7.759 0 0 0-7.758-7.758H205.7a7.759 7.759 0 0 0-7.758 7.758v46.544a7.759 7.759 0 0 0 7.758 7.758zm7.758-46.544h23.273v31.028h-23.276z" opacity="1" data-original="url(#j)"></path><path fill="url(#k)" d="M275.514 360.847H314.3a7.759 7.759 0 0 0 7.758-7.758v-46.544a7.759 7.759 0 0 0-7.758-7.758h-38.786a7.759 7.759 0 0 0-7.758 7.758v46.544a7.759 7.759 0 0 0 7.758 7.758zm7.758-46.544h23.273v31.028h-23.273z" opacity="1" data-original="url(#k)"></path><path fill="url(#l)" d="M345.335 360.847h38.785a7.759 7.759 0 0 0 7.758-7.758v-46.544a7.759 7.759 0 0 0-7.758-7.758h-38.785a7.758 7.758 0 0 0-7.758 7.758v46.544a7.758 7.758 0 0 0 7.758 7.758zm7.757-46.544h23.27v31.028h-23.27z" opacity="1" data-original="url(#l)"></path><path fill="url(#m)" d="M236.728 461.7a7.758 7.758 0 0 0 7.758-7.758v-7.758a7.758 7.758 0 1 0-15.516 0v7.758a7.759 7.759 0 0 0 7.758 7.758z" opacity="1" data-original="url(#m)"></path><path fill="url(#n)" d="M283.272 461.7a7.759 7.759 0 0 0 7.758-7.758v-7.758a7.758 7.758 0 1 0-15.516 0v7.758a7.758 7.758 0 0 0 7.758 7.758z" opacity="1" data-original="url(#n)"></path><path fill="url(#o)" d="M128.122 97.1a7.759 7.759 0 0 0 7.758-7.758V73.825h15.512v15.519a7.758 7.758 0 1 0 15.516 0V42.786a7.758 7.758 0 1 0-15.516 0v15.523H135.88V42.786a7.758 7.758 0 1 0-15.516 0v46.558a7.759 7.759 0 0 0 7.758 7.756z" opacity="1" data-original="url(#o)"></path><path fill="url(#p)" d="M203.659 97.087A21.261 21.261 0 0 0 224.9 75.851V56.267a21.238 21.238 0 1 0-42.475 0v19.584a21.261 21.261 0 0 0 21.234 21.236zm-5.72-40.82a5.722 5.722 0 1 1 11.444 0v19.584a5.722 5.722 0 0 1-11.444 0z" opacity="1" data-original="url(#p)"></path><path fill="url(#q)" d="M244.486 50.543h7.754v38.805a7.758 7.758 0 1 0 15.516 0v-38.8h7.758a7.758 7.758 0 1 0 0-15.515h-31.028a7.758 7.758 0 1 0 0 15.515z" opacity="1" data-original="url(#q)"></path><path fill="url(#r)" d="M306.545 97.106h23.274a7.758 7.758 0 0 0 0-15.516H314.3v-7.765h7.625a7.758 7.758 0 0 0 0-15.516H314.3v-7.766h15.516a7.758 7.758 0 1 0 0-15.515h-23.271a7.758 7.758 0 0 0-7.758 7.758v46.562a7.759 7.759 0 0 0 7.758 7.758z" opacity="1" data-original="url(#r)"></path><path fill="url(#s)" d="M360.847 97.106h31.031a7.758 7.758 0 1 0 0-15.516H368.6v-38.8a7.758 7.758 0 1 0-15.515 0v46.558a7.758 7.758 0 0 0 7.762 7.758z" opacity="1" data-original="url(#s)"></path><path fill="url(#t)" d="M516 370.979c0-26.974-17.4-48.918-38.789-48.918s-38.786 21.944-38.786 48.918c0 19.147 10.792 70.676 31.418 81.008v48.452h-46.934V130.3l46.559 11.64.375 156.865a7.759 7.759 0 0 0 7.758 7.739h.019a7.758 7.758 0 0 0 7.739-7.777l-.39-162.907a7.759 7.759 0 0 0-5.876-7.508l-51.02-12.752a24.109 24.109 0 0 0 2.594-10.749V27.274C430.667 14.44 420.834 4 408.742 4H111.254C99.166 4 89.333 14.44 89.333 27.274v77.574a24.1 24.1 0 0 0 2.594 10.752L40.9 128.353a7.76 7.76 0 0 0-5.875 7.527v162.907a7.758 7.758 0 1 0 15.515 0v-156.85L97.091 130.3v370.139H50.934v-48.927c20.12-11.235 30.641-61.867 30.641-80.533 0-26.974-17.4-48.918-38.789-48.918S4 344.005 4 370.979c0 19.147 10.792 70.676 31.418 81.008v48.5h-23.66a7.758 7.758 0 1 0 0 15.516h496.484a7.758 7.758 0 0 0 0-15.516h-22.883v-48.975C505.479 440.277 516 389.645 516 370.979zm-62.059 0c0-18.106 10.656-33.4 23.27-33.4s23.273 15.3 23.273 33.4c0 19.043-7.768 44.985-15.125 58.439v-22.024a7.758 7.758 0 0 0-15.516 0v23.461c-7.533-13.085-15.902-40.41-15.902-59.876zM112.606 128.122h294.788v372.317h-77.575v-100.8h15.9a7.758 7.758 0 0 0 0-15.516H174.665a7.758 7.758 0 0 0 0 15.516h15.516v100.8h-77.575zM314.3 500.439h-46.544v-100.8H314.3zm-62.063 0H205.7v-100.8h46.54zM104.848 27.274c0-4.205 2.932-7.758 6.406-7.758h297.488c3.474 0 6.41 3.553 6.41 7.758v77.574c0 4.2-2.936 7.758-6.41 7.758H111.254c-3.474 0-6.406-3.553-6.406-7.758zM19.516 370.979c0-18.106 10.655-33.4 23.27-33.4s23.273 15.3 23.273 33.4c0 19.043-7.768 44.985-15.125 58.439v-22.024a7.758 7.758 0 0 0-15.516 0v23.461c-7.533-13.085-15.902-40.41-15.902-59.876z" opacity="1" data-original="url(#t)"></path></g></svg>