<svg xmlns="http://www.w3.org/2000/svg" version="1.1" xmlns:xlink="http://www.w3.org/1999/xlink" width="512" height="512" x="0" y="0" viewBox="0 0 64 64" style="enable-background:new 0 0 512 512" xml:space="preserve" class=""><rect width="64" height="64" rx="12.8" ry="12.8" fill="#bac8d3" shape="rounded"></rect><g transform="matrix(0.58,0,0,0.58,13.440000000000001,13.440045061111451)"><defs><linearGradient id="a" x1="32" x2="32" y1="5" y2="59" gradientUnits="userSpaceOnUse"><stop offset="0" stop-color="#4800bf"></stop><stop offset="1" stop-color="#e5a100"></stop></linearGradient></defs><path d="M62 43h-7v-6.586l.293.293a1 1 0 0 0 1.414 0l3-3a1 1 0 0 0 0-1.414L54 26.586V15h1a1 1 0 0 0 1-1v-4a1 1 0 0 0-1-1H43a1 1 0 0 0-1 1v4a1 1 0 0 0 1 1h1v1.586L32.707 5.293a1 1 0 0 0-1.414 0l-27 27a1 1 0 0 0 0 1.414l3 3a1 1 0 0 0 1.414 0L9 36.414V49H5a4 4 0 0 0-4 4v5a1 1 0 0 0 1 1h60a1 1 0 0 0 1-1V44a1 1 0 0 0-1-1ZM44 11h10v2H44Zm2 4h6v9.586l-6-6ZM8 34.586 6.414 33 32 7.414 57.586 33 56 34.586 32.707 11.293a1 1 0 0 0-1.414 0ZM13 57H3v-4a2 2 0 0 1 2-2h6a2 2 0 0 1 2 2Zm15 0h-9V41h9Zm5-13v13h-3V40a1 1 0 0 0-1-1H18a1 1 0 0 0-1 1v17h-2v-4a4 4 0 0 0-4-4V34.414l21-21 21 21V43h-3v-3a1 1 0 0 0-1-1H35a1 1 0 0 0-1 1v3a1 1 0 0 0-1 1Zm15-1H36v-2h12Zm13 14H35V45h26Zm-22-8h-2v-2h6v2h-2v6h-2Zm8 4h2v2h2v-7a1 1 0 0 0-1-1h-4a1 1 0 0 0-1 1v7h2Zm2-4v2h-2v-2Zm6 6h-2v-2a1 1 0 0 1 .293-.707L54.586 51l-1.293-1.293A1 1 0 0 1 53 49v-2h2v1.586l1 1 1-1V47h2v2a1 1 0 0 1-.293.707L57.414 51l1.293 1.293A1 1 0 0 1 59 53v2h-2v-1.586l-1-1-1 1ZM39 28a7 7 0 1 0-7 7 7.008 7.008 0 0 0 7-7Zm-2.1-1H33v-3.9a5.016 5.016 0 0 1 3.9 3.9ZM31 23.1V27h-3.9a5.016 5.016 0 0 1 3.9-3.9ZM27.1 29H31v3.9a5.016 5.016 0 0 1-3.9-3.9Zm5.9 3.9V29h3.9a5.016 5.016 0 0 1-3.9 3.9Z" data-name="Layer 32" style="fill:url(#a)" fill=""></path></g></svg>