<svg xmlns="http://www.w3.org/2000/svg" version="1.1" xmlns:xlink="http://www.w3.org/1999/xlink" width="512" height="512" x="0" y="0" viewBox="0 0 512 512" style="enable-background:new 0 0 512 512" xml:space="preserve"><rect width="512" height="512" rx="102.4" ry="102.4" fill="#bac8d3" shape="rounded"></rect><g transform="matrix(0.6699999999999999,0,0,0.6699999999999999,84.31499748229982,84.31500000000003)"><linearGradient id="a" x1="255.5" x2="255.5" y1="5.766" y2="483.153" gradientUnits="userSpaceOnUse"><stop offset="0" stop-color="#00efd1"></stop><stop offset="1" stop-color="#00acea"></stop></linearGradient><linearGradient xlink:href="#a" id="b" x1="256" x2="256" y1="5.766" y2="483.153"></linearGradient><linearGradient xlink:href="#a" id="c" x1="255.922" x2="255.922" y1="5.766" y2="483.153"></linearGradient><path fill="url(#a)" d="M359.708 11H151.292A41.292 41.292 0 0 0 110 52.292v406.416A41.292 41.292 0 0 0 151.292 500h208.416A41.292 41.292 0 0 0 401 458.708V52.292A41.292 41.292 0 0 0 359.708 11zM382 459.4a21.929 21.929 0 0 1-21.693 21.6H151.693A21.929 21.929 0 0 1 130 459.4V407h252zm0-72.4H130V110h252zm0-297H130V52.6A21.929 21.929 0 0 1 151.693 31h208.614A21.929 21.929 0 0 1 382 52.6z" opacity="1" data-original="url(#a)"></path><g fill="url(#b)"><path d="M289.9 48h-67.8a10 10 0 0 0 0 20h67.8a10 10 0 0 0 0-20zM256 474.614a30.862 30.862 0 1 0-30.861-30.862A30.9 30.9 0 0 0 256 474.614zm0-41.723a10.862 10.862 0 1 1-10.861 10.861A10.874 10.874 0 0 1 256 432.891zM256 362.171A106.171 106.171 0 1 0 149.829 256 106.291 106.291 0 0 0 256 362.171zm0-192.342A86.171 86.171 0 1 1 169.829 256 86.268 86.268 0 0 1 256 169.829z" fill="" opacity="1"></path></g><path fill="url(#c)" d="M254.236 251.209A15.879 15.879 0 0 1 243.17 256h-17.054a10.007 10.007 0 0 0-6.868 17.278l42.661 40.316a10 10 0 1 0 13.737-14.534l-25.177-23.793a36.07 36.07 0 0 0 17.87-9.869A34.375 34.375 0 0 0 277.35 250h8.378a10 10 0 1 0 0-20h-8.394c-.566-1-1.285-3-2.152-5h10.546a10 10 0 0 0 0-20h-59.612a10 10 0 1 0 0 20h17.054a16.547 16.547 0 0 1 11.937 5h-28.991a10 10 0 1 0 0 20h29.014c-.285 1-.578.893-.894 1.209z" opacity="1" data-original="url(#c)"></path></g></svg>