<svg xmlns="http://www.w3.org/2000/svg" version="1.1" xmlns:xlink="http://www.w3.org/1999/xlink" width="512" height="512" x="0" y="0" viewBox="0 0 484 484" style="enable-background:new 0 0 512 512" xml:space="preserve"><rect width="484" height="484" rx="96.8" ry="96.8" fill="#bac8d3" shape="rounded"></rect><g transform="matrix(0.6,0,0,0.6,96.80000000000001,133.6)"><linearGradient id="a"><stop offset="0" stop-color="#00efd1"></stop><stop offset="1" stop-color="#00acea"></stop></linearGradient><linearGradient xlink:href="#a" id="b" x1="242" x2="242" y1="-73" y2="409.415" gradientUnits="userSpaceOnUse"></linearGradient><linearGradient xlink:href="#a" id="c" x1="131.5" x2="131.5" y1="-73" y2="409.415" gradientUnits="userSpaceOnUse"></linearGradient><linearGradient xlink:href="#a" id="d" x1="334" x2="334" y1="-73" y2="409.415" gradientUnits="userSpaceOnUse"></linearGradient><linearGradient xlink:href="#a" id="e" x1="374" x2="374" y1="-73" y2="409.415" gradientUnits="userSpaceOnUse"></linearGradient><linearGradient xlink:href="#a" id="f" x1="414" x2="414" y1="-73" y2="409.415" gradientUnits="userSpaceOnUse"></linearGradient><path fill="url(#b)" d="M484 48c0-26.508-21.492-48-48-48H48C21.492 0 0 21.492 0 48v247c0 26.508 21.492 48 48 48h388c26.508 0 48-21.492 48-48zM16 106h452v48H16zm32-90h388c17.645 0 32 13.855 32 31.5V90H16V47.5C16 29.855 30.355 16 48 16zm388 311H48c-17.645 0-32-14.855-32-32.5V170h452v124.5c0 17.645-14.355 32.5-32 32.5zm0 0" opacity="1" data-original="url(#b)"></path><path fill="url(#c)" d="M202 221a8 8 0 0 0-8-8H69a8 8 0 0 0-8 8v43a8 8 0 0 0 8 8h125a8 8 0 0 0 8-8zm-16 35H77v-27h109zm0 0" opacity="1" data-original="url(#c)"></path><path fill="url(#d)" d="M334 216a8 8 0 0 0-8 8v37a8 8 0 0 0 16 0v-37a8 8 0 0 0-8-8zm0 0" opacity="1" data-original="url(#d)"></path><path fill="url(#e)" d="M374 216a8 8 0 0 0-8 8v37a8 8 0 0 0 16 0v-37a8 8 0 0 0-8-8zm0 0" opacity="1" data-original="url(#e)"></path><path fill="url(#f)" d="M414 216a8 8 0 0 0-8 8v37a8 8 0 0 0 16 0v-37a8 8 0 0 0-8-8zm0 0" opacity="1" data-original="url(#f)"></path></g></svg>