<svg xmlns="http://www.w3.org/2000/svg" version="1.1" xmlns:xlink="http://www.w3.org/1999/xlink" width="512" height="512" x="0" y="0" viewBox="0 0 500 500" style="enable-background:new 0 0 512 512" xml:space="preserve" class=""><rect width="500" height="500" rx="100" ry="100" fill="#bac8d3" shape="rounded"></rect><g transform="matrix(0.7,0,0,0.7,75.00015335083009,75.0000011444092)"><linearGradient id="a"><stop offset="0" stop-color="#179ff4"></stop><stop offset="1" stop-color="#d41bd3"></stop></linearGradient><linearGradient xlink:href="#a" id="b" x1="135.547" x2="371.528" y1="55.416" y2="399.873" gradientUnits="userSpaceOnUse"></linearGradient><linearGradient xlink:href="#a" id="c" x1="115.13" x2="351.112" y1="69.403" y2="413.86" gradientUnits="userSpaceOnUse"></linearGradient><linearGradient xlink:href="#a" id="d" x1="101.841" x2="337.823" y1="78.507" y2="422.964" gradientUnits="userSpaceOnUse"></linearGradient><linearGradient xlink:href="#a" id="e" x1="1.426" x2="237.408" y1="147.299" y2="491.757" gradientUnits="userSpaceOnUse"></linearGradient><linearGradient xlink:href="#a" id="f" x1="11.79" x2="247.772" y1="140.199" y2="484.657" gradientUnits="userSpaceOnUse"></linearGradient><linearGradient xlink:href="#a" id="g" x1="106.618" x2="342.6" y1="75.234" y2="419.692" gradientUnits="userSpaceOnUse"></linearGradient><linearGradient xlink:href="#a" id="h" x1="-18.913" x2="217.069" y1="161.233" y2="505.691" gradientUnits="userSpaceOnUse"></linearGradient><linearGradient xlink:href="#a" id="i" x1="10.255" x2="246.237" y1="141.251" y2="485.708" gradientUnits="userSpaceOnUse"></linearGradient><linearGradient xlink:href="#a" id="j" x1="50.862" x2="286.844" y1="113.431" y2="457.889" gradientUnits="userSpaceOnUse"></linearGradient><linearGradient xlink:href="#a" id="k" x1="155.56" x2="391.542" y1="41.705" y2="386.163" gradientUnits="userSpaceOnUse"></linearGradient><linearGradient xlink:href="#a" id="l" x1="163.748" x2="399.73" y1="36.095" y2="380.553" gradientUnits="userSpaceOnUse"></linearGradient><path fill="url(#b)" d="M66.26 196.746a7.5 7.5 0 0 0 7.5-7.5c0-76.1 61.912-138.013 138.012-138.013 36.203 0 70.414 13.915 96.332 39.181 25.87 25.22 40.654 58.968 41.629 95.026.112 4.142 3.579 7.422 7.7 7.295a7.5 7.5 0 0 0 7.294-7.7c-1.081-39.983-17.472-77.401-46.153-105.362-28.735-28.012-66.664-43.44-106.802-43.44-84.371 0-153.012 68.642-153.012 153.013a7.5 7.5 0 0 0 7.5 7.5z" opacity="1" data-original="url(#b)"></path><path fill="url(#c)" d="M259.143 218.939a7.5 7.5 0 0 0 7.5-7.5v-21.474c0-30.194-24.234-55.13-54.02-55.584-14.809-.233-28.772 5.38-39.335 15.784-10.567 10.407-16.387 24.286-16.387 39.08v56.67a7.5 7.5 0 0 0 15 0v-56.67c0-10.744 4.23-20.828 11.912-28.393 7.678-7.562 17.822-11.617 28.58-11.473 21.643.33 39.25 18.537 39.25 40.586v21.473a7.5 7.5 0 0 0 7.5 7.5z" opacity="1" data-original="url(#c)"></path><path fill="url(#d)" d="M66.26 254.533h24.318c17.545 0 31.819-14.274 31.819-31.819v-33.468c0-23.93 9.373-46.427 26.393-63.35 17.017-16.92 39.573-26.185 63.506-26.025 46.452.268 85.384 37.201 88.632 84.084a7.5 7.5 0 1 0 14.964-1.037c-3.787-54.668-49.254-97.734-103.51-98.047l-.615-.001c-27.727 0-53.83 10.779-73.553 30.39-19.873 19.758-30.817 46.034-30.817 73.985v33.47c0 9.273-7.545 16.818-16.819 16.818H66.26a7.5 7.5 0 0 0 0 15z" opacity="1" data-original="url(#d)"></path><path fill="url(#e)" d="M276.127 432.877c-19.683 10.395-41.937 15.89-64.355 15.89-32.797 0-64.582-11.702-89.5-32.95-24.644-21.016-41.181-50.071-46.564-81.814a7.5 7.5 0 0 0-14.789 2.508c5.97 35.206 24.303 67.424 51.621 90.719 27.63 23.56 62.871 36.537 99.232 36.537 24.85 0 49.526-6.096 71.36-17.627a7.5 7.5 0 1 0-7.005-13.263z" opacity="1" data-original="url(#e)"></path><path fill="url(#f)" d="m211.163 415.128.6.002c5.875 0 11.764-.494 17.512-1.468a7.5 7.5 0 0 0-2.508-14.79 90.828 90.828 0 0 1-15.518 1.257c-36.098-.208-68.344-22.24-82.151-56.128a7.5 7.5 0 0 0-13.892 5.66c16.104 39.527 53.77 65.225 95.957 65.467z" opacity="1" data-original="url(#f)"></path><path fill="url(#g)" d="M219.272 262.609v-67.766a7.5 7.5 0 0 0-15 0v67.766a7.5 7.5 0 0 0 15 0z" opacity="1" data-original="url(#g)"></path><path fill="url(#h)" d="M66.26 302.34h12.716a7.5 7.5 0 0 0 0-15H66.26a7.5 7.5 0 0 0 0 15z" opacity="1" data-original="url(#h)"></path><path fill="url(#i)" d="M118.34 301.76c.46-.18.89-.42 1.3-.69.41-.27.79-.58 1.14-.93.35-.34.66-.73.93-1.14.27-.4.5-.84.69-1.29.19-.46.33-.93.43-1.41a7.19 7.19 0 0 0 0-2.93 7.616 7.616 0 0 0-1.12-2.69c-.27-.42-.58-.8-.93-1.14-.35-.35-.73-.66-1.14-.94-.41-.27-.84-.5-1.3-.69-.45-.18-.92-.33-1.4-.42-.97-.2-1.96-.2-2.93 0-.48.09-.95.24-1.4.42-.45.19-.89.42-1.3.69-.41.28-.79.59-1.14.94-.34.34-.66.72-.93 1.14a7.616 7.616 0 0 0-1.12 2.69 8.1 8.1 0 0 0-.14 1.47c0 .49.05.98.14 1.46.1.48.24.95.43 1.41a7.597 7.597 0 0 0 1.62 2.43 7.55 7.55 0 0 0 5.31 2.2c.48 0 .98-.05 1.46-.15.48-.09.95-.24 1.4-.43z" opacity="1" data-original="url(#i)"></path><path fill="url(#j)" d="M175.347 294.84a7.5 7.5 0 0 0-15 0c0 26.421 21.495 47.917 47.917 47.917h10.418a7.5 7.5 0 0 0 0-15h-10.418c-18.15 0-32.917-14.767-32.917-32.918z" opacity="1" data-original="url(#j)"></path><path fill="url(#k)" d="M346.441 225.533c-52.272 0-94.798 42.526-94.798 94.799 0 52.272 42.527 94.798 94.798 94.798 52.273 0 94.8-42.527 94.8-94.799 0-52.272-42.527-94.798-94.8-94.798zm0 174.597c-44 0-79.798-35.797-79.798-79.798 0-44.002 35.798-79.8 79.798-79.8s79.8 35.798 79.8 79.8c0 44-35.799 79.798-79.8 79.798z" opacity="1" data-original="url(#k)"></path><path fill="url(#l)" d="m375.444 291.016-36.811 36.81-15.283-15.282a7.5 7.5 0 0 0-10.606 10.606l20.586 20.586c1.464 1.465 3.383 2.197 5.303 2.197s3.839-.732 5.303-2.197l42.114-42.114a7.5 7.5 0 0 0-10.606-10.606z" opacity="1" data-original="url(#l)"></path></g></svg>