<svg xmlns="http://www.w3.org/2000/svg" version="1.1" xmlns:xlink="http://www.w3.org/1999/xlink" width="512" height="512" x="0" y="0" viewBox="0 0 436 436.836" style="enable-background:new 0 0 512 512" xml:space="preserve"><rect width="436" height="436.836" rx="87.2" ry="87.2" fill="#bac8d3" shape="rounded"></rect><g transform="matrix(0.5,0,0,0.5,120.96049880981447,114.20899963378908)"><linearGradient id="a"><stop offset="0" stop-color="#6078ea"></stop><stop offset="1" stop-color="#17ead9"></stop></linearGradient><linearGradient xlink:href="#a" id="b" x1="308.452" x2="84.452" y1="391.875" y2="92.875" gradientUnits="userSpaceOnUse"></linearGradient><linearGradient xlink:href="#a" id="c" x1="295.031" x2="71.031" y1="401.93" y2="102.93" gradientUnits="userSpaceOnUse"></linearGradient><linearGradient xlink:href="#a" id="d" x1="281.61" x2="57.61" y1="411.984" y2="112.984" gradientUnits="userSpaceOnUse"></linearGradient><linearGradient xlink:href="#a" id="e" x1="268.189" x2="44.189" y1="422.038" y2="123.038" gradientUnits="userSpaceOnUse"></linearGradient><linearGradient xlink:href="#a" id="f" x1="254.768" x2="30.768" y1="432.093" y2="133.093" gradientUnits="userSpaceOnUse"></linearGradient><linearGradient xlink:href="#a" id="g" x1="241.347" x2="17.347" y1="442.147" y2="143.147" gradientUnits="userSpaceOnUse"></linearGradient><linearGradient xlink:href="#a" id="h" x1="227.927" x2="3.927" y1="452.201" y2="153.201" gradientUnits="userSpaceOnUse"></linearGradient><linearGradient xlink:href="#a" id="i" x1="377.199" x2="153.199" y1="340.372" y2="41.372" gradientUnits="userSpaceOnUse"></linearGradient><linearGradient xlink:href="#a" id="j" x1="377.199" x2="153.199" y1="340.372" y2="41.372" gradientUnits="userSpaceOnUse"></linearGradient><linearGradient xlink:href="#a" id="k" x1="297" x2="73" y1="400.454" y2="101.454" gradientUnits="userSpaceOnUse"></linearGradient><linearGradient xlink:href="#a" id="l" x1="457.393" x2="233.393" y1="280.293" y2="-18.707" gradientUnits="userSpaceOnUse"></linearGradient><path fill="url(#b)" d="M417.422 257.023h-411c-3.317 0-6 2.688-6 6s2.683 6 6 6h411a6.001 6.001 0 0 0 0-12zm0 0" opacity="1" data-original="url(#b)"></path><path fill="url(#c)" d="M417.422 284.992h-411c-3.317 0-6 2.688-6 6s2.683 6 6 6h411a6.001 6.001 0 0 0 0-12zm0 0" opacity="1" data-original="url(#c)"></path><path fill="url(#d)" d="M417.422 312.96h-411c-3.317 0-6 2.688-6 6s2.683 6 6 6h411a6.001 6.001 0 0 0 0-12zm0 0" opacity="1" data-original="url(#d)"></path><path fill="url(#e)" d="M417.422 340.93h-411c-3.317 0-6 2.687-6 6s2.683 6 6 6h411c3.312 0 6-2.688 6-6s-2.688-6-6-6zm0 0" opacity="1" data-original="url(#e)"></path><path fill="url(#f)" d="M417.422 368.898h-411c-3.317 0-6 2.688-6 6s2.683 6 6 6h411a6.001 6.001 0 0 0 0-12zm0 0" opacity="1" data-original="url(#f)"></path><path fill="url(#g)" d="M417.422 396.867h-411c-3.317 0-6 2.688-6 6s2.683 6 6 6h411a6.001 6.001 0 0 0 0-12zm0 0" opacity="1" data-original="url(#g)"></path><path fill="url(#h)" d="M417.422 424.836h-411c-3.317 0-6 2.687-6 6s2.683 6 6 6h411c3.312 0 6-2.688 6-6s-2.688-6-6-6zm0 0" opacity="1" data-original="url(#h)"></path><path fill="url(#i)" d="M211.922 54.906c-35.758 0-64.852 29.094-64.852 64.852 0 35.762 29.094 64.851 64.852 64.851 35.762 0 64.851-29.09 64.851-64.851 0-35.758-29.09-64.852-64.851-64.852zm0 117.703c-29.14 0-52.852-23.707-52.852-52.851 0-29.145 23.711-52.852 52.852-52.852 29.144 0 52.851 23.707 52.851 52.852 0 29.144-23.707 52.851-52.851 52.851zm0 0" opacity="1" data-original="url(#i)"></path><path fill="url(#j)" d="M423.422 64.863V6c0-3.313-2.688-6-6-6h-58.86c-.023 0-.046.004-.07.004H65.348c-.024 0-.047-.004-.07-.004H6.417c-3.313 0-6 2.688-6 6v58.863c0 .012.004.024.004.04v168.62c0 .2.008.403.027.598.016.137.04.266.059.395.012.062.015.129.031.187.031.156.07.313.113.461.012.04.02.074.032.11.043.152.097.296.156.445.015.035.027.07.043.11.054.132.117.26.183.39.024.047.043.094.067.14.062.11.129.215.195.325.035.058.07.12.11.18.058.09.124.171.187.253.055.074.105.149.164.219.055.07.121.133.18.2.07.077.136.155.21.23.09.093.188.175.286.261.047.043.09.086.14.13.086.07.18.132.27.202.066.047.133.102.2.149.081.05.163.097.245.144.086.055.168.11.258.157.07.039.145.07.219.105.101.05.207.102.312.149.07.027.141.05.207.074.118.043.23.09.344.125.086.023.168.043.254.062.106.028.207.059.316.082.153.031.301.051.454.07.043.004.086.012.128.016.204.024.407.035.61.035h58.863c.004-.004.012 0 .02 0 .007 0 .011-.004.02-.004h293.218c.008 0 .012.004.02.004h58.863c3.312 0 6-2.687 6-6V174.66c0-.012-.004-.027-.004-.039V64.863zm-411-52.86h46.523c-1.332 11.845-6.593 22.813-15.152 31.368-8.559 8.563-19.527 13.824-31.375 15.156V12.004zm0 215.52v-46.527c24.363 2.766 43.758 22.16 46.52 46.527zm399 0h-46.52c2.77-24.367 22.16-43.757 46.52-46.527zm0-58.578c-30.977 2.86-55.707 27.594-58.57 58.575H70.988c-2.855-30.985-27.582-55.72-58.566-58.575V70.578c15.05-1.371 29.027-7.89 39.855-18.719s17.348-24.804 18.72-39.855h281.855c2.859 30.98 27.59 55.71 58.57 58.57zm0-110.422c-24.36-2.765-43.75-22.16-46.524-46.52h46.524zm0 0" opacity="1" data-original="url(#j)"></path><path fill="url(#k)" d="M86.715 92.43c-15.07 0-27.332 12.261-27.332 27.332 0 15.066 12.262 27.328 27.332 27.328 15.066 0 27.328-12.262 27.328-27.328 0-15.07-12.258-27.332-27.328-27.332zm0 42.66c-8.453 0-15.332-6.88-15.332-15.332 0-8.453 6.879-15.328 15.332-15.328s15.328 6.875 15.328 15.328-6.875 15.332-15.328 15.332zm0 0" opacity="1" data-original="url(#k)"></path><path fill="url(#l)" d="M337.129 92.43c-15.07 0-27.332 12.261-27.332 27.332 0 15.066 12.262 27.328 27.332 27.328 15.066 0 27.328-12.262 27.328-27.328 0-15.07-12.262-27.332-27.328-27.332zm0 42.66c-8.453 0-15.332-6.88-15.332-15.332 0-8.453 6.879-15.328 15.332-15.328 8.45 0 15.328 6.875 15.328 15.328s-6.879 15.332-15.328 15.332zm0 0" opacity="1" data-original="url(#l)"></path></g></svg>