<svg xmlns="http://www.w3.org/2000/svg" version="1.1" xmlns:xlink="http://www.w3.org/1999/xlink" width="512" height="512" x="0" y="0" viewBox="0 0 512 512" style="enable-background:new 0 0 512 512" xml:space="preserve"><rect width="512" height="512" rx="102.4" ry="102.4" fill="#bac8d3" shape="rounded"></rect><g transform="matrix(0.6499999999999998,0,0,0.6499999999999998,84.59984111785894,64.59989986419683)"><linearGradient id="a"><stop offset=".144" stop-color="#c6c"></stop><stop offset=".666" stop-color="#c9f"></stop></linearGradient><linearGradient xlink:href="#a" id="b" x1="118.034" x2="450.435" y1="474.545" y2="142.144" gradientUnits="userSpaceOnUse"></linearGradient><linearGradient xlink:href="#a" id="c" x1="398.938" x2="449.519" y1="456.478" y2="405.896" gradientUnits="userSpaceOnUse"></linearGradient><linearGradient xlink:href="#a" id="d" x1="158.408" x2="173.858" y1="438.913" y2="423.463" gradientUnits="userSpaceOnUse"></linearGradient><linearGradient xlink:href="#a" id="e" x1="203.665" x2="219.115" y1="438.913" y2="423.463" gradientUnits="userSpaceOnUse"></linearGradient><linearGradient xlink:href="#a" id="f" x1="248.923" x2="264.372" y1="438.913" y2="423.463" gradientUnits="userSpaceOnUse"></linearGradient><linearGradient xlink:href="#a" id="g" x1="294.179" x2="309.626" y1="438.912" y2="423.465" gradientUnits="userSpaceOnUse"></linearGradient><linearGradient xlink:href="#a" id="h" x1="339.433" x2="354.882" y1="438.913" y2="423.463" gradientUnits="userSpaceOnUse"></linearGradient><path fill="url(#b)" d="M446.188 243.233h-35.773l12.058-7.935c20.585-13.539 26.295-41.184 12.74-61.779-98.324-149.415 2.603 3.944-87.16-132.45-13.514-20.538-41.222-26.263-61.784-12.74L41.303 189.534c-20.588 13.541-26.305 41.189-12.74 61.784 21.708 32.989 62.252 94.603 79.765 121.214v73.859c0 24.597 20.013 44.61 44.61 44.61h293.25c24.597 0 44.61-20.013 44.61-44.61V287.843c0-24.597-20.012-44.61-44.61-44.61zm-28.998-15.959-24.251 15.959H196.638l190.47-125.339 40.082 60.909c10.604 16.118 6.118 37.862-10 48.471zm63.998 136.598h-363.25v-45.834h363.25zm-372.86-8.817-24.663-37.48 24.663-16.23v11.887zm0-67.212v2.001l-29.945 19.705-25.197-38.29L356.63 71.58l25.197 38.29L179.16 243.233h-26.222c-24.597 0-44.61 20.013-44.61 44.61zm-61.741-90.285L291.553 36.354c16.033-10.549 37.809-6.203 48.476 9.999l11.318 17.2L47.906 263.234l-11.318-17.2c-10.63-16.153-6.168-37.834 9.999-48.476zm399.601 283.833h-293.25c-19.299 0-35-15.7-35-35v-72.909h363.25v72.909c0 19.3-15.7 35-35 35zm35-172.963h-363.25v-20.585c0-19.299 15.7-35 35-35h293.25c19.299 0 35 15.7 35 35z" opacity="1" data-original="url(#b)"></path><path fill="url(#c)" d="M437.714 400.988h-26.971c-9.197 0-16.676 7.48-16.676 16.676v27.042c0 9.197 7.48 16.681 16.676 16.681h26.971c9.197 0 16.676-7.484 16.676-16.681v-27.042c.001-9.196-7.479-16.676-16.676-16.676zm7.067 43.719c0 3.899-3.172 7.071-7.067 7.071h-26.971c-3.895 0-7.067-3.172-7.067-7.071v-27.042c0-3.895 3.172-7.067 7.067-7.067h26.971c3.895 0 7.067 3.172 7.067 7.067z" opacity="1" data-original="url(#c)"></path><path fill="url(#d)" d="M174.785 426.383H157.48c-2.656 0-4.805 2.149-4.805 4.805s2.149 4.805 4.805 4.805h17.305c2.656 0 4.805-2.149 4.805-4.805s-2.149-4.805-4.805-4.805z" opacity="1" data-original="url(#d)"></path><path fill="url(#e)" d="M220.043 426.383h-17.305c-2.656 0-4.805 2.149-4.805 4.805s2.149 4.805 4.805 4.805h17.305c2.656 0 4.805-2.149 4.805-4.805s-2.149-4.805-4.805-4.805z" opacity="1" data-original="url(#e)"></path><path fill="url(#f)" d="M265.3 426.383h-17.305c-2.656 0-4.805 2.149-4.805 4.805s2.149 4.805 4.805 4.805H265.3c2.656 0 4.805-2.149 4.805-4.805s-2.149-4.805-4.805-4.805z" opacity="1" data-original="url(#f)"></path><path fill="url(#g)" d="M310.553 426.383h-17.301c-2.656 0-4.805 2.149-4.805 4.805s2.149 4.805 4.805 4.805h17.301c2.656 0 4.805-2.149 4.805-4.805s-2.15-4.805-4.805-4.805z" opacity="1" data-original="url(#g)"></path><path fill="url(#h)" d="M355.81 426.383h-17.305c-2.656 0-4.805 2.149-4.805 4.805s2.149 4.805 4.805 4.805h17.305c2.656 0 4.805-2.149 4.805-4.805s-2.149-4.805-4.805-4.805z" opacity="1" data-original="url(#h)"></path></g></svg>