<svg xmlns="http://www.w3.org/2000/svg" version="1.1" xmlns:xlink="http://www.w3.org/1999/xlink" width="512" height="512" x="0" y="0" viewBox="0 0 512 512" style="enable-background:new 0 0 512 512" xml:space="preserve"><rect width="512" height="512" rx="102.4" ry="102.4" fill="#bac8d3" shape="rounded"></rect><g transform="matrix(0.65,0,0,0.65,84.66509628295898,74.53648686408994)"><linearGradient id="a"><stop offset="0" stop-color="#00ffed"></stop><stop offset=".99" stop-color="#9d00c6"></stop></linearGradient><linearGradient xlink:href="#a" id="b" x1="138.821" x2="138.821" y1="513" y2="4.953" gradientUnits="userSpaceOnUse"></linearGradient><linearGradient xlink:href="#a" id="c" x1="154.462" x2="154.462" y1="513" y2="4.953" gradientUnits="userSpaceOnUse"></linearGradient><linearGradient xlink:href="#a" id="d" x1="170.038" x2="170.038" y1="513" y2="4.953" gradientUnits="userSpaceOnUse"></linearGradient><linearGradient xlink:href="#a" id="e" x1="272.012" x2="272.012" y1="513" y2="4.953" gradientUnits="userSpaceOnUse"></linearGradient><path fill="url(#b)" d="M199.509 26.156a6.76 6.76 0 1 0 0-13.518c-34.223 0-66.421 13.349-90.66 37.59-24.167 24.167-37.477 56.243-37.477 90.328 0 3.733 3.028 6.759 6.761 6.759s6.761-3.025 6.761-6.759c0-30.474 11.903-59.155 33.516-80.771 21.684-21.683 50.487-33.629 81.099-33.629z" opacity="1" data-original="url(#b)"></path><path fill="url(#c)" d="M109.424 147h.016c3.733 0 6.753-2.884 6.745-6.617-.051-22.111 8.578-42.871 24.355-58.644 15.709-15.707 36.649-24.32 58.961-24.32 3.733 0 6.761-3.006 6.761-6.739 0-3.732-3.027-6.749-6.761-6.749-25.923 0-50.257 10.061-68.576 28.376-18.282 18.28-28.32 42.37-28.262 68.104.01 3.731 3.034 6.589 6.761 6.589z" opacity="1" data-original="url(#c)"></path><path fill="url(#d)" d="M199.402 75.24c-17.49 0-33.945 6.822-46.356 19.231-12.279 12.417-19.074 28.608-19.135 45.934-.012 3.732 3.004 6.595 6.737 6.595h.023c3.724 0 6.747-2.823 6.761-6.548.045-13.762 5.454-26.687 15.199-36.542 9.832-9.832 22.892-15.2 36.771-15.2 3.733 0 6.762-3.002 6.762-6.735s-3.028-6.735-6.762-6.735z" opacity="1" data-original="url(#d)"></path><path fill="url(#e)" d="M406.136 435h-3.527l-55.614-96.529a50.494 50.494 0 0 0 7.989-27.299c0-18.43-9.935-34.625-24.723-43.434 57.188-58.923 66.683-151.191 22.337-220.416a6.766 6.766 0 0 0-4.965-3.085 6.785 6.785 0 0 0-5.507 1.935L228.347 159.948l-9.105-9.106c2.688-4.408 4.128-9.481 4.128-14.776 0-7.604-2.961-14.752-8.337-20.128-5.373-5.375-12.521-8.335-20.125-8.335s-14.751 2.959-20.129 8.334c-11.095 11.101-11.095 29.157 0 40.25 5.376 5.379 12.525 8.338 20.129 8.338 5.295 0 10.368-1.441 14.775-4.127l9.105 9.105-113.782 113.784a6.748 6.748 0 0 0-1.941 5.502 6.768 6.768 0 0 0 3.074 4.967c28.887 18.508 62.514 28.01 96.323 28.002 17.39 0 34.828-2.522 51.688-7.621.534 8.849 3.36 17.287 7.888 24.334L206.424 435h-1.653C185.752 435 170 450.065 170 469.084v23.522c0 3.733 3.307 6.394 7.04 6.394h256.827c3.732 0 7.133-2.66 7.133-6.394v-23.522C441 450.065 425.155 435 406.136 435zM184.339 146.632c-5.825-5.828-5.825-15.31-.002-21.133a14.856 14.856 0 0 1 10.57-4.377c3.992 0 7.745 1.556 10.564 4.374a14.858 14.858 0 0 1 4.378 10.571 14.84 14.84 0 0 1-4.378 10.566c-5.646 5.638-15.493 5.638-21.132-.001zM358.402 435l-42.885-74.484c8.335-1.861 15.896-5.684 22.12-11.111L386.996 435zm-15.612 0h-76.547l38.272-66.296zm-1.328-123.931c0 20.371-16.573 36.945-36.943 36.945-20.373 0-36.948-16.574-36.948-36.945s16.575-36.945 36.948-36.945c20.37 0 36.943 16.574 36.943 36.945zm-220.795-24.324L345.586 61.824c36.291 63.745 25.64 145.821-26.73 198.194-.705.704-1.417 1.398-2.132 2.089a50.333 50.333 0 0 0-12.205-1.501c-23.864 0-43.897 16.648-49.127 38.939-44.549 15.109-94.049 10.348-134.725-12.8zm150.729 62.556c6.224 5.428 13.782 9.454 22.116 11.315L250.63 435h-28.594zM427 486H184v-16.916c0-11.568 9.208-21.084 20.771-21.084h201.365c11.563 0 20.864 9.516 20.864 21.084z" opacity="1" data-original="url(#e)"></path></g></svg>