<svg xmlns="http://www.w3.org/2000/svg" version="1.1" xmlns:xlink="http://www.w3.org/1999/xlink" width="512" height="512" x="0" y="0" viewBox="0 0 32 32" style="enable-background:new 0 0 512 512" xml:space="preserve" class=""><rect width="32" height="32" rx="6.4" ry="6.4" fill="#bac8d3" shape="rounded"></rect><g transform="matrix(0.6199999999999999,0,0,0.6199999999999999,6.080000000000002,6.078866741657258)"><linearGradient id="a" x2="31.57" y1="11" y2="11" gradientUnits="userSpaceOnUse"><stop offset="0" stop-color="#7738c8"></stop><stop offset="1" stop-color="#461d93"></stop></linearGradient><linearGradient xlink:href="#a" id="b" x2="31.57" y1="6" y2="6" gradientTransform="rotate(30 27.866 5.992)"></linearGradient><linearGradient xlink:href="#a" id="c" x2="31.57" y1="16" y2="16" gradientTransform="rotate(60 27.865 16.002)"></linearGradient><linearGradient xlink:href="#a" id="d" x2="31.57" y1="6" y2="6" gradientTransform="rotate(60 4.132 5.997)"></linearGradient><linearGradient xlink:href="#a" id="e" x2="31.57" y1="16" y2="16" gradientTransform="rotate(30 4.126 15.994)"></linearGradient><linearGradient xlink:href="#a" id="f" x2="31.57" y1="14.5" y2="14.5"></linearGradient><linearGradient xlink:href="#a" id="g" x2="31.57" y1="30" y2="30"></linearGradient><linearGradient xlink:href="#a" id="h" x2="31.57"></linearGradient><path fill="url(#a)" d="M27 10h4v2h-4z" opacity="1" data-original="url(#a)"></path><path fill="url(#b)" d="M25.87 5h4v2h-4z" transform="rotate(-30 27.85 6.004)" opacity="1" data-original="url(#b)"></path><path fill="url(#c)" d="M26.87 14h2v4h-2z" transform="rotate(-60 27.874 16.001)" opacity="1" data-original="url(#c)"></path><path fill="url(#a)" d="M1 10h4v2H1z" opacity="1" data-original="url(#a)"></path><path fill="url(#d)" d="M3.13 4h2v4h-2z" transform="rotate(-60 4.133 6)" opacity="1" data-original="url(#d)"></path><path fill="url(#e)" d="M2.13 15h4v2h-4z" transform="rotate(-30 4.13 16.007)" opacity="1" data-original="url(#e)"></path><path fill="url(#f)" d="M25.5 10.5a9.5 9.5 0 1 0-15 7.74V22H9v2h2.5v3a1 1 0 0 0 1 1h7a1 1 0 0 0 1-1v-3H23v-2h-1.5v-3.76a9.47 9.47 0 0 0 4-7.74zm-7 15.5h-5v-2h5zm-6-4v-4.3a1 1 0 0 0-.47-.85 7.5 7.5 0 1 1 7.94 0 1 1 0 0 0-.47.85V22z" opacity="1" data-original="url(#f)"></path><path fill="url(#g)" d="M14 29h4v2h-4z" opacity="1" data-original="url(#g)"></path><path fill="url(#h)" d="M18.5 10h-2.92l2.31-2.91-1.56-1.25-3.61 4.54a1 1 0 0 0-.12 1 1 1 0 0 0 .9.57h2.79l-2.5 2.84 1.51 1.32 3.95-4.5A1 1 0 0 0 18.5 10z" opacity="1" data-original="url(#h)"></path></g></svg>