<svg xmlns="http://www.w3.org/2000/svg" version="1.1" xmlns:xlink="http://www.w3.org/1999/xlink" width="512" height="512" x="0" y="0" viewBox="0 0 1706.66 1706.66" style="enable-background:new 0 0 512 512" xml:space="preserve" fill-rule="evenodd"><rect width="1706.66" height="1706.66" rx="341.332" ry="341.332" fill="#bac8d3" shape="rounded"></rect><g transform="matrix(0.5499999999999998,0,0,0.5499999999999998,384.0052599906922,374.00074958801275)"><linearGradient id="a" x1=".01" x2="1706.65" y1="853.33" y2="853.33" gradientUnits="userSpaceOnUse"><stop offset="0" stop-color="#ffb800"></stop><stop offset="1" stop-color="#ff5329"></stop></linearGradient><path fill="url(#a)" d="m104.28 1490.6-64.28-.02v79.55h1626.67v-79.55l-627.51.02-186.54-.02H105.01l-.72.02zm729.06-40v-402.25H687.52v402.25zm40-402.25v402.25h145.82v-402.25zm237.98-118.85h-106.59c-11.04 0-20-8.97-20-20V235.35c0-11.04 8.97-20 20-20h106.59c11.04 0 20 8.96 20 20V909.5c.02 11.04-8.95 20-20 20zm-86.58-40h66.58V255.35h-66.58zm-322.79 40H595.36c-11.04 0-20-8.97-20-20V235.35c0-11.04 8.96-20 20-20h106.59c11.04 0 20 8.96 20 20V909.5c0 11.04-8.94 20-20 20zm-86.59-40h66.59V255.35h-66.59zm291.28 40H800.06c-11.04 0-20-8.97-20-20V235.35c0-11.04 8.96-20 20-20h106.58c11.04 0 20 8.96 20 20V909.5c0 11.04-8.95 20-20 20zm-86.58-40h66.58V255.35h-66.58zm-172.53 561.1v-422.25c0-11.04 8.96-20 20-20h371.64c11.04 0 20 8.97 20 20v422.25h125.67V136.51H521.87V1450.6h125.67zm-247.96-59.85H226.73c-11.04 0-20-8.97-20-20v-337.08c0-11.04 8.96-20 20-20h172.84c11.04 0 20 8.97 20 20v337.08c0 11.04-8.94 20-20 20zm-152.84-40.02h132.84v-297.06H246.73zm152.84-408.54H226.73c-11.04 0-20-8.97-20-20V585.12c0-11.04 8.96-20 20-20h172.84c11.04 0 20 8.96 20 20v337.07c0 11.04-8.94 20-20 20zm-152.84-40h132.84V605.12H246.73zm1335.69 471.7h-272.43c-11.04 0-20-8.97-20-20v-109.48c0-11.04 8.97-20 20-20h272.43v-60.82h-272.43c-11.04 0-20-8.97-20-20v-109.48c0-11.04 8.97-20 20-20h272.43v-60.85h-272.43c-11.04 0-20-8.97-20-20V823.8c0-11.04 8.97-20 20-20h272.43v-60.84h-272.43c-11.04 0-20-8.96-20-20V613.47c0-11.04 8.97-20 20-20h272.43v-88.19h-357.6v945.32h357.6v-76.7zm-252.43-40h252.41v-69.47h-252.41zm0-210.31h252.41v-69.47h-252.41zm0-210.33h252.41v-69.46h-252.41zm0-210.29h252.41v-69.49h-252.41zM84.29 1450.6V485.28c0-11.04 8.96-20 20-20h377.57V116.52c0-11.04 8.96-20 20-20h702.96c11.04 0 20 8.96 20 20v348.76h377.6c11.04 0 20 8.96 20 20v965.32h64.26c11.04 0 20 8.97 20 20v119.55c0 11.05-8.96 20-20 20H20.01c-11.04 0-20-8.97-20-20V1470.6c0-11.04 8.96-20 20-20zm397.57 0V505.28H124.29v945.32z" opacity="1" data-original="url(#a)"></path></g></svg>