<svg xmlns="http://www.w3.org/2000/svg" version="1.1" xmlns:xlink="http://www.w3.org/1999/xlink" width="512" height="512" x="0" y="0" viewBox="0 0 512 512" style="enable-background:new 0 0 512 512" xml:space="preserve"><rect width="512" height="512" rx="102.4" ry="102.4" fill="#bac8d3" shape="rounded"></rect><g transform="matrix(0.6,0,0,0.6,102.40020332336425,97.39999542236328)"><linearGradient id="a" x1="50.862" x2="377.082" y1="505.52" y2="179.3" gradientUnits="userSpaceOnUse"><stop offset="0" stop-color="#f803fe"></stop><stop offset="1" stop-color="#0ecbde"></stop></linearGradient><path fill="url(#a)" d="M185.49 406.589v-6.31c0-4.202 3.404-7.602 7.602-7.602s7.602 3.4 7.602 7.602v6.31c0 4.202-3.404 7.602-7.602 7.602s-7.602-3.4-7.602-7.602zm313.781 57.648a7.6 7.6 0 0 1-7.602 7.602H20.332c-4.198 0-7.602-3.4-7.602-7.602s3.404-7.602 7.602-7.602H52.2v-280.31H20.688c-5.938 0-9.578-6.517-6.481-11.574L65.87 80.533a7.603 7.603 0 0 1 6.481-3.63H227.19v-29.14c0-4.202 3.404-7.602 7.602-7.602s7.602 3.4 7.602 7.602v29.139h18.72a7.602 7.602 0 0 1 6.481 3.63l51.668 84.218c3.101 5.064-.552 11.574-6.481 11.574h-31.511v43.794h119.393a7.599 7.599 0 0 1 6.184 3.177l60.799 84.998c1.33 1.86 1.196 3.291 1.418 4.425v143.915h22.602a7.603 7.603 0 0 1 7.604 7.604zm-218-228.913v69.793h165.408l-49.923-69.793zM204.9 350.241h-76.33v106.394h76.33zm61.167-173.916H67.403v280.309h45.962V342.639a7.6 7.6 0 0 1 7.602-7.602h91.535a7.6 7.6 0 0 1 7.602 7.602v113.996h45.962l.001-280.31zm33.134-15.204-42.339-69.014H76.605L34.27 161.121zm154.661 159.201h-172.59v136.313h172.59zm-133.373 41.552h94.155c4.198 0 7.602-3.4 7.602-7.602s-3.404-7.602-7.602-7.602h-94.155c-4.198 0-7.602 3.4-7.602 7.602s3.404 7.602 7.602 7.602zm0 34.203h94.155c4.198 0 7.602-3.4 7.602-7.602s-3.404-7.602-7.602-7.602h-94.155c-4.198 0-7.602 3.4-7.602 7.602s3.404 7.602 7.602 7.602zm0 34.21h94.155c4.198 0 7.602-3.4 7.602-7.602s-3.404-7.602-7.602-7.602h-94.155c-4.198 0-7.602 3.4-7.602 7.602s3.404 7.602 7.602 7.602zm-204.38-192.869h101.253c4.198 0 7.602-3.4 7.602-7.602s-3.404-7.602-7.602-7.602H116.109a7.6 7.6 0 0 0-7.602 7.602 7.6 7.6 0 0 0 7.602 7.602z" opacity="1" data-original="url(#a)"></path></g></svg>