<svg xmlns="http://www.w3.org/2000/svg" version="1.1" xmlns:xlink="http://www.w3.org/1999/xlink" width="512" height="512" x="0" y="0" viewBox="0 0 512 512" style="enable-background:new 0 0 512 512" xml:space="preserve" class=""><rect width="512" height="512" rx="102.4" ry="102.4" fill="#bac8d3" shape="rounded"></rect><g transform="matrix(0.6199999999999999,0,0,0.6199999999999999,97.28000000000003,97.28000000000003)"><linearGradient id="a"><stop offset=".197" stop-color="#f9ae3d"></stop><stop offset="1" stop-color="#fad172"></stop></linearGradient><linearGradient xlink:href="#a" id="b" x1="467.149" x2="163.149" y1="-38.497" y2="385.503" gradientUnits="userSpaceOnUse"></linearGradient><linearGradient xlink:href="#a" id="c" x1="361.85" x2="57.85" y1="-113.994" y2="310.006" gradientUnits="userSpaceOnUse"></linearGradient><linearGradient xlink:href="#a" id="d" x1="421.293" x2="117.292" y1="-71.375" y2="352.626" gradientUnits="userSpaceOnUse"></linearGradient><linearGradient xlink:href="#a" id="e" x1="552.388" x2="248.387" y1="22.617" y2="446.618" gradientUnits="userSpaceOnUse"></linearGradient><linearGradient xlink:href="#a" id="f" x1="471.994" x2="167.993" y1="-35.023" y2="388.977" gradientUnits="userSpaceOnUse"></linearGradient><path fill="url(#b)" d="M373.922 511H138.078C103.848 511 76 483.152 76 448.922V63.078C76 28.848 103.848 1 138.078 1h235.844C408.152 1 436 28.848 436 63.078v385.844c0 34.23-27.848 62.078-62.078 62.078zM138.078 31C120.391 31 106 45.391 106 63.078v385.844C106 466.609 120.391 481 138.078 481h235.844C391.609 481 406 466.609 406 448.922V63.078C406 45.391 391.609 31 373.922 31z" opacity="1" data-original="url(#b)" class=""></path><path fill="url(#c)" d="M181 61h89.255v30H181z" opacity="1" data-original="url(#c)"></path><path fill="url(#d)" d="M300.255 61H331v30h-30.745z" opacity="1" data-original="url(#d)"></path><path fill="url(#e)" d="M91 421h330v30H91z" opacity="1" data-original="url(#e)"></path><path fill="url(#f)" d="M290.763 375.976c-13.317 0-26.631-5.067-36.769-15.206l-96.167-96.167c-20.274-20.274-20.274-53.264 0-73.538l48.083-48.083 63.64 63.639-31.819 31.82 42.426 42.426 31.82-31.819 63.64 63.64-48.083 48.083c-10.138 10.134-23.457 15.205-36.771 15.205zM205.91 185.407l-26.87 26.87c-8.577 8.578-8.577 22.534 0 31.112l96.167 96.167c8.576 8.576 22.535 8.579 31.113-.001l26.87-26.869-21.214-21.214-10.96 10.96c-11.501 11.502-30.217 11.503-41.72 0L216.164 259.3c-11.502-11.502-11.502-30.218 0-41.72l10.96-10.96z" opacity="1" data-original="url(#f)" class=""></path></g></svg>