<svg xmlns="http://www.w3.org/2000/svg" version="1.1" xmlns:xlink="http://www.w3.org/1999/xlink" width="512" height="512" x="0" y="0" viewBox="0 0 64 64" style="enable-background:new 0 0 512 512" xml:space="preserve" class=""><rect width="64" height="64" rx="12.8" ry="12.8" fill="#bac8d3" shape="rounded"></rect><g transform="matrix(0.58,0,0,0.58,13.440000000000001,13.439957967996598)"><linearGradient id="a" x1="5.021" x2="65.787" y1="62.979" y2="2.213" gradientUnits="userSpaceOnUse"><stop offset="0" stop-color="#ab20ec"></stop><stop offset="1" stop-color="#0071fc"></stop></linearGradient><linearGradient xlink:href="#a" id="b" x2="65.787" y1="62.979" y2="2.213"></linearGradient><linearGradient xlink:href="#a" id="c" x1="13.021" x2="73.787" y1="70.979" y2="10.213"></linearGradient><linearGradient xlink:href="#a" id="d" x1="15.021" x2="75.787" y1="72.979" y2="12.213"></linearGradient><linearGradient xlink:href="#a" id="e" x1="17.021" x2="77.787" y1="74.979" y2="14.213"></linearGradient><linearGradient xlink:href="#a" id="f" x1="-4.479" x2="56.287" y1="53.479" y2="-7.287"></linearGradient><linearGradient xlink:href="#a" id="g" x1="-5.979" x2="54.787" y1="51.979" y2="-8.787"></linearGradient><linearGradient xlink:href="#a" id="h" x1="-12.479" x2="48.287" y1="45.479" y2="-15.287"></linearGradient><linearGradient xlink:href="#a" id="i" x1="-10.979" x2="49.787" y1="46.979" y2="-13.787"></linearGradient><path fill="url(#a)" d="M58 51H6a1 1 0 0 1-1-1V22a1 1 0 0 1 1-1h52a1 1 0 0 1 1 1v28a1 1 0 0 1-1 1zM7 49h50V23H7z" opacity="1" data-original="url(#a)"></path><g fill="url(#b)"><path d="M50 47H14a1 1 0 0 1-1-1c0-1.654-1.346-3-3-3a1 1 0 0 1-1-1V30a1 1 0 0 1 1-1c1.654 0 3-1.346 3-3a1 1 0 0 1 1-1h36a1 1 0 0 1 1 1c0 1.654 1.346 3 3 3a1 1 0 0 1 1 1v12a1 1 0 0 1-1 1c-1.654 0-3 1.346-3 3a1 1 0 0 1-1 1zm-35.101-2h34.202A5.013 5.013 0 0 1 53 41.101V30.9a5.013 5.013 0 0 1-3.899-3.899H14.899A5.013 5.013 0 0 1 11 30.9v10.201A5.013 5.013 0 0 1 14.899 45z" fill="" opacity="1"></path><path d="M32 43c-3.859 0-7-3.14-7-7s3.141-7 7-7 7 3.14 7 7-3.141 7-7 7zm0-12c-2.757 0-5 2.243-5 5s2.243 5 5 5 5-2.243 5-5-2.243-5-5-5z" fill="" opacity="1"></path></g><path fill="url(#c)" d="M58 55H6a1 1 0 0 1-1-1v-4a1 1 0 1 1 2 0v3h50v-3a1 1 0 1 1 2 0v4a1 1 0 0 1-1 1z" opacity="1" data-original="url(#c)"></path><path fill="url(#d)" d="M58 59H6a1 1 0 0 1-1-1v-4a1 1 0 1 1 2 0v3h50v-3a1 1 0 1 1 2 0v4a1 1 0 0 1-1 1z" opacity="1" data-original="url(#d)"></path><path fill="url(#e)" d="M58 63H6a1 1 0 0 1-1-1v-4a1 1 0 1 1 2 0v3h50v-3a1 1 0 1 1 2 0v4a1 1 0 0 1-1 1z" opacity="1" data-original="url(#e)"></path><path fill="url(#f)" d="M37 17a.997.997 0 0 1-.707-.293l-4-4a.999.999 0 1 1 1.414-1.414L37 14.586l3.293-3.293a.999.999 0 1 1 1.414 1.414l-4 4A.997.997 0 0 1 37 17z" opacity="1" data-original="url(#f)"></path><path fill="url(#g)" d="M37 17a1 1 0 0 1-1-1V2a1 1 0 1 1 2 0v14a1 1 0 0 1-1 1z" opacity="1" data-original="url(#g)"></path><path fill="url(#h)" d="M31 7a.997.997 0 0 1-.707-.293L27 3.414l-3.293 3.293a.999.999 0 1 1-1.414-1.414l4-4a.999.999 0 0 1 1.414 0l4 4A.999.999 0 0 1 31 7z" opacity="1" data-original="url(#h)"></path><path fill="url(#i)" d="M27 17a1 1 0 0 1-1-1V2a1 1 0 1 1 2 0v14a1 1 0 0 1-1 1z" opacity="1" data-original="url(#i)"></path></g></svg>