<svg xmlns="http://www.w3.org/2000/svg" version="1.1" xmlns:xlink="http://www.w3.org/1999/xlink" width="512" height="512" x="0" y="0" viewBox="0 0 512 512" style="enable-background:new 0 0 512 512" xml:space="preserve" class=""><rect width="512" height="512" rx="102.4" ry="102.4" fill="#bac8d3" shape="rounded"></rect><g transform="matrix(0.61,0,0,0.61,99.84,99.84)"><linearGradient id="a" x1="130.579" x2="381.421" y1="473.236" y2="38.764" gradientUnits="userSpaceOnUse"><stop offset="0" stop-color="#3f6db5"></stop><stop offset="1" stop-color="#a05fa6"></stop></linearGradient><path fill="url(#a)" d="M456 88H56a40.047 40.047 0 0 0-40 40v256a40.047 40.047 0 0 0 40 40h400a40.047 40.047 0 0 0 40-40V128a40.047 40.047 0 0 0-40-40zm24 112H56a8 8 0 0 0 0 16h424v168a24.026 24.026 0 0 1-24 24H56a24.026 24.026 0 0 1-24-24V168h424a8 8 0 0 0 0-16H32v-24a24.026 24.026 0 0 1 24-24h400a24.026 24.026 0 0 1 24 24zM376 376h32a40 40 0 0 0 0-80h-32a40 40 0 0 0 0 80zm0-64h32a24 24 0 0 1 0 48h-32a24 24 0 0 1 0-48zm-296-8a7.998 7.998 0 0 1 8-8h96a8 8 0 0 1 0 16H88a7.998 7.998 0 0 1-8-8zm128 0a7.998 7.998 0 0 1 8-8h64a8 8 0 0 1 0 16h-64a7.998 7.998 0 0 1-8-8zM80 344a7.998 7.998 0 0 1 8-8h160a8 8 0 0 1 0 16H88a7.998 7.998 0 0 1-8-8z" data-name="16 credit card" opacity="1" data-original="url(#a)"></path></g></svg>