<svg xmlns="http://www.w3.org/2000/svg" version="1.1" xmlns:xlink="http://www.w3.org/1999/xlink" width="512" height="512" x="0" y="0" viewBox="0 0 62 62" style="enable-background:new 0 0 512 512" xml:space="preserve" class=""><rect width="62" height="62" rx="12.4" ry="12.4" fill="#bac8d3" shape="rounded"></rect><g transform="matrix(0.5499999999999999,0,0,0.5499999999999999,13.95,13.950900000042747)"><linearGradient id="a"><stop offset="0" stop-color="#0061ff"></stop><stop offset="1" stop-color="#60efff"></stop></linearGradient><linearGradient xlink:href="#a" id="b" x1=".125" x2="61.75" y1="26.002" y2="26.002" gradientTransform="matrix(1 0 0 -1 0 60.004)" gradientUnits="userSpaceOnUse"></linearGradient><linearGradient xlink:href="#a" id="c" x1=".125" x2="61.75" y1="12.004" y2="12.004" gradientTransform="matrix(1 0 0 -1 0 60.004)" gradientUnits="userSpaceOnUse"></linearGradient><linearGradient xlink:href="#a" id="d" x1=".125" x2="61.75" y1="49.002" y2="49.002" gradientTransform="matrix(1 0 0 -1 0 60.004)" gradientUnits="userSpaceOnUse"></linearGradient><linearGradient xlink:href="#a" id="e" x1=".125" x2="61.75" y1="49" y2="49" gradientTransform="matrix(1 0 0 -1 0 60.004)" gradientUnits="userSpaceOnUse"></linearGradient><path fill="url(#b)" d="M4 43.006h53.996v9.996H4zm50-33.004a.977.977 0 0 1 1.004 1c0 .578-.43.996-1.004.996-.578 0-1.004-.418-1.004-.996 0-.574.426-1 1.004-1zm0-3.996c-2.738 0-5 2.262-5 4.996 0 2.031 1.242 3.797 3 4.578v23.422H2.004A1.996 1.996 0 0 0 0 40.998v14.004c0 1.105.898 2 2.004 1.996H6v3.004c0 1.102.895 1.996 1.996 1.996a1.998 1.998 0 0 0 2.008-1.996v-3.004H52v3.004a2 2 0 0 0 4 0v-3.004h4c1.105 0 2-.895 2-1.996V40.998a1.999 1.999 0 0 0-2-1.996h-4V15.58c1.758-.781 3-2.547 3-4.578 0-2.734-2.262-4.996-5-4.996z" opacity="1" data-original="url(#b)"></path><g fill="url(#c)"><path d="M15 45.998A2.003 2.003 0 1 0 14.998 50 2.003 2.003 0 0 0 15 45.998zM8 45.998a2 2 0 0 0-2 2.004 2.003 2.003 0 0 0 4.004 0A2.006 2.006 0 0 0 8 45.998zM22 45.998c-1.105.004-2 .899-2 2.004a2 2 0 1 0 4 0c0-1.105-.895-2-2-2.004z" fill="" opacity="1"></path></g><path fill="url(#d)" d="M43 7.002c-1.105 0-2 .895-2 1.996v4.004a2 2 0 1 0 4 0V8.998a2.003 2.003 0 0 0-2-1.996zM35 4.002c-1.105 0-2 .898-2 2.004v9.996a1.998 1.998 0 1 0 3.996 0V6.006A1.996 1.996 0 0 0 35 4.002z" opacity="1" data-original="url(#d)"></path><path fill="url(#e)" d="M27 .002a2 2 0 0 0-2 2v18c0 1.105.895 2 2 2.004a2 2 0 0 0 1.996-2.004v-18c0-1.105-.894-2-1.996-2z" opacity="1" data-original="url(#e)"></path></g></svg>