<svg xmlns="http://www.w3.org/2000/svg" version="1.1" xmlns:xlink="http://www.w3.org/1999/xlink" width="512" height="512" x="0" y="0" viewBox="0 0 487.51 487" style="enable-background:new 0 0 512 512" xml:space="preserve"><rect width="487.51" height="487" rx="97.502" ry="97.502" fill="#bac8d3" shape="rounded"></rect><g transform="matrix(0.6,0,0,0.6,97.50239868164061,132.79760220050812)"><linearGradient id="a" x1="256" x2="256" y1="472" y2="49.2" gradientTransform="matrix(1 0 0 -1 -12.245 452.494)" gradientUnits="userSpaceOnUse"><stop offset="0" stop-color="#00efd1"></stop><stop offset="1" stop-color="#00acea"></stop></linearGradient><g fill="url(#a)"><path d="M446.344.254H41.168C18.441.28.028 18.695 0 41.422v213.664c.023 22.726 18.441 41.144 41.168 41.168h194.586v49.34c0 28.32 50.7 43.14 100.773 43.14 47.918 0 100.203-13.332 101.762-42.605.008-.18.016-.356.016-.535v-49.336h8.039c22.722-.028 41.136-18.442 41.168-41.164V41.422C487.484 18.695 469.066.282 446.344.254zM255.754 272.59c19.484 10.879 50.61 16.472 81.5 16.472 30.656 0 61.535-5.507 81.05-16.222v21.578h-.55c0 2.7-5.363 8.687-20.14 14.129-16.255 5.98-38.044 9.277-61.36 9.277-52.086 0-80.5-15.46-80.5-23.398zm162.55-28.574v3.3c-3.714 7.63-31.167 21.743-81.05 21.743-53.77 0-81.5-16.399-81.5-23.399s27.73-23.406 81.5-23.406c49.887 0 77.34 14.117 81.05 21.746zm-46.886-39.422a246.18 246.18 0 0 0-34.164-2.336c-36.567 0-73.457 7.84-90.98 23.008l-119.985.277c-5.285-23.832-26.082-40.39-55.203-43.828V114.8c14.742-1.735 27.512-6.864 37.32-15.059a52.772 52.772 0 0 0 17.836-28.793h235.602c4.812 20.93 22.437 40.14 54.586 43.86v66.91c-19.125 2.273-34.942 10.308-45.012 22.875zm-34.89 164.14c-23.118 0-44.727-3.27-60.844-9.203-14.52-5.344-19.93-11.386-19.93-13.937V321.73a91.427 91.427 0 0 0 13.023 5.864c18.02 6.601 41.977 10.23 67.477 10.23 31.187 0 62.601-5.699 82.05-16.789v24.203c-.85 8.086-30.058 23.496-81.777 23.496zm130.984-113.648c-.016 11.687-9.485 21.156-21.168 21.168h-8.04V250.18a23.12 23.12 0 0 0 .45-4.52c0-16.941-18.043-29.078-43.27-36.137 8.04-5.277 18.739-8.261 31.106-8.46a10 10 0 0 0 9.836-10v-85.618a10 10 0 0 0-9.836-10c-27.02-.433-45.106-14.16-46.082-34.965-.25-5.335-4.649-9.535-9.988-9.535H117.555c-5.34 0-9.739 4.2-9.989 9.532-.972 20.8-19.285 34.527-46.644 34.968-5.461.086-9.84 4.54-9.84 10v85.617c0 5.461 4.379 9.91 9.84 10 27.805.45 45.676 13.84 46.644 34.958.243 5.335 4.645 9.542 9.989 9.542h.023l118.184-.277c0 .125-.008.25-.008.375 0 .293.012.582.023.871-.007.16-.023.32-.023.485v29.238H41.168c-11.684-.016-21.152-9.48-21.168-21.168V41.422c.012-11.684 9.48-21.152 21.168-21.168h405.176c11.683.016 21.152 9.484 21.168 21.168zm0 0" fill="" opacity="1"></path><path d="M243.754 88.113c-33.215 0-60.14 26.926-60.14 60.14s26.925 60.142 60.14 60.142 60.14-26.926 60.14-60.141c-.035-33.2-26.94-60.102-60.14-60.14zm0 100.282c-22.168 0-40.14-17.973-40.14-40.141 0-22.172 17.972-40.14 40.14-40.14 22.172 0 40.144 17.972 40.14 40.14-.023 22.16-17.98 40.117-40.14 40.14zm0 0" fill="" opacity="1"></path></g></g></svg>