<svg xmlns="http://www.w3.org/2000/svg" version="1.1" xmlns:xlink="http://www.w3.org/1999/xlink" width="512" height="512" x="0" y="0" viewBox="0 0 32 32" style="enable-background:new 0 0 512 512" xml:space="preserve"><rect width="32" height="32" rx="6.4" ry="6.4" fill="#bac8d3" shape="rounded"></rect><g transform="matrix(0.7,0,0,0.7,4.799999749660493,4.800000286102296)"><linearGradient id="a" x1="15.917" x2="16.084" y1="-.001" y2="32.165" gradientUnits="userSpaceOnUse"><stop offset="0" stop-color="#b621fe"></stop><stop offset="1" stop-color="#1fd1f9"></stop></linearGradient><linearGradient xlink:href="#a" id="b" x1="16.155" x2="16.322" y1="-.003" y2="32.164"></linearGradient><g fill-rule="evenodd"><path fill="url(#a)" d="M16 1.5A14.5 14.5 0 1 0 30.5 16 14.507 14.507 0 0 0 16 1.5zm0 28A13.5 13.5 0 1 1 29.5 16 13.506 13.506 0 0 1 16 29.5z" opacity="1" data-original="url(#a)"></path><path fill="url(#b)" d="M23.231 12.853h-5.069l2.531-4.339a.5.5 0 0 0-.432-.752h-6.418a.5.5 0 0 0-.427.24L8.8 15.593a.5.5 0 0 0 .428.76h4.65L11.3 24.659a.5.5 0 0 0 .831.5l11.453-11.453a.5.5 0 0 0-.353-.853zM12.855 23.021 15.038 16a.5.5 0 0 0-.478-.648h-4.44l4.005-6.591h5.266L16.859 13.1a.5.5 0 0 0 .432.752h4.733z" opacity="1" data-original="url(#b)"></path></g></g></svg>