<svg xmlns="http://www.w3.org/2000/svg" version="1.1" xmlns:xlink="http://www.w3.org/1999/xlink" width="512" height="512" x="0" y="0" viewBox="0 0 64 64" style="enable-background:new 0 0 512 512" xml:space="preserve"><rect width="64" height="64" rx="12.8" ry="12.8" fill="#bac8d3" shape="rounded"></rect><g transform="matrix(0.62,0,0,0.62,12.162743883132936,12.16310791015625)"><linearGradient id="a" x1="4.004" x2="60.011" y1="32.008" y2="32.008" gradientUnits="userSpaceOnUse"><stop offset="0" stop-color="#00c0ff"></stop><stop offset="1" stop-color="#5558ff"></stop></linearGradient><path fill="url(#a)" d="M55.692 29.351a3.986 3.986 0 0 0-5.32-.152l-1.022-4.305.285-.286c7.412-7.051 13.03-14.566 9.067-19.323-.55-.586-3.72-3.338-11.09 1.742a1 1 0 0 0 1.135 1.646c6.9-4.629 9.313-2.361 9.25.01.028 1.96-1.198 6.447-9.754 14.49l-12.17 12.18a37.526 37.526 0 0 1-16.119 9.486l-1.113.32a37.827 37.827 0 0 1 9.806-17.231L40.85 15.733a63.923 63.923 0 0 1 4.804-4.646 1 1 0 0 0-1.308-1.514c-1.72 1.468-3.511 3.268-5.245 5.081l-4.293-1.019a3.897 3.897 0 0 0-.16-5.33l-1.74-1.739a3.9 3.9 0 0 0-5.51 0l-4.29 4.291L9.214 7.56a1.004 1.004 0 0 0-.939.266l-3.982 3.982a1.006 1.006 0 0 0 .16 1.544l21.75 14.26a39.326 39.326 0 0 0-5.263 7.163c-.069-.033-10.78-2.361-10.78-2.361a1.002 1.002 0 0 0-.917.27l-3.14 3.14a1.007 1.007 0 0 0 .185 1.56l3.78 2.31a1 1 0 0 0 1.043-1.707L8.415 36.34l1.857-1.857 9.694 2.082a39.426 39.426 0 0 0-2.252 5.456l-3.094-1.884a1 1 0 0 0-1.04 1.708l3.517 2.143-.678 2.357a1.007 1.007 0 0 0 1.237 1.237l2.359-.68 6.602 10.81a1.007 1.007 0 0 0 1.56.186l3.138-3.138a.999.999 0 0 0 .27-.917L29.317 43.27a.958.958 0 0 0-.09-.21 39.338 39.338 0 0 0 7.165-5.262l4.952 7.56a1 1 0 0 0 1.674-1.095l-5.155-7.87 9.827-9.836 6.68 28.152-2.717 2.715-6.385-9.75a1 1 0 0 0-1.674 1.095l7.06 10.78a1 1 0 0 0 1.544.159l3.98-3.98a1 1 0 0 0 .265-.937L53.147 40.9l4.292-4.293a3.869 3.869 0 0 0 1.141-2.754c.13-1.891-1.707-3.3-2.888-4.502zm-26.88-21.37a1.898 1.898 0 0 1 2.682 0l1.74 1.738a1.905 1.905 0 0 1 .007 2.69l-.69.69-7.158-1.7zM9.295 9.633l28.143 6.682-9.831 9.824-21.03-13.788zM29.517 53.73l-1.855 1.854-5.68-9.299a39.454 39.454 0 0 0 5.454-2.25zm26.508-18.537-3.42 3.42-1.698-7.157.69-.69a1.943 1.943 0 0 1 2.681 0l1.747 1.746a1.907 1.907 0 0 1 0 2.681z" opacity="1" data-original="url(#a)"></path></g></svg>