<svg xmlns="http://www.w3.org/2000/svg" version="1.1" xmlns:xlink="http://www.w3.org/1999/xlink" width="512" height="512" x="0" y="0" viewBox="0 0 128 128" style="enable-background:new 0 0 512 512" xml:space="preserve"><rect width="128" height="128" rx="25.6" ry="25.6" fill="#bac8d3" shape="rounded"></rect><g transform="matrix(0.72,0,0,0.72,17.92,17.92)"><linearGradient id="a" x1="64" x2="64" y1="0" y2="128" gradientUnits="userSpaceOnUse"><stop offset="0" stop-color="#f44369"></stop><stop offset="1" stop-color="#3e3b92"></stop></linearGradient><path fill="url(#a)" d="M96 80c-1 0-2-.4-2.8-1.2L64 49.7 34.8 78.8c-1.6 1.6-4.1 1.6-5.7 0s-1.6-4.1 0-5.7l32-32c1.6-1.6 4.1-1.6 5.7 0l32 32c1.6 1.6 1.6 4.1 0 5.7C98 79.6 97 80 96 80zm32-16c0-35.3-28.7-64-64-64S0 28.7 0 64s28.7 64 64 64 64-28.7 64-64zm-8 0c0 30.9-25.1 56-56 56S8 94.9 8 64 33.1 8 64 8s56 25.1 56 56z" opacity="1" data-original="url(#a)"></path></g></svg>