<svg xmlns="http://www.w3.org/2000/svg" version="1.1" xmlns:xlink="http://www.w3.org/1999/xlink" width="512" height="512" x="0" y="0" viewBox="0 0 12 12" style="enable-background:new 0 0 512 512" xml:space="preserve" class=""><rect width="12" height="12" rx="2.4" ry="2.4" fill="#bac8d3" shape="rounded"></rect><g transform="matrix(0.52,0,0,0.52,2.8800000000000003,2.8800000000000003)"><linearGradient id="a" x1="6" x2="6" y1="0" y2="12" gradientUnits="userSpaceOnUse"><stop offset="0" stop-color="#f12811"></stop><stop offset="1" stop-color="#f5b93d"></stop></linearGradient><g fill="url(#a)"><path d="M6.5 2v1h1v1h-1v1h-1V4h-1V3h1V2zM5 7V6H4v1zM5 8v1H4V8zM8 7V6H7v1zM8 8v1H7V8z" fill="" opacity="1"></path><path fill-rule="evenodd" d="M10 11h2v1H0v-1h2V0h8zM3 1h6v10H7v-1H5v1H3z" clip-rule="evenodd" fill="" opacity="1"></path></g></g></svg>