<svg xmlns="http://www.w3.org/2000/svg" version="1.1" xmlns:xlink="http://www.w3.org/1999/xlink" width="512" height="512" x="0" y="0" viewBox="0 0 512 512" style="enable-background:new 0 0 512 512" xml:space="preserve" class=""><rect width="512" height="512" rx="102.4" ry="102.4" fill="#bac8d3" shape="rounded"></rect><g transform="matrix(0.5900000000000001,0,0,0.5900000000000001,104.95998983383177,94.96012121200562)"><linearGradient id="a" x1="50.557" x2="461.443" y1="522.363" y2="111.478" gradientUnits="userSpaceOnUse"><stop offset="0" stop-color="#f803fe"></stop><stop offset="1" stop-color="#0ecbde"></stop></linearGradient><path fill="url(#a)" d="M30.614 484.067a7.603 7.603 0 0 0 0 15.204h450.773a7.603 7.603 0 0 0 0-15.204h-20.628V272.422h20.646c4.828 0 8.431-4.45 7.439-9.169l-32.688-155.315a7.598 7.598 0 0 0-7.439-6.036H348.184v-17.94a7.608 7.608 0 0 0-3.033-6.077l-84.581-63.63a7.607 7.607 0 0 0-9.139 0l-84.582 63.631a7.608 7.608 0 0 0-3.033 6.077v17.94H63.283a7.598 7.598 0 0 0-7.439 6.036L23.156 263.253c-.993 4.724 2.617 9.169 7.439 9.169h20.646v211.645zm172.204 0h-74.43v-146.25h74.43zm242.736 0H218.022V330.214a7.603 7.603 0 0 0-7.602-7.602h-89.634a7.603 7.603 0 0 0-7.602 7.602v153.852H66.446V272.422h379.109v211.645zM179.02 87.756 256 29.845l76.98 57.911v91.809h-42.599V130.53c0-18.961-15.423-34.384-34.381-34.384s-34.381 15.423-34.381 34.384v49.036H179.02zm96.156 42.774v49.036h-38.353V130.53c0-10.576 8.601-19.18 19.176-19.18 10.577 0 19.177 8.604 19.177 19.18zM39.964 257.218l29.488-140.11h94.363v62.458h-25.09a7.603 7.603 0 0 0 0 15.204h234.548a7.603 7.603 0 0 0 0-15.204h-25.09v-62.458h94.363l29.488 140.11c-473.619-.005 396.766-.03-432.07 0zm97.504 153.722a7.603 7.603 0 0 1 7.602-7.602h8.489a7.603 7.603 0 0 1 0 15.204h-8.489a7.603 7.603 0 0 1-7.602-7.602zm125.529 12.621h128.217a7.603 7.603 0 0 0 7.602-7.602V307.95a7.603 7.603 0 0 0-7.602-7.602H262.997a7.603 7.603 0 0 0-7.602 7.602v108.009a7.603 7.603 0 0 0 7.602 7.602zm7.602-108.009h113.012v92.804H270.599z" opacity="1" data-original="url(#a)" class=""></path></g></svg>