<svg xmlns="http://www.w3.org/2000/svg" version="1.1" xmlns:xlink="http://www.w3.org/1999/xlink" width="512" height="512" x="0" y="0" viewBox="0 0 469.03 469" style="enable-background:new 0 0 512 512" xml:space="preserve"><rect width="469.03" height="469" rx="93.806" ry="93.806" fill="#bac8d3" shape="rounded"></rect><g transform="matrix(0.5499999999999999,0,0,0.5499999999999999,115.53176345825199,96.26812505722046)"><linearGradient id="a"><stop offset="0" stop-color="#3bb2d4"></stop><stop offset="1" stop-color="#42e695"></stop></linearGradient><linearGradient xlink:href="#a" id="b" x1="254.085" x2="49.085" y1="401.207" y2="132.207" gradientUnits="userSpaceOnUse"></linearGradient><linearGradient xlink:href="#a" id="c" x1="433.436" x2="228.436" y1="264.526" y2="-4.474" gradientUnits="userSpaceOnUse"></linearGradient><linearGradient xlink:href="#a" id="d" x1="309.231" x2="104.231" y1="359.18" y2="90.18" gradientUnits="userSpaceOnUse"></linearGradient><path fill="url(#b)" d="M147.328 217.8c-23.887 0-43.32 19.43-43.32 43.317s19.433 43.32 43.32 43.32 43.317-19.433 43.317-43.32-19.43-43.316-43.317-43.316zm0 74.637c-17.27 0-31.32-14.05-31.32-31.316 0-17.27 14.05-31.32 31.32-31.32s31.317 14.05 31.317 31.32c0 17.266-14.047 31.316-31.317 31.316zm0 0" opacity="1" data-original="url(#b)"></path><path fill="url(#c)" d="M343.895 109.973c-20.434 0-37.06 16.62-37.06 37.058 0 20.434 16.626 37.055 37.06 37.055 20.433 0 37.058-16.621 37.058-37.055 0-20.437-16.625-37.058-37.058-37.058zm0 62.113c-13.817 0-25.06-11.238-25.06-25.055 0-13.82 11.24-25.058 25.06-25.058 13.816 0 25.058 11.238 25.058 25.058 0 13.817-11.242 25.055-25.058 25.055zm0 0" opacity="1" data-original="url(#c)"></path><path fill="url(#d)" d="M468.32 109.969a5.963 5.963 0 0 0-1.05-1.418L382.37 23.648a6.003 6.003 0 0 0-8.484.004L267.488 130.051c-21.722-30.64-53.761-51.446-89.843-58.957 6.12-12.262 16.734-27.586 32.335-30.188 9.657-1.613 16.09-6.777 17.649-14.168 1.59-7.52-2.395-15.46-10.395-20.718-13.238-8.696-38.355-10.168-69.906 10.84C115.778-4.149 90.656-2.677 77.422 6.02c-8 5.257-11.984 13.199-10.399 20.718 1.563 7.39 7.997 12.555 17.653 14.168 15.605 2.602 26.219 17.934 32.34 30.196C50.273 85.117 0 144.445 0 215.297v187.906c0 13.586 11.055 24.64 24.645 24.64H356.37c9.133 0 16.563-7.429 16.563-16.566 0-2.449-.547-4.77-1.508-6.867 4.887-2.883 8.183-8.187 8.183-14.262 0-8.836-6.96-16.058-15.68-16.523a16.476 16.476 0 0 0-3.152-15.176 16.475 16.475 0 0 0 3.153-15.176c8.718-.464 15.68-7.683 15.68-16.52 0-9.132-7.434-16.566-16.567-16.566h-68.387v-50.539l10.758 10.758a5.986 5.986 0 0 0 4.242 1.758 5.995 5.995 0 0 0 4.246-1.758l21.965-21.965a.196.196 0 0 1 .028-.03l109.382-109.384c.008-.007.02-.015.032-.023l21.964-21.965a6.002 6.002 0 0 0 1.758-4.242c0-.996-.25-1.965-.71-2.828zm-90.191-73.59 12.969 12.969c-3.871 2.351-8.32 3.605-12.97 3.605-4.648 0-9.1-1.254-12.972-3.605zm-291.48-7.313c-4.458-.742-7.407-2.539-7.883-4.804-.442-2.086 1.011-5.43 5.246-8.211 10.41-6.844 31.597-7.028 59.847 12.976.043.032.09.059.133.086l.285.184c.086.047.168.094.25.137l.258.128c.102.047.203.09.305.133.07.028.144.055.219.082a5.16 5.16 0 0 0 .543.164 6.313 6.313 0 0 0 .93.16c.077.008.152.012.23.016.11.008.218.012.328.008.09 0 .18 0 .273-.004.094-.008.188-.012.282-.023a4.247 4.247 0 0 0 .558-.078c.11-.02.219-.047.328-.07.078-.024.157-.044.235-.067a4.95 4.95 0 0 0 .316-.102l.246-.093a6.09 6.09 0 0 0 .281-.122c.094-.046.184-.09.278-.14.078-.043.156-.082.23-.13.102-.058.2-.12.297-.187.047-.03.09-.054.133-.082 28.246-20.004 49.433-19.82 59.844-12.98 4.234 2.781 5.687 6.129 5.246 8.21-.477 2.266-3.422 4.063-7.88 4.81-21.39 3.566-34.831 22.851-42.702 39.988a149.08 149.08 0 0 0-17.98-1.094c-6.087 0-12.083.379-17.973 1.098-7.872-17.137-21.313-36.422-42.704-39.993zM12 215.296c0-74.624 60.707-135.335 135.32-135.335 44.903 0 86.246 21.855 111.555 58.7l-38.355 38.355a5.77 5.77 0 0 0-.762.933c-.012.016-.02.035-.031.051-.2.313-.375.637-.516.977l-.035.105c-.13.324-.23.664-.301 1.008-.008.035-.008.07-.016.11a6.113 6.113 0 0 0-.097 1.003c0 .047.004.09.004.133a6.063 6.063 0 0 0 .386 2.043l.094.242c.121.277.266.55.43.809.047.078.09.152.14.222.184.27.395.524.622.762.027.031.046.063.078.094l21.96 21.965c.036.035.075.066.114.101l40.062 40.063v62.55h-13.03c-9.138 0-16.567 7.434-16.567 16.567 0 1.601.242 3.144.668 4.61-8.723.464-15.68 7.687-15.68 16.523 0 4.011 1.434 7.695 3.816 10.566a16.475 16.475 0 0 0-3.816 10.563c0 1.418.195 2.785.531 4.101H12zm234.215-21.073-12.965-12.961 12.96-12.965c4.798 7.941 4.798 17.988.005 25.926zm23.387 149.097h78.437c2.512.008 4.559 2.051 4.559 4.567s-2.047 4.562-4.563 4.566h-93.433a4.57 4.57 0 0 1-4.559-4.566 4.569 4.569 0 0 1 4.562-4.567zm-23.22 67.961c0 1.582.24 3.114.657 4.563H24.645c-6.973 0-12.645-5.668-12.645-12.637v-18.094h238.762c.96.23 1.949.371 2.96.426a16.476 16.476 0 0 0-.663 4.61c0 2.449.546 4.769 1.507 6.867-4.886 2.882-8.183 8.191-8.183 14.265zm3.661-42.265a4.57 4.57 0 0 1 4.559-4.563H348.035c2.516.004 4.559 2.047 4.559 4.563s-2.043 4.562-4.555 4.566h-93.434c-2.515.004-4.562-2.047-4.562-4.566zm106.328 46.828H262.95a4.571 4.571 0 0 1-4.566-4.563c0-2.52 2.05-4.566 4.566-4.566h93.433c2.513.004 4.556 2.05 4.556 4.566s-2.051 4.563-4.567 4.563zm6.672-30.262c2.52 0 4.566 2.05 4.566 4.566a4.575 4.575 0 0 1-4.566 4.567h-93.434a4.569 4.569 0 0 1-4.55-4.567 4.566 4.566 0 0 1 4.554-4.562h78.414c.008 0 .016-.004.02-.004zm0-63.394c2.52 0 4.566 2.05 4.566 4.566 0 2.52-2.05 4.566-4.566 4.566h-93.43c-2.511-.008-4.554-2.05-4.554-4.566s2.046-4.567 4.562-4.567zm-53.383-64.516-12.965-12.965c3.868-2.348 8.32-3.602 12.961-3.602a24.96 24.96 0 0 1 12.973 3.602zm123.266-123.258L331.277 236.06c-6.257-4.512-13.75-6.954-21.617-6.954-7.87 0-15.355 2.442-21.613 6.95l-33.184-33.18c9.246-12.867 9.246-30.363-.004-43.23l15.88-15.875c.027-.032.058-.06.085-.09l85.684-85.684c6.258 4.512 13.75 6.957 21.62 6.957 7.868 0 15.36-2.445 21.618-6.957l33.18 33.18c-4.516 6.258-6.957 13.746-6.957 21.617s2.441 15.363 6.957 21.621zm8.644-8.648c-2.347-3.871-3.601-8.325-3.601-12.97 0-4.648 1.254-9.1 3.605-12.972l12.969 12.969zm0 0" opacity="1" data-original="url(#d)"></path></g></svg>