<svg xmlns="http://www.w3.org/2000/svg" version="1.1" xmlns:xlink="http://www.w3.org/1999/xlink" width="512" height="512" x="0" y="0" viewBox="0 0 64 64" style="enable-background:new 0 0 512 512" xml:space="preserve" class=""><rect width="64" height="64" rx="12.8" ry="12.8" fill="#bac8d3" shape="rounded"></rect><g transform="matrix(0.6499999999999998,0,0,0.6499999999999998,11.199650192260748,11.200000000000006)"><linearGradient id="a" x1="9.769" x2="54.231" y1="32" y2="32" gradientUnits="userSpaceOnUse"><stop offset="0" stop-color="#9cffac"></stop><stop offset="1" stop-color="#00b59c"></stop></linearGradient><path fill="url(#a)" d="M30.726 54.003a1 1 0 0 1 0 2h-8a1 1 0 0 1 0-2zM54.23 32a11.51 11.51 0 0 1-10.55 11.452V56a4.004 4.004 0 0 1-4 4H13.768a4.004 4.004 0 0 1-4-4V8a4.004 4.004 0 0 1 4-4h5.961a2.26 2.26 0 0 1 .425.103 1.117 1.117 0 0 1 .52.584l.772 2.316h10.558L32.34 6h-8.61a1 1 0 0 1 0-2h15.95a4.004 4.004 0 0 1 4 4v12.545A11.51 11.51 0 0 1 54.23 32zm-11.55-9.5a1 1 0 0 1-1-1V8a2.003 2.003 0 0 0-2-2h-5.233l-.773 2.32a.999.999 0 0 1-.948.683h-12a.999.999 0 0 1-.948-.684L19.005 6h-5.236a2.003 2.003 0 0 0-2 2v48a2.003 2.003 0 0 0 2 2h25.91a2.003 2.003 0 0 0 2-2V43.442c-11.863-1.235-14.385-17.335-3.385-22.055a1 1 0 0 1 .77 1.845c-9.46 4.046-6.68 18.1 3.62 18.268 12.625-.303 12.538-18.793-.005-19zm3.839 5.796-5.293 5.293-2.293-2.293a1 1 0 0 0-1.414 1.414l3 3a1 1 0 0 0 1.414 0l6-6a1 1 0 0 0-1.414-1.414z" opacity="1" data-original="url(#a)"></path></g></svg>