<svg xmlns="http://www.w3.org/2000/svg" version="1.1" xmlns:xlink="http://www.w3.org/1999/xlink" width="512" height="512" x="0" y="0" viewBox="0 0 512 512" style="enable-background:new 0 0 512 512" xml:space="preserve" class=""><rect width="512" height="512" rx="102.4" ry="102.4" fill="#bac8d3" shape="rounded"></rect><g transform="matrix(0.6,0,0,0.6,102.39999694824218,102.39995427131652)"><linearGradient id="a" x1="455.105" x2="56.895" y1="41.196" y2="439.406" gradientUnits="userSpaceOnUse"><stop offset="0" stop-color="#faac1e"></stop><stop offset="1" stop-color="#eb1b45"></stop></linearGradient><path fill="url(#a)" d="M415.291 9.085a1747.852 1747.852 0 0 0-77.113-5.379 1735.905 1735.905 0 0 0-164.356 0 1748.172 1748.172 0 0 0-77.113 5.379 23.332 23.332 0 0 0-21.28 23.346V387.06a18.762 18.762 0 0 0 18.74 18.74h57.955a5 5 0 0 0 4.686-3.255l4.682-12.57h4.94L125.1 503.531a5 5 0 0 0 4.7 6.709h20.359a5 5 0 0 0 4.7-3.3l5.259-14.534h191.763l5.259 14.534a5 5 0 0 0 4.7 3.3h20.36a5 5 0 0 0 4.7-6.709l-41.33-113.556h5l4.956 12.649a5 5 0 0 0 4.656 3.176h57.649a18.762 18.762 0 0 0 18.74-18.74V32.431a23.332 23.332 0 0 0-21.28-23.346zM85.429 262.561h341.142v84.585H85.429zm341.142-10H85.429V58.241h341.142zM179.06 13.475a1726.485 1726.485 0 0 1 153.88 0V33.83H179.06zm-81.433 5.568c23.538-2.171 47.54-3.86 71.433-5.07V38.83a5 5 0 0 0 5 5h163.88a5 5 0 0 0 5-5V13.973c23.893 1.21 47.895 2.9 71.433 5.07a13.378 13.378 0 0 1 12.2 13.388v15.81H85.429v-15.81a13.378 13.378 0 0 1 12.198-13.388zm49.024 481.2h-9.711l40.133-110.265h9.479zm168.163-110.268 10.03 27.716H187.156l10.03-27.716zM177.384 444.7h157.232l7.492 20.706H169.892zm3.619-10 2.535-7.006h144.924L331 434.7zm-17.265 47.711 2.535-7h179.454l2.535 7zM375.06 500.24h-9.711l-39.9-110.265h9.479zm42.771-104.44h-54.238l-4.956-12.649a5 5 0 0 0-4.656-3.176H158.019a5 5 0 0 0-4.686 3.255l-4.683 12.57H94.169a8.75 8.75 0 0 1-8.74-8.74v-29.914h341.142v29.914a8.75 8.75 0 0 1-8.74 8.74zM122.719 241.48h266.562a26.238 26.238 0 0 0 26.209-26.209V95.531a26.238 26.238 0 0 0-26.209-26.209H122.719A26.238 26.238 0 0 0 96.51 95.531v119.74a26.238 26.238 0 0 0 26.209 26.209zM106.51 95.531a16.228 16.228 0 0 1 16.209-16.209h266.562a16.228 16.228 0 0 1 16.209 16.209v119.74a16.227 16.227 0 0 1-16.209 16.209H122.719a16.227 16.227 0 0 1-16.209-16.209zm48.074 189.094H111.4a14.874 14.874 0 0 0-14.857 14.857v12.509a14.874 14.874 0 0 0 14.857 14.857h43.186a14.874 14.874 0 0 0 14.856-14.857v-12.509a14.874 14.874 0 0 0-14.858-14.857zm4.856 27.366a4.861 4.861 0 0 1-4.856 4.857H111.4a4.862 4.862 0 0 1-4.857-4.857v-12.509a4.863 4.863 0 0 1 4.857-4.857h43.186a4.862 4.862 0 0 1 4.856 4.857zm241.193-27.366h-43.186a14.874 14.874 0 0 0-14.856 14.857v12.509a14.874 14.874 0 0 0 14.856 14.857h43.186a14.874 14.874 0 0 0 14.857-14.857v-12.509a14.874 14.874 0 0 0-14.857-14.857zm4.857 27.366a4.861 4.861 0 0 1-4.857 4.857h-43.186a4.862 4.862 0 0 1-4.856-4.857v-12.509a4.862 4.862 0 0 1 4.856-4.857h43.186a4.862 4.862 0 0 1 4.857 4.857z" opacity="1" data-original="url(#a)"></path></g></svg>