<svg xmlns="http://www.w3.org/2000/svg" version="1.1" xmlns:xlink="http://www.w3.org/1999/xlink" width="512" height="512" x="0" y="0" viewBox="0 0 450 450" style="enable-background:new 0 0 512 512" xml:space="preserve"><rect width="450" height="450" rx="90" ry="90" fill="#bac8d3" shape="rounded"></rect><g transform="matrix(0.6300000000000001,0,0,0.6300000000000001,83.24999999999997,83.24999999999997)"><linearGradient id="a" x1="55.944" x2="394.056" y1="394.056" y2="55.944" gradientTransform="matrix(1 0 0 -1 0 450)" gradientUnits="userSpaceOnUse"><stop offset="0" style="stop-color:#00DBDE" stop-color="#00dbde"></stop><stop offset="1" style="stop-color:#FC00FF" stop-color="#fc00ff"></stop></linearGradient><path d="M298.35 249.14h-50.93v-22.11h50.93v22.11zm95.76-22.11h-50.93v22.11h50.93v-22.11zm-191.53 0h-50.93v22.11h50.93v-22.11zM10 178.25h430v-42.21H10v42.21zm96.82 48.78H55.89v22.11h50.93v-22.11zM412.34 85.67H37.66C22.41 85.67 10 98.07 10 113.32v14.57h430v-14.57c0-15.25-12.41-27.65-27.66-27.65zM10 186.4h430v150.28c0 15.25-12.41 27.65-27.66 27.65H37.66c-15.25 0-27.66-12.4-27.66-27.65V186.4zm392.28 141.38c0-2.25-1.82-4.08-4.08-4.08H51.81c-2.25.01-4.07 1.83-4.07 4.08s1.82 4.08 4.08 4.08H398.2c2.25 0 4.08-1.82 4.08-4.08zm0-37.28c0-2.25-1.82-4.08-4.08-4.08H51.81a4.07 4.07 0 0 0-4.07 4.08c0 2.25 1.82 4.08 4.08 4.08H398.2c2.25 0 4.08-1.82 4.08-4.08zm-67.24-37.29c0 2.25 1.82 4.08 4.08 4.08h59.08c2.25 0 4.08-1.82 4.08-4.08v-30.26c0-2.25-1.82-4.08-4.08-4.08h-59.08c-2.25 0-4.08 1.82-4.08 4.08v30.26zm-95.77 0c0 2.25 1.82 4.08 4.08 4.08h59.08c2.25 0 4.08-1.82 4.08-4.08v-30.26c0-2.25-1.82-4.08-4.08-4.08h-59.08c-2.25 0-4.08 1.82-4.08 4.08v30.26zm-95.77 0c0 2.25 1.82 4.08 4.08 4.08h59.08c2.25 0 4.08-1.82 4.08-4.08v-30.26c0-2.25-1.82-4.08-4.08-4.08h-59.08c-2.25 0-4.08 1.82-4.08 4.08v30.26zm-95.77 0a4.093 4.093 0 0 0 4.09 4.08h59.08c2.25 0 4.08-1.82 4.08-4.08v-30.26c0-2.25-1.82-4.08-4.08-4.08H51.81c-2.25 0-4.08 1.82-4.08 4.08v30.26z" class="st0" style="fill:url(#a)" fill=""></path></g></svg>