<svg xmlns="http://www.w3.org/2000/svg" version="1.1" xmlns:xlink="http://www.w3.org/1999/xlink" width="512" height="512" x="0" y="0" viewBox="0 0 512 512" style="enable-background:new 0 0 512 512" xml:space="preserve"><rect width="512" height="512" rx="102.4" ry="102.4" fill="#bac8d3" shape="rounded"></rect><g transform="matrix(0.6,0,0,0.6,102.4,97.40000610351564)"><linearGradient id="a"><stop offset="0" stop-color="#ec84ef"></stop><stop offset="1" stop-color="#42ded0"></stop></linearGradient><linearGradient xlink:href="#a" id="b" x1="233.739" x2="233.739" y1="-47" y2="532.235" gradientUnits="userSpaceOnUse"></linearGradient><linearGradient xlink:href="#a" id="c" x1="189.217" x2="189.217" y1="-47" y2="532.235" gradientUnits="userSpaceOnUse"></linearGradient><linearGradient xlink:href="#a" id="d" x1="256" x2="256" y1="-47" y2="532.235" gradientUnits="userSpaceOnUse"></linearGradient><linearGradient xlink:href="#a" id="e" x1="16.739" x2="16.739" y1="-47" y2="532.235" gradientUnits="userSpaceOnUse"></linearGradient><linearGradient xlink:href="#a" id="f" x1="278.261" x2="278.261" y1="-47" y2="532.235" gradientUnits="userSpaceOnUse"></linearGradient><linearGradient xlink:href="#a" id="g" x1="200.348" x2="200.348" y1="-47" y2="532.235" gradientUnits="userSpaceOnUse"></linearGradient><linearGradient xlink:href="#a" id="h" x1="58.015" x2="58.015" y1="-47" y2="532.235" gradientUnits="userSpaceOnUse"></linearGradient><linearGradient xlink:href="#a" id="i" x1="311.652" x2="311.652" y1="-47" y2="532.235" gradientUnits="userSpaceOnUse"></linearGradient><linearGradient xlink:href="#a" id="j" x1="496.274" x2="496.274" y1="-47" y2="532.235" gradientUnits="userSpaceOnUse"></linearGradient><linearGradient xlink:href="#a" id="k" x1="457.98" x2="457.98" y1="-47" y2="532.235" gradientUnits="userSpaceOnUse"></linearGradient><linearGradient xlink:href="#a" id="l" x1="322.783" x2="322.783" y1="-47" y2="532.235" gradientUnits="userSpaceOnUse"></linearGradient><path fill="url(#b)" d="M244.87 155.826c0-6.137-4.993-11.13-11.13-11.13-6.138 0-11.13 4.993-11.13 11.13 0 6.138 4.993 11.13 11.13 11.13h11.13z" opacity="1" data-original="url(#b)"></path><path fill="url(#c)" d="M155.826 211.831h66.783v-22.614h-66.783z" opacity="1" data-original="url(#c)"></path><path fill="url(#d)" d="M244.87 189.217v22.614h22.26v-22.614H256z" opacity="1" data-original="url(#d)"></path><path fill="url(#e)" d="M0 411.826c0 6.137 4.993 11.13 11.13 11.13h22.347L0 392.486z" opacity="1" data-original="url(#e)"></path><path fill="url(#f)" d="M278.261 144.696c-6.137 0-11.13 4.993-11.13 11.13v11.13h11.13c6.137 0 11.13-4.993 11.13-11.13s-4.993-11.13-11.13-11.13z" opacity="1" data-original="url(#f)"></path><path fill="url(#g)" d="M178.087 234.092h44.522v110.952h-44.522z" opacity="1" data-original="url(#g)"></path><path fill="url(#h)" d="m0 362.385 66.549 60.572h49.481L0 316.856z" opacity="1" data-original="url(#h)"></path><path fill="url(#d)" d="M244.87 234.092h22.261v110.952H244.87z" opacity="1" data-original="url(#d)"></path><path fill="url(#i)" d="M289.391 234.092h44.522v110.952h-44.522z" opacity="1" data-original="url(#i)"></path><path fill="url(#j)" d="M500.87 89.043h-20.322L512 125.738v-25.564c0-6.138-4.993-11.131-11.13-11.131z" opacity="1" data-original="url(#j)"></path><path fill="url(#k)" d="M403.96 89.043 512 205.395v-45.451l-60.772-70.901z" opacity="1" data-original="url(#k)"></path><path fill="url(#d)" d="M11.13 89.043C4.993 89.043 0 94.036 0 100.174v186.517l149.017 136.265H500.87c6.137 0 11.13-4.993 11.13-11.13V238.11L373.581 89.043zm367.305 89.044v44.874c0 6.147-4.984 11.13-11.13 11.13h-11.13v122.082c0 6.147-4.984 11.13-11.13 11.13H166.957c-6.147 0-11.13-4.984-11.13-11.13V234.092h-11.13c-6.147 0-11.13-4.983-11.13-11.13v-44.874c0-6.147 4.983-11.13 11.13-11.13h57.567a33.223 33.223 0 0 1-1.915-11.13c0-18.412 14.979-33.391 33.391-33.391 8.546 0 16.349 3.23 22.261 8.53 5.912-5.299 13.715-8.53 22.261-8.53 18.412 0 33.391 14.979 33.391 33.391 0 3.902-.679 7.647-1.915 11.13h57.567c6.146-.001 11.13 4.982 11.13 11.129z" opacity="1" data-original="url(#d)"></path><path fill="url(#l)" d="M289.391 211.831h66.783v-22.614h-66.783z" opacity="1" data-original="url(#l)"></path></g></svg>