<svg xmlns="http://www.w3.org/2000/svg" version="1.1" xmlns:xlink="http://www.w3.org/1999/xlink" width="512" height="512" x="0" y="0" viewBox="0 0 512 512" style="enable-background:new 0 0 512 512" xml:space="preserve" class=""><rect width="512" height="512" rx="102.4" ry="102.4" fill="#bac8d3" shape="rounded"></rect><g transform="matrix(0.7,0,0,0.7,76.80000000000001,66.80000000000001)"><linearGradient id="a"><stop offset="0" stop-color="#ccc"></stop><stop offset="1" stop-color="#29abe2"></stop></linearGradient><linearGradient xlink:href="#a" id="b" x1="405.36" x2="405.36" y1="448" y2="182.381" gradientUnits="userSpaceOnUse"></linearGradient><linearGradient xlink:href="#a" id="c" x1="256" x2="256" y1="448" y2="64" gradientUnits="userSpaceOnUse"></linearGradient><linearGradient xlink:href="#a" id="d" x1="106.64" x2="106.64" y1="448" y2="182.381" gradientUnits="userSpaceOnUse"></linearGradient><path fill="url(#b)" d="M443.14 182.38h-80.42V448h80.42c2.68 0 4.86-2.17 4.86-4.86v-255.9c0-2.68-2.17-4.86-4.86-4.86zM425.7 380.99c0 .9-.73 1.64-1.64 1.64h-36.21c-.9 0-1.64-.74-1.64-1.64v-13.94c0-.91.74-1.64 1.64-1.64h36.21c.91 0 1.64.73 1.64 1.64zm0-58.83c0 .9-.73 1.64-1.64 1.64h-36.21c-.9 0-1.64-.74-1.64-1.64v-13.94c0-.91.74-1.64 1.64-1.64h36.21c.91 0 1.64.73 1.64 1.64zm0-58.82c0 .9-.73 1.64-1.64 1.64h-36.21c-.9 0-1.64-.74-1.64-1.64V249.4c0-.91.74-1.64 1.64-1.64h36.21c.91 0 1.64.73 1.64 1.64z" opacity="1" data-original="url(#b)"></path><path fill="url(#c)" d="M352.8 64H159.2c-2.68 0-4.86 2.17-4.86 4.86V448h203.31V68.86A4.85 4.85 0 0 0 352.8 64zM212.2 179.47c0-.91.74-1.65 1.64-1.65h31.91c.9 0 1.64-.73 1.64-1.64v-31.91c0-.9.74-1.64 1.64-1.64h13.94c.9 0 1.64.74 1.64 1.64v31.91c0 .91.74 1.64 1.64 1.64h31.91c.9 0 1.64.74 1.64 1.65v13.93c0 .91-.74 1.64-1.64 1.64h-31.91c-.9 0-1.64.74-1.64 1.65v31.9c0 .91-.74 1.64-1.64 1.64h-13.94c-.9 0-1.64-.73-1.64-1.64v-31.9c0-.91-.74-1.65-1.64-1.65h-31.91c-.9 0-1.64-.73-1.64-1.64zm-30.28 130.47c0-.91.74-1.65 1.64-1.65h30.51c.91 0 1.65.74 1.65 1.65v13.93c0 .91-.74 1.64-1.65 1.64h-30.51c-.9 0-1.64-.73-1.64-1.64zm34.33 77.34c0 .91-.73 1.65-1.64 1.65h-31.59c-.91 0-1.65-.74-1.65-1.65v-13.93c0-.91.74-1.64 1.65-1.64h31.59c.91 0 1.64.73 1.64 1.64zm22.02-63.41v-13.93c0-.91.73-1.65 1.64-1.65H271c.91 0 1.65.74 1.65 1.65v13.93c0 .91-.74 1.64-1.65 1.64h-31.08c-.92.01-1.65-.72-1.65-1.64zm34.91 63.41c0 .91-.73 1.65-1.64 1.65h-31.08c-.91 0-1.64-.74-1.64-1.65v-13.93c0-.91.73-1.64 1.64-1.64h31.08c.91 0 1.64.73 1.64 1.64zm22.53-63.41v-13.93c0-.91.74-1.65 1.64-1.65h31.09c.9 0 1.64.74 1.64 1.65v13.93c0 .91-.74 1.64-1.64 1.64h-31.09c-.9.01-1.64-.72-1.64-1.64zm34.92 63.41c0 .91-.74 1.65-1.65 1.65H297.9c-.91 0-1.64-.74-1.64-1.65v-13.93c0-.91.73-1.64 1.64-1.64h31.08c.91 0 1.65.73 1.65 1.64z" opacity="1" data-original="url(#c)"></path><path fill="url(#d)" d="M64 187.24v255.9c0 2.68 2.17 4.86 4.86 4.86h80.42V182.38H68.86c-2.69 0-4.86 2.18-4.86 4.86zm22.3 62.15c0-.91.73-1.64 1.64-1.64h36.21c.9 0 1.64.73 1.64 1.64v13.94c0 .9-.74 1.64-1.64 1.64H87.94c-.91 0-1.64-.74-1.64-1.64zm0 58.83c0-.91.73-1.64 1.64-1.64h36.21c.9 0 1.64.73 1.64 1.64v13.94c0 .9-.74 1.64-1.64 1.64H87.94c-.91 0-1.64-.74-1.64-1.64zm0 58.83c0-.91.73-1.64 1.64-1.64h36.21c.9 0 1.64.73 1.64 1.64v13.94c0 .9-.74 1.64-1.64 1.64H87.94c-.91 0-1.64-.74-1.64-1.64z" opacity="1" data-original="url(#d)"></path></g></svg>