<svg xmlns="http://www.w3.org/2000/svg" version="1.1" xmlns:xlink="http://www.w3.org/1999/xlink" width="512" height="512" x="0" y="0" viewBox="0 0 64 64" style="enable-background:new 0 0 512 512" xml:space="preserve" class=""><rect width="64" height="64" rx="12.8" ry="12.8" fill="#bac8d3" shape="rounded"></rect><g transform="matrix(0.6,0,0,0.6,12.799723815917968,12.80142593383789)"><linearGradient id="a" x1="32" x2="32" y1="1" y2="59.48" data-name="New Gradient Swatch" gradientUnits="userSpaceOnUse"><stop offset="0" stop-color="#c2ccff"></stop><stop offset="1" stop-color="#5f7eff"></stop></linearGradient><g fill="url(#a)"><path d="m62.96 19.13-3.35 21.93a2.928 2.928 0 0 1-3.34 2.47l-.77-.12V30.05c0-2.08-1.69-3.77-3.77-3.77H7.82l2.32-15.19c.24-1.6 1.74-2.7 3.34-2.46l47.01 7.17c1.56.2 2.74 1.78 2.47 3.33z" fill="" opacity="1"></path><path d="M51.73 27.35H3.7c-1.49 0-2.7 1.21-2.7 2.7v22.66c0 1.49 1.21 2.7 2.7 2.7h48.03c1.49 0 2.7-1.21 2.7-2.7V30.05c0-1.49-1.21-2.7-2.7-2.7zM12.51 48.31H5.66c-.7-.01-.7-1.08 0-1.08h6.85c.71 0 .71 1.08 0 1.08zm.81-9.81c0 .3-.24.54-.54.54H6.6c-.3 0-.54-.24-.54-.54v-4.36c0-.3.24-.54.54-.54h6.18c.3 0 .54.24.54.54zm9.1 9.81h-6.85c-.71-.01-.71-1.08 0-1.08h6.85c.7 0 .7 1.08 0 1.08zm9.9 0h-6.85c-.7-.01-.7-1.08 0-1.08h6.85c.71 0 .71 1.08 0 1.08zm9.91 0h-6.86c-.7-.01-.7-1.08 0-1.08h6.86c.7 0 .7 1.08 0 1.08z" fill="" opacity="1"></path><path d="M7.15 34.68h5.1v3.28h-5.1z" fill="" opacity="1"></path></g></g></svg>