<svg xmlns="http://www.w3.org/2000/svg" version="1.1" xmlns:xlink="http://www.w3.org/1999/xlink" width="512" height="512" x="0" y="0" viewBox="0 0 100 100" style="enable-background:new 0 0 512 512" xml:space="preserve"><rect width="100" height="100" rx="20" ry="20" fill="#bac8d3" shape="rounded"></rect><g transform="matrix(0.5499999999999999,0,0,0.5499999999999999,22.49999914169312,22.5)"><linearGradient id="a"><stop offset="0" stop-color="#92caff"></stop><stop offset="1" stop-color="#3d59a8"></stop></linearGradient><linearGradient xlink:href="#a" id="b" x1=".278" x2="93.424" y1="2.915" y2="96.399" gradientUnits="userSpaceOnUse"></linearGradient><linearGradient xlink:href="#a" id="c" x1="-17.349" x2="75.798" y1="20.478" y2="113.961" gradientUnits="userSpaceOnUse"></linearGradient><path fill="url(#b)" d="M88.19 16.8c-1.11 0-2.02.91-2.02 2.02v74.64H18.96c-2.83 0-5.13-2.31-5.13-5.14 0-1.37.53-2.65 1.51-3.62.96-.96 2.25-1.5 3.62-1.5H78.4c1.11 0 2.02-.91 2.02-2.02V4.52c0-1.11-.91-2.02-2.02-2.02H18.96c-5.06 0-9.17 4.11-9.17 9.18v76.64c0 2.53 1.03 4.83 2.68 6.49a9.179 9.179 0 0 0 6.49 2.69h69.23c1.11 0 2.02-.91 2.02-2.02V18.82c0-1.11-.91-2.02-2.02-2.02zm-62.58-1.95H70.3V29.7H25.61z" opacity="1" data-original="url(#b)"></path><path fill="url(#c)" d="M80.42 88.33c0 1.11-.9 2.02-2.02 2.02H22.11c-1.11 0-2.02-.91-2.02-2.02 0-1.12.91-2.02 2.02-2.02H78.4c1.12 0 2.02.9 2.02 2.02z" opacity="1" data-original="url(#c)"></path></g></svg>