<svg xmlns="http://www.w3.org/2000/svg" version="1.1" xmlns:xlink="http://www.w3.org/1999/xlink" width="512" height="512" x="0" y="0" viewBox="0 0 64 64" style="enable-background:new 0 0 512 512" xml:space="preserve"><rect width="64" height="64" rx="12.8" ry="12.8" fill="#bac8d3" shape="rounded"></rect><g transform="matrix(0.6499999999999998,0,0,0.6499999999999998,11.200000000000006,11.331914234161381)"><linearGradient id="a" x1="22.03" x2="22.03" y1="60.856" y2="-8.363" gradientUnits="userSpaceOnUse"><stop offset="0" stop-color="#6713d2"></stop><stop offset="1" stop-color="#cc208e"></stop></linearGradient><linearGradient xlink:href="#a" id="b" x1="41.97" x2="41.97" y1="60.856" y2="-8.363"></linearGradient><linearGradient xlink:href="#a" id="c" x1="32" x2="32" y1="60.856" y2="-8.363"></linearGradient><linearGradient xlink:href="#a" id="d" x1="51" x2="51" y1="60.856" y2="-8.363"></linearGradient><linearGradient xlink:href="#a" id="e" x1="13" x2="13" y1="60.856" y2="-8.363"></linearGradient><g data-name="plane-airplane-flight-fly-travel"><path fill="url(#a)" d="M25.52 50.1 17 56l1 4 9.06-3.77-1.53-6.13z" opacity="1" data-original="url(#a)"></path><path fill="url(#b)" d="m38.47 50.1-1.53 6.13L46 60l1-4-8.52-5.9z" opacity="1" data-original="url(#b)"></path><path fill="url(#c)" d="M37 8a5 5 0 0 0-10 0v38.77a9.842 9.842 0 0 0 .3 2.42l.23.91 1.53 6.13 1 4.01a2 2 0 0 0 3.88 0l1-4.01 1.53-6.13.23-.91a9.842 9.842 0 0 0 .3-2.42zm-3.71 1.77a2.645 2.645 0 0 0-1.27-.75 2.61 2.61 0 0 0-1.32.77L29.26 8.4a4.508 4.508 0 0 1 2.72-1.38 4.336 4.336 0 0 1 2.77 1.39z" opacity="1" data-original="url(#c)"></path><path fill="url(#d)" d="M39 24v11l24 5v-4z" opacity="1" data-original="url(#d)"></path><path fill="url(#e)" d="M25 24 1 36v4l24-5z" opacity="1" data-original="url(#e)"></path></g></g></svg>