<svg xmlns="http://www.w3.org/2000/svg" version="1.1" xmlns:xlink="http://www.w3.org/1999/xlink" width="512" height="512" x="0" y="0" viewBox="0 0 24 24" style="enable-background:new 0 0 512 512" xml:space="preserve" class=""><rect width="24" height="24" rx="4.8" ry="4.8" fill="#bac8d3" shape="rounded"></rect><g transform="matrix(0.61,0,0,0.61,4.6800000000000015,4.6800000000000015)"><linearGradient id="a" x1="12" x2="12" y1="4" y2="20" gradientUnits="userSpaceOnUse"><stop offset="0" stop-color="#003aff"></stop><stop offset="1" stop-color="#90a8f9"></stop></linearGradient><g fill="url(#a)"><path d="M11.37 11a5.489 5.489 0 0 1-2.143-2.93 1.456 1.456 0 0 1 .237-1.293 1.493 1.493 0 0 1 1.606-.549A5.482 5.482 0 0 1 14 8.37V4H2.5A2.503 2.503 0 0 0 0 6.5V11zM18.734 7.375a.497.497 0 0 0-.392-.208.478.478 0 0 0-.128.019 4.53 4.53 0 0 0-3.183 3.782 4.526 4.526 0 0 0 3.781-3.183.454.454 0 0 0-.078-.41z" fill="" opacity="1"></path><path d="M15 8.37a5.489 5.489 0 0 1 2.93-2.143 1.495 1.495 0 0 1 1.606.549c.282.378.368.85.236 1.293a5.486 5.486 0 0 1-2.143 2.93H24V6.5C24 5.122 22.879 4 21.5 4H15zM10.785 7.186a.478.478 0 0 0-.128-.019.499.499 0 0 0-.392.208.457.457 0 0 0-.079.41 4.53 4.53 0 0 0 3.781 3.183 4.526 4.526 0 0 0-3.182-3.782zM14 12.707l-2.146 2.146a.5.5 0 1 1-.708-.706L13.293 12H0v5.5C0 18.878 1.121 20 2.5 20H14zM3.5 14h4a.5.5 0 0 1 0 1h-4a.5.5 0 0 1 0-1zm7 3h-7a.5.5 0 0 1 0-1h7a.5.5 0 0 1 0 1zM15.707 12l2.146 2.146a.5.5 0 0 1-.707.708L15 12.707V20h6.5c1.379 0 2.5-1.122 2.5-2.5V12z" fill="" opacity="1"></path></g></g></svg>