<svg xmlns="http://www.w3.org/2000/svg" version="1.1" xmlns:xlink="http://www.w3.org/1999/xlink" width="512" height="512" x="0" y="0" viewBox="0 0 100 100" style="enable-background:new 0 0 512 512" xml:space="preserve"><rect width="100" height="100" rx="20" ry="20" fill="#bac8d3" shape="rounded"></rect><g transform="matrix(0.6599999999999998,0,0,0.6599999999999998,17.000000000000007,17.000000000000007)"><linearGradient id="a"><stop offset="0" stop-color="#67c8ff"></stop><stop offset="1" stop-color="#0047f4"></stop></linearGradient><linearGradient xlink:href="#a" id="b" x1="1.567" x2="110.54" y1="-11.38" y2="96.531" gradientUnits="userSpaceOnUse"></linearGradient><linearGradient xlink:href="#a" id="c" x1="-24.88" x2="84.093" y1="15.328" y2="123.239" gradientUnits="userSpaceOnUse"></linearGradient><path fill="url(#b)" d="M73.104 5.593h-3.962L65.44 2.5H34.56l-3.702 3.093h-3.962a9.354 9.354 0 0 0-9.357 9.356v47.167l10.813 9.989h43.296l10.813-9.989V14.95a9.354 9.354 0 0 0-9.357-9.356zM38.228 58.29h-4.424V45.333h4.424zm13.984 0h-4.424V45.333h4.424zm13.984 0h-4.424V45.333h4.424zm8.048-19.142H25.756V15.006h48.488v24.142z" opacity="1" data-original="url(#b)"></path><path fill="url(#c)" d="m76.132 97.5 5.293-1.958-7.08-19.138-5.292 1.958 1.63 4.408H29.317l1.63-4.408-5.293-1.958-7.079 19.138 5.293 1.958 3.361-9.087h45.542z" opacity="1" data-original="url(#c)"></path></g></svg>