<svg xmlns="http://www.w3.org/2000/svg" version="1.1" xmlns:xlink="http://www.w3.org/1999/xlink" width="512" height="512" x="0" y="0" viewBox="0 0 32 32" style="enable-background:new 0 0 512 512" xml:space="preserve" class=""><rect width="32" height="32" rx="6.4" ry="6.4" fill="#bac8d3" shape="rounded"></rect><g transform="matrix(0.5599999999999999,0,0,0.5599999999999999,7.040537948608398,7.040000000000001)"><linearGradient id="a" x1="-2.76" x2="32.56" y1="8.5" y2="8.5" data-name="New Gradient Swatch" gradientUnits="userSpaceOnUse"><stop offset="0" stop-color="#7738c8"></stop><stop offset="1" stop-color="#461d93"></stop></linearGradient><linearGradient xlink:href="#a" id="b" x2="32.56" y1="13.5" y2="13.5" data-name="New Gradient Swatch"></linearGradient><linearGradient xlink:href="#a" id="c" x2="32.56" y1="3.5" y2="3.5" data-name="New Gradient Swatch"></linearGradient><linearGradient xlink:href="#a" id="d" x2="32.56" y1="23.95" y2="23.95" data-name="New Gradient Swatch"></linearGradient><linearGradient xlink:href="#a" id="e" x2="32.56" y1="23.52" y2="23.52" data-name="New Gradient Swatch"></linearGradient><linearGradient xlink:href="#a" id="f" x2="32.56" y1="8.81" y2="8.81" data-name="New Gradient Swatch"></linearGradient><linearGradient xlink:href="#a" id="g" x2="32.56" y1="7.95" y2="7.95" data-name="New Gradient Swatch"></linearGradient><path fill="url(#a)" d="M26.09 8.5c0 .55.45 1 1 1H30c.55 0 1-.45 1-1s-.45-1-1-1h-2.91c-.55 0-1 .45-1 1z" opacity="1" data-original="url(#a)"></path><path fill="url(#b)" d="M26.38 14.71c.2.2.45.29.71.29s.51-.1.71-.29a.996.996 0 0 0 0-1.41l-1-1a.996.996 0 1 0-1.41 1.41l1 1z" opacity="1" data-original="url(#b)"></path><path fill="url(#c)" d="M26.09 5c.26 0 .51-.1.71-.29l1-1a.996.996 0 1 0-1.41-1.41l-1 1A.996.996 0 0 0 26.1 5z" opacity="1" data-original="url(#c)"></path><path fill="url(#a)" d="M2 9.5h2.91c.55 0 1-.45 1-1s-.45-1-1-1H2c-.55 0-1 .45-1 1s.45 1 1 1z" opacity="1" data-original="url(#a)"></path><path fill="url(#b)" d="m5.2 12.29-1 1a.996.996 0 0 0 .71 1.7c.26 0 .51-.1.71-.29l1-1a.996.996 0 1 0-1.41-1.41z" opacity="1" data-original="url(#b)"></path><path fill="url(#c)" d="M5.2 4.71c.2.2.45.29.71.29s.51-.1.71-.29a.996.996 0 0 0 0-1.41l-1-1a.996.996 0 1 0-1.41 1.41l1 1z" opacity="1" data-original="url(#c)"></path><path fill="url(#d)" d="M28.69 17.75c-1.13-1.13-3.11-1.13-4.24 0l-4.77 4.77h-.14V21c0-1.65-1.35-3-3-3H9.01c0-.55-.45-1-1-1H2c-.55 0-1 .45-1 1v12c0 .55.45 1 1 1h6c.55 0 1-.45 1-1h12.1c.54 0 1.04-.21 1.42-.59l8.19-8.23a.996.996 0 0 0 0-1.41zM7 29H3V19h4zm14.1-1H9v-8h7.53c.55 0 1 .45 1 1v1.52h-2.74c-.55 0-1 .45-1 1s.45 1 1 1h5.29c.27 0 .52-.11.71-.29l5.07-5.07c.38-.38 1.04-.38 1.41 0l1.32 1.32z" opacity="1" data-original="url(#d)"></path><path fill="url(#e)" d="M12.19 22.52h-.5c-.55 0-1 .45-1 1s.45 1 1 1h.5c.55 0 1-.45 1-1s-.45-1-1-1z" opacity="1" data-original="url(#e)"></path><path fill="url(#f)" d="m11.14 13.06 4.24 3.35c.18.14.4.22.62.22s.44-.07.62-.22l4.24-3.35A5.616 5.616 0 0 0 23 8.64V3.63c0-.55-.45-1-1-1-3.88 0-5.21-1.27-5.27-1.32-.18-.2-.45-.3-.72-.31-.28 0-.55.11-.75.31-.01.01-1.33 1.32-5.27 1.32-.55 0-1 .45-1 1v5.01c0 1.74.78 3.35 2.14 4.42zM11 4.6c2.63-.14 4.18-.82 5-1.35.82.52 2.37 1.21 5 1.35v4.04c0 1.12-.5 2.16-1.38 2.85L16 14.35l-3.62-2.86A3.596 3.596 0 0 1 11 8.64z" opacity="1" data-original="url(#f)"></path><path fill="url(#g)" d="M14.49 9.93a1.007 1.007 0 0 0 1.35.06l3.1-2.55c.43-.35.49-.98.14-1.41s-.98-.49-1.41-.14l-2.4 1.97-.84-.84a.996.996 0 1 0-1.41 1.41l1.49 1.49z" opacity="1" data-original="url(#g)"></path></g></svg>