<svg xmlns="http://www.w3.org/2000/svg" version="1.1" xmlns:xlink="http://www.w3.org/1999/xlink" width="512" height="512" x="0" y="0" viewBox="0 0 503 503.385" style="enable-background:new 0 0 512 512" xml:space="preserve"><rect width="503" height="503.385" rx="100.6" ry="100.6" fill="#bac8d3" shape="rounded"></rect><g transform="matrix(0.5499999999999999,0,0,0.5499999999999999,113.58702116012574,103.26138292374964)"><linearGradient id="a"><stop offset="0" stop-color="#00efd1"></stop><stop offset="1" stop-color="#00acea"></stop></linearGradient><linearGradient xlink:href="#a" id="b" x1="172.699" x2="172.699" y1="2.263" y2="497.349" gradientUnits="userSpaceOnUse"></linearGradient><linearGradient xlink:href="#a" id="c" x1="277.685" x2="277.685" y1="2.263" y2="497.349" gradientUnits="userSpaceOnUse"></linearGradient><linearGradient xlink:href="#a" id="d" x1="421.525" x2="421.525" y1="2.263" y2="497.349" gradientUnits="userSpaceOnUse"></linearGradient><linearGradient xlink:href="#a" id="e" x1="220.192" x2="220.192" y1="2.263" y2="497.349" gradientUnits="userSpaceOnUse"></linearGradient><path fill="url(#b)" d="m297.793 390.066-49.902 25.168a43.657 43.657 0 0 0-37.07-20.851H163.02a48.914 48.914 0 0 1-21.258-4.762l-4.934-2.332a87.16 87.16 0 0 0-78.637 1.25v-8.691c0-4.418-3.574-8.465-7.992-8.465H7.777c-4.418 0-7.586 4.047-7.586 8.465v115.035c0 4.418 3.168 8.5 7.586 8.5H50.2c4.418 0 7.992-4.082 7.992-8.5v-4.7l12.711-7.257a22.006 22.006 0 0 1 16.344-2.246l81.887 20.574c.172.043.347.078.523.113a88.491 88.491 0 0 0 15.73 1.406 89.669 89.669 0 0 0 39.645-9.226c.34-.168.668-.36.977-.574l115.726-79.457a8.001 8.001 0 0 0 2.325-10.723c-9.555-15.91-29.918-21.512-46.266-12.727zM42.191 487.383h-26v-100h26zm175.243-7.93a73.49 73.49 0 0 1-44.668 6.219l-81.621-20.508a37.922 37.922 0 0 0-28.18 3.871l-4.774 2.723V407.19a71.218 71.218 0 0 1 71.664-5.441l4.934 2.277a65.105 65.105 0 0 0 28.227 6.356h47.8c12.301-.067 23.114 8.137 26.356 20h-69.399a8 8 0 0 0 0 16h78.582a8.1 8.1 0 0 0 8-8.121 44.336 44.336 0 0 0-.71-7.84l51.457-26.102c.062-.03.125-.078.183-.11a18.787 18.787 0 0 1 19.914 1.255zm0 0" opacity="1" data-original="url(#b)"></path><path fill="url(#c)" d="M452.605.383h-62.421c-4.418 0-7.993 3.082-7.993 7.5v4.703l-12.71 7.258a21.979 21.979 0 0 1-16.34 2.242L271.25 1.512a7.77 7.77 0 0 0-.523-.11 89.624 89.624 0 0 0-55.375 7.817c-.336.168-.665.36-.977.574L98.652 89.25a7.998 7.998 0 0 0-2.328 10.723c9.551 15.918 29.922 21.52 46.27 12.73l49.898-25.168a43.65 43.65 0 0 0 37.07 20.848h47.81a48.998 48.998 0 0 1 21.257 4.765l4.93 2.332a87.592 87.592 0 0 0 38.187 8.762 88.294 88.294 0 0 0 40.445-10v8.68c0 4.418 3.575 8.46 7.993 8.46h62.421c4.418 0 7.586-4.042 7.586-8.46V7.882a7.244 7.244 0 0 0-7.586-7.5zM310.527 101.02l-4.93-2.278a65.164 65.164 0 0 0-28.226-6.36h-47.808a27.158 27.158 0 0 1-26.356-20h69.398c4.418 0 8-3.577 8-8a8 8 0 0 0-8-8H194.02c-4.442.06-8.012 3.68-8 8.122.003 2.633.242 5.258.71 7.844l-51.457 26.101c-.058.031-.12.078-.183.11a18.78 18.78 0 0 1-19.91-1.254l107.77-73.993a73.497 73.497 0 0 1 44.671-6.214l81.617 20.507a37.932 37.932 0 0 0 28.184-3.87l4.77-2.727v64.57a71.216 71.216 0 0 1-71.665 5.442zm133.664 14.363h-46v-99h46zm0 0" opacity="1" data-original="url(#c)"></path><path fill="url(#d)" d="M421.523 108.719c12.704 0 23-10.297 23-23s-10.296-23-23-23c-12.699 0-23 10.297-23 23 .016 12.695 10.305 22.984 23 23zm0-30a7.001 7.001 0 1 1-7 7 7.008 7.008 0 0 1 7-7zm0 0" opacity="1" data-original="url(#d)"></path><g fill="url(#e)"><path d="M220.191 115.848c-74.734 0-135.535 60.8-135.535 135.535 0 74.738 60.801 135.539 135.535 135.539 74.739 0 135.54-60.8 135.54-135.54 0-74.734-60.801-135.534-135.54-135.534zm0 255.074c-66.02 0-119.535-53.52-119.535-119.54 0-66.015 53.516-119.534 119.535-119.534 66.02 0 119.54 53.52 119.54 119.535-.075 65.988-53.551 119.465-119.54 119.539zm0 0" fill="" opacity="1"></path><path d="M264.738 213.383H246.66a46.26 46.26 0 0 0-10.59-22h28.668a8 8 0 0 0 0-16h-89.093a8 8 0 0 0 0 16h25.496c13.898 0 25.625 10 29.14 22h-54.636a8 8 0 0 0 0 16h54.636c-3.515 13-15.246 23-29.14 23h-25.496a7.8 7.8 0 0 0-7.434 4.863 7.796 7.796 0 0 0 1.934 8.668l63.722 60.164a8.01 8.01 0 0 0 11.309-.355 7.773 7.773 0 0 0 2.18-5.63 7.764 7.764 0 0 0-2.5-5.491l-49.098-46.22h5.383c22.757 0 41.714-17 45.52-39h18.077c4.418 0 8-3.577 8-8a8 8 0 0 0-8-8zm0 0" fill="" opacity="1"></path></g></g></svg>