<svg xmlns="http://www.w3.org/2000/svg" version="1.1" xmlns:xlink="http://www.w3.org/1999/xlink" width="512" height="512" x="0" y="0" viewBox="0 0 64 64" style="enable-background:new 0 0 512 512" xml:space="preserve" class=""><rect width="64" height="64" rx="12.8" ry="12.8" fill="#bac8d3" shape="rounded"></rect><g transform="matrix(0.6499999999999998,0,0,0.6499999999999998,7.600002670288099,11.200000000000006)"><linearGradient id="a" x1="36" x2="36" y1="62.094" y2="1.638" gradientUnits="userSpaceOnUse"><stop offset="0" stop-color="#006df0"></stop><stop offset="1" stop-color="#00e7f0"></stop></linearGradient><linearGradient xlink:href="#a" id="b" x1="32" x2="32" y1="62.094" y2="1.638"></linearGradient><linearGradient xlink:href="#a" id="c" x1="31.5" x2="31.5" y1="62.094" y2="1.638"></linearGradient><g data-name="smartphone-mobilephone-user interface-hand-check"><path fill="url(#a)" d="M53.36 34.12 48 28.76V7a5 5 0 0 0-5-5H21a5 5 0 0 0-5 5v38a5 5 0 0 0 5 5h13.87a10.878 10.878 0 0 0 1.73 7.69l.4.61V61a1 1 0 0 0 1 1h15.01a1.033 1.033 0 0 0 .71-.29 1.007 1.007 0 0 0 .29-.71L54 59.61a1 1 0 0 1 .17-.56l.65-.98A7 7 0 0 0 56 54.18v-13.7a8.942 8.942 0 0 0-2.64-6.36zM18 7a3.009 3.009 0 0 1 3-3h22a3.009 3.009 0 0 1 3 3v1H18zm0 3h28v26.84l-2.65-2.65a4.092 4.092 0 0 0-5.66.01 4.026 4.026 0 0 0 0 5.66L39.84 42H18zm3 38a3.009 3.009 0 0 1-3-3v-1h23.84l.49.5a7.166 7.166 0 0 0-1.15 3.5zm33 6.18a5.016 5.016 0 0 1-.84 2.78l-.65.98a2.966 2.966 0 0 0-.51 1.68V60H39v-2a.967.967 0 0 0-.17-.55l-.57-.87A8.861 8.861 0 0 1 36.91 50h4.41a7.3 7.3 0 0 0 1.43 3.05l.47.58A1.02 1.02 0 0 0 44 54a1 1 0 0 0 .78-1.63l-.47-.57a5.308 5.308 0 0 1 .1-6.75 1 1 0 0 0-.05-1.36l-5.25-5.24a2.025 2.025 0 0 1-.01-2.84 2.074 2.074 0 0 1 2.84 0l7.07 7.07a1 1 0 0 0 1.42-1.42L48 38.84v-7.26l3.95 3.95A6.977 6.977 0 0 1 54 40.48z" opacity="1" data-original="url(#a)"></path><path fill="url(#b)" d="M32 14a9 9 0 1 0 9 9 9.01 9.01 0 0 0-9-9zm0 16a7 7 0 1 1 7-7 7.008 7.008 0 0 1-7 7z" opacity="1" data-original="url(#b)"></path><path fill="url(#c)" d="M35.293 19.293 30 24.586l-2.293-2.293a1 1 0 0 0-1.414 1.414l3 3a1 1 0 0 0 1.414 0l6-6a1 1 0 0 0-1.414-1.414z" opacity="1" data-original="url(#c)"></path><g fill="url(#b)"><path d="M31 7h2a1 1 0 0 0 0-2h-2a1 1 0 0 0 0 2zM33 45h-2a1 1 0 0 0 0 2h2a1 1 0 0 0 0-2z" fill="" opacity="1"></path></g></g></g></svg>