<svg xmlns="http://www.w3.org/2000/svg" version="1.1" xmlns:xlink="http://www.w3.org/1999/xlink" width="512" height="512" x="0" y="0" viewBox="0 0 512 512" style="enable-background:new 0 0 512 512" xml:space="preserve"><rect width="512" height="512" rx="102.4" ry="102.4" fill="#bac8d3" shape="rounded"></rect><g transform="matrix(0.68,0,0,0.68,81.91999572753906,81.91999999999999)"><linearGradient id="a" x1="256" x2="256" y1="14.767" y2="489.422" gradientUnits="userSpaceOnUse"><stop offset="0" stop-color="#00efd1"></stop><stop offset="1" stop-color="#00acea"></stop></linearGradient><linearGradient xlink:href="#a" id="b" x1="217.459" x2="217.459" y1="14.767" y2="489.422"></linearGradient><path fill="url(#a)" d="M402.2 215a10.177 10.177 0 0 0 6.791-2.836l77.029-71.353a10.377 10.377 0 0 0 2.521-11.222 10.222 10.222 0 0 0-9.315-6.589h-95.391c-.1 0-.3-1.784-.632-2.625A10.042 10.042 0 0 0 373.9 114H220.892a10.046 10.046 0 0 0-6.828 2.739L207.412 123H109.8a10.192 10.192 0 0 0-6.791 2.851l-77.029 71.36a10.359 10.359 0 0 0-2.521 11.211A10.211 10.211 0 0 0 32.774 215H128v40H32.774a10 10 0 0 0 0 20H128v42H32.774a10 10 0 0 0 0 20H128v41H32.774a10 10 0 0 0 0 20H402.2a10.256 10.256 0 0 0 5.468-1.865l77.029-50.423a10.07 10.07 0 0 0 2.9-13.9 9.951 9.951 0 0 0-13.841-2.7L399.221 378H301v-41h101.2a10.132 10.132 0 0 0 5.849-2.018l77.029-55.61a9.967 9.967 0 1 0-11.7-16.141L398.968 317H301v-42h101.2a9.8 9.8 0 0 0 6.195-1.934l77.029-60.676a10.054 10.054 0 0 0-12.39-15.836L398.727 255H301v-40zm-33.536-72h85.031l-55.411 52h-85.119l55.145-51.65c.117.004.232-.35.351-.35zm-237.828 52H58.308l55.411-52h72.2l-54.629 51.165c-.161.148-.305-.165-.454.835zm153.408-1.057A10.584 10.584 0 0 0 281 201.5V378H148V205.86l68.508-63.888 8.328-7.972H348.5z" opacity="1" data-original="url(#a)"></path><path fill="url(#b)" d="M266.681 230a10 10 0 0 0-10-10h-78.443a10 10 0 0 0 0 20h22.479c9.463 0 17.641 5 21.415 14h-43.894a10 10 0 0 0 0 20h43.917a30.735 30.735 0 0 1-4.688 6.368 23.372 23.372 0 0 1-16.75 6.632h-22.479a10.1 10.1 0 0 0-6.868 17.409l56.12 53.052a9.993 9.993 0 1 0 13.737-14.516L203.3 307.11a43.337 43.337 0 0 0 28.278-12.477A46.756 46.756 0 0 0 243.2 274h13.478a10 10 0 1 0 0-20h-13.489a43.365 43.365 0 0 0-5.818-14h19.31a10 10 0 0 0 10-10z" opacity="1" data-original="url(#b)"></path></g></svg>