<svg xmlns="http://www.w3.org/2000/svg" version="1.1" xmlns:xlink="http://www.w3.org/1999/xlink" width="512" height="512" x="0" y="0" viewBox="0 0 64 64" style="enable-background:new 0 0 512 512" xml:space="preserve"><rect width="64" height="64" rx="12.8" ry="12.8" fill="#bac8d3" shape="rounded"></rect><g transform="matrix(0.5900000000000001,0,0,0.5900000000000001,13.120000097751614,13.123074679374692)"><linearGradient id="a" x1="-6.51" x2="41.73" y1="19.84" y2="74.25" gradientUnits="userSpaceOnUse"><stop offset="0" stop-color="#15b3ff"></stop><stop offset="1" stop-color="#e200e9"></stop></linearGradient><linearGradient xlink:href="#a" id="b" x1="15.13" x2="63.36" y1=".66" y2="55.07"></linearGradient><linearGradient xlink:href="#a" id="c" x1="2.92" x2="51.16" y1="11.48" y2="65.89"></linearGradient><linearGradient xlink:href="#a" id="d" x1="5.41" x2="53.65" y1="9.27" y2="63.68"></linearGradient><path fill="url(#a)" d="M27 61H17c-.55 0-1-.45-1-1V44c0-.55.45-1 1-1h10c.55 0 1 .45 1 1v16c0 .55-.45 1-1 1zm-9-2h8V45h-8z" opacity="1" data-original="url(#a)"></path><path fill="url(#b)" d="M46 53h8c.55 0 1-.45 1-1V28c0-.55-.45-1-1-1h-8c-.55 0-1 .45-1 1v24c0 .55.45 1 1 1zm1-24h6v22h-6z" opacity="1" data-original="url(#b)"></path><path fill="url(#c)" d="M30 27H14c-.55 0-1 .45-1 1v10c0 .55.45 1 1 1h16c.55 0 1-.45 1-1V28c0-.55-.45-1-1-1zm-15 2h6v8h-6zm14 8h-6v-8h6z" opacity="1" data-original="url(#c)"></path><path fill="url(#d)" d="M60.93 23.63v-.02l-3.99-9.98a1 1 0 0 0-.93-.63h-24c-.16 0-.31.05-.45.12l-8.82-9.79c-.38-.42-1.11-.42-1.49 0l-17.99 20c-.07.08-.13.17-.17.26-.01.02-.01.05-.02.07-.03.09-.05.19-.06.28 0 .02-.01.03-.01.05v36c0 .55.45 1 1 1h56c.55 0 1-.45 1-1V23.96a.92.92 0 0 0-.06-.33zM55.32 15l3.2 8H40.44l-7.2-8zM22 5.5 37.75 23H6.25zM5 25h34v34H5zm54 34H41V25h18z" opacity="1" data-original="url(#d)"></path></g></svg>