<svg xmlns="http://www.w3.org/2000/svg" version="1.1" xmlns:xlink="http://www.w3.org/1999/xlink" width="512" height="512" x="0" y="0" viewBox="0 0 432 432.5" style="enable-background:new 0 0 512 512" xml:space="preserve" class=""><rect width="432" height="432.5" rx="86.4" ry="86.4" fill="#bac8d3" shape="rounded"></rect><g transform="matrix(0.6,0,0,0.6,133.10002746582032,86.5)"><linearGradient id="a"><stop offset="0" stop-color="#00efd1"></stop><stop offset="1" stop-color="#00acea"></stop></linearGradient><linearGradient xlink:href="#a" id="b" x1="256" x2="256" y1="494" y2="13.583" gradientTransform="matrix(1 0 0 -1 -110.75 474.3)" gradientUnits="userSpaceOnUse"></linearGradient><linearGradient xlink:href="#a" id="c" x1="255.994" x2="255.994" y1="494" y2="13.583" gradientTransform="matrix(1 0 0 -1 -110.75 474.3)" gradientUnits="userSpaceOnUse"></linearGradient><path fill="url(#b)" d="m202.148 105.5 23-79.898A20 20 0 0 0 205.948 0H85.052a20.055 20.055 0 0 0-16.207 8.305A20.054 20.054 0 0 0 66.05 26.3l25.8 78C37.388 121.133.247 171.492.25 228.5v154c.012 27.61 22.39 49.988 50 50h190c27.61-.012 49.988-22.39 50-50v-154c.086-55.66-35.371-105.164-88.102-123zm-90.199-4.102-5.597-17 80.898.704-4.898 17zm94-81.296-13 45.097-93.199-.8-14.602-44.297zM270.25 382.5c-.047 16.547-13.453 29.953-30 30h-190c-16.547-.047-29.953-13.453-30-30v-154c-.016-51.332 35.46-95.852 85.5-107.3l82.7.902c48.234 12.757 81.82 56.406 81.8 106.296zm0 0" opacity="1" data-original="url(#b)"></path><path fill="url(#c)" d="M184.852 229.3c5.52 0 10-4.476 10-10 0-5.523-4.48-10-10-10h-79.204c-5.52 0-10 4.477-10 10 0 5.524 4.48 10 10 10h22.704a23.894 23.894 0 0 1 21.796 14H105.75c-5.523 0-10 4.477-10 10 0 5.524 4.477 10 10 10h44.398a24.065 24.065 0 0 1-21.796 14h-22.704a10.027 10.027 0 0 0-9.304 6.313 10.035 10.035 0 0 0 2.406 10.989l56.602 53.5a10.013 10.013 0 0 0 6.898 2.699 10.317 10.317 0 0 0 7.3-3.102 9.946 9.946 0 0 0 2.723-7.133 9.95 9.95 0 0 0-3.125-6.964L130.75 297.3c19.48-1.13 35.91-14.914 40.398-33.903h13.704c5.52 0 10-4.476 10-10 0-5.52-4.48-10-10-10h-13.704a43.61 43.61 0 0 0-6-14h19.704zm0 0" opacity="1" data-original="url(#c)"></path></g></svg>