<svg xmlns="http://www.w3.org/2000/svg" version="1.1" xmlns:xlink="http://www.w3.org/1999/xlink" width="512" height="512" x="0" y="0" viewBox="0 0 64 64" style="enable-background:new 0 0 512 512" xml:space="preserve" class=""><rect width="64" height="64" rx="12.8" ry="12.8" fill="#bac8d3" shape="rounded"></rect><g transform="matrix(0.7,0,0,0.7,9.600000000000001,9.599798011779786)"><linearGradient id="a"><stop offset="0" stop-color="#00a5e9"></stop><stop offset="1" stop-color="#15ffce"></stop></linearGradient><linearGradient xlink:href="#a" id="b" x1="32" x2="32" y1="58" y2="6" gradientUnits="userSpaceOnUse"></linearGradient><linearGradient xlink:href="#a" id="c" x1="35" x2="35" y1="58" y2="6" gradientUnits="userSpaceOnUse"></linearGradient><linearGradient xlink:href="#a" id="d" x1="55" x2="55" y1="58" y2="6" gradientUnits="userSpaceOnUse"></linearGradient><linearGradient xlink:href="#a" id="e" x1="9" x2="9" y1="58" y2="6" gradientUnits="userSpaceOnUse"></linearGradient><linearGradient xlink:href="#a" id="f" x1="29" x2="29" y1="58" y2="6" gradientUnits="userSpaceOnUse"></linearGradient><linearGradient xlink:href="#a" id="g" x1="12" x2="12" y1="58" y2="6" gradientUnits="userSpaceOnUse"></linearGradient><linearGradient xlink:href="#a" id="h" x1="52" x2="52" y1="57.992" y2="5.992" gradientUnits="userSpaceOnUse"></linearGradient><linearGradient xlink:href="#a" id="i" x1="12" x2="12" y1="57.992" y2="5.992" gradientUnits="userSpaceOnUse"></linearGradient><linearGradient xlink:href="#a" id="j" x1="52" x2="52" y1="58" y2="6" gradientUnits="userSpaceOnUse"></linearGradient><linearGradient xlink:href="#a" id="k" x1="17.5" x2="17.5" y1="58" y2="6" gradientUnits="userSpaceOnUse"></linearGradient><linearGradient xlink:href="#a" id="l" x1="23" x2="23" y1="58" y2="6" gradientUnits="userSpaceOnUse"></linearGradient><linearGradient xlink:href="#a" id="m" x1="49.5" x2="49.5" y1="58" y2="6" gradientUnits="userSpaceOnUse"></linearGradient><linearGradient xlink:href="#a" id="n" x1="56" x2="56" y1="58" y2="6" gradientUnits="userSpaceOnUse"></linearGradient><linearGradient xlink:href="#a" id="o" x1="46.5" x2="46.5" y1="58" y2="6" gradientUnits="userSpaceOnUse"></linearGradient><linearGradient xlink:href="#a" id="p" x1="14.5" x2="14.5" y1="58" y2="6" gradientUnits="userSpaceOnUse"></linearGradient><linearGradient xlink:href="#a" id="q" x1="8" x2="8" y1="58" y2="6" gradientUnits="userSpaceOnUse"></linearGradient><path fill="url(#b)" d="M29 26.992a1 1 0 1 0 0 2h6a1 1 0 1 0 0-2z" opacity="1" data-original="url(#b)"></path><path fill="url(#c)" d="M24.216 19.612c.038.048.08.092.126.132h.001a.992.992 0 0 0 .652.247H29a1 1 0 1 0 0-2h-1.739L35 9.479l7.739 8.513H41a1 1 0 0 0-1 1v9a1 1 0 1 0 2 0v-8h3a.999.999 0 0 0 .74-1.673l-10-11c-.379-.417-1.102-.417-1.48 0l-9.997 10.998a.993.993 0 0 0-.261.731c.012.213.09.408.214.564z" opacity="1" data-original="url(#c)"></path><path fill="url(#d)" d="M54 19.992c.552 0 1 .449 1 1a1 1 0 1 0 2 0c0-1.654-1.346-3-3-3a1 1 0 1 0 0 2zM56 41.992a1 1 0 0 0-1 1c0 .551-.448 1-1 1a1 1 0 1 0 0 2c1.654 0 3-1.346 3-3a1 1 0 0 0-1-1z" opacity="1" data-original="url(#d)"></path><path fill="url(#e)" d="M10 45.992a1 1 0 1 0 0-2c-.552 0-1-.449-1-1a1 1 0 1 0-2 0c0 1.654 1.346 3 3 3zM8 21.992a1 1 0 0 0 1-1c0-.551.448-1 1-1a1 1 0 1 0 0-2c-1.654 0-3 1.346-3 3a1 1 0 0 0 1 1z" opacity="1" data-original="url(#e)"></path><path fill="url(#f)" d="M28.26 56.665a1 1 0 0 0 1.48 0l10-11a1.002 1.002 0 0 0-.74-1.673h-3v-8a1 1 0 1 0-2 0v9a1 1 0 0 0 1 1h1.739L29 54.505l-7.739-8.513H23a1 1 0 1 0 0-2h-4.005a.99.99 0 0 0-.652.247h-.001a1 1 0 0 0-.079 1.428z" opacity="1" data-original="url(#f)"></path><path fill="url(#g)" d="M8 37.992c3.859 0 7 3.14 7 7a1 1 0 1 0 2 0c0-4.962-4.037-9-9-9a1 1 0 1 0 0 2z" opacity="1" data-original="url(#g)"></path><path fill="url(#h)" d="M56 27.992a1 1 0 1 0 0-2c-3.859 0-7-3.14-7-7a1 1 0 1 0-2 0c0 4.962 4.037 9 9 9z" opacity="1" data-original="url(#h)"></path><path fill="url(#i)" d="M8 27.992c4.963 0 9-4.038 9-9a1 1 0 1 0-2 0c0 3.86-3.141 7-7 7a1 1 0 1 0 0 2z" opacity="1" data-original="url(#i)"></path><path fill="url(#j)" d="M48 45.992a1 1 0 0 0 1-1c0-3.86 3.141-7 7-7a1 1 0 1 0 0-2c-4.963 0-9 4.038-9 9a1 1 0 0 0 1 1z" opacity="1" data-original="url(#j)"></path><path fill="url(#k)" d="M10 19.992h15a1 1 0 1 0 0-2H10a1 1 0 1 0 0 2z" opacity="1" data-original="url(#k)"></path><path fill="url(#b)" d="M29 36.992h6a1 1 0 1 0 0-2h-6a1 1 0 1 0 0 2z" opacity="1" data-original="url(#b)"></path><path fill="url(#l)" d="M23 34.992a1 1 0 0 0-1 1v9a1 1 0 1 0 2 0v-9a1 1 0 0 0-1-1z" opacity="1" data-original="url(#l)"></path><path fill="url(#m)" d="M45 19.992h9a1 1 0 1 0 0-2h-9a1 1 0 1 0 0 2z" opacity="1" data-original="url(#m)"></path><path fill="url(#n)" d="M55 42.992a1 1 0 1 0 2 0v-22a1 1 0 1 0-2 0z" opacity="1" data-original="url(#n)"></path><path fill="url(#o)" d="M39 45.992h15a1 1 0 1 0 0-2H39a1 1 0 1 0 0 2z" opacity="1" data-original="url(#o)"></path><path fill="url(#p)" d="M19 43.992h-9a1 1 0 1 0 0 2h9a1 1 0 1 0 0-2z" opacity="1" data-original="url(#p)"></path><path fill="url(#q)" d="M8 43.992a1 1 0 0 0 1-1v-22a1 1 0 1 0-2 0v22a1 1 0 0 0 1 1z" opacity="1" data-original="url(#q)"></path><path fill="url(#f)" d="M29 28.992a1 1 0 0 0 1-1v-9a1 1 0 1 0-2 0v9a1 1 0 0 0 1 1z" opacity="1" data-original="url(#f)"></path></g></svg>