<svg xmlns="http://www.w3.org/2000/svg" version="1.1" xmlns:xlink="http://www.w3.org/1999/xlink" width="512" height="512" x="0" y="0" viewBox="0 0 32 32" style="enable-background:new 0 0 512 512" xml:space="preserve"><rect width="32" height="32" rx="6.4" ry="6.4" fill="#bac8d3" shape="rounded"></rect><g transform="matrix(0.6399999999999999,0,0,0.6399999999999999,5.760000000000002,5.760000000000002)"><linearGradient id="a" x1="37.09" x2="-4.59" y1="-1.22" y2="32.81" gradientUnits="userSpaceOnUse"><stop offset="0" stop-color="#02beff"></stop><stop offset="1" stop-color="#535cff"></stop></linearGradient><linearGradient xlink:href="#a" id="b" x1="33.13" x2="-8.55" y1="-6.07" y2="27.96"></linearGradient><linearGradient xlink:href="#a" id="c" x1="37.94" x2="-3.74" y1="-.18" y2="33.85"></linearGradient><linearGradient xlink:href="#a" id="d" x1="39.89" x2="-1.78" y1="2.21" y2="36.24"></linearGradient><linearGradient xlink:href="#a" id="e" x1="42.34" x2=".67" y1="5.2" y2="39.24"></linearGradient><linearGradient xlink:href="#a" id="f" x1="37.44" x2="-4.23" y1="-.79" y2="33.24"></linearGradient><g data-name="Layer 3"><path fill="url(#a)" d="M27.31 4H4.69A3.7 3.7 0 0 0 1 7.69v16.62A3.7 3.7 0 0 0 4.69 28h22.62A3.7 3.7 0 0 0 31 24.31V7.69A3.7 3.7 0 0 0 27.31 4zM29 24.31A1.69 1.69 0 0 1 27.31 26H4.69A1.69 1.69 0 0 1 3 24.31V7.69A1.69 1.69 0 0 1 4.69 6h22.62A1.69 1.69 0 0 1 29 7.69z" opacity="1" data-original="url(#a)"></path><path fill="url(#b)" d="M11 16a4 4 0 1 0-4-4 4 4 0 0 0 4 4zm0-6a2 2 0 1 1-2 2 2 2 0 0 1 2-2z" opacity="1" data-original="url(#b)"></path><path fill="url(#c)" d="M11 17a6 6 0 0 0-6 6 1 1 0 0 0 2 0 4 4 0 0 1 8 0 1 1 0 0 0 2 0 6 6 0 0 0-6-6z" opacity="1" data-original="url(#c)"></path><path fill="url(#d)" d="M26 15h-6a1 1 0 0 0 0 2h6a1 1 0 0 0 0-2z" opacity="1" data-original="url(#d)"></path><path fill="url(#e)" d="M26 20h-6a1 1 0 0 0 0 2h6a1 1 0 0 0 0-2z" opacity="1" data-original="url(#e)"></path><path fill="url(#f)" d="M26 10h-6a1 1 0 0 0 0 2h6a1 1 0 0 0 0-2z" opacity="1" data-original="url(#f)"></path></g></g></svg>