<svg xmlns="http://www.w3.org/2000/svg" version="1.1" xmlns:xlink="http://www.w3.org/1999/xlink" width="512" height="512" x="0" y="0" viewBox="0 0 90 90" style="enable-background:new 0 0 512 512" xml:space="preserve"><rect width="90" height="90" rx="18" ry="18" fill="#bac8d3" shape="rounded"></rect><g transform="matrix(0.71,0,0,0.71,12.93383085250855,9.255441379547122)"><linearGradient id="a"><stop offset="0" stop-color="#5adbf9"></stop><stop offset="1" stop-color="#f761ec"></stop></linearGradient><linearGradient xlink:href="#a" id="b" x1="29" x2="61" y1="34.5" y2="34.5" gradientUnits="userSpaceOnUse"></linearGradient><linearGradient xlink:href="#a" id="c" x1="29" x2="36" y1="54.5" y2="54.5" gradientUnits="userSpaceOnUse"></linearGradient><linearGradient xlink:href="#a" id="d" x1="54" x2="61" y1="54.5" y2="54.5" gradientUnits="userSpaceOnUse"></linearGradient><linearGradient xlink:href="#a" id="e" x1="40" x2="50" y1="54" y2="54" gradientUnits="userSpaceOnUse"></linearGradient><linearGradient xlink:href="#a" id="f" x1="16.68" x2="72.511" y1="49.156" y2="49.156" gradientUnits="userSpaceOnUse"></linearGradient><path fill="url(#b)" d="M31.819 46h26.362A2.819 2.819 0 0 0 61 43.181V25.819A2.819 2.819 0 0 0 58.181 23H31.819A2.819 2.819 0 0 0 29 25.819v17.362A2.819 2.819 0 0 0 31.819 46z" opacity="1" data-original="url(#b)"></path><circle cx="32.5" cy="54.5" r="3.5" fill="url(#c)" opacity="1" data-original="url(#c)"></circle><circle cx="57.5" cy="54.5" r="3.5" fill="url(#d)" opacity="1" data-original="url(#d)"></circle><path fill="url(#e)" d="M48 52h-6a2 2 0 0 0 0 4h6a2 2 0 0 0 0-4z" opacity="1" data-original="url(#e)"></path><path fill="url(#f)" d="M72.247 82.794 62.049 64.966c3.89-.342 6.951-3.613 6.951-7.59V21.594c0-3.697-2.622-6.85-6.235-7.497a101.208 101.208 0 0 0-35.529 0C23.622 14.744 21 17.896 21 21.594v35.782c0 3.718 2.676 6.817 6.202 7.486L16.944 82.794a2 2 0 0 0 3.472 1.986L23.724 79h41.744l3.307 5.78a1.998 1.998 0 0 0 2.729.743 2 2 0 0 0 .743-2.729zM57.459 65l1.144 2H30.588l1.144-2zM25 57.376V21.594c0-1.757 1.236-3.254 2.94-3.56 5.617-1.006 11.356-1.516 17.06-1.516s11.442.51 17.06 1.516c1.704.305 2.94 1.802 2.94 3.56v35.782A3.628 3.628 0 0 1 61.376 61H28.624A3.628 3.628 0 0 1 25 57.376zM26.012 75l2.288-4h32.592l2.288 4z" opacity="1" data-original="url(#f)"></path><g fill="url(#f)"><path d="M31.819 46h26.362A2.819 2.819 0 0 0 61 43.181V25.819A2.819 2.819 0 0 0 58.181 23H31.819A2.819 2.819 0 0 0 29 25.819v17.362A2.819 2.819 0 0 0 31.819 46z" fill="" opacity="1"></path><circle cx="32.5" cy="54.5" r="3.5" fill="" opacity="1"></circle><circle cx="57.5" cy="54.5" r="3.5" fill="" opacity="1"></circle><path d="M48 52h-6a2 2 0 0 0 0 4h6a2 2 0 0 0 0-4z" fill="" opacity="1"></path><path d="M72.247 82.794 62.049 64.966c3.89-.342 6.951-3.613 6.951-7.59V21.594c0-3.697-2.622-6.85-6.235-7.497a101.208 101.208 0 0 0-35.529 0C23.622 14.744 21 17.896 21 21.594v35.782c0 3.718 2.676 6.817 6.202 7.486L16.944 82.794a2 2 0 0 0 3.472 1.986L23.724 79h41.744l3.307 5.78a1.998 1.998 0 0 0 2.729.743 2 2 0 0 0 .743-2.729zM57.459 65l1.144 2H30.588l1.144-2zM25 57.376V21.594c0-1.757 1.236-3.254 2.94-3.56 5.617-1.006 11.356-1.516 17.06-1.516s11.442.51 17.06 1.516c1.704.305 2.94 1.802 2.94 3.56v35.782A3.628 3.628 0 0 1 61.376 61H28.624A3.628 3.628 0 0 1 25 57.376zM26.012 75l2.288-4h32.592l2.288 4z" fill="" opacity="1"></path></g></g></svg>