<svg xmlns="http://www.w3.org/2000/svg" version="1.1" xmlns:xlink="http://www.w3.org/1999/xlink" width="512" height="512" x="0" y="0" viewBox="0 0 100 100" style="enable-background:new 0 0 512 512" xml:space="preserve"><rect width="100" height="100" rx="20" ry="20" fill="#bac8d3" shape="rounded"></rect><g transform="matrix(0.65,0,0,0.65,17.499825096130373,17.499825096130373)"><linearGradient id="a"><stop offset="0" stop-color="#97e0ff"></stop><stop offset="1" stop-color="#1075ff"></stop></linearGradient><linearGradient xlink:href="#a" id="b" x1="-24.62" x2="67.397" y1="17.568" y2="118.408" gradientUnits="userSpaceOnUse"></linearGradient><linearGradient xlink:href="#a" id="c" x1="6.331" x2="98.348" y1="-10.675" y2="90.166" gradientUnits="userSpaceOnUse"></linearGradient><linearGradient xlink:href="#a" id="d" x1="-.159" x2="91.858" y1="-4.752" y2="96.088" gradientUnits="userSpaceOnUse"></linearGradient><circle cx="21.639" cy="68.262" r="9.569" fill="url(#b)" opacity="1" data-original="url(#b)"></circle><circle cx="78.361" cy="68.262" r="9.569" fill="url(#c)" opacity="1" data-original="url(#c)"></circle><path fill="url(#d)" d="M85.649 22.168H5.224A2.724 2.724 0 0 0 2.5 24.892v40.646a2.724 2.724 0 0 0 2.724 2.724h3.23c0-7.301 5.884-13.184 13.185-13.184s13.184 5.883 13.184 13.184h30.354A13.16 13.16 0 0 1 78.36 55.078a13.16 13.16 0 0 1 13.185 13.184h3.23a2.724 2.724 0 0 0 2.724-2.724V43.311l-9.395-19.596a2.724 2.724 0 0 0-2.456-1.547zm-56.3 22.135H14.156a2.724 2.724 0 0 1-2.724-2.724V31.291a2.724 2.724 0 0 1 2.724-2.724H29.35a2.724 2.724 0 0 1 2.724 2.724v10.288a2.724 2.724 0 0 1-2.724 2.724zm26.422 0H39.629a2.724 2.724 0 0 1-2.724-2.724V31.291a2.724 2.724 0 0 1 2.724-2.724h16.142a2.724 2.724 0 0 1 2.724 2.724v10.288a2.724 2.724 0 0 1-2.724 2.724zm7.884-2.76V31.291a2.724 2.724 0 0 1 2.724-2.724h13.817c1.082 0 2.06.64 2.495 1.63l4.417 10.076c.789 1.8-.53 3.817-2.495 3.817l-18.482-.06a2.486 2.486 0 0 1-2.476-2.487z" opacity="1" data-original="url(#d)"></path></g></svg>