<svg xmlns="http://www.w3.org/2000/svg" version="1.1" xmlns:xlink="http://www.w3.org/1999/xlink" width="512" height="512" x="0" y="0" viewBox="0 0 512 512" style="enable-background:new 0 0 512 512" xml:space="preserve" class=""><rect width="512" height="512" rx="102.4" ry="102.4" fill="#bac8d3" shape="rounded"></rect><g transform="matrix(0.58,0,0,0.58,107.52000000000001,107.52000000000001)"><linearGradient id="a"><stop offset="0" stop-color="#37b34a"></stop><stop offset="1" stop-color="#006838"></stop></linearGradient><linearGradient xlink:href="#a" id="b" x1="222.609" x2="222.609" y1="-16.067" y2="484.608" gradientUnits="userSpaceOnUse"></linearGradient><linearGradient xlink:href="#a" id="c" x1="100.174" x2="100.174" y1="-16.067" y2="484.608" gradientUnits="userSpaceOnUse"></linearGradient><linearGradient xlink:href="#a" id="d" x1="345.04" x2="345.04" y1="-16.067" y2="484.608" gradientUnits="userSpaceOnUse"></linearGradient><linearGradient xlink:href="#a" id="e" x1="306.087" x2="306.087" y1="-16.067" y2="484.608" gradientUnits="userSpaceOnUse"></linearGradient><path fill="url(#b)" d="M88.252 358.126c3.948 7.325 6.227 14.649 7.53 20.309h253.654c1.303-5.66 3.582-12.984 7.529-20.309 6.87-12.745 19.868-27.62 43.73-31.2v-83.082c-23.467-3.079-36.409-15.716-43.315-26.541-3.88-6.081-6.211-12.111-7.603-16.955H95.479c-1.381 4.93-3.695 11.081-7.59 17.304-6.904 11.033-19.852 23.91-43.367 27.043v82.226c23.867 3.576 36.86 18.458 43.73 31.205zm251.753-101.744c18.214-2.776 35.27 9.775 38.045 27.975 2.775 18.202-9.774 35.27-27.975 38.045a33.512 33.512 0 0 1-5.054.385c-16.208 0-30.472-11.857-32.99-28.359-2.776-18.204 9.773-35.271 27.974-38.046zm-117.396-33.773c36.824 0 66.783 29.959 66.783 66.783s-29.959 66.783-66.783 66.783-66.783-29.959-66.783-66.783 29.959-66.783 66.783-66.783zM66.783 289.391c0-18.412 14.979-33.391 33.391-33.391s33.391 14.979 33.391 33.391-14.979 33.391-33.391 33.391-33.391-14.979-33.391-33.391z" opacity="1" data-original="url(#b)"></path><circle cx="100.174" cy="289.391" r="11.13" fill="url(#c)" opacity="1" data-original="url(#c)"></circle><circle cx="222.609" cy="289.391" r="44.522" fill="url(#b)" opacity="1" data-original="url(#b)"></circle><path fill="url(#d)" d="M346.718 300.395c6.067-.925 10.25-6.614 9.325-12.682-.839-5.501-5.595-9.453-10.997-9.453-.557 0-1.12.042-1.685.128-6.067.925-10.25 6.614-9.325 12.682.926 6.066 6.617 10.245 12.682 9.325z" opacity="1" data-original="url(#d)"></path><path fill="url(#e)" d="M100.174 133.565h356.174c6.147 0 11.13 4.983 11.13 11.13v178.087H512V89.043H100.174z" opacity="1" data-original="url(#e)"></path><path fill="url(#b)" d="M0 422.957h445.217v-267.13H0zm22.261-188.68c0-6.147 4.983-11.13 11.13-11.13 37.666 0 41.557-31.279 41.877-34.846.441-5.803 5.273-10.214 11.092-10.214h272.496a11.13 11.13 0 0 1 11.097 10.27c.314 3.404 4.209 33.929 41.873 33.929 6.147 0 11.13 4.983 11.13 11.13v100.497c0 .511-.046 1.01-.113 1.503.067.493.113.992.113 1.503v.33c0 6.147-4.984 11.13-11.13 11.13-16.136 0-27.571 6.46-34.958 19.747-6.003 10.8-6.9 22.1-6.909 22.213-.429 5.812-5.275 10.357-11.103 10.357H86.361a11.131 11.131 0 0 1-11.107-10.402c-.005-.067-.902-11.367-6.905-22.167-7.388-13.287-18.822-19.747-34.958-19.747-6.147 0-11.13-4.984-11.13-11.13z" opacity="1" data-original="url(#b)"></path></g></svg>