<svg xmlns="http://www.w3.org/2000/svg" version="1.1" xmlns:xlink="http://www.w3.org/1999/xlink" width="512" height="512" x="0" y="0" viewBox="0 0 24 24" style="enable-background:new 0 0 512 512" xml:space="preserve" class=""><rect width="24" height="24" rx="4.8" ry="4.8" fill="#bac8d3" shape="rounded"></rect><g transform="matrix(0.66,0,0,0.66,4.096644525527955,4.0800364780426035)"><linearGradient id="a" x1="22.1" x2="2.904" y1="11.969" y2="16.134" gradientUnits="userSpaceOnUse"><stop offset="0" stop-color="#f55555"></stop><stop offset="1" stop-color="#fccf31"></stop></linearGradient><g fill="url(#a)"><path d="M7.293 4.293a1 1 0 0 1 1.414 0L10.5 6h8.723a1 1 0 0 1 .848.47l1.875 3a1 1 0 0 1-.848 1.53H13.5a.518.518 0 0 0-.056.003l-4.737-5.21a1 1 0 0 0-1.414 0l-4.485 5.1a.5.5 0 0 1-.662-.747z" fill="" opacity="1"></path><path d="M3 12.187V19h-.5a.5.5 0 0 0 0 1H6v-6a1 1 0 0 1 1-1h2a1 1 0 0 1 1 1v6h3v-8L8 6.5zM14 20h7.5a.5.5 0 0 0 0-1H21v-7h-7z" fill="" opacity="1"></path><path d="M9 20v-6H7v6z" fill="" opacity="1"></path></g></g></svg>