<svg xmlns="http://www.w3.org/2000/svg" version="1.1" xmlns:xlink="http://www.w3.org/1999/xlink" width="512" height="512" x="0" y="0" viewBox="0 0 64 64" style="enable-background:new 0 0 512 512" xml:space="preserve"><rect width="64" height="64" rx="12.8" ry="12.8" fill="#bac8d3" shape="rounded"></rect><g transform="matrix(0.5599999999999999,0,0,0.5599999999999999,14.080000000000002,14.080000000000002)"><defs><linearGradient id="a" x1="4" x2="60" y1="32" y2="32" gradientUnits="userSpaceOnUse"><stop offset="0" stop-color="#7f00ff"></stop><stop offset="1" stop-color="#e100ff"></stop></linearGradient></defs><path d="M4 20.429V6a2.002 2.002 0 0 1 2-2h14.429a1 1 0 0 1 0 2H6v14.429a1 1 0 0 1-2 0ZM20.429 58H6V43.571a1 1 0 0 0-2 0V58a2.002 2.002 0 0 0 2 2h14.429a1 1 0 0 0 0-2ZM59 42.571a1 1 0 0 0-1 1V58H43.571a1 1 0 0 0 0 2H58a2.002 2.002 0 0 0 2-2V43.571a1 1 0 0 0-1-1ZM58 4H43.571a1 1 0 0 0 0 2H58v14.429a1 1 0 0 0 2 0V6a2.002 2.002 0 0 0-2-2ZM45.08 36c2.734-12.627-12.64-21.162-21.88-12.02A12.988 12.988 0 0 0 19.7 36h2.06a11.026 11.026 0 0 1 2.85-10.61c7.957-7.886 21.25-.17 18.41 10.61Zm-4.14 0c2.741-7.92-6.483-15.096-13.52-10.34A9.05 9.05 0 0 0 23.85 36h2.14a7.036 7.036 0 0 1 2.55-8.68c5.759-3.862 13.099 2.42 10.25 8.68Zm8.22 0c2.658-15.795-16.228-26.143-28.21-15.4A16.966 16.966 0 0 0 15.63 36h2.04a14.93 14.93 0 0 1 4.63-13.92c10.69-9.603 27.515-.119 24.82 13.92Zm-16.77-3.83c-1.715.157-.795 2.719-.73 3.83h2.05a12.723 12.723 0 0 1-.32-2.83 1.003 1.003 0 0 0-1-1ZM18.96 18.32a1.008 1.008 0 0 0-1.42 0A20.936 20.936 0 0 0 11.6 36h2a18.962 18.962 0 0 1 5.36-16.26 1.008 1.008 0 0 0 0-1.42ZM53.19 36c2.636-16.825-16.416-29.713-31.096-21.135a1 1 0 0 0 .982 1.742C36.683 8.87 53.626 20.516 51.18 36Zm2.671-7.955a1 1 0 0 0 .715-1.22 25.002 25.002 0 0 0-49.184 6.448 1 1 0 0 0 2-.007c.387-26.987 37.922-31.729 45.25-5.935a.999.999 0 0 0 1.22.714ZM41.58 46.61a.997.997 0 0 1-1.41 1.41c-1.953-2.04-5.906-5.442-7.075-8.02H29.32l9.44 9.44a1 1 0 0 1-1.42 1.41L26.49 40h-2.715a10.39 10.39 0 0 0 .838.951l8.486 8.485a1 1 0 0 1-1.414 1.414c-1.496-1.648-9.43-8.995-10.349-10.85h-2.283c1.24 2.887 6.25 7.143 8.388 9.436a1 1 0 0 1-1.414 1.414c-2.683-2.833-7.865-7.128-9.218-10.85H14.66a18.936 18.936 0 0 0 4.299 6.61 1.002 1.002 0 0 1-.71 1.7.982.982 0 0 1-.71-.29A20.815 20.815 0 0 1 12.546 40h-2.11A23.073 23.073 0 0 0 22.46 53.925a1 1 0 0 1-.863 1.804A25.087 25.087 0 0 1 8.347 40H5a1 1 0 0 1 0-2h54a1 1 0 0 1 0 2h-6.755a20.93 20.93 0 0 1-.545 1.44 1 1 0 0 1-1.84-.78c.093-.218.17-.44.254-.66h-2.15c-1.54 4.18-8.059 4.24-9.54 0h-3.026c.97 1.654 4.814 5.18 6.182 6.61ZM40.693 40a3.172 3.172 0 0 0 4.974 0Zm-5.303-6.83a1 1 0 0 0 2 0 5 5 0 0 0-10 0 1 1 0 0 0 2 0 3 3 0 0 1 6 0Z" class="cls-1" style="fill:url(#a)" fill=""></path></g></svg>