<svg xmlns="http://www.w3.org/2000/svg" version="1.1" xmlns:xlink="http://www.w3.org/1999/xlink" width="512" height="512" x="0" y="0" viewBox="0 0 64 64" style="enable-background:new 0 0 512 512" xml:space="preserve" class=""><rect width="64" height="64" rx="12.8" ry="12.8" fill="#bac8d3" shape="rounded"></rect><g transform="matrix(0.5499999999999999,0,0,0.5499999999999999,14.400000000000002,14.399994474649429)"><linearGradient id="a" x1="9.5" x2="48" y1="2" y2="52" gradientUnits="userSpaceOnUse"><stop offset="0" stop-color="#fa1228"></stop><stop offset=".901" stop-color="#5a00d1"></stop></linearGradient><g fill="url(#a)"><path d="M2 25C2 12.297 12.297 2 25 2a22.91 22.91 0 0 1 14.24 4.937 2 2 0 1 1-2.48 3.14A18.91 18.91 0 0 0 25 6C14.507 6 6 14.507 6 25a2 2 0 1 1-4 0z" fill="" opacity="1"></path><path d="M10 25c0-8.284 6.716-15 15-15 7.505 0 13.723 5.512 14.826 12.708-1.53.92-2.84 2.172-3.826 3.656V25c0-6.075-4.925-11-11-11s-11 4.925-11 11v35a2 2 0 1 1-4 0zM46 21c.568 0 1.126.04 1.673.116a22.868 22.868 0 0 0-2.96-7.971 2 2 0 0 0-3.426 2.065 18.865 18.865 0 0 1 2.34 6.024C44.394 21.082 45.187 21 46 21z" fill="" opacity="1"></path><path d="M28 47.901a18.987 18.987 0 0 1 4-6.746V26a7 7 0 1 0-14 0v10.5a2 2 0 1 0 4 0V26a3 3 0 1 1 6 0zM4 30a2 2 0 0 1 2 2v28a2 2 0 1 1-4 0V32a2 2 0 0 1 2-2zM20 42a2 2 0 0 1 2 2v16a2 2 0 1 1-4 0V44a2 2 0 0 1 2-2z" fill="" opacity="1"></path><path fill-rule="evenodd" d="M46 24a9 9 0 0 1 6.398 15.33C58.05 41.8 62 47.438 62 54v6a2 2 0 0 1-2 2H32a2 2 0 0 1-2-2v-6c0-6.562 3.95-12.201 9.602-14.67A9 9 0 0 1 46 24zm5 9a5 5 0 1 0-10 0 5 5 0 0 0 10 0zm7 25v-4c0-6.627-5.373-12-12-12s-12 5.373-12 12v4z" clip-rule="evenodd" fill="" opacity="1"></path></g></g></svg>