<svg xmlns="http://www.w3.org/2000/svg" version="1.1" xmlns:xlink="http://www.w3.org/1999/xlink" width="512" height="512" x="0" y="0" viewBox="0 0 64 64" style="enable-background:new 0 0 512 512" xml:space="preserve"><rect width="64" height="64" rx="12.8" ry="12.8" fill="#bac8d3" shape="rounded"></rect><g transform="matrix(0.7,0,0,0.7,9.600000000000001,9.59985913038254)"><linearGradient id="a" x1="11" x2="50.097" y1="2" y2="49.39" gradientUnits="userSpaceOnUse"><stop offset="0" stop-color="#fa1228"></stop><stop offset=".901" stop-color="#5a00d1"></stop></linearGradient><g fill="url(#a)"><path d="M41.448 27.38a2 2 0 0 0-2.896-2.76l-9.93 10.427-3.127-3.519a2 2 0 0 0-2.99 2.658l4.572 5.143a2 2 0 0 0 2.943.05z" fill="" opacity="1"></path><path fill-rule="evenodd" d="M36.26 2.673a13.811 13.811 0 0 0-8.52 0L13.22 7.378C7.707 9.165 4 14.378 4 20.204c0 15.783 7.698 30.614 20.576 39.481a13.064 13.064 0 0 0 14.848 0C52.302 50.819 60 35.987 60 20.204c0-5.826-3.707-11.04-9.22-12.826zM28.973 6.48a9.811 9.811 0 0 1 6.054 0l14.52 4.704C53.369 12.422 56 16.067 56 20.203c0 14.491-7.07 28.08-18.844 36.188a9.064 9.064 0 0 1-10.312 0C15.07 48.283 8 34.694 8 20.204c0-4.137 2.631-7.782 6.453-9.02z" clip-rule="evenodd" fill="" opacity="1"></path></g></g></svg>