<svg xmlns="http://www.w3.org/2000/svg" version="1.1" xmlns:xlink="http://www.w3.org/1999/xlink" width="512" height="512" x="0" y="0" viewBox="0 0 494 494.036" style="enable-background:new 0 0 512 512" xml:space="preserve"><rect width="494" height="494.036" rx="98.8" ry="98.8" fill="#bac8d3" shape="rounded"></rect><g transform="matrix(0.6,0,0,0.6,147.59215679764748,93.82890736758708)"><linearGradient id="a"><stop offset="0" stop-color="#00efd1"></stop><stop offset="1" stop-color="#00acea"></stop></linearGradient><linearGradient xlink:href="#a" id="b" x1="181.483" x2="181.483" y1="37" y2="445.078" gradientUnits="userSpaceOnUse"></linearGradient><linearGradient xlink:href="#a" id="c" x1="221.881" x2="221.881" y1="37" y2="445.078" gradientUnits="userSpaceOnUse"></linearGradient><linearGradient xlink:href="#a" id="d" x1="220.484" x2="220.484" y1="37" y2="445.078" gradientUnits="userSpaceOnUse"></linearGradient><linearGradient xlink:href="#a" id="e" x1="259.484" x2="259.484" y1="37" y2="445.078" gradientUnits="userSpaceOnUse"></linearGradient><linearGradient xlink:href="#a" id="f" x1="182.484" x2="182.484" y1="37" y2="445.078" gradientUnits="userSpaceOnUse"></linearGradient><linearGradient xlink:href="#a" id="g" x1="287.484" x2="287.484" y1="37" y2="445.078" gradientUnits="userSpaceOnUse"></linearGradient><linearGradient xlink:href="#a" id="h" x1="153.484" x2="153.484" y1="37" y2="445.078" gradientUnits="userSpaceOnUse"></linearGradient><path fill="url(#b)" d="m315.14 329.45-48.109 35.976a42.832 42.832 0 0 0-40.758-15.399l-48.746 8.528a53.085 53.085 0 0 1-23.562-1.23l-5.453-1.552a87.956 87.956 0 0 0-80.914 17.25l-2.215-12.671a6 6 0 0 0-6.942-4.88l-53.457 9.352A5.996 5.996 0 0 0 .11 371.77l20.516 117.296a6.017 6.017 0 0 0 2.46 3.883 5.995 5.995 0 0 0 4.485.996l53.453-9.351a6 6 0 0 0 4.875-6.942l-1.101-6.285 12.715-10.324a25.019 25.019 0 0 1 17.886-5.723l87.165 6.371c.132.012.269.016.398.016a90.584 90.584 0 0 0 53.703-17.406c.227-.168.445-.352.649-.551l103.824-101.66a6.004 6.004 0 0 0 .336-8.223c-11.79-13.601-32.184-15.547-46.332-4.418zM31.415 481.085 12.961 375.609l41.637-7.28 18.449 105.476zm217.82-46.215a78.283 78.283 0 0 1-46 14.836l-86.96-6.355a36.922 36.922 0 0 0-26.372 8.41l-7.468 6.066-12.38-70.765a76.021 76.021 0 0 1 75.173-19.75l5.453 1.55a65.186 65.186 0 0 0 28.918 1.508l48.742-8.527c14.472-2.508 28.703 5.531 34.027 19.219l-73.64 12.878a6.001 6.001 0 0 0-4.875 6.946 5.996 5.996 0 0 0 6.945 4.875l80.125-14.016a5.996 5.996 0 0 0 4.875-6.945 42.63 42.63 0 0 0-2.617-8.988l49.207-36.801c.039-.032.082-.063.125-.098a21.724 21.724 0 0 1 25.68-.945zm0 0" opacity="1" data-original="url(#b)"></path><path fill="url(#c)" d="M243.691 185c3.313 0 6-2.688 6-6s-2.687-6-6-6h-43.62c-3.313 0-6 2.688-6 6s2.687 6 6 6h12.48a12.973 12.973 0 0 1 11.207 7H200.07c-3.312 0-6 2.688-6 6s2.688 6 6 6h23.688c-2.149 4-6.363 6-11.207 6h-12.48a6.152 6.152 0 0 0-5.571 3.918 6.154 6.154 0 0 0 1.45 6.656l31.198 29.52a5.988 5.988 0 0 0 10.082-2.89 5.985 5.985 0 0 0-1.847-5.806l-20.363-19.023A24.498 24.498 0 0 0 236.527 204h7.164c3.313 0 6-2.688 6-6s-2.687-6-6-6h-7.164a19.668 19.668 0 0 0-2.789-7zm0 0" opacity="1" data-original="url(#c)"></path><path fill="url(#c)" d="M221.883 339.605c70.25 0 127.199-56.949 127.199-127.199s-56.95-127.199-127.2-127.199-127.198 56.95-127.198 127.2c.078 70.218 56.98 127.12 127.199 127.198zm-63.66-55.23a95.752 95.752 0 0 0 56.261 23.887v19.097a114.733 114.733 0 0 1-69.761-29.488zm68.261 24.055a95.706 95.706 0 0 0 58.407-23.477l13.5 13.5a114.718 114.718 0 0 1-71.907 29.055zm-4.601-11.887c-46.465 0-84.137-37.668-84.137-84.137s37.668-84.136 84.137-84.136 84.137 37.671 84.137 84.136c-.055 46.446-37.692 84.082-84.137 84.137zm63.472-156.273a95.715 95.715 0 0 0-58.87-23.887V97.309a114.722 114.722 0 0 1 72.367 29.464zm-70.87-23.715a95.762 95.762 0 0 0-56.727 24.293l-13.492-13.493a114.749 114.749 0 0 1 70.218-29.902zm-65.15 32.843A95.73 95.73 0 0 0 125.903 207h-19.09a114.728 114.728 0 0 1 29.024-71.102zM125.978 219a95.725 95.725 0 0 0 23.765 56.879l-13.5 13.5A114.75 114.75 0 0 1 106.875 219zm180.957 71.023-13.493-13.492A95.778 95.778 0 0 0 317.785 219h19.098a114.778 114.778 0 0 1-29.95 71.023zM336.949 207h-19.09a95.744 95.744 0 0 0-24.011-58.258l13.5-13.5A114.724 114.724 0 0 1 336.949 207zm0 0" opacity="1" data-original="url(#c)"></path><path fill="url(#d)" d="M220.484 71c3.313 0 6-2.688 6-6V6a6.001 6.001 0 0 0-12 0v59c0 3.313 2.688 6 6 6zm0 0" opacity="1" data-original="url(#d)"></path><path fill="url(#e)" d="M259.484 71c3.313 0 6-2.688 6-6V25a6.001 6.001 0 0 0-12 0v40c0 3.313 2.688 6 6 6zm0 0" opacity="1" data-original="url(#e)"></path><path fill="url(#f)" d="M182.484 71c3.313 0 6-2.688 6-6V25a6.001 6.001 0 0 0-12 0v40c0 3.313 2.688 6 6 6zm0 0" opacity="1" data-original="url(#f)"></path><path fill="url(#g)" d="M287.484 81c3.313 0 6-2.688 6-6V44a6.001 6.001 0 0 0-12 0v31c0 3.313 2.688 6 6 6zm0 0" opacity="1" data-original="url(#g)"></path><path fill="url(#h)" d="M153.484 81c3.313 0 6-2.688 6-6V44a6.001 6.001 0 0 0-12 0v31c0 3.313 2.688 6 6 6zm0 0" opacity="1" data-original="url(#h)"></path></g></svg>