<svg xmlns="http://www.w3.org/2000/svg" version="1.1" xmlns:xlink="http://www.w3.org/1999/xlink" width="512" height="512" x="0" y="0" viewBox="0 0 512 512" style="enable-background:new 0 0 512 512" xml:space="preserve"><rect width="512" height="512" rx="102.4" ry="102.4" fill="#bac8d3" shape="rounded"></rect><g transform="matrix(0.6299999999999999,0,0,0.6299999999999999,94.71981369018556,94.71888919830329)"><linearGradient id="a" x1="21.693" x2="354.34" y1="51.879" y2="549.639" gradientUnits="userSpaceOnUse"><stop offset="0" stop-color="#ffe53b"></stop><stop offset="1" stop-color="#ff2525"></stop></linearGradient><linearGradient xlink:href="#a" id="b" x1="94.633" x2="427.28" y1="3.134" y2="500.894"></linearGradient><linearGradient xlink:href="#a" id="c" x1="-6.305" x2="326.342" y1="70.59" y2="568.35"></linearGradient><linearGradient xlink:href="#a" id="d" x1="89.366" x2="422.012" y1="6.655" y2="504.414"></linearGradient><g data-name="27.Smartphone"><path fill="url(#a)" d="M94.495 171.317a6 6 0 0 0 6-6v-9a6 6 0 0 0-12 0v9a6 6 0 0 0 6 6z" opacity="1" data-original="url(#a)"></path><path fill="url(#b)" d="M417.504 64.097H94.494a6 6 0 0 0-6 6v67.32a6 6 0 0 0 12 0v-61.32h311.01v337h-311.01v-228.88a6 6 0 0 0-12 0v234.88a6 6 0 0 0 6 6h323.01a6 6 0 0 0 6-6v-349a6 6 0 0 0-6-6z" opacity="1" data-original="url(#b)"></path><path fill="url(#c)" d="M291.497 441.09h-70.994a22.003 22.003 0 1 0 0 44.007h70.994a22.003 22.003 0 1 0 0-44.006zm0 32.007h-70.994a10.003 10.003 0 1 1 0-20.006h70.994a10.003 10.003 0 1 1 0 20.006z" opacity="1" data-original="url(#c)"></path><path fill="url(#d)" d="M379.955 4.997h-247.91a43.604 43.604 0 0 0-43.55 43.56v88.86a6 6 0 0 0 12 0v-88.86a31.59 31.59 0 0 1 31.55-31.56h247.91a31.59 31.59 0 0 1 31.55 31.56v414.89a31.586 31.586 0 0 1-31.55 31.55h-247.91a31.586 31.586 0 0 1-31.55-31.55v-279.23a6 6 0 0 0-12 0v279.23a43.6 43.6 0 0 0 43.55 43.55h247.91a43.6 43.6 0 0 0 43.55-43.55V48.557a43.604 43.604 0 0 0-43.55-43.56z" opacity="1" data-original="url(#d)"></path></g></g></svg>