<svg xmlns="http://www.w3.org/2000/svg" version="1.1" xmlns:xlink="http://www.w3.org/1999/xlink" width="512" height="512" x="0" y="0" viewBox="0 0 64 64" style="enable-background:new 0 0 512 512" xml:space="preserve" class=""><rect width="64" height="64" rx="12.8" ry="12.8" fill="#bac8d3" shape="rounded"></rect><g transform="matrix(0.63,0,0,0.63,11.839999647140502,11.84)"><defs><linearGradient id="a" x1="7.857" x2="56.143" y1="32" y2="32" gradientUnits="userSpaceOnUse"><stop offset="0" stop-color="#00c0ff"></stop><stop offset="1" stop-color="#5558ff"></stop></linearGradient></defs><path d="m55.6 29.333-11.572-5.937C43.898 23.33 33 13.56 33 13.56V9.857h4.788a1 1 0 0 0 1-1V5a1 1 0 0 0-1-1H32a1 1 0 0 0-1 1v8.559s-10.899 9.77-11.028 9.837L8.4 29.333a1 1 0 0 0-.543.89V59a1 1 0 0 0 1 1c10.698-.013 46.286 0 46.286 0a1 1 0 0 0 1-1V30.223a1 1 0 0 0-.543-.89ZM33 6h3.788v1.857H33ZM21.429 29.143H42.57V31H21.43Zm21.142-2H21.43v-2.096L32 15.355l10.571 9.692ZM9.857 30.834l9.572-4.911V58H9.857ZM21.429 33H42.57v25h-4.06V43.571a1 1 0 0 0-1-1H26.49a1 1 0 0 0-1 1V58h-4.061Zm6.06 11.571H31V58h-3.51ZM33 58V44.571h3.51V58Zm21.143 0h-9.572V25.923l9.572 4.911Z" class="cls-1" style="fill:url(#a)" fill=""></path></g></svg>