<svg xmlns="http://www.w3.org/2000/svg" version="1.1" xmlns:xlink="http://www.w3.org/1999/xlink" width="512" height="512" x="0" y="0" viewBox="0 0 484.009 484" style="enable-background:new 0 0 512 512" xml:space="preserve" class=""><rect width="484.009" height="484" rx="96.8018" ry="96.8018" fill="#bac8d3" shape="rounded"></rect><g transform="matrix(0.6,0,0,0.6,96.80170626498222,150.4030001413077)"><linearGradient id="a"><stop offset="0" stop-color="#00efd1"></stop><stop offset="1" stop-color="#00acea"></stop></linearGradient><linearGradient xlink:href="#a" id="b" x1="230.004" x2="230.004" y1="-60.992" y2="371.008" gradientUnits="userSpaceOnUse"></linearGradient><linearGradient xlink:href="#a" id="c" x1="227.759" x2="227.759" y1="-60.992" y2="371.175" gradientUnits="userSpaceOnUse"></linearGradient><linearGradient xlink:href="#a" id="d" x1="242.004" x2="242.004" y1="-60.992" y2="371.175" gradientUnits="userSpaceOnUse"></linearGradient><path fill="url(#b)" d="M425.09 85.363c-16.137-.261-27.102-3.754-34.488-10.992-8.07-7.91-12.23-20.808-12.711-39.594a5.94 5.94 0 0 0-6-5.77H79.418a5.937 5.937 0 0 0-6 5.77c-.527 20.63-3.242 33.024-8.793 40.266-5.375 7.012-14.32 10.09-29.582 10.336a6.106 6.106 0 0 0-6.04 5.98v90.801a6.121 6.121 0 0 0 6.044 6c27.281.442 37.226 8.332 38.3 50.828a6.202 6.202 0 0 0 6.071 6.02h291.934a6.147 6.147 0 0 0 6-6.012c.906-35.453 14.746-50.215 47.738-50.746a6.087 6.087 0 0 0 5.914-6.086V91.367a6.01 6.01 0 0 0-5.914-6.004zm-6.086 91.051c-34 2.348-50.867 20.594-53.375 56.594H85.203c-.988-21-4.52-33.18-11.2-41.836-6.866-8.887-17-13.652-33-14.758V97.11c16-1.117 26.102-5.707 33.009-14.726 6.668-8.703 10.191-21.375 11.191-41.375h280.961c1.297 19 6.582 32.738 16.047 42.012 8.57 8.398 20.797 12.98 36.797 14.097zm0 0" opacity="1" data-original="url(#b)"></path><path fill="url(#c)" d="M227.758 52.89c-46.32 0-83.871 37.551-83.871 83.872 0 46.324 37.55 83.875 83.87 83.875 46.321 0 83.872-37.551 83.872-83.875-.05-46.297-37.57-83.817-83.871-83.871zm0 155.743c-39.692.004-71.871-32.176-71.871-71.871 0-39.692 32.18-71.871 71.87-71.871 39.696 0 71.872 32.18 71.872 71.87-.043 39.677-32.195 71.829-71.871 71.872zm0 0" opacity="1" data-original="url(#c)"></path><path fill="url(#d)" d="M478.242 28.008h-22.238V5.707c0-3.312-2.938-5.7-6.25-5.7H5.766A5.542 5.542 0 0 0 1.648 1.61 5.534 5.534 0 0 0 .004 5.707V267.82a5.992 5.992 0 0 0 1.594 4.293 5.963 5.963 0 0 0 4.168 1.895h22.238v22.3c0 3.313 2.937 5.7 6.254 5.7h443.984a5.549 5.549 0 0 0 5.762-5.7V34.196a5.944 5.944 0 0 0-1.594-4.289 5.983 5.983 0 0 0-4.168-1.898zm-466.238-16h432v250h-432zm460 278h-432v-16h409.75a6.38 6.38 0 0 0 6.25-6.188V40.008h16zm0 0" opacity="1" data-original="url(#d)"></path></g></svg>