<svg xmlns="http://www.w3.org/2000/svg" version="1.1" xmlns:xlink="http://www.w3.org/1999/xlink" width="512" height="512" x="0" y="0" viewBox="0 0 478.623 478" style="enable-background:new 0 0 512 512" xml:space="preserve"><rect width="478.623" height="478" rx="95.7246" ry="95.7246" fill="#bac8d3" shape="rounded"></rect><g transform="matrix(0.57,0,0,0.57,92.90398319015225,113.03663901090624)"><linearGradient id="a"><stop offset="0" stop-color="#006df0"></stop><stop offset="1" stop-color="#00e7f0"></stop></linearGradient><linearGradient xlink:href="#a" id="b" x1="239.323" x2="239.323" y1="-19.412" y2="512.14" gradientUnits="userSpaceOnUse"></linearGradient><linearGradient xlink:href="#a" id="c" x1="406.483" x2="406.483" y1="-19.412" y2="512.14" gradientUnits="userSpaceOnUse"></linearGradient><path fill="url(#b)" d="m404.156 169.426 35.918-31.934.137-.113a119.893 119.893 0 0 0 37.2-104.953l-1.306-9.254A24.178 24.178 0 0 0 455.762 2.82l-9.184-1.297A120.01 120.01 0 0 0 341.441 38.86l-31.933 35.922-17.258-9.93a299.197 299.197 0 0 0-149.285-39.656l-14.852.055a40.102 40.102 0 0 0-34.511 20l-2.797 4.86c-2.203 3.824-.895 8.71 2.925 10.917l152.418 88-119.105 134.946-9.121 11.726a168.274 168.274 0 0 0-80.688-20.695l-12.046-.055a24.352 24.352 0 0 0-20.711 12l-3.403 5.824a7.993 7.993 0 0 0-.8 6.075 7.981 7.981 0 0 0 3.73 4.859l77.598 44.8c-2.2 4.255-4.286 8.52-6.184 12.903a32.2 32.2 0 0 0 2.73 30.168 32.21 32.21 0 0 0 26.567 14.555 32.497 32.497 0 0 0 12.8-2.656c.204-.082.407-.176.598-.282 4-1.718 8.121-3.742 12.305-5.902l44.8 77.598a7.994 7.994 0 0 0 4.856 3.757 7.995 7.995 0 0 0 6.09-.789l5.879-3.398h.047a24.393 24.393 0 0 0 11.937-20.8l-.054-11.9c-.035-28.23-7.172-56-20.754-80.75l11.558-8.991 135.051-119.247 88.047 152.438c2.21 3.82 7.098 5.133 10.922 2.93l4.855-2.793a40.106 40.106 0 0 0 20-34.528l.047-14.832A296.378 296.378 0 0 0 414.06 186.7zM128.172 41.25l14.848-.055a282.18 282.18 0 0 1 141.238 37.52l14.594 8.394-42.032 49.664-148.074-85.515a24.114 24.114 0 0 1 19.426-10.008zM25.227 290.95l12 .054a152.388 152.388 0 0 1 70.816 17.465l-5.023 6.472c-2.907 3.672-5.665 7.551-8.352 11.536-.8 1.152-1.52 2.328-2.281 3.503-.985 1.528-2.016 3-2.969 4.567L19.02 293.93a8.095 8.095 0 0 1 6.207-2.98zM187.93 441.772l.058 11.82a8.158 8.158 0 0 1-2.992 6.313l-40.61-70.398c1.552-.946 3.009-1.953 4.52-2.93 1.192-.797 2.403-1.527 3.57-2.32 3.88-2.606 7.649-5.285 11.2-8.078l.238-.176 6.563-5.106a152.42 152.42 0 0 1 17.453 70.875zM184.562 339.7 168.099 352.5c-.04 0-.094 0-.133.07l-13.953 10.883a184.608 184.608 0 0 1-24.465 16.215 192.983 192.983 0 0 1-18.262 9.105c-.18.07-.347.149-.523.239a16.079 16.079 0 0 1-20.598-21.266 193.886 193.886 0 0 1 9.16-18.398 183.986 183.986 0 0 1 16.254-24.575l10.8-13.859s0-.086.063-.125l12.922-16.64L353.285 49.612a104.05 104.05 0 0 1 76.2-33.32c4.952 0 9.898.355 14.8 1.07l9.184 1.297a8.076 8.076 0 0 1 6.804 6.777l1.305 9.247a103.906 103.906 0 0 1-32.215 90.886zm253.122 11.074a24.075 24.075 0 0 1-10.016 19.407l-85.504-148.114 49.68-41.992 8.406 14.61a280.39 280.39 0 0 1 37.48 141.289zm0 0" opacity="1" data-original="url(#b)"></path><path fill="url(#c)" d="M386.41 59.645a24 24 0 0 1 29.2 3.69c7.745 7.759 9.257 19.774 3.663 29.204a8.006 8.006 0 0 0 2.797 10.965c3.801 2.254 8.711 1.004 10.965-2.797 9.32-15.71 6.813-35.742-6.097-48.672C414.028 39.11 394 36.57 378.273 45.867a7.998 7.998 0 0 0-4 6.98 8.001 8.001 0 0 0 12.137 6.797zm0 0" opacity="1" data-original="url(#c)"></path></g></svg>