<svg xmlns="http://www.w3.org/2000/svg" version="1.1" xmlns:xlink="http://www.w3.org/1999/xlink" width="512" height="512" x="0" y="0" viewBox="0 0 64 64" style="enable-background:new 0 0 512 512" xml:space="preserve" class=""><rect width="64" height="64" rx="12.8" ry="12.8" fill="#bac8d3" shape="rounded"></rect><g transform="matrix(0.63,0,0,0.63,11.838151479363443,11.840461363792421)"><linearGradient id="a" x1="32" x2="32" y1="1.03" y2="62.33" data-name="New Gradient Swatch copy" gradientUnits="userSpaceOnUse"><stop offset="0" stop-color="#2275e4"></stop><stop offset="1" stop-color="#003fb4"></stop></linearGradient><g fill="url(#a)"><path d="M9.5 59.12h45c1 0 1.81-.81 1.81-1.81V31.8l1.99 1.66c.51.43 1.16.66 1.83.66.86 0 1.66-.38 2.2-1.03.49-.59.72-1.33.65-2.1a2.8 2.8 0 0 0-1.02-1.93L33.83 5.55a2.856 2.856 0 0 0-3.67 0L2.03 29.06a2.8 2.8 0 0 0-1.02 1.93c-.07.77.16 1.51.65 2.1 1.01 1.21 2.82 1.37 4.04.37l1.99-1.66v25.51c0 1 .81 1.81 1.81 1.81zm45.2-1.81a.2.2 0 0 1-.2.2h-45a.2.2 0 0 1-.2-.2V30.45L32 11.49l22.7 18.96zM4.67 32.22c-.53.44-1.33.37-1.77-.16-.21-.26-.31-.58-.28-.92.03-.33.19-.63.45-.84L31.2 6.78a1.24 1.24 0 0 1 1.6 0L60.94 30.3c.25.21.41.51.44.84.03.34-.07.66-.28.92-.43.51-1.27.58-1.77.17l-3.31-2.77L32.51 9.82c-.15-.12-.33-.19-.52-.19s-.37.06-.52.19z" fill="" opacity="1"></path><path d="M20.97 50.43c.65.65 1.51 1 2.43 1s1.78-.36 2.43-1l17.22-17.22a3.428 3.428 0 0 0 0-4.85c-1.3-1.3-3.56-1.3-4.85 0L20.98 45.58a3.428 3.428 0 0 0 0 4.85zm1.14-3.71L39.33 29.5c.34-.34.8-.53 1.29-.53s.94.19 1.29.53c.71.71.71 1.87 0 2.58L24.69 49.3c-.69.69-1.89.69-2.58 0-.71-.71-.71-1.87 0-2.58zM23.79 35.88c1.2 0 2.41-.46 3.32-1.37 1.83-1.83 1.83-4.82 0-6.65s-4.81-1.83-6.65 0a4.714 4.714 0 0 0 0 6.65 4.67 4.67 0 0 0 3.32 1.37zM21.61 29c.58-.58 1.36-.91 2.19-.91s1.6.32 2.18.91a3.081 3.081 0 0 1 0 4.37c-1.2 1.2-3.16 1.21-4.37 0s-1.21-3.17 0-4.37zM36.89 44.28a4.714 4.714 0 0 0 0 6.65c.92.92 2.12 1.37 3.32 1.37s2.41-.46 3.32-1.37c1.83-1.83 1.83-4.82 0-6.65s-4.82-1.83-6.65 0zm5.51 5.51c-1.17 1.17-3.2 1.17-4.37 0a3.081 3.081 0 0 1 0-4.37c.6-.6 1.39-.9 2.19-.9s1.58.3 2.18.9a3.084 3.084 0 0 1 0 4.37z" fill="" opacity="1"></path></g></g></svg>