<svg xmlns="http://www.w3.org/2000/svg" version="1.1" xmlns:xlink="http://www.w3.org/1999/xlink" width="512" height="512" x="0" y="0" viewBox="0 0 307 307" style="enable-background:new 0 0 512 512" xml:space="preserve" class=""><rect width="307" height="307" rx="61.4" ry="61.4" fill="#bac8d3" shape="rounded"></rect><g transform="matrix(0.6499999999999998,0,0,0.6499999999999998,53.725004005432154,53.72500000000002)"><linearGradient id="a"><stop offset="0" stop-color="#2e66ff"></stop><stop offset="1" stop-color="#732dff"></stop></linearGradient><linearGradient xlink:href="#a" id="b" x1="62.17" x2="244.83" y1="150.5" y2="150.5" gradientTransform="matrix(1 0 0 -1 0 304)" gradientUnits="userSpaceOnUse"></linearGradient><linearGradient xlink:href="#a" id="c" x1="62.056" x2="244.722" y1="289.915" y2="289.915" gradientTransform="matrix(1 0 0 -1 0 304)" gradientUnits="userSpaceOnUse"></linearGradient><linearGradient xlink:href="#a" id="d" x1="62.056" x2="244.722" y1="22.315" y2="22.315" gradientTransform="matrix(1 0 0 -1 0 304)" gradientUnits="userSpaceOnUse"></linearGradient><linearGradient xlink:href="#a" id="e" x1="62.056" x2="244.722" y1="236.537" y2="236.537" gradientTransform="matrix(1 0 0 -1 0 304)" gradientUnits="userSpaceOnUse"></linearGradient><linearGradient xlink:href="#a" id="f" x1="62.056" x2="244.722" y1="216.537" y2="216.537" gradientTransform="matrix(1 0 0 -1 0 304)" gradientUnits="userSpaceOnUse"></linearGradient><linearGradient xlink:href="#a" id="g" x1="62.056" x2="244.722" y1="176.537" y2="176.537" gradientTransform="matrix(1 0 0 -1 0 304)" gradientUnits="userSpaceOnUse"></linearGradient><path fill="url(#b)" d="M217.2 307H89.8c-15.255-.02-27.616-12.385-27.63-27.64V27.64C62.184 12.385 74.545.02 89.8 0h127.4c15.255.02 27.616 12.385 27.63 27.64v251.72c-.014 15.255-12.375 27.62-27.63 27.64zM89.8 10c-9.735.014-17.622 7.905-17.63 17.64v251.72c.008 9.735 7.895 17.626 17.63 17.64h127.4c9.735-.014 17.621-7.905 17.63-17.64V27.64c-.009-9.735-7.895-17.626-17.63-17.64z" opacity="1" data-original="url(#b)"></path><path fill="url(#c)" d="M185.43 28.17h-63.86c-9.895-.014-17.912-8.035-17.92-17.93V5a5 5 0 0 1 5-5h89.7a5 5 0 0 1 5 5v5.24c-.008 9.895-8.025 17.916-17.92 17.93zM113.65 10v.24a7.933 7.933 0 0 0 7.92 7.93h63.86a7.933 7.933 0 0 0 7.92-7.93V10z" opacity="1" data-original="url(#c)"></path><path fill="url(#d)" d="M194.796 286.685h-82.592a5 5 0 0 1 0-10h82.592a5 5 0 0 1 0 10z" opacity="1" data-original="url(#d)"></path><path fill="url(#e)" d="M243.981 84.611a5 5 0 0 1-5-5V55.315a5 5 0 0 1 10 0v24.296a5 5 0 0 1-5 5z" opacity="1" data-original="url(#e)"></path><path fill="url(#f)" d="M63.019 104.611a5 5 0 0 1-5-5V75.315a5 5 0 0 1 10 0v24.296a5 5 0 0 1-5 5z" opacity="1" data-original="url(#f)"></path><path fill="url(#g)" d="M63.019 144.611a5 5 0 0 1-5-5v-24.296a5 5 0 0 1 10 0v24.296a5 5 0 0 1-5 5z" opacity="1" data-original="url(#g)"></path></g></svg>