<svg xmlns="http://www.w3.org/2000/svg" version="1.1" xmlns:xlink="http://www.w3.org/1999/xlink" width="512" height="512" x="0" y="0" viewBox="0 0 480 480.098" style="enable-background:new 0 0 512 512" xml:space="preserve" class=""><rect width="480" height="480.098" rx="96" ry="96" fill="#bac8d3" shape="rounded"></rect><g transform="matrix(0.5399999999999999,0,0,0.5399999999999999,110.42606884725393,100.42265747070314)"><linearGradient id="a"><stop offset="0" stop-color="#006df0"></stop><stop offset="1" stop-color="#00e7f0"></stop></linearGradient><linearGradient xlink:href="#a" id="b" x1="240.147" x2="240.147" y1="-19.92" y2="497.752" gradientUnits="userSpaceOnUse"></linearGradient><linearGradient xlink:href="#a" id="c" x1="176.147" x2="176.147" y1="-19.92" y2="497.752" gradientUnits="userSpaceOnUse"></linearGradient><linearGradient xlink:href="#a" id="d" x1="304.147" x2="304.147" y1="-19.92" y2="497.752" gradientUnits="userSpaceOnUse"></linearGradient><g fill="url(#b)"><path d="M368.148 176a8 8 0 0 0 8-8V72a8 8 0 0 0-8-8h-256a8 8 0 0 0-8 8v96a8 8 0 0 0 8 8zm-8-16h-112V80h112zm-240-80h112v80h-112zm0 0" fill="" opacity="1"></path><path d="M477.805 466.344 363.46 352h20.687c13.254 0 24-10.746 24-24V88c-.035-30.914-25.086-55.965-56-56h-40v-8c0-13.254-10.746-24-24-24h-96c-13.253 0-24 10.746-24 24v8h-40c-30.914.035-55.964 25.086-56 56v240c0 13.254 10.747 24 24 24h20.688L2.492 466.344a8.001 8.001 0 0 0-2.183 7.781 8.002 8.002 0 0 0 13.496 3.531L139.46 352h201.375l125.656 125.656a8 8 0 0 0 11.313-11.312zM184.148 24a8 8 0 0 1 8-8h96a8 8 0 0 1 8 8v8h-112zm-96 304V88c.028-22.082 17.918-39.973 40-40h224c22.079.027 39.973 17.918 40 40v240a8 8 0 0 1-8 8h-288a8 8 0 0 1-8-8zm0 0" fill="" opacity="1"></path><path d="M360.148 320v-80a8 8 0 0 0-8-8h-224a8 8 0 0 0-8 8v80a8 8 0 0 0 8 8h224a8 8 0 0 0 8-8zm-16-8h-208v-64h208zm0 0" fill="" opacity="1"></path></g><path fill="url(#c)" d="M176.148 304c13.254 0 24-10.746 24-24s-10.746-24-24-24c-13.253 0-24 10.746-24 24s10.747 24 24 24zm0-32a8 8 0 1 1 0 16 8 8 0 0 1 0-16zm0 0" opacity="1" data-original="url(#c)"></path><path fill="url(#d)" d="M304.148 304c13.254 0 24-10.746 24-24s-10.746-24-24-24c-13.253 0-24 10.746-24 24s10.747 24 24 24zm0-32a8 8 0 1 1 0 16 8 8 0 0 1 0-16zm0 0" opacity="1" data-original="url(#d)"></path><path fill="url(#b)" d="M328.148 384a8 8 0 0 0 0-16h-176a8 8 0 0 0 0 16zM104.148 424a8 8 0 0 0 8 8h256a8 8 0 0 0 0-16h-256a8 8 0 0 0-8 8zM416.148 464h-352a8 8 0 0 0 0 16h352a8 8 0 0 0 0-16zm0 0" opacity="1" data-original="url(#b)"></path></g></svg>