<svg xmlns="http://www.w3.org/2000/svg" version="1.1" xmlns:xlink="http://www.w3.org/1999/xlink" width="512" height="512" x="0" y="0" viewBox="0 0 96 96" style="enable-background:new 0 0 512 512" xml:space="preserve" class=""><rect width="96" height="96" rx="19.2" ry="19.2" fill="#bac8d3" shape="rounded"></rect><g transform="matrix(-0.7499999999999999,-9.184850993605147e-17,9.184850993605147e-17,-0.7499999999999999,83.50912761688232,83.28876209259033)"><linearGradient id="a" x1="11.278" x2="11.278" y1="11.153" y2="84.035" gradientUnits="userSpaceOnUse"><stop offset="0" stop-color="#e100ff"></stop><stop offset="1" stop-color="#7f00ff"></stop></linearGradient><g fill="url(#a)" fill-rule="evenodd" clip-rule="evenodd"><path d="M47.719 64.45a2.113 2.113 0 0 0 2.112-2.113V32.85a2.113 2.113 0 0 0-4.225 0v29.487c0 1.167.946 2.113 2.113 2.113z" fill="" opacity="1"></path><path d="M35.167 45.402a2.112 2.112 0 0 0 2.988 0l9.564-9.564 9.564 9.564a2.112 2.112 0 1 0 2.987-2.987L49.533 31.678a2.566 2.566 0 0 0-3.629 0L35.167 42.415a2.112 2.112 0 0 0 0 2.987z" fill="" opacity="1"></path><path d="M30.198 11.153H65.24c2.88 0 5.17 0 7.017.151 1.892.155 3.506.478 4.983 1.23a12.675 12.675 0 0 1 5.54 5.54c.752 1.477 1.075 3.09 1.23 4.982.15 1.848.15 4.138.15 7.017v35.042c0 2.879 0 5.169-.15 7.016-.155 1.892-.478 3.506-1.23 4.983a12.675 12.675 0 0 1-5.54 5.539c-1.477.753-3.09 1.076-4.983 1.23-1.847.152-4.137.152-7.016.151H30.198c-2.88 0-5.17 0-7.017-.15-1.892-.155-3.505-.478-4.982-1.231a12.675 12.675 0 0 1-5.54-5.54c-.752-1.476-1.075-3.09-1.23-4.982-.15-1.847-.15-4.137-.15-7.017v-35.04c0-2.88 0-5.17.15-7.018.155-1.892.478-3.505 1.23-4.982a12.675 12.675 0 0 1 5.54-5.54c1.477-.752 3.09-1.075 4.982-1.23 1.848-.15 4.138-.15 7.017-.15zm-6.673 4.362c-1.63.133-2.626.386-3.408.784a8.45 8.45 0 0 0-3.693 3.693c-.398.782-.65 1.778-.784 3.408-.135 1.656-.137 3.773-.137 6.766v34.856c0 2.993.002 5.11.137 6.765.133 1.631.386 2.626.784 3.409a8.45 8.45 0 0 0 3.693 3.692c.782.399 1.778.651 3.408.785 1.656.135 3.773.136 6.766.136h34.856c2.993 0 5.11-.001 6.765-.136 1.631-.134 2.626-.386 3.409-.785a8.451 8.451 0 0 0 3.693-3.692c.398-.783.65-1.778.784-3.409.135-1.655.137-3.772.137-6.765V30.166c0-2.993-.002-5.11-.137-6.766-.134-1.63-.386-2.626-.784-3.408a8.45 8.45 0 0 0-3.693-3.693c-.783-.398-1.778-.65-3.409-.784-1.655-.135-3.772-.137-6.765-.137H30.291c-2.993 0-5.11.002-6.766.137z" fill="" opacity="1"></path></g></g></svg>