<svg xmlns="http://www.w3.org/2000/svg" version="1.1" xmlns:xlink="http://www.w3.org/1999/xlink" width="512" height="512" x="0" y="0" viewBox="0 0 64 64" style="enable-background:new 0 0 512 512" xml:space="preserve"><rect width="64" height="64" rx="12.8" ry="12.8" fill="#bac8d3" shape="rounded"></rect><g transform="matrix(0.7399999999999999,0,0,0.7399999999999999,8.319669227600102,8.059551820755011)"><linearGradient id="a" x1="7.82" x2="33.72" y1="12.51" y2="54.81" gradientUnits="userSpaceOnUse"><stop offset="0" stop-color="#00fcff"></stop><stop offset="1" stop-color="#001e94"></stop></linearGradient><linearGradient xlink:href="#a" id="b" x1="6.04" x2="31.94" y1="13.61" y2="55.9"></linearGradient><linearGradient xlink:href="#a" id="c" x1="9.6" x2="35.5" y1="11.42" y2="53.72"></linearGradient><linearGradient xlink:href="#a" id="d" x1="20.51" x2="46.41" y1="4.75" y2="47.04"></linearGradient><linearGradient xlink:href="#a" id="e" x1="20.72" x2="46.62" y1="4.62" y2="46.91"></linearGradient><path fill="url(#a)" d="M41 52c0-.55-.45-1-1-1H24c-.55 0-1 .45-1 1s.45 1 1 1h16c.55 0 1-.45 1-1z" opacity="1" data-original="url(#a)"></path><path fill="url(#b)" d="M25 55c-1.31.02-1.32 1.97 0 2h14c.55 0 1-.45 1-1s-.45-1-1-1z" opacity="1" data-original="url(#b)"></path><path fill="url(#c)" d="M42 48c0-.55-.45-1-1-1H23c-.55 0-1 .45-1 1s.45 1 1 1h18c.55 0 1-.45 1-1z" opacity="1" data-original="url(#c)"></path><path fill="url(#d)" d="M31 21v-6.96L26.49 25H32c.55 0 1 .45 1 1v9.83L37.61 22H32c-.55 0-1-.45-1-1z" opacity="1" data-original="url(#d)"></path><path fill="url(#e)" d="M44.72 35.72C56.03 24.44 47.96 5.01 32 5c-9.67-.2-18.2 8.33-18 18 0 5.98 2.96 11.55 7.92 14.9.17.12.31.29.38.49L24.7 45h14.6l2.4-6.61c.07-.2.21-.37.38-.49.94-.63 1.83-1.36 2.64-2.18zM39.98 21.2c-.03.16-6.99 20.95-7.03 21.12-.19.59-.95.88-1.47.53A.986.986 0 0 1 31 42V27h-6c-.41 0-.8-.27-.93-.65a.94.94 0 0 1 .03-.77l6.97-16.93c.38-1.03 1.92-.75 1.93.35v11h6c.62-.02 1.12.6.98 1.2z" opacity="1" data-original="url(#e)"></path></g></svg>