<svg xmlns="http://www.w3.org/2000/svg" version="1.1" xmlns:xlink="http://www.w3.org/1999/xlink" width="512" height="512" x="0" y="0" viewBox="0 0 512 512" style="enable-background:new 0 0 512 512" xml:space="preserve" class=""><rect width="512" height="512" rx="102.4" ry="102.4" fill="#bac8d3" shape="rounded"></rect><g transform="matrix(-0.45,-5.5109105961630896e-17,5.5109105961630896e-17,-0.45,371.5603434152901,371.0511598095298)"><linearGradient id="a" x1="255.999" x2="256" y1="512.005" y2="-.005" gradientUnits="userSpaceOnUse"><stop offset="0" stop-color="#6c54a3"></stop><stop offset="1" stop-color="#00b1d2"></stop></linearGradient><path fill="url(#a)" fill-rule="evenodd" d="M233.369 278.616a31.973 31.973 0 0 0 45.263 0l224-224A32 32 0 1 0 457.37 9.372L256 210.727 54.631 9.372A32 32 0 0 0 9.369 54.615l224 224zm-224 0a32 32 0 0 1 45.262-45.244L256 434.728l201.37-201.356a32 32 0 1 1 45.258 45.244l-224 224a31.973 31.973 0 0 1-45.263 0z" opacity="1" data-original="url(#a)"></path></g></svg>