<svg xmlns="http://www.w3.org/2000/svg" version="1.1" xmlns:xlink="http://www.w3.org/1999/xlink" width="512" height="512" x="0" y="0" viewBox="0 0 512 512" style="enable-background:new 0 0 512 512" xml:space="preserve"><rect width="512" height="512" rx="102.4" ry="102.4" fill="#bac8d3" shape="rounded"></rect><g transform="matrix(0.5399999999999999,0,0,0.5399999999999999,142.69100807189943,117.76000000000002)"><linearGradient id="a"><stop offset="0" stop-color="#61f07c"></stop><stop offset="1" stop-color="#5ed4a2"></stop></linearGradient><linearGradient xlink:href="#a" id="b" x1="170.595" x2="170.595" y1="530.29" y2="12.54" gradientTransform="matrix(1 0 0 -1 0 512)" gradientUnits="userSpaceOnUse"></linearGradient><linearGradient xlink:href="#a" id="c" x1="341.368" x2="341.368" y1="530.29" y2="12.54" gradientTransform="matrix(1 0 0 -1 0 512)" gradientUnits="userSpaceOnUse"></linearGradient><linearGradient xlink:href="#a" id="d" x1="441.786" x2="441.786" y1="530.29" y2="12.54" gradientTransform="matrix(1 0 0 -1 0 512)" gradientUnits="userSpaceOnUse"></linearGradient><linearGradient xlink:href="#a" id="e" x1="410.77" x2="410.77" y1="530.29" y2="12.54" gradientTransform="matrix(1 0 0 -1 0 512)" gradientUnits="userSpaceOnUse"></linearGradient><linearGradient xlink:href="#a" id="f" x1="379.528" x2="379.528" y1="530.29" y2="12.54" gradientTransform="matrix(1 0 0 -1 0 512)" gradientUnits="userSpaceOnUse"></linearGradient><path fill="url(#b)" d="M306.9 391c0 15.4-12.6 28-28 28H62.3c-15.4 0-28-12.6-28-28V58c0-15.4 12.6-28 28-28h204.5c4.8-1.6 9.8-2.5 14.9-2.5 16.3 0 29.3 9.4 36.7 26.4 6.9 15.8 12 33.1 15.6 52.8 3.4 18.7-3.3 32.6-19.9 41.4-2.4 1.3-4.8 2.4-7.2 3.5v40.5c8.5 16.4 18.6 31.9 30 46.4V58c0-32-26-58-58-58H62.3c-32 0-58 26-58 58v396c0 32 26 58 58 58h216.5c32 0 58-26 58-58V350.2c-10.5-6.6-20.5-13.9-30-21.9zm-113 91h-46.5c-9.2-.2-16.4-7.8-16.2-17 .2-8.8 7.3-16 16.2-16.2h46.5c9.2-.2 16.8 7 17 16.2s-7 16.8-16.2 17h-.8z" opacity="1" data-original="url(#b)"></path><path fill="url(#c)" d="M455.1 292.9c-11.1-12.4-24.3-22.3-38-31.7-11.2-7.6-20.5-6.6-30.1.7-6.8 5.1-12.6 11.5-18.4 17.8-5.5 6-8.2 6.5-14 .9-35.6-34-62.7-76-79-122.5-2.3-6.5-1.1-9 5.1-11.7 8.8-3.8 17.8-7.2 26.3-11.7 10.9-5.7 14.3-13.3 12.1-25.4-2.9-17-7.8-33.6-14.6-49.5-6.7-15.3-18.7-20.9-34.5-15.1-25.2 9.3-42.4 26.8-50 52.8-4.9 16.8-3.1 33.8-.3 50.6 5.8 35.4 19.1 68 37.9 98.4 24 38.9 54 71.8 94.1 94.9 15.6 9 32 15.1 50.2 15.2 10.9.1 21.7-2.3 31.6-6.9 11.2-5.1 21-12.2 27.9-22.7 5.4-8.2 5.7-16.7.5-25.1-1.9-3.2-4.2-6.2-6.8-9z" opacity="1" data-original="url(#c)"></path><path fill="url(#d)" d="M485.7 113.5c-21.6-34.4-52.4-56.1-92.1-64.9-6.2-1.5-12.6 1.2-15.8 6.7-3 5.3-2.7 12.2 1.8 16.3 2.9 2.4 6.3 4.1 9.9 5 35.8 8.9 61.9 29.8 77.9 62.9 11.1 22.8 13.4 46.9 8.6 71.7-1.6 7.6 3.3 15.1 10.9 16.7s15.1-3.3 16.7-10.9c0-.2.1-.4.1-.7 1.5-9.4 2.5-19 3.7-28.5-.7-26.7-7.6-51.7-21.7-74.3z" opacity="1" data-original="url(#d)"></path><path fill="url(#e)" d="M371 119.9c1.8.6 3.6.9 5.4 1.4 24.2 6.7 40.8 21.9 50.1 45.1 5.2 13.1 6 26.7 3.4 40.6-1.5 8.5 3.4 15.8 11.3 17.1 7.6 1.5 14.9-3.5 16.4-11.1 0-.2.1-.4.1-.6 1.2-6.7 1.8-13.5 2.5-19.8-.7-6.4-1.1-12.1-2-17.8-6.5-40.4-40.6-75.4-80.2-82.3-7.7-1.5-15.1 3.6-16.5 11.3-1.3 7 2.8 13.9 9.5 16.1z" opacity="1" data-original="url(#e)"></path><path fill="url(#f)" d="M358.6 165c12.6 3.3 21 11.2 24.1 23.8 1.2 5 .6 10.5.3 15.8-.5 7.8 4.3 14.4 12.1 15.6 7.5 1.2 14.5-3.8 15.9-11.2.8-4 1.1-8 1.6-12-.2-29-21.4-54.9-49.3-60-7.3-1.4-14.4 3.1-16.2 10.2-2.3 8.1 2.5 15.4 11.5 17.8z" opacity="1" data-original="url(#f)"></path></g></svg>