<svg xmlns="http://www.w3.org/2000/svg" version="1.1" xmlns:xlink="http://www.w3.org/1999/xlink" width="512" height="512" x="0" y="0" viewBox="0 0 512 512" style="enable-background:new 0 0 512 512" xml:space="preserve"><rect width="512" height="512" rx="102.4" ry="102.4" fill="#bac8d3" shape="rounded"></rect><g transform="matrix(0.57,0,0,0.57,110.08000000000001,100.08000082015991)"><linearGradient id="a" x1="110.886" x2="407.987" y1="547.485" y2="32.892" gradientUnits="userSpaceOnUse"><stop offset="0" stop-color="#ff6100"></stop><stop offset="1" stop-color="#fdb82e"></stop></linearGradient><path fill="url(#a)" fill-rule="evenodd" d="M24.856 78.468c24.025 6.984 36.682-8.316 52.177-3.411a7 7 0 1 1 14-.001v82.304h-14v-47.715c-15.496-4.905-28.153 10.395-52.177 3.411 4.074-19.143-.507-20 0-34.589zm409.894 31.178c15.496-4.905 28.153 10.395 52.178 3.411-4.074-19.143.507-20 0-34.589-24.025 6.984-36.682-8.316-52.178-3.411a7 7 0 1 0-14-.001v82.304h14v-47.715zM329.13 22.185c-34.098 40.973-87.847 66.436-146.261 68.843v16.706H329.13zm33.256 149.176v18.226H501v-18.226zm-10.475-27.075 11.035-22.553H149.054l11.035 22.553H351.91zM28.103 457.589V203.587h121.511v254.002zm69.288-228.278a7.002 7.002 0 0 0 7 6.999h11.77v11.771c0 3.861 3.135 6.999 7 6.999s7-3.138 7-6.999v-18.769a6.997 6.997 0 0 0-7-6.999h-18.77c-3.867 0-7 3.128-7 6.999zm0 47.251a7.005 7.005 0 0 0 7 6.999h11.77v11.771c0 3.861 3.135 6.999 7 6.999s7-3.138 7-6.999v-18.769a6.997 6.997 0 0 0-7-6.999h-18.77c-3.867 0-7 3.128-7 6.999zm0 47.236a6.997 6.997 0 0 0 7 7.004h11.77v11.78c0 3.861 3.135 6.999 7 6.999s7-3.138 7-6.999v-18.784a7.006 7.006 0 0 0-7-6.999h-18.77c-3.867 0-7 3.143-7 6.999zm0 47.256a6.994 6.994 0 0 0 7 6.994h11.77v11.775a7 7 0 0 0 14 0v-18.769a7.003 7.003 0 0 0-7-7.003h-18.77c-3.867 0-7 3.138-7 7.003zM47.556 229.311a7.003 7.003 0 0 0 7 6.999h11.772v11.771c0 3.861 3.133 6.999 6.999 6.999s7-3.138 7-6.999v-18.769a6.996 6.996 0 0 0-7-6.999h-18.77c-3.865 0-7 3.128-7 6.999zm0 47.251a7.006 7.006 0 0 0 7 6.999h11.772v11.771c0 3.861 3.133 6.999 6.999 6.999s7-3.138 7-6.999v-18.769a6.995 6.995 0 0 0-7-6.999h-18.77c-3.865 0-7 3.128-7 6.999zm0 47.236a6.998 6.998 0 0 0 7 7.004h11.772v11.78c0 3.861 3.133 6.999 6.999 6.999s7-3.138 7-6.999v-18.784a7.005 7.005 0 0 0-7-6.999h-18.77c-3.865 0-7 3.143-7 6.999zm0 47.256a6.996 6.996 0 0 0 7 6.994h11.772v11.775c0 3.866 3.133 6.999 6.999 6.999s7-3.133 7-6.999v-18.769a7.002 7.002 0 0 0-7-7.003h-18.77c-3.865 0-7 3.138-7 7.003zm436.34 86.535h-121.51V203.587h121.51zm-69.287-86.535a7.002 7.002 0 0 0-7-7.003h-18.77c-3.865 0-7 3.138-7 7.003v18.769a7 7 0 0 0 14 0v-11.775h11.77c3.867 0 7-3.128 7-6.994zm0-47.256a7.005 7.005 0 0 0-7-6.999h-18.77c-3.865 0-7 3.143-7 6.999v18.784c0 3.861 3.135 6.999 7 6.999s7-3.138 7-6.999v-11.78h11.77c3.867 0 7-3.128 7-7.004zm0-47.236a6.995 6.995 0 0 0-7-6.999h-18.77c-3.865 0-7 3.128-7 6.999v18.769c0 3.861 3.135 6.999 7 6.999s7-3.138 7-6.999V283.56h11.77c3.867 0 7-3.142 7-6.999zm0-47.251a6.996 6.996 0 0 0-7-6.999h-18.77c-3.865 0-7 3.128-7 6.999v18.769c0 3.861 3.135 6.999 7 6.999s7-3.138 7-6.999v-11.771h11.77c3.867 0 7-3.138 7-6.999zm49.835 141.743a7.002 7.002 0 0 0-7.001-7.003h-18.77c-3.866 0-7 3.138-7 7.003v18.769a7 7 0 0 0 14 0v-11.775h11.769a6.994 6.994 0 0 0 7.001-6.994zm0-47.256a7.005 7.005 0 0 0-7.001-6.999h-18.77c-3.866 0-7 3.143-7 6.999v18.784c0 3.861 3.135 6.999 7 6.999s7-3.138 7-6.999v-11.78h11.769a6.997 6.997 0 0 0 7.001-7.004zm0-47.236a6.996 6.996 0 0 0-7.001-6.999h-18.77c-3.866 0-7 3.128-7 6.999v18.769c0 3.861 3.135 6.999 7 6.999s7-3.138 7-6.999V283.56h11.769a7.004 7.004 0 0 0 7.001-6.999zm0-47.251a6.996 6.996 0 0 0-7.001-6.999h-18.77c-3.866 0-7 3.128-7 6.999v18.769c0 3.861 3.135 6.999 7 6.999s7-3.138 7-6.999v-11.771h11.769a7.002 7.002 0 0 0 7.001-6.999zM305.103 457.589V344.484a2.4 2.4 0 0 0-2.394-2.393H263V457.59h-14V342.091h-39.709a2.401 2.401 0 0 0-2.394 2.393v113.105h-43.284V158.286h184.772v299.303h-43.283zm-55.504-206.604h-41.504v40.398h41.504zm0-54.398h-41.504v40.398h41.504zm14 40.398h41.504v-40.398h-41.504zm41.504 54.398v-40.398h-41.504v40.398zM11 489.815h490v-18.227H11zm138.614-318.454H11v18.226h138.614z" opacity="1" data-original="url(#a)"></path></g></svg>