<svg xmlns="http://www.w3.org/2000/svg" version="1.1" xmlns:xlink="http://www.w3.org/1999/xlink" width="512" height="512" x="0" y="0" viewBox="0 0 32 32" style="enable-background:new 0 0 512 512" xml:space="preserve"><rect width="32" height="32" rx="6.4" ry="6.4" fill="#bac8d3" shape="rounded"></rect><g transform="matrix(0.6499999999999998,0,0,0.6499999999999998,5.600000000000003,5.600000000000003)"><linearGradient id="a" x1="-4.729" x2="23.766" y1="24.766" y2="1.639" gradientUnits="userSpaceOnUse"><stop offset="0" stop-color="#00a1e2"></stop><stop offset="1" stop-color="#00e0a5"></stop></linearGradient><linearGradient xlink:href="#a" id="b" x1="-.786" x2="27.709" y1="29.624" y2="6.497"></linearGradient><circle cx="11" cy="12" r="2" fill="url(#a)" opacity="1" data-original="url(#a)"></circle><path fill="url(#b)" d="M27.311 4H4.689A3.693 3.693 0 0 0 1 7.689v16.622A3.693 3.693 0 0 0 4.689 28h22.622A3.693 3.693 0 0 0 31 24.311V7.689A3.693 3.693 0 0 0 27.311 4zM11 8a4 4 0 1 1-4 4 4 4 0 0 1 4-4zm5 16a1 1 0 0 1-1-1 4 4 0 0 0-8 0 1 1 0 0 1-2 0 6 6 0 0 1 12 0 1 1 0 0 1-1 1zm10-2h-6a1 1 0 0 1 0-2h6a1 1 0 0 1 0 2zm0-5h-6a1 1 0 0 1 0-2h6a1 1 0 0 1 0 2zm0-5h-6a1 1 0 0 1 0-2h6a1 1 0 0 1 0 2z" opacity="1" data-original="url(#b)"></path></g></svg>