<svg xmlns="http://www.w3.org/2000/svg" version="1.1" xmlns:xlink="http://www.w3.org/1999/xlink" width="512" height="512" x="0" y="0" viewBox="0 0 32 32" style="enable-background:new 0 0 512 512" xml:space="preserve" class=""><rect width="32" height="32" rx="6.4" ry="6.4" fill="#bac8d3" shape="rounded"></rect><g transform="matrix(0.6,0,0,0.6,6.4,6.39999074935913)"><linearGradient id="a" x1=".506" x2="32.07" y1="32.181" y2="1.178" gradientUnits="userSpaceOnUse"><stop offset="0" stop-color="#0e5dd8"></stop><stop offset="1" stop-color="#eb55ff"></stop></linearGradient><path fill="url(#a)" d="M27 25.5v2a.5.5 0 0 1-.5.5h-21a.5.5 0 0 1-.5-.5v-2zM28 8a1.993 1.993 0 0 0-1.193 3.597L22.545 16l-5.932-7.085A2.494 2.494 0 0 0 16 4a2.494 2.494 0 0 0-.614 4.915L9.455 16l-4.261-4.403A1.995 1.995 0 0 0 4 8a2 2 0 1 0 0 4c.041 0 .079-.01.119-.012L5 24h22l.881-12.012c.04.002.078.012.119.012a2 2 0 1 0 0-4zm-9.047 10.841-2.588 2.768a.5.5 0 0 1-.73 0l-2.588-2.768a.5.5 0 0 1 0-.683l2.588-2.768a.5.5 0 0 1 .73 0l2.588 2.768a.5.5 0 0 1 0 .683z" opacity="1" data-original="url(#a)"></path></g></svg>