<svg xmlns="http://www.w3.org/2000/svg" version="1.1" xmlns:xlink="http://www.w3.org/1999/xlink" width="512" height="512" x="0" y="0" viewBox="0 0 100 100" style="enable-background:new 0 0 512 512" xml:space="preserve"><rect width="100" height="100" rx="20" ry="20" fill="#bac8d3" shape="rounded"></rect><g transform="matrix(0.6399999999999999,0,0,0.6399999999999999,18.00000000000001,17.999999656677257)"><linearGradient id="a"><stop offset="0" stop-color="#97e0ff"></stop><stop offset="1" stop-color="#1075ff"></stop></linearGradient><linearGradient xlink:href="#a" id="b" x1="-17.396" x2="74.621" y1="10.976" y2="111.816" gradientUnits="userSpaceOnUse"></linearGradient><linearGradient xlink:href="#a" id="c" x1="22.853" x2="114.87" y1="-25.751" y2="75.089" gradientUnits="userSpaceOnUse"></linearGradient><g fill-rule="evenodd" clip-rule="evenodd"><path fill="url(#b)" d="M51.36 51.25c-7.08-15.94-18.89-33.67-18.89-33.67a3.42 3.42 0 0 0-2.83-1.51c-1.13 0-2.19.57-2.82 1.51 0 0-11.81 17.73-18.9 33.67C4.7 58.5 2.5 65.43 2.5 70.36c0 14.98 12.16 27.14 27.14 27.14s27.15-12.16 27.15-27.14c0-4.93-2.21-11.86-5.43-19.11zM29.38 83.92C16.29 82.9 16.07 70.44 16.07 70.44a3.409 3.409 0 0 1 3.31-3.48 3.409 3.409 0 0 1 3.48 3.31s.24 6.36 7.05 6.89c1.86.14 3.26 1.77 3.11 3.64a3.386 3.386 0 0 1-3.64 3.12z" opacity="1" data-original="url(#b)"></path><path fill="url(#c)" d="M97.5 36.43c0 11.24-9.12 20.36-20.36 20.36-11.23 0-20.35-9.12-20.35-20.36 0-3.15 1.6-7.59 4.05-12.22 5.12-9.67 13.65-20.42 13.65-20.42a3.39 3.39 0 0 1 2.65-1.29c1.04 0 2.02.47 2.66 1.29 0 0 8.52 10.75 13.64 20.42 2.45 4.63 4.06 9.07 4.06 12.22z" opacity="1" data-original="url(#c)"></path></g></g></svg>