<svg xmlns="http://www.w3.org/2000/svg" version="1.1" xmlns:xlink="http://www.w3.org/1999/xlink" width="512" height="512" x="0" y="0" viewBox="0 0 120 120" style="enable-background:new 0 0 512 512" xml:space="preserve"><rect width="120" height="120" rx="24" ry="24" fill="#bac8d3" shape="rounded"></rect><g transform="matrix(0.7,0,0,0.7,18.25639514923096,18.006295967102055)"><linearGradient id="a" x1="60.855" x2="60.855" y1="10.463" y2="109.582" gradientUnits="userSpaceOnUse"><stop offset="0" stop-color="#faa500"></stop><stop offset="1" stop-color="#ff5757"></stop></linearGradient><g fill="url(#a)"><path d="M50.264 23.864H29.371v-9.402a4 4 0 0 1 4-4h12.893a4 4 0 0 1 4 4zM78.42 24.244l19.401 5.72 2.315-7.85a4 4 0 0 0-2.706-4.967l-11.727-3.458a4 4 0 0 0-4.968 2.706zM64.105 39.663c2.111-5.794 6.74-10.04 12.263-11.854l21.243 6.264c3.589 4.437 5.182 10.376 3.942 16.282a5.658 5.658 0 0 0-.256-.08zM63.893 43.763l.002.287v26.627l29.22 8.52 7.363-24.973a2.054 2.054 0 0 0-.278-.102zM91.983 83.034l-28.088-8.15v28.588c0 .57-.048 1.128-.14 1.671l14.218 4.192a6 6 0 0 0 7.452-4.058zM27.936 27.864c-4.97 3.655-8.196 9.544-8.196 16.186v.936h40.155v-.936c0-6.642-3.225-12.53-8.195-16.185zM59.895 79.23v24.242a6 6 0 0 1-6 6H25.74a6 6 0 0 1-6-6V79.229zM19.74 75.23V48.985h40.155V75.23z" fill="" opacity="1"></path></g></g></svg>