<svg xmlns="http://www.w3.org/2000/svg" version="1.1" xmlns:xlink="http://www.w3.org/1999/xlink" width="512" height="512" x="0" y="0" viewBox="0 0 64 64" style="enable-background:new 0 0 512 512" xml:space="preserve" class=""><rect width="64" height="64" rx="12.8" ry="12.8" fill="#bac8d3" shape="rounded"></rect><g transform="matrix(0.65,0,0,0.65,11.2,10.150000000000002)"><linearGradient id="a" x1="9.15" x2="48.65" y1="16.71" y2="63.88" gradientUnits="userSpaceOnUse"><stop offset="0" stop-color="#15b3ff"></stop><stop offset="1" stop-color="#e200e9"></stop></linearGradient><linearGradient xlink:href="#a" id="b" x1="-5.37" x2="34.13" y1="28.87" y2="76.04"></linearGradient><linearGradient xlink:href="#a" id="c" x1="15.79" x2="55.29" y1="11.15" y2="58.32"></linearGradient><linearGradient xlink:href="#a" id="d" x1="30.74" x2="70.24" y1="-1.36" y2="45.8"></linearGradient><linearGradient xlink:href="#a" id="e" x1="19.14" x2="58.64" y1="8.35" y2="55.51"></linearGradient><linearGradient xlink:href="#a" id="f" x1="-2.02" x2="37.48" y1="26.07" y2="73.23"></linearGradient><linearGradient xlink:href="#a" id="g" x1="2.68" x2="42.18" y1="22.13" y2="69.3"></linearGradient><path fill="url(#a)" d="M58 51H6a3 3 0 0 1-3-3v-8a3 3 0 0 1 3-3h52a3 3 0 0 1 3 3v8a3 3 0 0 1-3 3zM6 39a1 1 0 0 0-1 1v8a1 1 0 0 0 1 1h52a1 1 0 0 0 1-1v-8a1 1 0 0 0-1-1z" opacity="1" data-original="url(#a)"></path><path fill="url(#b)" d="M19 55H9a1 1 0 0 1-1-1v-4a1 1 0 0 1 1-1h10a1 1 0 0 1 1 1v4a1 1 0 0 1-1 1zm-9-2h8v-2h-8z" opacity="1" data-original="url(#b)"></path><path fill="url(#c)" d="M55 55H45a1 1 0 0 1-1-1v-4a1 1 0 0 1 1-1h10a1 1 0 0 1 1 1v4a1 1 0 0 1-1 1zm-9-2h8v-2h-8z" opacity="1" data-original="url(#c)"></path><path fill="url(#d)" d="M52 39h-4a1 1 0 0 1-1-1V6a3 3 0 0 1 6 0v32a1 1 0 0 1-1 1zm-3-2h2V6a1 1 0 0 0-2 0z" opacity="1" data-original="url(#d)"></path><path fill="url(#e)" d="M53 47h-8a3 3 0 0 1 0-6h8a3 3 0 0 1 0 6zm-8-4a1 1 0 0 0 0 2h8a1 1 0 0 0 0-2z" opacity="1" data-original="url(#e)"></path><path fill="url(#f)" d="M13 47a3 3 0 1 1 3-3 3 3 0 0 1-3 3zm0-4a1 1 0 1 0 1 1 1 1 0 0 0-1-1z" opacity="1" data-original="url(#f)"></path><path fill="url(#g)" d="M21 47a3 3 0 1 1 3-3 3 3 0 0 1-3 3zm0-4a1 1 0 1 0 1 1 1 1 0 0 0-1-1z" opacity="1" data-original="url(#g)"></path></g></svg>