<svg xmlns="http://www.w3.org/2000/svg" version="1.1" xmlns:xlink="http://www.w3.org/1999/xlink" width="512" height="512" x="0" y="0" viewBox="0 0 3873 3873" style="enable-background:new 0 0 512 512" xml:space="preserve"><rect width="3873" height="3873" rx="774.6" ry="774.6" fill="#bac8d3" shape="rounded"></rect><g transform="matrix(0.69,0,0,0.69,600.3296495056154,600.3287365722658)"><linearGradient id="a"><stop offset="0" stop-color="#ee0979"></stop><stop offset="1" stop-color="#ff6a00"></stop></linearGradient><linearGradient xlink:href="#a" id="b" x1="796.07" x2="3306.037" y1="754.214" y2="3264.181" gradientUnits="userSpaceOnUse"></linearGradient><linearGradient xlink:href="#a" id="c" x1="695.573" x2="1956.602" y1="1366.432" y2="2627.461" gradientUnits="userSpaceOnUse"></linearGradient><linearGradient xlink:href="#a" id="d" x1="2410.894" x2="3128.502" y1="1109.821" y2="1827.429" gradientUnits="userSpaceOnUse"></linearGradient><linearGradient xlink:href="#a" id="e" x1="2410.894" x2="3128.502" y1="1373.982" y2="2091.589" gradientUnits="userSpaceOnUse"></linearGradient><linearGradient xlink:href="#a" id="f" x1="2410.894" x2="3128.502" y1="1638.145" y2="2355.752" gradientUnits="userSpaceOnUse"></linearGradient><linearGradient xlink:href="#a" id="g" x1="2410.894" x2="3128.502" y1="1902.304" y2="2619.911" gradientUnits="userSpaceOnUse"></linearGradient><linearGradient xlink:href="#a" id="h" x1="2410.894" x2="3128.502" y1="2166.466" y2="2884.074" gradientUnits="userSpaceOnUse"></linearGradient><path fill="url(#b)" d="M3481.1 994.9h-82.2l-90.5-291.8c-17.2-55.6-55.1-101.1-106.6-128.3-51.5-27.1-110.5-32.6-166.1-15.3L1631.6 994.9H645.5c-120.2 0-217.9 97.7-217.9 217.9v155.4l-100.2 31.1c-114.8 35.6-179.2 157.9-143.6 272.7l243.8 786.3v322.9c0 102.2 70.7 188.1 165.7 211.6l54.9 177.2c17.2 55.6 55.1 101.1 106.6 128.3 31.8 16.7 66.4 25.2 101.3 25.2 21.7 0 43.5-3.3 64.8-9.9L1935.2 2999h1546c120.1 0 217.9-97.7 217.9-217.9V1212.8c-.1-120.2-97.8-217.9-218-217.9zm-409.4-319.8c24.7-7.7 50.9-5.2 73.8 6.8 22.9 12.1 39.7 32.3 47.4 57l79.4 256h-1232zm-2772.3 961c-15.8-51 12.8-105.4 63.8-121.2l64.4-20v554.6zm585.7 1561.8c-24.7 7.7-50.9 5.2-73.8-6.8-22.9-12.1-39.7-32.3-47.4-57L722 2999h804.5zM3578 2781.1c0 53.4-43.5 96.9-96.9 96.9H643.3c-.8 0-1.6-.1-2.4-.1-51.3-2.4-92.3-44.9-92.3-96.7V1212.9c0-53.4 43.5-96.9 96.9-96.9h2835.6c53.4 0 96.9 43.5 96.9 96.9z" opacity="1" data-original="url(#b)"></path><path fill="url(#c)" d="M1927.3 1362.2H724.9c-33.4 0-60.5 27.1-60.5 60.5v1148.5c0 33.4 27.1 60.5 60.5 60.5h1202.4c33.4 0 60.5-27.1 60.5-60.5V1422.7c0-33.4-27.1-60.5-60.5-60.5zm-702.6 766c-.7-.7-1.5-1.4-2.2-2.1-27.3-27-45-64.9-47.4-108.3l-.3-61.7c19.7-24.5 67.4-74 123.6-62.2 14.5 3 29.2 4 43.9 2.8 33.1-2.7 76.9-10.8 110.6-33.5 11 11 18.6 22.4 22.1 33.2 1.1 5.6 2.3 21.9 2.3 30v93.1c0 33.5-11 65.2-31.9 91.5-4.4 5.5-9.2 10.8-14.4 15.7-.4.4-.8.7-1.2 1.1-1.7 1.6-3.4 3.1-5.2 4.6-27.4 23.3-62.5 36.1-98.8 36.1-39 .1-74.4-15-101.1-40.3zm223.3-393c-23 1.4-44.9 11-61.7 27-3.6 3.4-21.5 11.3-53.7 13.9-3.1.3-6.3 0-9.4-.6-56.1-11.7-112.7 0-165.1 33.9-6.6-19.8-14.7-36.3-23.1-49.9 102.6-93.2 166.4-103 196.9-99.6 36.4 4.1 54.6 29.8 57.3 33.9 11 21.3 32.4 32 56.4 30.5 26.4-1.7 33.1 6.5 35.6 9.6 1.6 1.9 3 4.1 4.3 6.6-11.9-4.3-24.7-6.1-37.5-5.3zm-275 506.6c44.5 31.1 97.5 47.8 153.1 47.8 55.2 0 109-16.7 154.2-47.4 70.4 36.5 211 125.9 235 268.5H936.9c24.7-142.9 168.5-233.6 236.1-268.9zm693.8 268.9h-29.3c-5.6-49.5-21-97.4-46.1-142.9-25.7-46.5-61.5-90.6-106.5-130.9-41.6-37.3-84.8-65.9-120.5-86.5 22.3-39.8 34-84.3 34-130.8V1934c18.7-74.5 37.8-202.3-23.7-277.2-18.4-22.4-50.4-47.8-102.6-53-22.4-24.5-61.9-55.7-122.2-63.8-101-13.5-215.9 44.9-341.6 173.6-13.1 13.5-19.3 32.3-16.6 50.9 2.5 17.7 12.7 33.3 27.8 42.7 3.3 2.7 37.3 32.8 34.2 127.2v2.6l.4 82.7c0 .9 0 1.8.1 2.7 2.2 45.2 14.6 88.5 35.7 126.7-35.2 20.1-78.6 48.6-120.2 85.4-45.6 40.5-82 84.7-108 131.5-25.6 46-41.4 94.4-47 144.6h-29.3V1483.2h1081.4z" opacity="1" data-original="url(#c)"></path><path fill="url(#d)" d="M3401.7 1408.1h-1264c-33.4 0-60.5 27.1-60.5 60.5s27.1 60.5 60.5 60.5h1264.1c33.4 0 60.5-27.1 60.5-60.5-.1-33.4-27.2-60.5-60.6-60.5z" opacity="1" data-original="url(#d)"></path><path fill="url(#e)" d="M3401.7 1672.3h-1264c-33.4 0-60.5 27.1-60.5 60.5s27.1 60.5 60.5 60.5h1264.1c33.4 0 60.5-27.1 60.5-60.5-.1-33.4-27.2-60.5-60.6-60.5z" opacity="1" data-original="url(#e)"></path><path fill="url(#f)" d="M3401.7 1936.4h-1264c-33.4 0-60.5 27.1-60.5 60.5s27.1 60.5 60.5 60.5h1264.1c33.4 0 60.5-27.1 60.5-60.5-.1-33.4-27.2-60.5-60.6-60.5z" opacity="1" data-original="url(#f)"></path><path fill="url(#g)" d="M3401.7 2200.6h-1264c-33.4 0-60.5 27.1-60.5 60.5s27.1 60.5 60.5 60.5h1264.1c33.4 0 60.5-27.1 60.5-60.5-.1-33.4-27.2-60.5-60.6-60.5z" opacity="1" data-original="url(#g)"></path><path fill="url(#h)" d="M3401.7 2464.8h-1264c-33.4 0-60.5 27.1-60.5 60.5s27.1 60.5 60.5 60.5h1264.1c33.4 0 60.5-27.1 60.5-60.5-.1-33.5-27.2-60.5-60.6-60.5z" opacity="1" data-original="url(#h)"></path></g></svg>