<svg xmlns="http://www.w3.org/2000/svg" version="1.1" xmlns:xlink="http://www.w3.org/1999/xlink" width="512" height="512" x="0" y="0" viewBox="0 0 454 454" style="enable-background:new 0 0 512 512" xml:space="preserve"><rect width="454" height="454" rx="90.8" ry="90.8" fill="#bac8d3" shape="rounded"></rect><g transform="matrix(0.57,0,0,0.57,97.61000000000001,126.11000000000001)"><linearGradient id="a"><stop offset="0" stop-color="#00efd1"></stop><stop offset="1" stop-color="#00acea"></stop></linearGradient><linearGradient xlink:href="#a" id="b" x1="227" x2="227" y1="-35" y2="397.167" gradientUnits="userSpaceOnUse"></linearGradient><linearGradient xlink:href="#a" id="c" x1="107" x2="107" y1="-35" y2="397.167" gradientUnits="userSpaceOnUse"></linearGradient><linearGradient xlink:href="#a" id="d" x1="347" x2="347" y1="-35" y2="397.167" gradientUnits="userSpaceOnUse"></linearGradient><g fill="url(#b)"><path d="M199.848 118c0 3.313 2.687 6 6 6h22.66c-2.098 3-6.035 6-10.555 6h-12.105a5.922 5.922 0 0 0-5.578 3.71 5.935 5.935 0 0 0 1.457 6.544l30.257 28.57a6.001 6.001 0 0 0 8.461-.273 6.004 6.004 0 0 0-.218-8.461l-19.465-18.246A24.791 24.791 0 0 0 241.328 124h6.824c3.313 0 6-2.688 6-6s-2.687-6-6-6h-6.8c-.559-2-1.426-5-2.536-6h9.34c3.313 0 6-2.688 6-6s-2.687-6-6-6h-42.308c-3.313 0-6 2.688-6 6s2.687 6 6 6h12.105c4.52 0 8.457 2 10.555 6h-22.66c-3.313 0-6 2.688-6 6zm0 0" fill="" opacity="1"></path><path d="M447.707 0H6.293C2.98 0 0 2.426 0 5.738v342.524C0 351.574 2.98 354 6.293 354h441.414c3.313 0 6.293-2.426 6.293-5.738V5.738C454 2.426 451.02 0 447.707 0zM12 264h430v18H12zm0 30h430v18H12zm0-282h430v240H12zm0 330v-18h430v18zm0 0" fill="" opacity="1"></path><path d="M76.664 222.266A5.89 5.89 0 0 0 81 224h292a5.89 5.89 0 0 0 4.336-1.734l34.84-36.176A6.026 6.026 0 0 0 414 182V82a6.163 6.163 0 0 0-1.824-4.148l-34.762-36.118A6.08 6.08 0 0 0 373 40H81a5.89 5.89 0 0 0-4.336 1.734L41.824 77.91A6.026 6.026 0 0 0 40 82v100a6.026 6.026 0 0 0 1.824 4.09zM52 84.41 83.563 52h286.875L402 84.41v95.18L370.437 212H83.563L52 179.59zm0 0" fill="" opacity="1"></path><path d="M227 206c40.867 0 74-33.133 74-74s-33.133-74-74-74-74 33.133-74 74c.047 40.852 33.148 73.953 74 74zm0-136c34.242 0 62 27.758 62 62s-27.758 62-62 62-62-27.758-62-62c.04-34.227 27.773-61.96 62-62zm0 0" fill="" opacity="1"></path></g><path fill="url(#c)" d="M107 157.355c14.004 0 25.355-11.351 25.355-25.355S121.004 106.645 107 106.645 81.645 117.996 81.645 132c.015 13.996 11.359 25.34 25.355 25.355zm0-38.71c7.375 0 13.355 5.98 13.355 13.355s-5.98 13.355-13.355 13.355-13.355-5.98-13.355-13.355c.007-7.375 5.98-13.348 13.355-13.355zm0 0" opacity="1" data-original="url(#c)"></path><path fill="url(#d)" d="M347 157.355c14.004 0 25.355-11.351 25.355-25.355S361.004 106.645 347 106.645 321.645 117.996 321.645 132c.015 13.996 11.359 25.34 25.355 25.355zm0-38.71c7.375 0 13.355 5.98 13.355 13.355s-5.98 13.355-13.355 13.355-13.355-5.98-13.355-13.355c.007-7.375 5.98-13.348 13.355-13.355zm0 0" opacity="1" data-original="url(#d)"></path></g></svg>