<svg xmlns="http://www.w3.org/2000/svg" version="1.1" xmlns:xlink="http://www.w3.org/1999/xlink" width="512" height="512" x="0" y="0" viewBox="0 0 48 48" style="enable-background:new 0 0 512 512" xml:space="preserve"><rect width="48" height="48" rx="9.6" ry="9.6" fill="#bac8d3" shape="rounded"></rect><g transform="matrix(0.67,0,0,0.67,7.920000000000002,7.920000000000002)"><linearGradient id="a" x1="24" x2="24" y1="4" y2="44" gradientUnits="userSpaceOnUse"><stop offset="0" stop-color="#d53369"></stop><stop offset="1" stop-color="#cbad6d"></stop></linearGradient><g fill="url(#a)"><g fill-rule="evenodd" clip-rule="evenodd"><path d="M8 43a1 1 0 0 1 1-1h30a1 1 0 1 1 0 2H9a1 1 0 0 1-1-1zM19 8h-9V6h9zM39 8h-9V6h9zM17 11h-6V9h6zM37 11h-6V9h6zM32 38H16v-2h16zM25 7v8h-2V7z" fill="" opacity="1"></path><path d="M20 10h8v2h-8z" fill="" opacity="1"></path><path d="M29 6H19v10h10zM19 4h10a2 2 0 0 1 2 2v10a2 2 0 0 1-2 2H19a2 2 0 0 1-2-2V6a2 2 0 0 1 2-2zM11 42V7h2v35zM35 42V7h2v35zM23 42v-4h2v4zM29 42v-4h2v4zM17 42v-4h2v4z" fill="" opacity="1"></path></g><path d="M16 20h4v3h-4zM16 25h4v3h-4zM16 30h4v3h-4zM22 20h4v3h-4zM22 25h4v3h-4zM22 30h4v3h-4zM28 20h4v3h-4zM28 25h4v3h-4zM28 30h4v3h-4z" fill="" opacity="1"></path></g></g></svg>