<svg xmlns="http://www.w3.org/2000/svg" version="1.1" xmlns:xlink="http://www.w3.org/1999/xlink" width="512" height="512" x="0" y="0" viewBox="0 0 128 128" style="enable-background:new 0 0 512 512" xml:space="preserve" class=""><rect width="128" height="128" rx="25.6" ry="25.6" fill="#bac8d3" shape="rounded"></rect><g transform="matrix(0.58,0,0,0.58,26.880000000000003,26.879370346069337)"><defs><linearGradient id="a" x1="116.831" x2="11.169" y1="122.016" y2="16.353" gradientUnits="userSpaceOnUse"><stop offset="0" stop-color="#0d70b2"></stop><stop offset="1" stop-color="#00ddc1"></stop></linearGradient></defs><path fill="url(#a)" d="M44.83 9.56v12.625a1.75 1.75 0 1 1-3.5 0v-4.563h-2.984v4.563a1.75 1.75 0 0 1-3.5 0V9.56a1.75 1.75 0 0 1 3.5 0v4.562h2.984V9.56a1.75 1.75 0 0 1 3.5 0Zm12.081 0v12.625a1.75 1.75 0 0 1-1.75 1.75h-6.484a1.75 1.75 0 0 1-1.75-1.75V9.56a1.749 1.749 0 0 1 1.75-1.75h6.484a1.749 1.749 0 0 1 1.75 1.75Zm-3.5 1.75h-2.984v9.125h2.984Zm13.831-3.5h-6.484a1.75 1.75 0 1 0 0 3.5h1.492v10.875a1.75 1.75 0 1 0 3.5 0V11.31h1.492a1.75 1.75 0 0 0 0-3.5Zm12.081 3.5a1.75 1.75 0 0 0 0-3.5h-6.484a1.749 1.749 0 0 0-1.75 1.75v12.625a1.75 1.75 0 0 0 1.75 1.75h6.484a1.75 1.75 0 0 0 0-3.5h-4.734v-2.813h4.734a1.75 1.75 0 0 0 0-3.5h-4.734V11.31ZM91.4 20.435h-4.73V9.56a1.75 1.75 0 0 0-3.5 0v12.625a1.75 1.75 0 0 0 1.75 1.75h6.48a1.75 1.75 0 0 0 0-3.5ZM111.875 30v10a1.75 1.75 0 1 1-3.5 0v-8.25h-88.75v92.75h26.437v-21.625a1.751 1.751 0 0 1 1.75-1.75h32.375a1.75 1.75 0 0 1 1.75 1.75V124.5h26.438V75.874a1.75 1.75 0 0 1 3.5 0v50.373a1.75 1.75 0 0 1-1.75 1.75h-92.25a1.75 1.75 0 0 1-1.75-1.75V30a1.749 1.749 0 0 1 1.75-1.75H26.5V1.747A1.75 1.75 0 0 1 28.25 0h71.5a1.75 1.75 0 0 1 1.75 1.75v26.5h8.625a1.749 1.749 0 0 1 1.75 1.75Zm-33.438 74.625H65.75V124.5h12.687ZM49.562 124.5H62.25v-19.875H49.562ZM98 28.247V3.5H30v24.75Zm12.125 24.561a1.75 1.75 0 0 0-1.75 1.75v6.755a1.75 1.75 0 0 0 3.5 0v-6.755a1.75 1.75 0 0 0-1.75-1.75ZM48 52.505a1.749 1.749 0 0 1-1.75 1.75H27.875a1.749 1.749 0 0 1-1.75-1.75V40a1.749 1.749 0 0 1 1.75-1.75H46.25A1.749 1.749 0 0 1 48 40Zm-3.5-10.758H29.625v9.008H44.5Zm30.437 10.758a1.749 1.749 0 0 1-1.75 1.75H54.812a1.75 1.75 0 0 1-1.75-1.75V40a1.75 1.75 0 0 1 1.75-1.75h18.375a1.749 1.749 0 0 1 1.75 1.75Zm-3.5-10.758H56.562v9.008h14.875Zm30.438 10.758a1.749 1.749 0 0 1-1.75 1.75H81.75a1.749 1.749 0 0 1-1.75-1.75V40a1.749 1.749 0 0 1 1.75-1.75h18.375a1.749 1.749 0 0 1 1.75 1.75Zm-3.5-10.758H83.5v9.008h14.875ZM48 72.686a1.75 1.75 0 0 1-1.75 1.75H27.875a1.75 1.75 0 0 1-1.75-1.75V60.177a1.75 1.75 0 0 1 1.75-1.75H46.25a1.75 1.75 0 0 1 1.75 1.75Zm-3.5-10.759H29.625v9.009H44.5Zm30.437 10.759a1.75 1.75 0 0 1-1.75 1.75H54.812a1.751 1.751 0 0 1-1.75-1.75V60.177a1.751 1.751 0 0 1 1.75-1.75h18.375a1.75 1.75 0 0 1 1.75 1.75Zm-3.5-10.759H56.562v9.009h14.875Zm30.438 10.759a1.75 1.75 0 0 1-1.75 1.75H81.75a1.75 1.75 0 0 1-1.75-1.75V60.177a1.75 1.75 0 0 1 1.75-1.75h18.375a1.75 1.75 0 0 1 1.75 1.75Zm-3.5-10.759H83.5v9.009h14.875Zm-63.529 29.19a1.75 1.75 0 1 0 0 3.5h11.4A1.75 1.75 0 0 0 48 92.867V80.358a1.75 1.75 0 0 0-1.75-1.75H27.875a1.75 1.75 0 0 0-1.75 1.75v6.254a1.75 1.75 0 0 0 3.5 0v-4.5H44.5v9.009Zm40.091-10.759v12.509a1.75 1.75 0 0 1-1.75 1.75H54.812a1.751 1.751 0 0 1-1.75-1.75V80.358a1.751 1.751 0 0 1 1.75-1.75h18.375a1.75 1.75 0 0 1 1.75 1.75Zm-3.5 1.75H56.562v9.009h14.875Zm30.438-1.75v12.509a1.75 1.75 0 0 1-1.75 1.75H81.75a1.75 1.75 0 0 1-1.75-1.75V80.358a1.75 1.75 0 0 1 1.75-1.75h18.375a1.75 1.75 0 0 1 1.75 1.75Zm-3.5 1.75H83.5v9.009h14.875Z" opacity="1" data-original="url(#a)"></path></g></svg>