<svg xmlns="http://www.w3.org/2000/svg" version="1.1" xmlns:xlink="http://www.w3.org/1999/xlink" width="512" height="512" x="0" y="0" viewBox="0 0 559.502 559.502" style="enable-background:new 0 0 512 512" xml:space="preserve" class=""><rect width="559.502" height="559.502" rx="111.90039999999999" ry="111.90039999999999" fill="#bac8d3" shape="rounded"></rect><g transform="matrix(0.6399999999999999,0,0,0.6399999999999999,105.71038271747227,100.71018402099611)"><linearGradient id="a"><stop offset="0" stop-color="#08f5ff"></stop><stop offset="1" stop-color="#580dbf"></stop></linearGradient><linearGradient xlink:href="#a" id="b" x1="135.443" x2="528.724" y1="-48.417" y2="344.863" gradientTransform="matrix(1 0 0 -1 0 556.567)" gradientUnits="userSpaceOnUse"></linearGradient><linearGradient xlink:href="#a" id="c" x1="-6.47" x2="367.689" y1="145.519" y2="519.678" gradientTransform="matrix(1 0 0 -1 0 556.567)" gradientUnits="userSpaceOnUse"></linearGradient><linearGradient xlink:href="#a" id="d" x1="18.299" x2="425.749" y1="82.804" y2="490.253" gradientTransform="matrix(1 0 0 -1 0 556.567)" gradientUnits="userSpaceOnUse"></linearGradient><linearGradient xlink:href="#a" id="e" x1="106.449" x2="471.388" y1="29.299" y2="394.238" gradientTransform="matrix(1 0 0 -1 0 556.567)" gradientUnits="userSpaceOnUse"></linearGradient><linearGradient xlink:href="#a" id="f" x1="39.271" x2="457.88" y1="49.358" y2="467.968" gradientTransform="matrix(1 0 0 -1 0 556.567)" gradientUnits="userSpaceOnUse"></linearGradient><linearGradient xlink:href="#a" id="g" x1="57.613" x2="447.131" y1="43.353" y2="432.871" gradientTransform="matrix(1 0 0 -1 0 556.567)" gradientUnits="userSpaceOnUse"></linearGradient><linearGradient xlink:href="#a" id="h" x1="-27.114" x2="386.659" y1="136.534" y2="550.307" gradientTransform="matrix(1 0 0 -1 0 556.567)" gradientUnits="userSpaceOnUse"></linearGradient><linearGradient xlink:href="#a" id="i" x1="-5.691" x2="369.201" y1="135.87" y2="510.761" gradientTransform="matrix(1 0 0 -1 0 556.567)" gradientUnits="userSpaceOnUse"></linearGradient><linearGradient xlink:href="#a" id="j" x1="119.267" x2="533.039" y1="-55.639" y2="358.134" gradientTransform="matrix(1 0 0 -1 0 556.567)" gradientUnits="userSpaceOnUse"></linearGradient><linearGradient xlink:href="#a" id="k" x1="151.668" x2="526.56" y1="-45.326" y2="329.566" gradientTransform="matrix(1 0 0 -1 0 556.567)" gradientUnits="userSpaceOnUse"></linearGradient><linearGradient xlink:href="#a" id="l" x1="86.007" x2="499.78" y1="-11.372" y2="402.401" gradientTransform="matrix(1 0 0 -1 0 556.567)" gradientUnits="userSpaceOnUse"></linearGradient><linearGradient xlink:href="#a" id="m" x1="114.249" x2="489.14" y1="-5.219" y2="369.672" gradientTransform="matrix(1 0 0 -1 0 556.567)" gradientUnits="userSpaceOnUse"></linearGradient><linearGradient xlink:href="#a" id="n" x1="152.526" x2="566.3" y1="-99.906" y2="313.868" gradientTransform="matrix(1 0 0 -1 0 556.567)" gradientUnits="userSpaceOnUse"></linearGradient><linearGradient xlink:href="#a" id="o" x1="189.087" x2="563.979" y1="-85.432" y2="289.459" gradientTransform="matrix(1 0 0 -1 0 556.567)" gradientUnits="userSpaceOnUse"></linearGradient><linearGradient xlink:href="#a" id="p" x1="6.261" x2="420.034" y1="92.115" y2="505.888" gradientTransform="matrix(1 0 0 -1 0 556.567)" gradientUnits="userSpaceOnUse"></linearGradient><linearGradient xlink:href="#a" id="q" x1="31.858" x2="406.749" y1="95.624" y2="470.516" gradientTransform="matrix(1 0 0 -1 0 556.567)" gradientUnits="userSpaceOnUse"></linearGradient><linearGradient xlink:href="#a" id="r" x1="-94.592" x2="295.992" y1="245.941" y2="636.525" gradientTransform="matrix(1 0 0 -1 0 556.567)" gradientUnits="userSpaceOnUse"></linearGradient><linearGradient xlink:href="#a" id="s" x1="-97.68" x2="324.13" y1="216.004" y2="637.814" gradientTransform="matrix(1 0 0 -1 0 556.567)" gradientUnits="userSpaceOnUse"></linearGradient><linearGradient xlink:href="#a" id="t" x1="135.514" x2="499.308" y1="-28.271" y2="335.522" gradientTransform="matrix(1 0 0 -1 0 556.567)" gradientUnits="userSpaceOnUse"></linearGradient><path fill="url(#b)" d="M500.148 448.175H238.994a7.643 7.643 0 0 1-7.643-7.643V301.18a7.643 7.643 0 0 1 7.643-7.643h261.154a7.643 7.643 0 0 1 7.643 7.643v139.353a7.643 7.643 0 0 1-7.643 7.642zm-253.511-15.286h245.868V308.823H246.637z" opacity="1" data-original="url(#b)"></path><path fill="url(#c)" d="M29.112 282.253a7.687 7.687 0 0 1-7.641-7.643v-30.298c0-2.063.834-4.038 2.312-5.477l116.031-112.94a7.643 7.643 0 0 1 10.662 0l116.031 112.94a7.644 7.644 0 0 1 2.312 5.477v30.298a7.673 7.673 0 0 1-12.974 5.477l-110.7-107.761-110.7 107.761a7.638 7.638 0 0 1-5.333 2.166zm116.032-128.236a7.62 7.62 0 0 1 5.331 2.166l103.057 100.322v-8.966L145.144 142.038 36.756 247.539v8.964l103.057-100.32a7.612 7.612 0 0 1 5.331-2.166z" opacity="1" data-original="url(#c)"></path><path fill="url(#d)" d="M238.994 448.175H51.53a7.643 7.643 0 0 1-7.643-7.643V253.068c0-2.063.834-4.038 2.312-5.477l93.732-91.241a7.643 7.643 0 0 1 10.662 0l93.732 91.241a7.644 7.644 0 0 1 2.312 5.477v187.464a7.643 7.643 0 0 1-7.643 7.643zM59.173 432.889h172.178V256.294l-86.089-83.801-86.089 83.801z" opacity="1" data-original="url(#d)"></path><path fill="url(#e)" d="M530.453 308.823H238.994a7.643 7.643 0 0 1-7.643-7.624l-.119-48.275a7.644 7.644 0 0 1 12.974-5.496l9.327 9.077v-8.966l-33.002-32.123c-4.858-4.618-1.463-13.219 5.331-13.12h210.859c1.991 0 3.904.777 5.331 2.166l93.733 91.24c4.85 4.6 1.466 13.23-5.332 13.121zm-283.835-15.286h265.026l-78.03-75.955H244.671l21.835 21.253a7.644 7.644 0 0 1 2.312 5.477v30.298a7.642 7.642 0 0 1-12.973 5.477l-9.282-9.035z" opacity="1" data-original="url(#e)"></path><path fill="url(#f)" d="M168.498 448.175h-46.471a7.643 7.643 0 0 1-7.643-7.643v-78.631a7.643 7.643 0 0 1 7.643-7.643h46.471a7.643 7.643 0 0 1 7.643 7.643v78.631a7.643 7.643 0 0 1-7.643 7.643zm-38.828-15.286h31.185v-63.345H129.67z" opacity="1" data-original="url(#f)"></path><path fill="url(#g)" d="M168.498 415.365h-10.843a7.643 7.643 0 0 1 0-15.286h10.843c10.114.348 10.116 14.938 0 15.286z" opacity="1" data-original="url(#g)"></path><path fill="url(#h)" d="M122.027 316.312H90.703a7.643 7.643 0 0 1-7.643-7.643v-44.232a7.643 7.643 0 0 1 7.643-7.643h31.323a7.643 7.643 0 0 1 7.643 7.643v44.232a7.641 7.641 0 0 1-7.642 7.643zm-23.681-15.285h16.037v-28.946H98.346z" opacity="1" data-original="url(#h)"></path><path fill="url(#i)" d="M129.4 316.312H83.329c-10.105-.344-10.126-14.934 0-15.286H129.4a7.643 7.643 0 0 1 0 15.286z" opacity="1" data-original="url(#i)"></path><path fill="url(#j)" d="M385.233 391.66h-31.324a7.643 7.643 0 0 1-7.643-7.643v-44.232a7.643 7.643 0 0 1 7.643-7.643h31.324a7.643 7.643 0 0 1 7.643 7.643v44.232a7.643 7.643 0 0 1-7.643 7.643zm-23.681-15.286h16.038v-28.946h-16.038z" opacity="1" data-original="url(#j)"></path><path fill="url(#k)" d="M392.607 391.66h-46.071c-10.105-.344-10.126-14.934 0-15.286h46.071a7.643 7.643 0 0 1 0 15.286z" opacity="1" data-original="url(#k)"></path><path fill="url(#l)" d="M307.707 391.66h-31.324a7.643 7.643 0 0 1-7.643-7.643v-44.232a7.643 7.643 0 0 1 7.643-7.643h31.324a7.643 7.643 0 0 1 7.643 7.643v44.232a7.643 7.643 0 0 1-7.643 7.643zm-23.681-15.286h16.038v-28.946h-16.038z" opacity="1" data-original="url(#l)"></path><path fill="url(#m)" d="M315.082 391.66H269.01c-10.105-.344-10.126-14.934 0-15.286h46.072a7.643 7.643 0 0 1 0 15.286z" opacity="1" data-original="url(#m)"></path><path fill="url(#n)" d="M462.759 391.66h-31.323a7.643 7.643 0 0 1-7.643-7.643v-44.232a7.643 7.643 0 0 1 7.643-7.643h31.323a7.643 7.643 0 0 1 7.643 7.643v44.232a7.643 7.643 0 0 1-7.643 7.643zm-23.68-15.286h16.037v-28.946h-16.037z" opacity="1" data-original="url(#n)"></path><path fill="url(#o)" d="M470.133 391.66h-46.071c-10.105-.344-10.126-14.934 0-15.286h46.071a7.643 7.643 0 0 1 0 15.286z" opacity="1" data-original="url(#o)"></path><path fill="url(#p)" d="M199.821 316.312h-31.323a7.643 7.643 0 0 1-7.643-7.643v-44.232a7.643 7.643 0 0 1 7.643-7.643h31.323a7.643 7.643 0 0 1 7.643 7.643v44.232a7.643 7.643 0 0 1-7.643 7.643zm-23.68-15.285h16.037v-28.946h-16.037z" opacity="1" data-original="url(#p)"></path><path fill="url(#q)" d="M207.195 316.312h-46.072c-10.105-.344-10.126-14.934 0-15.286h46.072a7.643 7.643 0 0 1 0 15.286z" opacity="1" data-original="url(#q)"></path><path fill="url(#r)" d="M112.524 146.58H61.637a7.643 7.643 0 0 1-7.643-7.643v-19.968a7.643 7.643 0 0 1 7.643-7.643h50.886a7.643 7.643 0 0 1 7.643 7.643v19.968a7.641 7.641 0 0 1-7.642 7.643zM69.28 131.295h35.601v-4.682H69.28z" opacity="1" data-original="url(#r)"></path><path fill="url(#s)" d="M71.435 210.766a7.683 7.683 0 0 1-7.641-7.643v-64.181a7.643 7.643 0 0 1 7.643-7.643h31.289a7.643 7.643 0 0 1 7.643 7.643v33.718a7.645 7.645 0 0 1-2.311 5.476l-31.289 30.463a7.643 7.643 0 0 1-5.334 2.167zm7.645-64.181v38.431l16.003-15.581v-22.849H79.08z" opacity="1" data-original="url(#s)"></path><path fill="url(#t)" d="M551.924 448.175H7.643a7.643 7.643 0 0 1 0-15.286h544.281c9.888.251 10.318 14.878 0 15.286z" opacity="1" data-original="url(#t)"></path></g></svg>