<svg xmlns="http://www.w3.org/2000/svg" version="1.1" xmlns:xlink="http://www.w3.org/1999/xlink" width="512" height="512" x="0" y="0" viewBox="0 0 458 458.03" style="enable-background:new 0 0 512 512" xml:space="preserve" class=""><rect width="458" height="458.03" rx="91.6" ry="91.6" fill="#bac8d3" shape="rounded"></rect><g transform="matrix(0.65,0,0,0.65,137.26760256374257,80.15542317564851)"><linearGradient id="a" x1="149.335" x2="149.335" y1="-1.176" y2="466.909" gradientUnits="userSpaceOnUse"><stop offset="0" stop-color="#00efd1"></stop><stop offset="1" stop-color="#00acea"></stop></linearGradient><g fill="url(#a)"><path d="M230.594 159.215a18.287 18.287 0 0 1-4.07-4.215h.035a5.45 5.45 0 0 0 4.105-1.52 5.457 5.457 0 0 0 1.672-4.046v-40.551a5.712 5.712 0 0 0-1.637-4.172 5.71 5.71 0 0 0-4.14-1.711h-10.23L230.3 28.66a6.01 6.01 0 0 0-9.91-5.61l-37.766 33.977-33.574-54.21A5.988 5.988 0 0 0 143.949 0h-.07a5.916 5.916 0 0 0-5.102 2.938l-27.992 47.699-32.633-27.711a5.995 5.995 0 0 0-6.898-.617 6.075 6.075 0 0 0-2.883 6.355L82.336 103H72.113a5.709 5.709 0 0 0-5.777 5.883v40.55A5.46 5.46 0 0 0 72.113 155h.032a18.19 18.19 0 0 1-4.067 4.216C26.73 195.415.016 256.082.016 313.605c0 43.72 15.195 80.68 43.945 106.782 26.715 24.258 64.137 37.644 105.375 37.644 41.234 0 78.656-13.347 105.375-37.601 28.75-26.102 43.945-63.11 43.945-106.828 0-57.528-26.722-118.188-68.062-154.387zM83.293 43.085l25.164 21.337a6.017 6.017 0 0 0 4.895 1.328 6.011 6.011 0 0 0 4.164-2.887l26.57-45.293 32.113 51.875a5.999 5.999 0 0 0 4.254 2.778 5.988 5.988 0 0 0 4.863-1.48l29.91-26.86L204.118 103H94.551zM78.336 115h142v28h-142zm168.309 296.559c-24.5 22.246-59.063 34.5-97.31 34.5-38.245 0-72.808-12.254-97.312-34.5-26.171-23.766-40.007-57.602-40.007-97.844 0-54.219 25.105-111.45 63.964-145.473A59.273 59.273 0 0 0 87.25 155h124.172a59.358 59.358 0 0 0 11.266 13.242c38.859 34.024 63.968 91.149 63.968 145.363 0 40.247-13.836 74.188-40.011 97.954zm0 0" fill="" opacity="1"></path><path d="M199.883 231c0-3.313-2.688-6-6-6h-89.094c-3.316 0-6 2.688-6 6s2.684 6 6 6h25.492c15.446-.11 28.762 10.828 31.653 26h-57.145c-3.316 0-6 2.688-6 6s2.684 6 6 6h57.145c-2.891 15.172-16.211 26.113-31.657 26H104.79a6.061 6.061 0 0 0-5.574 3.84 6.057 6.057 0 0 0 1.453 6.61l63.719 60.23a5.987 5.987 0 0 0 8.48-.23 6.066 6.066 0 0 0-.238-8.54L119.87 313h10.41c21.973-.137 40.567-16.266 43.809-38h19.793c3.312 0 6-2.688 6-6s-2.688-6-6-6H174.09c-1.399-10-6.348-20-13.567-26h33.36c3.312 0 6-2.688 6-6zm0 0" fill="" opacity="1"></path></g></g></svg>