<svg xmlns="http://www.w3.org/2000/svg" version="1.1" xmlns:xlink="http://www.w3.org/1999/xlink" width="512" height="512" x="0" y="0" viewBox="0 0 474.463 474.463" style="enable-background:new 0 0 512 512" xml:space="preserve" class=""><rect width="474.463" height="474.463" rx="94.8926" ry="94.8926" fill="#bac8d3" shape="rounded"></rect><g transform="matrix(0.6299999999999999,0,0,0.6299999999999999,87.77584648132327,87.77547103881841)"><linearGradient id="a"><stop offset="0" stop-color="#fbc02d"></stop><stop offset="1" stop-color="#e91e63"></stop></linearGradient><linearGradient xlink:href="#a" id="b" x1="88.858" x2="385.605" y1="234.769" y2="234.769" gradientTransform="matrix(1 0 0 -1 0 472)" gradientUnits="userSpaceOnUse"></linearGradient><linearGradient xlink:href="#a" id="c" x1="88.858" x2="385.606" y1="404.828" y2="404.828" gradientTransform="matrix(1 0 0 -1 0 472)" gradientUnits="userSpaceOnUse"></linearGradient><linearGradient xlink:href="#a" id="d" x1="88.858" x2="385.606" y1="66.42" y2="66.42" gradientTransform="matrix(1 0 0 -1 0 472)" gradientUnits="userSpaceOnUse"></linearGradient><linearGradient xlink:href="#a" id="e" x1="88.858" x2="385.606" y1="234.769" y2="234.769" gradientTransform="matrix(1 0 0 -1 0 472)" gradientUnits="userSpaceOnUse"></linearGradient><g fill-rule="evenodd" clip-rule="evenodd"><path fill="url(#b)" d="M130.639 0c-22.926 0-41.781 18.855-41.781 41.781v390.9c0 22.926 18.855 41.781 41.781 41.781h213.186c22.926 0 41.781-18.855 41.781-41.781v-390.9C385.605 18.855 366.751 0 343.824 0zm0 25.5h213.186c9.241 0 16.281 7.04 16.281 16.281v390.9c0 9.241-7.041 16.281-16.281 16.281H130.639c-9.24 0-16.281-7.041-16.281-16.281v-390.9c-.001-9.24 7.04-16.281 16.281-16.281z" opacity="1" data-original="url(#b)"></path><path fill="url(#c)" d="M186.437 54.422c-7.042-.098-12.829 5.532-12.927 12.573-.098 7.042 5.532 12.829 12.573 12.927.118.002.236.002.354 0h101.588c7.042.098 12.829-5.532 12.927-12.573.098-7.042-5.531-12.829-12.573-12.927a10.444 10.444 0 0 0-.354 0H237.23z" opacity="1" data-original="url(#c)"></path><path fill="url(#d)" d="M223.537 392.83c-7.042-.098-12.829 5.531-12.927 12.573s5.532 12.829 12.573 12.927c.118.002.236.002.354 0h27.389c7.042.098 12.829-5.531 12.927-12.573s-5.531-12.829-12.573-12.927a10.444 10.444 0 0 0-.354 0z" opacity="1" data-original="url(#d)"></path><path fill="url(#e)" d="M288.074 188.682a12.758 12.758 0 0 0-8.764 3.857l-62.469 62.467-21.689-21.689c-4.91-5.048-12.983-5.159-18.031-.249s-5.159 12.983-.249 18.031c.082.084.165.167.249.249l30.705 30.705c4.979 4.979 13.052 4.979 18.031 0l71.484-71.482c5.05-4.909 5.164-12.982.255-18.031a12.744 12.744 0 0 0-9.522-3.858z" opacity="1" data-original="url(#e)"></path></g></g></svg>