<svg xmlns="http://www.w3.org/2000/svg" version="1.1" xmlns:xlink="http://www.w3.org/1999/xlink" width="512" height="512" x="0" y="0" viewBox="0 0 64 64" style="enable-background:new 0 0 512 512" xml:space="preserve" class=""><rect width="64" height="64" rx="12.8" ry="12.8" fill="#bac8d3" shape="rounded"></rect><g transform="matrix(0.66,0,0,0.66,10.876770153045651,10.881670856475829)"><linearGradient id="a" x1="-4.078" x2="73.272" y1="41.179" y2="42.402" gradientUnits="userSpaceOnUse"><stop offset="0" stop-color="#29abe2"></stop><stop offset="1" stop-color="#009245"></stop><stop offset="1"></stop></linearGradient><linearGradient xlink:href="#a" id="b" x1="-4.078" x2="73.272" y1="41.179" y2="42.402"></linearGradient><linearGradient xlink:href="#a" id="c" x1="-4.08" x2="73.271" y1="41.289" y2="42.512"></linearGradient><linearGradient xlink:href="#a" id="d" x1="-4.076" x2="73.274" y1="41.059" y2="42.282"></linearGradient><linearGradient xlink:href="#a" id="e" x1="-4.078" x2="73.272" y1="41.177" y2="42.4"></linearGradient><linearGradient xlink:href="#a" id="f" x1="-4.003" x2="73.347" y1="36.472" y2="37.695"></linearGradient><linearGradient xlink:href="#a" id="g" x1="-4.101" x2="73.249" y1="42.669" y2="43.892"></linearGradient><linearGradient xlink:href="#a" id="h" x1="-4.199" x2="73.152" y1="48.816" y2="50.039"></linearGradient><linearGradient xlink:href="#a" id="i" x1="-3.735" x2="73.616" y1="19.461" y2="20.684"></linearGradient><path fill="url(#a)" d="M25.408 44.772a2.8 2.8 0 0 1 2.8 2.8 1 1 0 0 0 1 1h21.519a1 1 0 0 0 1-1 2.794 2.794 0 0 1 2.791-2.8 1 1 0 0 0 1-1v-3.8a1 1 0 0 0-1-1 2.793 2.793 0 0 1-2.791-2.791 1 1 0 0 0-1-1H29.209a1 1 0 0 0-1 1 2.8 2.8 0 0 1-2.8 2.791 1 1 0 0 0-1 1v3.8a1 1 0 0 0 .999 1zm1-3.9a4.813 4.813 0 0 0 3.692-3.693h19.726a4.813 4.813 0 0 0 3.692 3.691v2.011a4.8 4.8 0 0 0-3.692 3.691H30.1a4.8 4.8 0 0 0-3.692-3.691z" opacity="1" data-original="url(#a)"></path><path fill="url(#b)" d="M59 31.357H20.926a1 1 0 0 0-1 1v19.037a1 1 0 0 0 1 1H59a1 1 0 0 0 1-1V32.357a1 1 0 0 0-1-1zm-1 19.037H21.927V33.358H58z" opacity="1" data-original="url(#b)"></path><path fill="url(#c)" d="M34.251 41.871a1.561 1.561 0 0 0-3.121 0 1.561 1.561 0 0 0 3.121 0z" opacity="1" data-original="url(#c)"></path><path fill="url(#d)" d="M48.806 41.871a1.561 1.561 0 0 0-3.121 0 1.561 1.561 0 0 0 3.121 0z" opacity="1" data-original="url(#d)"></path><path fill="url(#e)" d="M39.964 45.113a3.24 3.24 0 0 0 0-6.48 3.24 3.24 0 0 0 0 6.48zm0-4.479a1.239 1.239 0 0 1 0 2.478 1.239 1.239 0 0 1 0-2.478z" opacity="1" data-original="url(#e)"></path><path fill="url(#f)" d="M16.3 35.728H8.068a1 1 0 0 0 0 2H16.3a1 1 0 0 0 0-2z" opacity="1" data-original="url(#f)"></path><path fill="url(#g)" d="M16.3 41.9H4.981a1 1 0 0 0 0 2H16.3a1 1 0 0 0 0-2z" opacity="1" data-original="url(#g)"></path><path fill="url(#h)" d="M16.3 48.075H8.068a1 1 0 0 0 0 2H16.3a1 1 0 0 0 0-2z" opacity="1" data-original="url(#h)"></path><path fill="url(#i)" d="M24.016 24.14h22.205v3.788a1 1 0 0 0 1.708.707l7.662-7.662a1 1 0 0 0 0-1.415L47.929 11.9a1.007 1.007 0 0 0-1.708.707v3.788h-22.2a1 1 0 0 0-1 1v5.746a1 1 0 0 0 .995.999zm1-5.747h22.206a1 1 0 0 0 1-1v-2.374l5.247 5.247-5.247 5.247v-2.374a1 1 0 0 0-1-1h-22.2z" opacity="1" data-original="url(#i)"></path></g></svg>