<svg xmlns="http://www.w3.org/2000/svg" version="1.1" xmlns:xlink="http://www.w3.org/1999/xlink" width="512" height="512" x="0" y="0" viewBox="0 0 64 64" style="enable-background:new 0 0 512 512" xml:space="preserve"><rect width="64" height="64" rx="12.8" ry="12.8" fill="#bac8d3" shape="rounded"></rect><g transform="matrix(0.7,0,0,0.7,9.600000000000001,9.600000572204593)"><linearGradient id="a" x1="4.149" x2="61.891" y1="58.992" y2="3.031" gradientUnits="userSpaceOnUse"><stop offset="0" stop-color="#03e9b0"></stop><stop offset="1" stop-color="#002b9f"></stop></linearGradient><linearGradient xlink:href="#a" id="b" x1="-2.895" x2="54.848" y1="51.724" y2="-4.237"></linearGradient><linearGradient xlink:href="#a" id="c" x1=".514" x2="58.257" y1="55.241" y2="-.719"></linearGradient><linearGradient xlink:href="#a" id="d" x1="-1.371" x2="56.371" y1="53.296" y2="-2.665"></linearGradient><linearGradient xlink:href="#a" id="e" x1="6.606" x2="64.349" y1="61.527" y2="5.567"></linearGradient><linearGradient xlink:href="#a" id="f" x1="10.533" x2="68.276" y1="65.579" y2="9.619"></linearGradient><linearGradient xlink:href="#a" id="g" x1="12.894" x2="70.636" y1="68.015" y2="12.055"></linearGradient><linearGradient xlink:href="#a" id="h" x1="15.254" x2="72.997" y1="70.451" y2="14.49"></linearGradient><g data-name="Layer 2"><path fill="url(#a)" d="M54.309 51.035H9.691a5.948 5.948 0 0 1-5.941-5.941V18.906a5.948 5.948 0 0 1 5.941-5.941h44.618a5.948 5.948 0 0 1 5.941 5.941v26.188a5.948 5.948 0 0 1-5.941 5.941zM9.691 14.465a4.446 4.446 0 0 0-4.441 4.441v26.188a4.446 4.446 0 0 0 4.441 4.441h44.618a4.446 4.446 0 0 0 4.441-4.441V18.906a4.446 4.446 0 0 0-4.441-4.441z" opacity="1" data-original="url(#a)"></path><path fill="url(#b)" d="M20.6 33.65a4.7 4.7 0 1 1 4.7-4.7 4.705 4.705 0 0 1-4.7 4.7zm0-7.9a3.2 3.2 0 1 0 3.2 3.2 3.2 3.2 0 0 0-3.2-3.201z" opacity="1" data-original="url(#b)"></path><path fill="url(#c)" d="M25.068 39.278h-8.932a2.563 2.563 0 0 1-2.56-2.56 7.068 7.068 0 0 1 3.48-6.068.751.751 0 0 1 .985.205 3.187 3.187 0 0 0 5.129 0 .75.75 0 0 1 .983-.2 7.036 7.036 0 0 1 3.475 6.068 2.562 2.562 0 0 1-2.56 2.555zM17.3 32.287a5.559 5.559 0 0 0-2.224 4.431 1.061 1.061 0 0 0 1.06 1.06h8.932a1.061 1.061 0 0 0 1.06-1.06 5.534 5.534 0 0 0-2.219-4.432 4.688 4.688 0 0 1-6.609 0z" opacity="1" data-original="url(#c)"></path><path fill="url(#d)" d="M31.659 43.807H9.546a.75.75 0 0 1-.75-.75V20.943a.75.75 0 0 1 .75-.75h22.113a.75.75 0 0 1 .75.75v22.114a.75.75 0 0 1-.75.75zm-21.359-1.5h20.609V21.693H10.3z" opacity="1" data-original="url(#d)"></path><path fill="url(#e)" d="M50.632 24.1h-9.26a.75.75 0 0 1 0-1.5h9.26a.75.75 0 0 1 0 1.5z" opacity="1" data-original="url(#e)"></path><path fill="url(#f)" d="M54.187 31.955h-16.37a.75.75 0 1 1 0-1.5h16.37a.75.75 0 0 1 0 1.5z" opacity="1" data-original="url(#f)"></path><path fill="url(#g)" d="M54.187 36.679h-16.37a.75.75 0 0 1 0-1.5h16.37a.75.75 0 0 1 0 1.5z" opacity="1" data-original="url(#g)"></path><path fill="url(#h)" d="M54.187 41.4h-16.37a.75.75 0 1 1 0-1.5h16.37a.75.75 0 0 1 0 1.5z" opacity="1" data-original="url(#h)"></path></g></g></svg>