<svg xmlns="http://www.w3.org/2000/svg" version="1.1" xmlns:xlink="http://www.w3.org/1999/xlink" width="512" height="512" x="0" y="0" viewBox="0 0 512 512" style="enable-background:new 0 0 512 512" xml:space="preserve" class=""><rect width="512" height="512" rx="102.4" ry="102.4" fill="#bac8d3" shape="rounded"></rect><g transform="matrix(0.6,0,0,0.6,102.39980087280273,102.3998016357422)"><linearGradient id="a" x1="48.111" x2="463.889" y1="463.889" y2="48.111" gradientUnits="userSpaceOnUse"><stop offset="0" stop-color="#696eff"></stop><stop offset="1" stop-color="#f8acff"></stop></linearGradient><path fill="url(#a)" d="M482.037 75.365H107.282c-12.141 0-22.02 9.877-22.02 22.02v70.49H29.963c-12.141 0-22.02 9.877-22.02 22.02v224.719c0 12.143 9.88 22.02 22.02 22.02h374.755c12.141 0 22.02-9.877 22.02-22.02v-70.49h55.298c12.141 0 22.02-9.877 22.02-22.02V97.385c.001-12.143-9.878-22.02-22.019-22.02zm-65.026 339.25c0 6.778-5.515 12.293-12.293 12.293H29.963c-6.778 0-12.293-5.515-12.293-12.293V189.896c0-6.778 5.515-12.293 12.293-12.293h374.755c6.778 0 12.293 5.515 12.293 12.293zm77.319-92.511c0 6.778-5.515 12.293-12.293 12.293h-55.298v-140.87h67.591zm0-138.304h-68.557c-2.664-9.165-11.043-15.924-21.054-15.924H94.989v-24.809H494.33zm0-50.461H94.989V97.385c0-6.778 5.515-12.293 12.293-12.293h374.755c6.778 0 12.293 5.515 12.293 12.293zM58.728 300.981h48.776c7.97 0 14.454-6.484 14.454-14.451v-48.779c0-7.968-6.484-14.451-14.454-14.451H58.728c-7.97 0-14.454 6.484-14.454 14.451v48.779c0 7.968 6.484 14.451 14.454 14.451zm-4.726-63.23a4.729 4.729 0 0 1 4.726-4.724h48.776a4.728 4.728 0 0 1 4.726 4.724v48.779a4.729 4.729 0 0 1-4.726 4.724H58.728a4.728 4.728 0 0 1-4.726-4.724zm-9.728 101.312a4.862 4.862 0 0 1 4.864-4.864h63.748c2.688 0 4.864 2.178 4.864 4.864s-2.175 4.864-4.864 4.864H49.138a4.863 4.863 0 0 1-4.864-4.864zm164.36 0a4.862 4.862 0 0 1-4.864 4.864h-63.743c-2.688 0-4.864-2.178-4.864-4.864s2.175-4.864 4.864-4.864h63.743a4.863 4.863 0 0 1 4.864 4.864zm-39.58 37.287a4.862 4.862 0 0 1-4.864 4.864H49.138c-2.688 0-4.864-2.178-4.864-4.864s2.175-4.864 4.864-4.864H164.19a4.863 4.863 0 0 1 4.864 4.864z" opacity="1" data-original="url(#a)"></path></g></svg>