<svg xmlns="http://www.w3.org/2000/svg" version="1.1" xmlns:xlink="http://www.w3.org/1999/xlink" width="512" height="512" x="0" y="0" viewBox="0 0 64 64" style="enable-background:new 0 0 512 512" xml:space="preserve" class=""><rect width="64" height="64" rx="12.8" ry="12.8" fill="#bac8d3" shape="rounded"></rect><g transform="matrix(0.61,0,0,0.61,12.48,12.480194520950317)"><linearGradient id="a" x1="32" x2="32" y1="4.149" y2="58.334" gradientUnits="userSpaceOnUse"><stop offset="0" stop-color="#fcb64d"></stop><stop offset="1" stop-color="#ed6d23"></stop></linearGradient><linearGradient xlink:href="#a" id="b" x1="12" x2="12" y1="4.149" y2="58.334"></linearGradient><linearGradient xlink:href="#a" id="c" x1="22.715" x2="22.715"></linearGradient><linearGradient xlink:href="#a" id="d" x1="52" x2="52" y1="4.149" y2="58.334"></linearGradient><linearGradient xlink:href="#a" id="e" x1="40.891" x2="40.891" y1="4.149" y2="58.334"></linearGradient><linearGradient xlink:href="#a" id="f" x1="32" x2="32"></linearGradient><linearGradient xlink:href="#a" id="g" x1="31.999" x2="31.999"></linearGradient><path fill="url(#a)" d="M59 36.594h-1.475v-3.01c0-1.654-1.346-3-3-3h-.248V8.427c0-2.129-1.732-3.861-3.861-3.861s-3.861 1.732-3.861 3.861v22.158h-.248c-1.654 0-3 1.346-3 3v3.01H20.693v-3.01c0-1.654-1.346-3-3-3h-.248V8.427c0-2.129-1.732-3.861-3.861-3.861S9.723 6.298 9.723 8.427v22.158h-.248c-1.654 0-3 1.346-3 3v3.01H5c-1.654 0-3 1.346-3 3v11.763c0 1.654 1.346 3 3 3h1.475v4.079a1 1 0 0 0 1 1h9.05a1 1 0 0 0 1-1v-4.079h28.95v4.079a1 1 0 0 0 1 1h9.05a1 1 0 0 0 1-1v-4.079H59c1.654 0 3-1.346 3-3V39.595c0-1.654-1.346-3-3-3zM48.555 8.426c0-1.026.835-1.861 1.861-1.861s1.861.835 1.861 1.861v22.159h-3.723V8.427zm-3.248 25.158c0-.552.449-1 1-1h8.218c.551 0 1 .448 1 1v3.01H45.307zM11.723 8.427c0-1.026.835-1.861 1.861-1.861s1.861.835 1.861 1.861v22.158h-3.723V8.427zM8.475 33.585c0-.552.449-1 1-1h8.218c.551 0 1 .448 1 1v3.01H8.475zm7.05 23.852h-7.05v-3.079h7.05zm40 0h-7.05v-3.079h7.05zM60 51.358c0 .552-.449 1-1 1H5c-.551 0-1-.448-1-1V39.595c0-.552.449-1 1-1h54c.551 0 1 .448 1 1z" opacity="1" data-original="url(#a)"></path><path fill="url(#b)" d="M12 41.976c-1.93 0-3.5 1.57-3.5 3.5s1.57 3.5 3.5 3.5 3.5-1.57 3.5-3.5-1.57-3.5-3.5-3.5zm0 5c-.827 0-1.5-.673-1.5-1.5s.673-1.5 1.5-1.5 1.5.673 1.5 1.5-.673 1.5-1.5 1.5z" opacity="1" data-original="url(#b)"></path><path fill="url(#c)" d="M22.715 41.976c-1.93 0-3.5 1.57-3.5 3.5s1.57 3.5 3.5 3.5 3.5-1.57 3.5-3.5-1.57-3.5-3.5-3.5zm0 5c-.827 0-1.5-.673-1.5-1.5s.673-1.5 1.5-1.5 1.5.673 1.5 1.5-.673 1.5-1.5 1.5z" opacity="1" data-original="url(#c)"></path><path fill="url(#d)" d="M54.5 41.976h-5a1 1 0 0 0-1 1v5a1 1 0 0 0 1 1h5a1 1 0 0 0 1-1v-5a1 1 0 0 0-1-1zm-1 5h-3v-3h3z" opacity="1" data-original="url(#d)"></path><path fill="url(#e)" d="M43.391 41.976h-5a1 1 0 0 0-1 1v5a1 1 0 0 0 1 1h5a1 1 0 0 0 1-1v-5a1 1 0 0 0-1-1zm-1 5h-3v-3h3z" opacity="1" data-original="url(#e)"></path><path fill="url(#f)" d="M25.49 9.26c1.739-1.739 4.05-2.696 6.51-2.696s4.771.958 6.509 2.696a.999.999 0 1 0 1.414-1.414C37.807 5.729 34.993 4.564 32 4.564s-5.808 1.166-7.924 3.282A.999.999 0 1 0 25.49 9.26z" opacity="1" data-original="url(#f)"></path><path fill="url(#f)" d="M36.315 12.018a.999.999 0 0 0 0-1.414 6.109 6.109 0 0 0-8.63 0 .999.999 0 1 0 1.414 1.414 4.107 4.107 0 0 1 5.802 0 .999.999 0 0 0 1.414 0z" opacity="1" data-original="url(#f)"></path><circle cx="31.999" cy="14.146" r="1" fill="url(#g)" opacity="1" data-original="url(#g)"></circle></g></svg>