<svg xmlns="http://www.w3.org/2000/svg" version="1.1" xmlns:xlink="http://www.w3.org/1999/xlink" width="512" height="512" x="0" y="0" viewBox="0 0 512 512" style="enable-background:new 0 0 512 512" xml:space="preserve" class=""><rect width="512" height="512" rx="102.4" ry="102.4" fill="#bac8d3" shape="rounded"></rect><g transform="matrix(0.58,0,0,0.58,107.52000000000001,107.5206339097023)"><defs><linearGradient id="a" x1="255.999" x2="256" y1="511.312" y2=".692" gradientUnits="userSpaceOnUse"><stop offset="0" stop-color="#6c54a3"></stop><stop offset="1" stop-color="#00b1d2"></stop></linearGradient></defs><path d="m332.149 363.7-10.03 30.849a9.563 9.563 0 0 1-9.35 6.8H199.23a9.564 9.564 0 0 1-9.35-6.8L179.85 363.7a9.833 9.833 0 0 1 9.36-12.87h133.579a9.833 9.833 0 0 1 9.36 12.87Zm-9.36-28.873H189.21a25.84 25.84 0 0 0-24.57 33.822l10.02 30.851a25.452 25.452 0 0 0 24.57 17.853h113.539a25.455 25.455 0 0 0 24.57-17.853l10.02-30.849a25.84 25.84 0 0 0-24.57-33.822Zm-27.6 41.262a8 8 0 0 0-8-8H224.81a8 8 0 0 0 0 16h62.379a8 8 0 0 0 8-8ZM496 211.3h-18.88v-86.28H496v86.28ZM377.011 401.671a7.183 7.183 0 0 1-7.171-7.172v-18.016a7.174 7.174 0 0 1 7.171-7.172h21.716v32.36Zm37.718 0v-32.36H437.2v32.36ZM403 445a34.241 34.241 0 0 0 33.5-27.33h-59.489a23.2 23.2 0 0 1-23.174-23.17v-18.017a23.2 23.2 0 0 1 23.174-23.174H437.2V103A34.246 34.246 0 0 0 403 68.8H109A34.245 34.245 0 0 0 74.8 103v250.309h60.189a23.2 23.2 0 0 1 23.174 23.174V394.5a23.2 23.2 0 0 1-23.174 23.17H75.5A34.249 34.249 0 0 0 109 445Zm-16.5 42.493a7.828 7.828 0 0 1-7.808 7.817h-23.944a7.822 7.822 0 0 1-7.808-7.817V461h39.56v26.491Zm-221.438 0a7.822 7.822 0 0 1-7.808 7.817h-23.945a7.822 7.822 0 0 1-7.808-7.817V461h39.559v26.491ZM97.27 401.671H74.8v-32.36h22.47v32.36Zm37.718-32.36a7.177 7.177 0 0 1 7.171 7.172V394.5a7.186 7.186 0 0 1-7.171 7.172h-21.72v-32.36ZM128.5 25.13a8.458 8.458 0 0 1 8.44-8.44h238.12a8.456 8.456 0 0 1 8.441 8.44V52.8h-255V25.13ZM34.882 211.3H16v-86.28h18.882v86.28Zm464.409-102.278H453.2V103A50.256 50.256 0 0 0 403 52.8h-3.5V25.13A24.468 24.468 0 0 0 375.057.692h-238.12A24.467 24.467 0 0 0 112.5 25.13V52.8H109A50.255 50.255 0 0 0 58.8 103v6.02H12.708A12.724 12.724 0 0 0 0 121.731v92.851A12.735 12.735 0 0 0 12.708 227.3H38.17a12.732 12.732 0 0 0 12.71-12.719V125.02h7.92V410.8A50.257 50.257 0 0 0 109 461h.5v26.491a23.839 23.839 0 0 0 23.811 23.82h23.943a23.835 23.835 0 0 0 23.8-23.82V461h149.888v26.491a23.835 23.835 0 0 0 23.806 23.82h23.942a23.839 23.839 0 0 0 23.811-23.82V461h.5a50.258 50.258 0 0 0 50.2-50.2V125.02h7.922v89.562a12.732 12.732 0 0 0 12.706 12.718h25.462A12.735 12.735 0 0 0 512 214.582v-92.851a12.724 12.724 0 0 0-12.71-12.709ZM117 282.952v-150.8a9.859 9.859 0 0 1 9.841-9.841h258.317a9.859 9.859 0 0 1 9.842 9.842v150.8a9.859 9.859 0 0 1-9.841 9.837H126.841a9.859 9.859 0 0 1-9.841-9.838Zm294 0a25.878 25.878 0 0 1-25.84 25.839H126.841A25.878 25.878 0 0 1 101 282.952v-150.8a25.879 25.879 0 0 1 25.84-25.844h258.318A25.879 25.879 0 0 1 411 132.153Z" class="cls-1" style="fill-rule:evenodd;fill:url(#a)" fill=""></path></g></svg>