<svg xmlns="http://www.w3.org/2000/svg" version="1.1" xmlns:xlink="http://www.w3.org/1999/xlink" width="512" height="512" x="0" y="0" viewBox="0 0 3872.983 3872.983" style="enable-background:new 0 0 512 512" xml:space="preserve" class=""><rect width="3872.983" height="3872.983" rx="774.5966000000001" ry="774.5966000000001" fill="#bac8d3" shape="rounded"></rect><g transform="matrix(0.6,0,0,0.6,774.596728515625,759.5963989257812)"><linearGradient id="a"><stop offset="0" stop-color="#ee0979"></stop><stop offset="1" stop-color="#ff6a00"></stop></linearGradient><linearGradient xlink:href="#a" id="b" x1="443.365" x2="3429.617" y1="3519.943" y2="533.69" gradientUnits="userSpaceOnUse"></linearGradient><linearGradient xlink:href="#a" id="c" x1="701.125" x2="2501.518" y1="3171.25" y2="1370.857" gradientUnits="userSpaceOnUse"></linearGradient><linearGradient xlink:href="#a" id="d" x1="2907.505" x2="3146.628" y1="1771.3" y2="1532.177" gradientUnits="userSpaceOnUse"></linearGradient><linearGradient xlink:href="#a" id="e" x1="2907.505" x2="3146.628" y1="2059.659" y2="1820.536" gradientUnits="userSpaceOnUse"></linearGradient><linearGradient xlink:href="#a" id="f" x1="2907.505" x2="3146.628" y1="2348.017" y2="2108.894" gradientUnits="userSpaceOnUse"></linearGradient><linearGradient xlink:href="#a" id="g" x1="2875.778" x2="3178.357" y1="2888.117" y2="2585.538" gradientUnits="userSpaceOnUse"></linearGradient><path fill="url(#b)" d="M3543.865 1183.102H2328.081c-8.179-53.197-27.101-104.234-55.915-150.074a393.584 393.584 0 0 0-8.05-12.273l821.271-741.336c24.811-22.395 26.769-60.661 4.374-85.47-22.395-24.811-60.663-26.767-85.47-4.372l-822.765 742.686a395.935 395.935 0 0 0-50.366-33.82c-59.108-33.403-126.426-51.056-194.67-51.056-55.684 0-109.561 11.343-160.139 33.713-30.558 13.515-58.971 30.623-84.949 51.114L868.69 189.576c-24.809-22.394-63.074-20.435-85.47 4.372-22.394 24.809-20.437 63.076 4.372 85.47l821.257 741.323c-33.209 48.708-55.009 104.052-63.951 162.361H329.12c-33.421 0-60.515 27.094-60.515 60.515V3298.49c0 33.421 27.094 60.515 60.515 60.515h257.854v279.481c0 33.421 27.094 60.515 60.515 60.515h266.122a60.518 60.518 0 0 0 54.88-35.012l141.719-304.984h1652.562l141.719 304.982a60.518 60.518 0 0 0 54.88 35.014h266.12c33.421 0 60.515-27.094 60.517-60.515v-279.481h257.856c33.421 0 60.515-27.094 60.515-60.515V1243.617c.001-33.421-27.093-60.515-60.514-60.515zm-1808.545-127.28c.418-.436.844-.861 1.251-1.313l.073-.085c52.54-55.468 123.452-86.009 199.843-86.009 76.354 0 147.513 30.995 198.9 84.903.341.397.669.801 1.022 1.192.867.96 1.764 1.876 2.677 2.768a279.612 279.612 0 0 1 30.606 40.154c16.625 26.448 28.496 55.411 35.285 85.671h-536.981c10.612-47.325 33.613-91.187 67.324-127.281zM875.003 3577.971H708.005v-218.965h268.746zm2289.975 0H2997.98l-101.748-218.965h268.746zm318.371-339.996h-680.918c-.382-.007-.765 0-1.147 0H1071.59c-.337 0-.675-.006-1.012 0H389.636V1304.133h1210.702c.15.001.297.011.447.011s.297-.01.447-.011h670.516c.149.001.297.011.447.011s.297-.01.447-.011h1210.71v1933.842z" opacity="1" data-original="url(#b)"></path><path fill="url(#c)" d="M614.602 1482.447c-33.422 0-60.515 27.094-60.515 60.515v1456.183c0 33.421 27.094 60.515 60.515 60.515h1973.44c33.421 0 60.515-27.094 60.515-60.515V1542.962c0-33.421-27.094-60.515-60.515-60.515zM2527.526 2938.63H675.117V1603.478h1852.409z" opacity="1" data-original="url(#c)"></path><path fill="url(#d)" d="M2873.525 1712.254h307.083c33.422 0 60.516-27.094 60.516-60.515 0-33.422-27.094-60.515-60.515-60.515h-307.083c-33.422 0-60.515 27.094-60.515 60.515-.001 33.421 27.093 60.515 60.514 60.515z" opacity="1" data-original="url(#d)"></path><path fill="url(#e)" d="M2873.525 2000.613h307.083c33.422 0 60.515-27.094 60.516-60.515 0-33.421-27.094-60.515-60.515-60.515h-307.083c-33.422 0-60.515 27.094-60.515 60.515-.001 33.421 27.093 60.515 60.514 60.515z" opacity="1" data-original="url(#e)"></path><path fill="url(#f)" d="M2873.525 2288.971h307.083c33.422 0 60.516-27.094 60.516-60.515 0-33.422-27.094-60.515-60.515-60.515h-307.083c-33.422 0-60.515 27.094-60.515 60.515-.001 33.421 27.093 60.515 60.514 60.515z" opacity="1" data-original="url(#f)"></path><path fill="url(#g)" d="M3027.067 2522.772c-118.031 0-214.056 96.024-214.056 214.054 0 118.031 96.025 214.056 214.056 214.056s214.056-96.025 214.056-214.056c.001-118.029-96.024-214.054-214.056-214.054zm0 307.08c-51.294 0-93.025-41.731-93.025-93.025s41.731-93.023 93.025-93.023 93.025 41.729 93.025 93.023-41.73 93.025-93.025 93.025z" opacity="1" data-original="url(#g)"></path></g></svg>