<svg xmlns="http://www.w3.org/2000/svg" version="1.1" xmlns:xlink="http://www.w3.org/1999/xlink" width="512" height="512" x="0" y="0" viewBox="0 0 64 64" style="enable-background:new 0 0 512 512" xml:space="preserve" class=""><rect width="64" height="64" rx="12.8" ry="12.8" fill="#bac8d3" shape="rounded"></rect><g transform="matrix(0.6199999999999999,0,0,0.6199999999999999,12.159809560775763,12.160000362396243)"><linearGradient id="a" x1="1.713" x2="61.569" y1="46.173" y2="46.173" gradientUnits="userSpaceOnUse"><stop offset="0" stop-color="#fcb64d"></stop><stop offset="1" stop-color="#ed6d23"></stop></linearGradient><linearGradient xlink:href="#a" id="b" y1="33.823" y2="33.823"></linearGradient><linearGradient xlink:href="#a" id="c" y1="32" y2="32"></linearGradient><path fill="url(#a)" d="M17.584 42.041H7.324a1 1 0 0 0-1 1v6.265a1 1 0 0 0 1 1h10.26a1 1 0 0 0 1-1v-6.265a1 1 0 0 0-1-1zm-1 6.265h-8.26v-4.265h8.26z" opacity="1" data-original="url(#a)"></path><g fill="url(#b)"><path d="M17.584 32.823H7.324a1 1 0 1 0 0 2h10.26a1 1 0 1 0 0-2zM22.893 34.823h10.26a1 1 0 1 0 0-2h-10.26a1 1 0 1 0 0 2zM48.721 32.823h-10.26a1 1 0 1 0 0 2h10.26a1 1 0 1 0 0-2z" fill="" opacity="1"></path></g><path fill="url(#a)" d="M28.543 45.173h-5.65a1 1 0 1 0 0 2h5.65a1 1 0 1 0 0-2zM38.803 45.173h-5.65a1 1 0 1 0 0 2h5.65a1 1 0 1 0 0-2z" opacity="1" data-original="url(#a)"></path><path fill="url(#c)" d="M58.978 6.217h-46c-1.654 0-3 1.346-3 3v16.129H5.022c-1.654 0-3 1.346-3 3v26.437c0 1.654 1.346 3 3 3h46c1.654 0 3-1.346 3-3V38.655h4.955c1.654 0 3-1.346 3-3V9.217c0-1.654-1.346-3-3-3zm-47 6.931h48v3.703h-48zm1-4.931h46c.552 0 1 .449 1 1v1.931h-48V9.217c0-.551.448-1 1-1zm39.044 46.566c0 .551-.448 1-1 1h-46c-.552 0-1-.449-1-1V28.346c0-.551.448-1 1-1h46c.552 0 1 .449 1 1zm6.955-18.128h-4.955v-8.309c0-1.654-1.346-3-3-3H11.978v-6.495h48v16.804c0 .551-.448 1-1 1z" opacity="1" data-original="url(#c)"></path></g></svg>