<svg xmlns="http://www.w3.org/2000/svg" version="1.1" xmlns:xlink="http://www.w3.org/1999/xlink" width="512" height="512" x="0" y="0" viewBox="0 0 64 64" style="enable-background:new 0 0 512 512" xml:space="preserve" class=""><rect width="64" height="64" rx="12.8" ry="12.8" fill="#bac8d3" shape="rounded"></rect><g transform="matrix(0.71,0,0,0.71,9.279645442962646,9.280043420791628)"><linearGradient id="a"><stop offset="0" stop-color="#fedbb8"></stop><stop offset="1" stop-color="#0e9aae"></stop></linearGradient><linearGradient xlink:href="#a" id="b" x1="27.132" x2="27.132" y1="64" y2="0" gradientUnits="userSpaceOnUse"></linearGradient><linearGradient xlink:href="#a" id="c" x1="49.704" x2="49.704" y1="64" y2="0" gradientUnits="userSpaceOnUse"></linearGradient><linearGradient xlink:href="#a" id="d" x1="11.104" x2="11.104" y1="64" y2="0" gradientUnits="userSpaceOnUse"></linearGradient><linearGradient xlink:href="#a" id="e" x1="14.432" x2="14.432" y1="64" y2="0" gradientUnits="userSpaceOnUse"></linearGradient><linearGradient xlink:href="#a" id="f" x1="30.226" x2="30.226" y1="64" y2="0" gradientUnits="userSpaceOnUse"></linearGradient><linearGradient xlink:href="#a" id="g" x1="52.258" x2="52.258" y1="64" y2="0" gradientUnits="userSpaceOnUse"></linearGradient><linearGradient xlink:href="#a" id="h" x1="23.707" x2="23.707" y1="64" y2="0" gradientUnits="userSpaceOnUse"></linearGradient><linearGradient xlink:href="#a" id="i" x1="26.653" x2="26.653" y1="64" y2="0" gradientUnits="userSpaceOnUse"></linearGradient><linearGradient xlink:href="#a" id="j" x1="47.453" x2="47.453" y1="64" y2="0" gradientUnits="userSpaceOnUse"></linearGradient><linearGradient xlink:href="#a" id="k" x1="42.717" x2="42.717" y1="64" y2="0" gradientUnits="userSpaceOnUse"></linearGradient><linearGradient xlink:href="#a" id="l" x1="14.51" x2="14.51" y1="64" y2="0" gradientUnits="userSpaceOnUse"></linearGradient><linearGradient xlink:href="#a" id="m" x1="17.069" x2="17.069" y1="64" y2="0" gradientUnits="userSpaceOnUse"></linearGradient><linearGradient xlink:href="#a" id="n" x1="27.058" x2="27.058" y1="64" y2="0" gradientUnits="userSpaceOnUse"></linearGradient><linearGradient xlink:href="#a" id="o" x1="22.424" x2="22.424" y1="64" y2="0" gradientUnits="userSpaceOnUse"></linearGradient><linearGradient xlink:href="#a" id="p" x1="15.345" x2="15.345" y1="64" y2="0" gradientUnits="userSpaceOnUse"></linearGradient><linearGradient xlink:href="#a" id="q" x1="53.404" x2="53.404" y1="64" y2="0" gradientUnits="userSpaceOnUse"></linearGradient><linearGradient xlink:href="#a" id="r" x1="33.074" x2="33.074" y1="64" y2="0" gradientUnits="userSpaceOnUse"></linearGradient><linearGradient xlink:href="#a" id="s" x1="49.053" x2="49.053" y1="64" y2="0" gradientUnits="userSpaceOnUse"></linearGradient><path fill="url(#b)" d="m27.364 51.113-1.959 2.204a.999.999 0 1 0 1.495 1.328l1.959-2.204a.999.999 0 1 0-1.495-1.328z" opacity="1" data-original="url(#b)"></path><path fill="url(#c)" d="M48.783 51.576a.996.996 0 0 0 .734-.32l1.842-1.99a1 1 0 0 0-1.468-1.359l-1.842 1.99a1 1 0 0 0 .734 1.679z" opacity="1" data-original="url(#c)"></path><path fill="url(#d)" d="M10 38.807a.994.994 0 0 0 .663-.252l2.207-1.956a.998.998 0 0 0 .085-1.411.998.998 0 0 0-1.412-.085l-2.207 1.956A.998.998 0 0 0 10 38.807z" opacity="1" data-original="url(#d)"></path><path fill="url(#e)" d="M13.437 16.182a.997.997 0 0 0 .678-.266l1.993-1.84a1 1 0 1 0-1.356-1.469l-1.993 1.84a1 1 0 0 0 .678 1.735z" opacity="1" data-original="url(#e)"></path><path fill="url(#f)" d="M14.575 49.178a.998.998 0 0 0 1.386-.28 179.818 179.818 0 0 1 30.031-34.67 1 1 0 1 0-1.332-1.492 181.715 181.715 0 0 0-30.366 35.056 1 1 0 0 0 .281 1.386z" opacity="1" data-original="url(#f)"></path><path fill="url(#g)" d="M50.526 19.689a.999.999 0 0 0 .746-.333 15.065 15.065 0 0 0 3.708-7.979 1 1 0 0 0-1.981-.279 13.079 13.079 0 0 1-3.218 6.924 1 1 0 0 0 .745 1.667z" opacity="1" data-original="url(#g)"></path><path fill="url(#h)" d="M22.14 44.478a1 1 0 1 0-1.759.953l4.892 9.027a1 1 0 0 0 1.759-.953z" opacity="1" data-original="url(#h)"></path><path fill="url(#i)" d="M26.153 41.763a1 1 0 1 0-1.916.574l2.917 9.728a1 1 0 1 0 1.917-.574z" opacity="1" data-original="url(#i)"></path><path fill="url(#j)" d="M49.66 48.849a1 1 0 0 0 1.93-.526l-6.345-23.266a.995.995 0 0 0-1.228-.702 1 1 0 0 0-.702 1.228z" opacity="1" data-original="url(#j)"></path><path fill="url(#k)" d="M37.48 32.025a1 1 0 0 0-1.658 1.117l12.132 17.992a.998.998 0 0 0 1.388.27 1 1 0 0 0 .27-1.388z" opacity="1" data-original="url(#k)"></path><path fill="url(#l)" d="m9.522 38.686 9.021 4.904a1 1 0 0 0 .955-1.757l-9.021-4.904a1 1 0 0 0-.955 1.757z" opacity="1" data-original="url(#l)"></path><path fill="url(#m)" d="m11.918 36.808 9.724 2.931a.997.997 0 0 0 1.246-.668 1 1 0 0 0-.669-1.246l-9.724-2.931a1 1 0 0 0-.577 1.914z" opacity="1" data-original="url(#m)"></path><path fill="url(#n)" d="m15.164 14.307 23.258 6.377a1 1 0 0 0 .529-1.929l-23.258-6.377a1.002 1.002 0 0 0-1.229.7 1.001 1.001 0 0 0 .7 1.229z" opacity="1" data-original="url(#n)"></path><path fill="url(#o)" d="M30.853 28.166a1.002 1.002 0 0 0 1.389-.267 1 1 0 0 0-.269-1.389L13.996 14.354a1 1 0 1 0-1.12 1.657z" opacity="1" data-original="url(#o)"></path><path fill="url(#p)" d="M16.038 47.93a.998.998 0 0 0-1.743-.138 1.342 1.342 0 0 0 .177 1.705 1.34 1.34 0 0 0 1.703.176 1 1 0 0 0-.137-1.743z" opacity="1" data-original="url(#p)"></path><path fill="url(#q)" d="M52.975 11.043c.011.011.028.033.025.057a1 1 0 1 0 1.981.278 2.05 2.05 0 0 0-.591-1.747 2.04 2.04 0 0 0-1.746-.592c-.547.076-.901.594-.825 1.141s.604.945 1.156.863z" opacity="1" data-original="url(#q)"></path><path fill="url(#r)" d="M15.623 49.84a1 1 0 0 0 .551-.166 181.804 181.804 0 0 0 35.098-30.317 1 1 0 0 0-1.49-1.334A179.823 179.823 0 0 1 15.07 48.006a1 1 0 0 0 .553 1.834z" opacity="1" data-original="url(#r)"></path><path fill="url(#s)" d="M45.326 14.481a.999.999 0 0 0 .666-.254 13.081 13.081 0 0 1 6.928-3.209.999.999 0 0 0 .852-1.128.996.996 0 0 0-1.128-.853 15.075 15.075 0 0 0-7.984 3.697 1 1 0 0 0 .666 1.747z" opacity="1" data-original="url(#s)"></path></g></svg>