<svg xmlns="http://www.w3.org/2000/svg" version="1.1" xmlns:xlink="http://www.w3.org/1999/xlink" width="512" height="512" x="0" y="0" viewBox="0 0 68 68" style="enable-background:new 0 0 512 512" xml:space="preserve" class=""><rect width="68" height="68" rx="13.6" ry="13.6" fill="#bac8d3" shape="rounded"></rect><g transform="matrix(0.5800000000000002,0,0,0.5800000000000002,14.30100018024444,14.280000400543209)"><linearGradient id="a"><stop offset="0" stop-color="#d810fb"></stop><stop offset="1" stop-color="#3953ed"></stop></linearGradient><linearGradient xlink:href="#a" id="b" x1="1.043" x2="63.398" y1="63.645" y2="-2.096" gradientTransform="matrix(1 0 0 -1 0 70)" gradientUnits="userSpaceOnUse"></linearGradient><linearGradient xlink:href="#a" id="c" x1="17.138" x2="79.494" y1="78.912" y2="13.171" gradientTransform="matrix(1 0 0 -1 0 70)" gradientUnits="userSpaceOnUse"></linearGradient><linearGradient xlink:href="#a" id="d" x1="9.336" x2="71.691" y1="71.511" y2="5.771" gradientTransform="matrix(1 0 0 -1 0 70)" gradientUnits="userSpaceOnUse"></linearGradient><linearGradient xlink:href="#a" id="e" x1="-5.572" x2="56.783" y1="57.371" y2="-8.369" gradientTransform="matrix(1 0 0 -1 0 70)" gradientUnits="userSpaceOnUse"></linearGradient><linearGradient xlink:href="#a" id="f" x1="-13.374" x2="48.981" y1="49.971" y2="-15.77" gradientTransform="matrix(1 0 0 -1 0 70)" gradientUnits="userSpaceOnUse"></linearGradient><linearGradient xlink:href="#a" id="g" x1="9.971" x2="72.326" y1="72.113" y2="6.373" gradientTransform="matrix(1 0 0 -1 0 70)" gradientUnits="userSpaceOnUse"></linearGradient><path fill="url(#b)" d="M64.6 61c.4 0 .8-.3.8-.8V59c0-1.3-.9-2.4-2.1-2.7V24.5c0-1.9-1.6-3.5-3.5-3.5h-7.1c-.4 0-.8.3-.8.8s.3.8.8.8h7.1c1.1 0 2 .9 2 2v31.8h-12V10.7h.7c1.3 0 2.4-1.1 2.4-2.4V4.6c0-1.3-1.1-2.4-2.4-2.4H17.6c-1.3 0-2.4 1.1-2.4 2.4v3.7c0 1.3 1.1 2.4 2.4 2.4h.9v45.6h-12V24.5c0-1.1.9-2 2-2h6.3c.4 0 .8-.3.8-.8s-.3-.8-.8-.8H8.4c-1.9 0-3.5 1.6-3.5 3.5v31.9c-1.3.2-2.3 1.3-2.3 2.7v6c0 .4.3.8.8.8h61.3c.4 0 .8-.3.8-.8v-2c0-.4-.3-.8-.8-.8s-.8.3-.8.8v1.3H4.1V59c0-.7.6-1.2 1.2-1.2H62.6c.7 0 1.2.6 1.2 1.2v1.2c.1.5.4.8.8.8zM16.7 8.3V4.6c0-.5.4-.9.9-.9h32.9c.5 0 .9.4.9.9v3.7c0 .5-.4.9-.9.9H17.6c-.5 0-.9-.4-.9-.9zm9.5 48V39.2h7.1v17.1zm8.7 0V39.2H42v17.1zm8.6 0V38.4c0-.4-.3-.8-.8-.8H25.5c-.4 0-.8.3-.8.8v17.8h-4.8V10.7h28.3v45.6z" opacity="1" data-original="url(#b)"></path><path fill="url(#c)" d="M59.1 27c0-.4-.3-.8-.8-.8h-5.6c-.4 0-.8.3-.8.8v9c0 .4.3.8.8.8h5.6c.4 0 .8-.3.8-.8zm-1.5 8.3h-4.1v-7.5h4.1z" opacity="1" data-original="url(#c)"></path><path fill="url(#d)" d="M58.3 41.9h-5.6c-.4 0-.8.3-.8.8v9c0 .4.3.8.8.8h5.6c.4 0 .8-.3.8-.8v-9c0-.5-.4-.8-.8-.8zm-.7 9h-4.1v-7.5h4.1z" opacity="1" data-original="url(#d)"></path><path fill="url(#e)" d="M15.9 27c0-.4-.3-.8-.8-.8H9.6c-.4 0-.8.3-.8.8v9c0 .4.3.8.8.8h5.6c.4 0 .8-.3.8-.8zm-1.5 8.3h-4.1v-7.5h4.1z" opacity="1" data-original="url(#e)"></path><path fill="url(#f)" d="M15.2 41.9H9.6c-.4 0-.8.3-.8.8v9c0 .4.3.8.8.8h5.6c.4 0 .8-.3.8-.8v-9c-.1-.5-.4-.8-.8-.8zm-.8 9h-4.1v-7.5h4.1z" opacity="1" data-original="url(#f)"></path><g fill="url(#g)"><path d="M34.1 14.3c-5 0-9 4-9 9s4 9 9 9c.8 0 1.6-.1 2.3-.3.4-.1.6-.5.5-.9s-.5-.6-.9-.5c-.6.2-1.3.2-1.9.2-4.1 0-7.5-3.4-7.5-7.5s3.4-7.5 7.5-7.5 7.5 3.4 7.5 7.5c0 2.1-.9 4.1-2.4 5.5-.3.3-.3.8 0 1.1s.8.3 1.1 0c1.8-1.7 2.9-4.1 2.9-6.6-.1-4.9-4.1-9-9.1-9z" fill="" opacity="1"></path><path d="M37.2 22.6h-2.4v-2.4c0-.4-.3-.8-.8-.8s-.8.3-.8.8v2.4H31c-.4 0-.8.3-.8.8s.3.8.8.8h2.4v2.4c0 .4.3.8.8.8s.8-.3.8-.8v-2.4h2.4c.4 0 .8-.3.8-.8s-.5-.8-1-.8z" fill="" opacity="1"></path></g></g></svg>