<svg xmlns="http://www.w3.org/2000/svg" version="1.1" xmlns:xlink="http://www.w3.org/1999/xlink" width="512" height="512" x="0" y="0" viewBox="0 0 32 32" style="enable-background:new 0 0 512 512" xml:space="preserve" class=""><rect width="32" height="32" rx="6.4" ry="6.4" fill="#bac8d3" shape="rounded"></rect><g transform="matrix(-0.68,-8.327598234202002e-17,8.327598234202002e-17,-0.68,26.878068981170657,26.87915996074677)"><linearGradient id="a" x1="15.656" x2="16.323" y1="-.347" y2="31.32" gradientUnits="userSpaceOnUse"><stop offset="0" stop-color="#b621fe"></stop><stop offset="1" stop-color="#1fd1f9"></stop></linearGradient><linearGradient xlink:href="#a" id="b" x1="15.712" x2="16.379" y1="-.348" y2="31.318"></linearGradient><linearGradient xlink:href="#a" id="c" x1="15.613" x2="16.28" y1="-.346" y2="31.32"></linearGradient><g data-name="up arrow"><path fill="url(#a)" fill-rule="evenodd" d="M26.607 5.393a15 15 0 1 0 0 21.213 15.007 15.007 0 0 0 0-21.213zm-1.414 19.8a13 13 0 1 1 0-18.385 13.007 13.007 0 0 1 0 18.385z" opacity="1" data-original="url(#a)" class=""></path><path fill="url(#b)" fill-rule="evenodd" d="m9.293 13.295 1.414 1.414L16 9.417l5.293 5.292 1.414-1.414L16 6.589z" opacity="1" data-original="url(#b)"></path><path fill="url(#c)" d="M15 12.003h2v12h-2z" opacity="1" data-original="url(#c)"></path></g></g></svg>