<svg xmlns="http://www.w3.org/2000/svg" version="1.1" xmlns:xlink="http://www.w3.org/1999/xlink" width="512" height="512" x="0" y="0" viewBox="0 0 64 64" style="enable-background:new 0 0 512 512" xml:space="preserve" class=""><rect width="64" height="64" rx="12.8" ry="12.8" fill="#bac8d3" shape="rounded"></rect><g transform="matrix(0.5800000000000001,0,0,0.5800000000000001,13.439999999999998,13.439999999999998)"><linearGradient id="a" x1="2" x2="62" y1="3" y2="3" gradientUnits="userSpaceOnUse"><stop offset="0" stop-color="#e435d2"></stop><stop offset="1" stop-color="#312fb4"></stop></linearGradient><linearGradient xlink:href="#a" id="b" x1="2" x2="62" y1="42" y2="42"></linearGradient><linearGradient xlink:href="#a" id="c" x1="2" x2="62" y1="48.5" y2="48.5"></linearGradient><linearGradient xlink:href="#a" id="d" x1="2" x2="62" y1="32" y2="32"></linearGradient><linearGradient xlink:href="#a" id="e" x1="2" x2="62" y1="22" y2="22"></linearGradient><linearGradient xlink:href="#a" id="f" x1="2" x2="62" y1="26.5" y2="26.5"></linearGradient><path fill="url(#a)" d="M43 4h1a1 1 0 0 0 0-2h-1a1 1 0 0 0 0 2z" opacity="1" data-original="url(#a)"></path><path fill="url(#b)" d="M18 41a1 1 0 0 0 0 2h1a1 1 0 0 0 0-2z" opacity="1" data-original="url(#b)"></path><g fill="url(#c)"><path d="M49 45h-4a3.003 3.003 0 0 0-3 3v1a3.003 3.003 0 0 0 3 3h4a3.003 3.003 0 0 0 3-3v-1a3.003 3.003 0 0 0-3-3zm1 4a1 1 0 0 1-1 1h-4a1 1 0 0 1-1-1v-1a1 1 0 0 1 1-1h4a1 1 0 0 1 1 1zM19 45h-4a3.003 3.003 0 0 0-3 3v1a3.003 3.003 0 0 0 3 3h4a3.003 3.003 0 0 0 3-3v-1a3.003 3.003 0 0 0-3-3zm1 4a1 1 0 0 1-1 1h-4a1 1 0 0 1-1-1v-1a1 1 0 0 1 1-1h4a1 1 0 0 1 1 1zM38 45H26a2.002 2.002 0 0 0-2 2v3a2.002 2.002 0 0 0 2 2h12a2.002 2.002 0 0 0 2-2v-3a2.002 2.002 0 0 0-2-2zm-12 5v-3h12l.001 3z" fill="" opacity="1"></path></g><path fill="url(#d)" d="M60 15.184V11a3.003 3.003 0 0 0-3-3h-1V7a5.006 5.006 0 0 0-5-5h-4a1 1 0 0 0 0 2h4a3.003 3.003 0 0 1 3 3v3H40V8a2.002 2.002 0 0 0-2-2H26a2.002 2.002 0 0 0-2 2v2H10V7a3.003 3.003 0 0 1 3-3h27a1 1 0 0 0 0-2H13a5.006 5.006 0 0 0-5 5v1H7a3.003 3.003 0 0 0-3 3v4.184A2.995 2.995 0 0 0 2 18v4a3.003 3.003 0 0 0 3 3h3v26a4.979 4.979 0 0 0 2.004 3.978c0 .008-.004.014-.004.022v4a3.003 3.003 0 0 0 3 3h4a3.003 3.003 0 0 0 3-3v-3h24v3a3.003 3.003 0 0 0 3 3h4a3.003 3.003 0 0 0 3-3v-4c0-.008-.004-.014-.004-.022A4.979 4.979 0 0 0 56 51V25h3a3.003 3.003 0 0 0 3-3v-4a2.995 2.995 0 0 0-2-2.816zM57 10a1 1 0 0 1 1 1v4h-2v-5zm-3 31H33.001V12H54zM26 8h12v2H26zM7 10h1v5H6v-4a1 1 0 0 1 1-1zM5 23a1 1 0 0 1-1-1v-4a1 1 0 0 1 1-1h3v6zm13 36a1 1 0 0 1-1 1h-4a1 1 0 0 1-1-1v-3.101A5.001 5.001 0 0 0 13 56h5zm34 0a1 1 0 0 1-1 1h-4a1 1 0 0 1-1-1v-3h5a5.001 5.001 0 0 0 1-.101zm-1-5H13a3.003 3.003 0 0 1-3-3v-8h5a1 1 0 0 0 0-2h-5V12h21.001v29H22a1 1 0 0 0 0 2h32v8a3.003 3.003 0 0 1-3 3zm9-32a1 1 0 0 1-1 1h-3v-6h3a1 1 0 0 1 1 1z" opacity="1" data-original="url(#d)"></path><path fill="url(#e)" d="M15 26a.997.997 0 0 0 .707-.293l6-6a1 1 0 0 0-1.414-1.414l-6 6A1 1 0 0 0 15 26z" opacity="1" data-original="url(#e)"></path><path fill="url(#f)" d="M28.707 18.293a1 1 0 0 0-1.414 0l-15 15a1 1 0 1 0 1.414 1.414l15-15a1 1 0 0 0 0-1.414z" opacity="1" data-original="url(#f)"></path><path fill="url(#e)" d="M37.293 25.707a1 1 0 0 0 1.414 0l6-6a1 1 0 0 0-1.414-1.414l-6 6a1 1 0 0 0 0 1.414z" opacity="1" data-original="url(#e)"></path><path fill="url(#f)" d="M35.293 34.707a1 1 0 0 0 1.414 0l15-15a1 1 0 0 0-1.414-1.414l-15 15a1 1 0 0 0 0 1.414z" opacity="1" data-original="url(#f)"></path></g></svg>