<svg xmlns="http://www.w3.org/2000/svg" version="1.1" xmlns:xlink="http://www.w3.org/1999/xlink" width="512" height="512" x="0" y="0" viewBox="0 0 64 64" style="enable-background:new 0 0 512 512" xml:space="preserve"><rect width="64" height="64" rx="12.8" ry="12.8" fill="#bac8d3" shape="rounded"></rect><g transform="matrix(0.7,0,0,0.7,9.600000000000001,9.600000000000001)"><defs><linearGradient id="a" x1="4" x2="60" y1="32" y2="32" gradientUnits="userSpaceOnUse"><stop offset="0" stop-color="#ff81ff"></stop><stop offset="1" stop-color="#a93aff"></stop></linearGradient></defs><path d="M52 48a1 1 0 0 1-1 1H7a3.003 3.003 0 0 1-3-3V18a3.003 3.003 0 0 1 3-3h2a1 1 0 0 1 0 2H7a1.001 1.001 0 0 0-1 1v28a1.001 1.001 0 0 0 1 1h44a1 1 0 0 1 1 1ZM36 38a1 1 0 0 1 1-1h18a1 1 0 0 1 1 1v4a1 1 0 0 1-1 1H37a1 1 0 0 1-1-1Zm2 3h16v-2H38Zm-1-6h10.83a1 1 0 1 0 0-2H37a1 1 0 0 0 0 2Zm0-4h18a1 1 0 0 0 0-2H37a1 1 0 0 0 0 2Zm0-4h18a1 1 0 0 0 0-2H37a1 1 0 0 0 0 2Zm0-4h15a1 1 0 0 0 0-2H37a1 1 0 0 0 0 2Zm20-8H13a1 1 0 0 0 0 2h44a1.001 1.001 0 0 1 1 1v28a1.001 1.001 0 0 1-1 1h-2a1 1 0 0 0 0 2h2a3.003 3.003 0 0 0 3-3V18a3.003 3.003 0 0 0-3-3ZM10 32a10.936 10.936 0 0 0 2.363 6.79V38a6.096 6.096 0 0 1 4.594-5.897 5.454 5.454 0 1 1 8.086 0A6.096 6.096 0 0 1 29.637 38v.79a10.963 10.963 0 0 0 .33-13.16 1 1 0 1 1 1.627-1.161A12.884 12.884 0 0 1 34 32a13 13 0 1 1-13-13 12.875 12.875 0 0 1 7.531 2.407 1 1 0 1 1-1.162 1.627A10.89 10.89 0 0 0 21 21a11.012 11.012 0 0 0-11 11Zm7.546-3.545A3.454 3.454 0 1 0 21 25a3.458 3.458 0 0 0-3.454 3.455ZM14.363 38v2.752a10.92 10.92 0 0 0 13.274 0V38a4.095 4.095 0 0 0-4.091-4.09h-5.092a4.095 4.095 0 0 0-4.09 4.09Z" class="cls-1" style="fill:url(#a)" fill=""></path></g></svg>