<svg xmlns="http://www.w3.org/2000/svg" version="1.1" xmlns:xlink="http://www.w3.org/1999/xlink" width="512" height="512" x="0" y="0" viewBox="0 0 69 69" style="enable-background:new 0 0 512 512" xml:space="preserve"><rect width="69" height="69" rx="13.8" ry="13.8" fill="#bac8d3" shape="rounded"></rect><g transform="matrix(0.7,0,0,0.7,10.34987726211548,10.34993133544922)"><linearGradient id="a"><stop offset="0" stop-color="#d810fb"></stop><stop offset="1" stop-color="#3953ed"></stop></linearGradient><linearGradient xlink:href="#a" id="b" x1="21.577" x2="49.833" y1="-.87" y2="62.424" gradientUnits="userSpaceOnUse"></linearGradient><linearGradient xlink:href="#a" id="c" x1="23.734" x2="51.99" y1="-1.833" y2="61.461" gradientUnits="userSpaceOnUse"></linearGradient><path fill="url(#b)" d="M49.19 7.559c-4.711-4.227-10.804-6.177-17.157-5.483-10.118 1.1-18.274 9.244-19.395 19.364-.784 7.08 1.755 13.893 6.964 18.692 2.432 2.239 4.142 4.983 5.003 7.982-1.51.511-2.607 1.925-2.607 3.605a3.826 3.826 0 0 0 3.821 3.822H43.18c1.005 0 1.822.817 1.822 1.822s-.817 1.822-1.822 1.822H25.819a1.823 1.823 0 0 1-1.734-2.382 1 1 0 1 0-1.903-.617 3.826 3.826 0 0 0 3.636 4.999h1.707a7.064 7.064 0 0 0 6.973 5.876 7.108 7.108 0 0 0 5.721-2.91 1 1 0 1 0-1.615-1.179 5.035 5.035 0 0 1-4.105 2.089 5.073 5.073 0 0 1-4.939-3.876h13.62a3.827 3.827 0 0 0 3.822-3.822 3.8 3.8 0 0 0-1.267-2.822 3.8 3.8 0 0 0 1.267-2.822 3.827 3.827 0 0 0-3.822-3.822H26.629c-.929-3.485-2.878-6.664-5.672-9.237-4.737-4.363-7.045-10.56-6.331-17.001 1.019-9.195 8.43-16.595 17.623-17.595 5.787-.628 11.321 1.142 15.604 4.984a20.033 20.033 0 0 1 6.648 14.895 20.06 20.06 0 0 1-6.519 14.781 19.364 19.364 0 0 0-3.854 4.842 1 1 0 1 0 1.744.978A17.42 17.42 0 0 1 49.33 40.2a22.056 22.056 0 0 0 7.171-16.257A22.037 22.037 0 0 0 49.19 7.559zm-6.009 42.338c1.005 0 1.822.817 1.822 1.822s-.817 1.822-1.822 1.822H25.819a1.823 1.823 0 0 1-1.821-1.822c0-1.004.817-1.822 1.821-1.822h.023z" opacity="1" data-original="url(#b)"></path><path fill="url(#c)" d="M33.881 40.133c-.403 0-.772-.244-.927-.626L26.85 24.365a.999.999 0 0 1 .763-1.36l5.279-.882-1.566-7.607a1 1 0 0 1 .979-1.201h6.778a1 1 0 0 1 .976.783l2.919 13.1a1 1 0 0 1-.741 1.189l-6.135 1.486-1.229 9.392a.999.999 0 0 1-.992.868zm-4.71-15.361 4.214 10.453.823-6.294a1 1 0 0 1 .756-.842l5.848-1.417-2.53-11.359h-4.75l1.528 7.423a.997.997 0 0 1-.814 1.188z" opacity="1" data-original="url(#c)"></path></g></svg>