<svg xmlns="http://www.w3.org/2000/svg" version="1.1" xmlns:xlink="http://www.w3.org/1999/xlink" width="512" height="512" x="0" y="0" viewBox="0 0 512 512" style="enable-background:new 0 0 512 512" xml:space="preserve"><rect width="512" height="512" rx="102.4" ry="102.4" fill="#bac8d3" shape="rounded"></rect><g transform="matrix(0.65,0,0,0.65,89.60295734405517,74.66457090377807)"><linearGradient id="a" x1="256" x2="256" y1="18" y2="502.066" gradientUnits="userSpaceOnUse"><stop offset="0" stop-color="#00efd1"></stop><stop offset="1" stop-color="#00acea"></stop></linearGradient><linearGradient xlink:href="#a" id="b" x1="256.01" x2="256.01" y1="18" y2="502.066"></linearGradient><path fill="url(#a)" d="M349.579 282H286v-63.4a7.438 7.438 0 0 0-7.727-7.6h-44.546a7.438 7.438 0 0 0-7.727 7.6V282h-63.579C158 282 154 285.435 154 289.854V334.4c0 4.419 4 7.6 8.421 7.6H226v63.707c0 4.418 3.309 8.293 7.727 8.293h44.546c4.418 0 7.727-3.875 7.727-8.293V342h63.579c4.421 0 8.421-3.181 8.421-7.6v-44.546c0-4.419-4-7.854-8.421-7.854zM342 326h-63.727a8.587 8.587 0 0 0-8.273 8.4V398h-28v-63.6a8.587 8.587 0 0 0-8.273-8.4H170v-28h63.727a8.363 8.363 0 0 0 8.273-8.146V227h28v62.854a8.363 8.363 0 0 0 8.273 8.146H342z" opacity="1" data-original="url(#a)"></path><path fill="url(#b)" d="M395 167.088V77.865A7.9 7.9 0 0 0 386.98 70h-37.4a7.537 7.537 0 0 0-7.58 7.865v35.77l-80.132-79.923a8.251 8.251 0 0 0-5.763-2.343 8.118 8.118 0 0 0-5.709 2.344L41.719 242.415A7.943 7.943 0 0 0 47.35 256H92v216.631a8.353 8.353 0 0 0 8.034 8.369h311.932a8.353 8.353 0 0 0 8.034-8.369V256h44.65a7.967 7.967 0 0 0 5.667-13.6zM411.966 240a8.032 8.032 0 0 0-7.966 8.071V465H108V248.071a8.032 8.032 0 0 0-7.966-8.071H66.66L256 50.648l87.921 87.94a8.349 8.349 0 0 0 8.929 1.743 8.186 8.186 0 0 0 5.15-7.382V86h21v84.4a7.908 7.908 0 0 0 2.333 5.621l64 63.978z" opacity="1" data-original="url(#b)"></path></g></svg>