<svg xmlns="http://www.w3.org/2000/svg" version="1.1" xmlns:xlink="http://www.w3.org/1999/xlink" width="512" height="512" x="0" y="0" viewBox="0 0 64 64" style="enable-background:new 0 0 512 512" xml:space="preserve"><rect width="64" height="64" rx="12.8" ry="12.8" fill="#bac8d3" shape="rounded"></rect><g transform="matrix(0.5599999999999998,0,0,0.5599999999999998,14.080000000000005,14.080000209808354)"><defs><linearGradient id="a" x1="6.745" x2="63.696" y1="66.308" y2="7.336" gradientUnits="userSpaceOnUse"><stop offset="0" stop-color="#fff200"></stop><stop offset="1" stop-color="#cd118c"></stop></linearGradient></defs><path d="M61 33a1 1 0 0 0 1-1v-4a1 1 0 0 0-1-1h-1.31l-2.75-7.35A1.007 1.007 0 0 0 56 19h-2v-2h1a1 1 0 0 0 .89-1.45l-3-6A.988.988 0 0 0 52 9h-6a1.016 1.016 0 0 0-.58-.91l-13-6a1.025 1.025 0 0 0-.84 0l-13 6A1.016 1.016 0 0 0 18 9h-6a.977.977 0 0 0-.89.55l-3 6A1 1 0 0 0 9 17h1v2H8a1.007 1.007 0 0 0-.94.65L4.31 27H3a1 1 0 0 0-1 1v4a1 1 0 0 0 1 1h1v23H3a1 1 0 0 0-1 1v4a1 1 0 0 0 1 1h58a1 1 0 0 0 1-1v-4a1 1 0 0 0-1-1h-1V33Zm-7-12h1.31l2.25 6H54Zm-9.03-7.01c.01 0 .02.01.03.01h.03c.06-.01.12-.02.19-.03.02-.01.05-.01.07-.02a.8.8 0 0 0 .25-.11A.985.985 0 0 0 46 13v-2h5.38l2 4H42v-2.28l2.58 1.19a.881.881 0 0 0 .39.08ZM52 17v10H42V17ZM20 9.64 32 4.1l12 5.54v1.8l-2.58-1.2-9-4.15a1.025 1.025 0 0 0-.84 0l-9 4.15-2.58 1.2Zm20 2.15V27H24V11.79l8-3.69ZM12.62 11H18v2a.985.985 0 0 0 .46.84 1 1 0 0 0 .96.07L22 12.72V15H10.62ZM22 17v10H12V17ZM8.69 21H10v6H6.44Zm16.53 39H4v-2h21.72ZM16 37h1v15h-1a1 1 0 0 0-1 1v3H6V33h9v3a1 1 0 0 0 1 1Zm1-2v-2h6v2Zm4 2v15h-2V37Zm2 17v2h-6v-2Zm4.28 6 .5-2h8.44l.5 2Zm.72-4V41h8v15Zm9-17H27a1 1 0 0 0-1 1v16h-1v-3a1 1 0 0 0-1-1h-1V37h1a1 1 0 0 0 1-1v-3h14v3a1 1 0 0 0 1 1h1v15h-1a1 1 0 0 0-1 1v3h-1V40a1 1 0 0 0-1-1Zm11 13h-1V37h1a1 1 0 0 0 1-1v-3h9v23h-9v-3a1 1 0 0 0-1-1Zm-1-17h-6v-2h6Zm-2 2v15h-2V37Zm2 17v2h-6v-2Zm13 6H38.78l-.5-2H60ZM4 31v-2h56v2Zm11 15v-6a1 1 0 0 0-1-1H9a1 1 0 0 0-1 1v6a1 1 0 0 0 1 1h5a1 1 0 0 0 1-1Zm-2-1h-3v-4h3Zm36-5v6a1 1 0 0 0 1 1h5a1 1 0 0 0 1-1v-6a1 1 0 0 0-1-1h-5a1 1 0 0 0-1 1Zm2 1h3v4h-3ZM15 25h4a1 1 0 0 0 1-1v-4a1 1 0 0 0-1-1h-4a1 1 0 0 0-1 1v4a1 1 0 0 0 1 1Zm1-4h2v2h-2Zm29 4h4a1 1 0 0 0 1-1v-4a1 1 0 0 0-1-1h-4a1 1 0 0 0-1 1v4a1 1 0 0 0 1 1Zm1-4h2v2h-2Zm-12-2h-4a1 1 0 0 0-1 1v4a1 1 0 0 0 1 1h4a1 1 0 0 0 1-1v-4a1 1 0 0 0-1-1Zm-1 4h-2v-2h2Z" style="fill:url(#a)" fill=""></path></g></svg>