<svg xmlns="http://www.w3.org/2000/svg" version="1.1" xmlns:xlink="http://www.w3.org/1999/xlink" width="512" height="512" x="0" y="0" viewBox="0 0 474.136 474" style="enable-background:new 0 0 512 512" xml:space="preserve"><rect width="474.136" height="474" rx="94.8272" ry="94.8272" fill="#bac8d3" shape="rounded"></rect><g transform="matrix(0.63,0,0,0.63,87.7153437805176,85.86423580169676)"><linearGradient id="a"><stop offset="0" stop-color="#00efd1"></stop><stop offset="1" stop-color="#00acea"></stop></linearGradient><linearGradient xlink:href="#a" id="b" x1="256.253" x2="256.253" y1="472" y2="49.2" gradientTransform="matrix(1 0 0 -1 -18.932 490.068)" gradientUnits="userSpaceOnUse"></linearGradient><linearGradient xlink:href="#a" id="c" x1="256" x2="256" y1="472" y2="49.2" gradientTransform="matrix(1 0 0 -1 -18.932 490.068)" gradientUnits="userSpaceOnUse"></linearGradient><linearGradient xlink:href="#a" id="d" x1="48.699" x2="48.699" y1="472" y2="49.2" gradientTransform="matrix(1 0 0 -1 -18.932 490.068)" gradientUnits="userSpaceOnUse"></linearGradient><linearGradient xlink:href="#a" id="e" x1="58.328" x2="58.328" y1="472" y2="49.2" gradientTransform="matrix(1 0 0 -1 -18.932 490.068)" gradientUnits="userSpaceOnUse"></linearGradient><linearGradient xlink:href="#a" id="f" x1="463.301" x2="463.301" y1="472" y2="49.2" gradientTransform="matrix(1 0 0 -1 -18.932 490.068)" gradientUnits="userSpaceOnUse"></linearGradient><linearGradient xlink:href="#a" id="g" x1="453.671" x2="453.671" y1="472" y2="49.2" gradientTransform="matrix(1 0 0 -1 -18.932 490.068)" gradientUnits="userSpaceOnUse"></linearGradient><path fill="url(#b)" d="M326.313.066H148.327c-27.601.032-49.969 22.399-50 50v364c.031 27.602 22.399 49.97 50 50h187.07c22.27 0 40.243-17.843 40.91-40.62V50.065c-.03-27.597-22.394-49.964-49.996-50zm-177.985 20h177.984c16.563.02 29.985 13.442 30 30v26.028H118.328V50.066c.02-16.558 13.442-29.98 30-30zm207.984 76.028v264.851H118.328V96.094zm-20.914 347.972h-187.07c-16.558-.015-29.98-13.437-30-30v-33.12h237.984v42.042c-.414 11.832-9.578 21.078-20.914 21.078zm0 0" opacity="1" data-original="url(#b)"></path><path fill="url(#c)" d="m178.086 229.645 35.945 36.78c.117.122.246.227.367.34.122.114.23.223.356.325.14.12.289.226.434.336.128.101.253.199.382.285.157.105.317.2.477.293.129.078.258.16.387.234.171.09.351.168.527.25.125.059.25.125.379.18.187.078.383.14.574.207.117.043.234.094.356.129.21.062.421.11.632.16.11.024.22.059.328.078.239.047.477.078.72.11.085.011.167.027.253.035.328.035.656.05.984.05.31 0 .625-.015.934-.042.086-.008.168-.028.254-.036.227-.027.453-.054.68-.101.11-.02.218-.055.328-.078.199-.043.39-.086.586-.14.12-.036.242-.083.363-.126.18-.059.356-.113.531-.184.13-.046.25-.109.375-.167.168-.07.332-.141.496-.223.13-.067.254-.145.383-.219.153-.086.305-.168.453-.266.13-.082.254-.175.38-.265.128-.09.28-.195.417-.3.137-.106.246-.212.367-.317.121-.106.23-.188.34-.293l67.715-64.367c4.004-3.81 4.164-10.137.36-14.141-3.805-4.004-10.137-4.168-14.141-.36l-60.567 57.575-29.05-29.719c-3.86-3.95-10.192-4.023-14.141-.164-3.953 3.863-4.023 10.195-.164 14.144zm0 0" opacity="1" data-original="url(#c)"></path><path fill="url(#d)" d="M49.535 242.066c5.524 0 10-4.476 10-10 0-5.52-4.476-10-10-10H10c-5.523 0-10 4.48-10 10 0 5.524 4.477 10 10 10zm0 0" opacity="1" data-original="url(#d)"></path><path fill="url(#e)" d="m63.637 158.754-39.535-19.77c-4.942-2.468-10.946-.464-13.418 4.473-2.47 4.941-.465 10.95 4.472 13.418l39.535 19.77c4.942 2.468 10.946.464 13.418-4.473 2.47-4.942.465-10.95-4.472-13.418zM54.691 287.492l-39.535 19.77c-4.937 2.468-6.941 8.476-4.472 13.418 2.472 4.937 8.476 6.941 13.418 4.468l39.535-19.765a10.002 10.002 0 0 0-8.945-17.89zm0 0" opacity="1" data-original="url(#e)"></path><path fill="url(#f)" d="M464.137 222.066h-39.535c-5.524 0-10 4.48-10 10 0 5.524 4.476 10 10 10h39.535c5.523 0 10-4.476 10-10 0-5.52-4.477-10-10-10zm0 0" opacity="1" data-original="url(#f)"></path><g fill="url(#g)"><path d="M414.98 177.7c1.551 0 3.079-.36 4.465-1.055l39.535-19.77c4.938-2.469 6.942-8.477 4.47-13.418-2.47-4.937-8.477-6.941-13.415-4.473l-39.535 19.77a10.004 10.004 0 0 0-5.266 11.25 10 10 0 0 0 9.746 7.695zM458.98 307.262l-39.535-19.77a10.002 10.002 0 0 0-8.945 17.89l39.535 19.766c4.938 2.473 10.945.47 13.414-4.468 2.473-4.942.469-10.95-4.469-13.418zm0 0" fill="" opacity="1"></path></g></g></svg>