<svg xmlns="http://www.w3.org/2000/svg" version="1.1" xmlns:xlink="http://www.w3.org/1999/xlink" width="512" height="512" x="0" y="0" viewBox="0 0 64 64" style="enable-background:new 0 0 512 512" xml:space="preserve"><rect width="64" height="64" rx="12.8" ry="12.8" fill="#bac8d3" shape="rounded"></rect><g transform="matrix(0.63,0,0,0.63,11.840049929618836,11.841458368301392)"><linearGradient id="a" x1="14.736" x2="46.938" y1="9.431" y2="41.632" gradientUnits="userSpaceOnUse"><stop offset="0" stop-color="#1565c0"></stop><stop offset="1" stop-color="#b92b27"></stop></linearGradient><linearGradient xlink:href="#a" id="b" x1="9.336" x2="41.537" y1="14.831" y2="47.033"></linearGradient><g data-name="Transfer Money"><path fill="url(#a)" d="M33.062 36.242a6 6 0 1 1 8.486 0 5.995 5.995 0 0 1-8.486 0zm1.415-7.07a3.996 3.996 0 0 0 0 5.656 4.095 4.095 0 0 0 5.657 0 4 4 0 0 0-5.657-5.656z" opacity="1" data-original="url(#a)"></path><path fill="url(#b)" d="M58.816 21.68 47.407 10.27a2.997 2.997 0 0 0-3.948-.239C43.159 9.983 5.609 10 5.305 10a1 1 0 0 0 0 2h36.13l-12 12H11.914a1 1 0 0 0 0 2h15.523L15.358 38.077a2.993 2.993 0 0 0-.625.923h-6.4a1 1 0 0 0 0 2h6.268a2.973 2.973 0 0 0 .757 1.32L25.036 52H6.305a1 1 0 0 0 0 2h20.792a2.98 2.98 0 0 0 3.913-.27l27.806-27.807a2.999 2.999 0 0 0 0-4.243zm-1.414 2.828L29.596 52.314a.999.999 0 0 1-1.387.02.966.966 0 0 0-.098-.089L16.772 40.906a1 1 0 0 1 0-1.414c18.423-18.424 9.337-9.338 27.807-27.806a1.001 1.001 0 0 1 1.414-.001l11.41 11.409a1 1 0 0 1 0 1.414z" opacity="1" data-original="url(#b)"></path></g></g></svg>