<svg xmlns="http://www.w3.org/2000/svg" version="1.1" xmlns:xlink="http://www.w3.org/1999/xlink" width="512" height="512" x="0" y="0" viewBox="0 0 64 64" style="enable-background:new 0 0 512 512" xml:space="preserve" class=""><rect width="64" height="64" rx="12.8" ry="12.8" fill="#bac8d3" shape="rounded"></rect><g transform="matrix(0.5499999999999999,0,0,0.5499999999999999,14.400000000000002,14.39996953010559)"><defs><linearGradient id="a" x1="32" x2="32" y1="63.532" y2="3.109" gradientUnits="userSpaceOnUse"><stop offset="0" stop-color="#006df0"></stop><stop offset="1" stop-color="#00e7f0"></stop></linearGradient></defs><path d="M61 37a1 1 0 0 0 1-1v-4a1 1 0 0 0-1-1h-4.76A27.99 27.99 0 0 0 39 17.9V14a1 1 0 0 0-1-1h-5V9.2a4.154 4.154 0 0 1 .88.58 4.6 4.6 0 0 0 6.24 0A2.6 2.6 0 0 1 42 9a1 1 0 0 0 1-1V3a1 1 0 0 0-1-1 4.51 4.51 0 0 0-3.12 1.22 2.656 2.656 0 0 1-3.76 0A4.51 4.51 0 0 0 32 2a1 1 0 0 0-1 1v10h-5a1 1 0 0 0-1 1v3.9A27.99 27.99 0 0 0 7.76 31H3a1 1 0 0 0-1 1v4a1 1 0 0 0 1 1h1v19H3a1 1 0 0 0-1 1v4a1 1 0 0 0 1 1h58a1 1 0 0 0 1-1v-4a1 1 0 0 0-1-1h-1V37ZM33 4.19a4.367 4.367 0 0 1 .88.59 4.6 4.6 0 0 0 6.24 0 4.367 4.367 0 0 1 .88-.59V7.1a4.816 4.816 0 0 0-2.12 1.12 2.656 2.656 0 0 1-3.76 0A4.816 4.816 0 0 0 33 7.1ZM27 15h10v2.46a27.4 27.4 0 0 0-10 0Zm5 4a26 26 0 0 1 21.91 12H10.09A26 26 0 0 1 32 19Zm28 41H4v-2h56ZM6 56V37h4v19Zm6 0V37h4v19Zm6 0V37h4v19Zm6 0V37h4v19Zm6 0V37h4v19Zm6 0V37h4v19Zm6 0V37h4v19Zm6 0V37h4v19Zm6 0V37h4v19ZM4 35v-2h56v2Z" data-name="Layer 19" style="fill:url(#a)" fill=""></path></g></svg>