<svg xmlns="http://www.w3.org/2000/svg" version="1.1" xmlns:xlink="http://www.w3.org/1999/xlink" width="512" height="512" x="0" y="0" viewBox="0 0 511.999 511" style="enable-background:new 0 0 512 512" xml:space="preserve"><rect width="511.999" height="511" rx="102.3998" ry="102.3998" fill="#bac8d3" shape="rounded"></rect><g transform="matrix(0.61,0,0,0.61,99.83999990976298,161.77093414306643)"><linearGradient id="a"><stop offset="0" stop-color="#004ff9"></stop><stop offset=".994" stop-color="#1cb5e0"></stop></linearGradient><linearGradient xlink:href="#a" id="b" x1="-61.378" x2="870.577" y1="417.989" y2="417.989" gradientTransform="matrix(.6095 0 0 -.6095 0 400.332)" gradientUnits="userSpaceOnUse"></linearGradient><linearGradient xlink:href="#a" id="c" x1="-61.378" x2="870.577" y1="571.994" y2="571.994" gradientTransform="matrix(.6095 0 0 -.6095 0 400.332)" gradientUnits="userSpaceOnUse"></linearGradient><linearGradient xlink:href="#a" id="d" x1="-61.378" x2="870.577" y1="459.99" y2="459.99" gradientTransform="matrix(.6095 0 0 -.6095 0 400.332)" gradientUnits="userSpaceOnUse"></linearGradient><linearGradient xlink:href="#a" id="e" x1="-61.378" x2="870.577" y1="347.986" y2="347.986" gradientTransform="matrix(.6095 0 0 -.6095 0 400.332)" gradientUnits="userSpaceOnUse"></linearGradient><linearGradient xlink:href="#a" id="f" x1="-61.378" x2="870.577" y1="263.984" y2="263.984" gradientTransform="matrix(.6095 0 0 -.6095 0 400.332)" gradientUnits="userSpaceOnUse"></linearGradient><path fill="url(#b)" d="M503.469.5H8.53A8.532 8.532 0 0 0 0 9.031v273.067a8.533 8.533 0 0 0 8.531 8.535h494.934a8.534 8.534 0 0 0 8.535-8.535V9.035A8.533 8.533 0 0 0 503.469.5zm-8.535 273.066H17.066v-256h477.868zm0 0" opacity="1" data-original="url(#b)"></path><path fill="url(#b)" d="M59.734 247.965h153.598a8.533 8.533 0 0 0 8.535-8.531V51.699c0-4.71-3.82-8.531-8.535-8.531H59.734a8.533 8.533 0 0 0-8.535 8.531v187.735c0 4.71 3.82 8.53 8.535 8.53zm110.934-17.067h-68.27v-34.132c0-18.852 15.286-34.133 34.137-34.133 18.852 0 34.133 15.281 34.133 34.133zm-59.734-110.933c0-14.137 11.46-25.598 25.597-25.598 14.14 0 25.602 11.461 25.602 25.598 0 14.14-11.461 25.601-25.602 25.601-14.136 0-25.597-11.46-25.597-25.601zm-42.668-59.73H204.8v170.663h-17.067v-34.132a51.14 51.14 0 0 0-24.636-43.68c18.441-14.672 21.496-41.516 6.824-59.953-14.672-18.442-41.512-21.496-59.953-6.824-18.442 14.668-21.496 41.511-6.824 59.953a43.037 43.037 0 0 0 6.824 6.824 51.14 51.14 0 0 0-24.637 43.68v34.132H68.266zm0 0" opacity="1" data-original="url(#b)"></path><path fill="url(#c)" d="M256 43.168h153.602v17.066H256zm0 0" opacity="1" data-original="url(#c)"></path><path fill="url(#d)" d="M256 111.434h196.266V128.5H256zm0 0" opacity="1" data-original="url(#d)"></path><path fill="url(#e)" d="M256 179.7h196.266v17.066H256zm0 0" opacity="1" data-original="url(#e)"></path><g fill="url(#f)"><path d="M256 230.898h17.066v17.067H256zM298.668 230.898h17.066v17.067h-17.066zM341.332 230.898h17.066v17.067h-17.066zm0 0" fill="" opacity="1"></path></g></g></svg>