<svg xmlns="http://www.w3.org/2000/svg" version="1.1" xmlns:xlink="http://www.w3.org/1999/xlink" width="512" height="512" x="0" y="0" viewBox="0 0 512 512" style="enable-background:new 0 0 512 512" xml:space="preserve"><rect width="512" height="512" rx="102.4" ry="102.4" fill="#bac8d3" shape="rounded"></rect><g transform="matrix(0.5900000000000001,0,0,0.5900000000000001,104.95999999999998,104.96061881661413)"><defs><linearGradient id="a" x1="255.999" x2="256" y1="511.312" y2=".692" gradientUnits="userSpaceOnUse"><stop offset="0" stop-color="#6c54a3"></stop><stop offset="1" stop-color="#00b1d2"></stop></linearGradient></defs><path d="M322.789 334.829H189.21a25.84 25.84 0 0 0-24.57 33.822l10.02 30.849a25.452 25.452 0 0 0 24.57 17.853h113.539a25.455 25.455 0 0 0 24.57-17.853l10.02-30.849a25.84 25.84 0 0 0-24.57-33.822Zm54.222 66.842a7.183 7.183 0 0 1-7.171-7.172v-18.016a7.174 7.174 0 0 1 7.171-7.172h21.716v32.36Zm37.719 0v-32.36h22.47v32.36ZM403 445H109a34.249 34.249 0 0 1-33.5-27.33h59.491a23.2 23.2 0 0 0 23.174-23.17v-18.017a23.2 23.2 0 0 0-23.174-23.174H74.8V103A34.245 34.245 0 0 1 109 68.8h294a34.246 34.246 0 0 1 34.2 34.2v250.309h-60.189a23.2 23.2 0 0 0-23.174 23.174V394.5a23.2 23.2 0 0 0 23.174 23.17H436.5A34.241 34.241 0 0 1 403 445ZM97.27 401.671v-32.36H74.8v32.36Zm37.718-32.36h-21.72v32.36h21.72a7.186 7.186 0 0 0 7.171-7.172v-18.016a7.177 7.177 0 0 0-7.171-7.172Zm364.3-260.289A12.724 12.724 0 0 1 512 121.731v92.851a12.735 12.735 0 0 1-12.71 12.719h-25.461a12.732 12.732 0 0 1-12.709-12.719V125.02h-7.92V410.8A50.258 50.258 0 0 1 403 461h-.5v26.491a23.839 23.839 0 0 1-23.811 23.82h-23.941a23.835 23.835 0 0 1-23.806-23.82V461H181.057v26.491a23.835 23.835 0 0 1-23.8 23.82h-23.948a23.839 23.839 0 0 1-23.811-23.82V461H109a50.257 50.257 0 0 1-50.2-50.2V125.02h-7.92v89.562A12.733 12.733 0 0 1 38.17 227.3H12.708A12.735 12.735 0 0 1 0 214.582v-92.851a12.724 12.724 0 0 1 12.71-12.709H58.8V103A50.255 50.255 0 0 1 109 52.8h3.5V25.13A24.467 24.467 0 0 1 136.937.692h238.12A24.468 24.468 0 0 1 399.5 25.13V52.8h3.5a50.256 50.256 0 0 1 50.2 50.2v6.02ZM411 282.952v-150.8a25.879 25.879 0 0 0-25.839-25.844h-258.32A25.879 25.879 0 0 0 101 132.153v150.8a25.878 25.878 0 0 0 25.84 25.839h258.319A25.878 25.878 0 0 0 411 282.952Zm-123.811 101.14h-62.378a8 8 0 1 1 0-16h62.378a8 8 0 0 1 0 16Z" class="cls-1" style="fill-rule:evenodd;fill:url(#a)" fill=""></path></g></svg>