<svg xmlns="http://www.w3.org/2000/svg" version="1.1" xmlns:xlink="http://www.w3.org/1999/xlink" width="512" height="512" x="0" y="0" viewBox="0 0 120 120" style="enable-background:new 0 0 512 512" xml:space="preserve" class=""><rect width="120" height="120" rx="24" ry="24" fill="#bac8d3" shape="rounded"></rect><g transform="matrix(0.6399999999999998,0,0,0.6399999999999998,21.600000000000016,21.600181274414084)"><linearGradient id="a" x1="60" x2="60" y1="10" y2="110" gradientUnits="userSpaceOnUse"><stop offset="0" stop-color="#002a7c"></stop><stop offset="1" stop-color="#527fd5"></stop></linearGradient><g fill="url(#a)"><path fill-rule="evenodd" d="M110 20.5c0-5.799-4.701-10.5-10.5-10.5a10.498 10.498 0 0 0-9.235 5.5H49c-2.083 0-4.685.957-6.156 2.427-2.515 2.513-3.399 7.86-.49 16.071 2.798 7.904 8.735 17.15 17.279 25.687.316.316.634.629.952.938l1.493-1.438c.107-.068.208-.148.303-.238L93.576 29.17A10.451 10.451 0 0 0 100 30.988v24.785c-2.548-5.356-6.35-11.107-11.265-16.707L63.52 63.35c7.404 6.58 15.099 11.222 21.823 13.599 8.219 2.905 13.57 2.023 16.086-.49C103.218 74.67 104 71.46 104 69V29.99c3.547-1.686 6-5.301 6-9.49zM83.332 33.418c-6.44-6.186-13.22-10.899-19.48-13.918h25.195c-.031.33-.047.663-.047 1 0 2.155.65 4.158 1.763 5.825z" clip-rule="evenodd" fill="" opacity="1"></path><path d="M56.803 62.512c-8.62-8.613-20.226-23.067-20.226-36.333-8.496 15.148-5.993 35.274 7.647 48.901 13.639 13.627 33.783 16.128 48.945 7.64-10.229-.619-24.131-7.984-36.366-20.208zM35.295 70.442a47.602 47.602 0 0 0 6.099 7.465A47.36 47.36 0 0 0 52.21 86.01 11.474 11.474 0 0 1 43.5 90C37.149 90 32 84.851 32 78.5c0-3.138 1.257-5.983 3.295-8.058z" fill="" opacity="1"></path><path d="M74 108.312a25.223 25.223 0 0 0-6.752-17.211 45.97 45.97 0 0 1-11.354-3.291A15.477 15.477 0 0 1 43.5 94c-6.695 0-12.399-4.245-14.566-10.19C18.042 86.639 10 96.537 10 108.313c0 .932.755 1.688 1.688 1.688h60.624c.933 0 1.688-.756 1.688-1.688z" fill="" opacity="1"></path></g></g></svg>