<svg xmlns="http://www.w3.org/2000/svg" version="1.1" xmlns:xlink="http://www.w3.org/1999/xlink" width="512" height="512" x="0" y="0" viewBox="0 0 64 64" style="enable-background:new 0 0 512 512" xml:space="preserve" class=""><rect width="64" height="64" rx="12.8" ry="12.8" fill="#bac8d3" shape="rounded"></rect><g transform="matrix(0.6199999999999999,0,0,0.6199999999999999,12.160000000000004,12.160000000000004)"><defs><linearGradient id="a" x1="4" x2="60" y1="32" y2="32" gradientUnits="userSpaceOnUse"><stop offset="0" stop-color="#9cffac"></stop><stop offset="1" stop-color="#00b59c"></stop></linearGradient></defs><path d="M8.5 53.5H22V15H5a1 1 0 0 0 0 2h3.5Zm4.5-35a1.003 1.003 0 0 1 1-1h4.5a1.003 1.003 0 0 1 1 1V23a1.003 1.003 0 0 1-1 1H14a1.003 1.003 0 0 1-1-1Zm0 9a1.003 1.003 0 0 1 1-1h4.5a1.003 1.003 0 0 1 1 1V32a1.003 1.003 0 0 1-1 1H14a1.003 1.003 0 0 1-1-1Zm0 9a1.003 1.003 0 0 1 1-1h4.5a1.003 1.003 0 0 1 1 1V41a1.003 1.003 0 0 1-1 1H14a1.003 1.003 0 0 1-1-1Zm-.25 9a1.003 1.003 0 0 1 1-1h4.5a1.003 1.003 0 0 1 1 1V50a1.003 1.003 0 0 1-1 1h-4.5a1.003 1.003 0 0 1-1-1ZM17.5 22H15v-2.5h2.5Zm0 9H15v-2.5h2.5Zm0 9H15v-2.5h2.5Zm29-20.5H49V22h-2.5Zm0 9H49V31h-2.5Zm0 9H49V40h-2.5Zm0 9H49V49h-2.5ZM17.25 49h-2.5v-2.5h2.5ZM33 53.5v-8h3.67v8Zm-5.67 0v-8H31v8ZM59 15H42v38.5h13.5V17H59a1 1 0 0 0 0-2Zm-8 35a1.003 1.003 0 0 1-1 1h-4.5a1.003 1.003 0 0 1-1-1v-4.5a1.003 1.003 0 0 1 1-1H50a1.003 1.003 0 0 1 1 1Zm0-9a1.003 1.003 0 0 1-1 1h-4.5a1.003 1.003 0 0 1-1-1v-4.5a1.003 1.003 0 0 1 1-1H50a1.003 1.003 0 0 1 1 1Zm0-9a1.003 1.003 0 0 1-1 1h-4.5a1.003 1.003 0 0 1-1-1v-4.5a1.003 1.003 0 0 1 1-1H50a1.003 1.003 0 0 1 1 1Zm0-9a1.003 1.003 0 0 1-1 1h-4.5a1.003 1.003 0 0 1-1-1v-4.5a1.003 1.003 0 0 1 1-1H50a1.003 1.003 0 0 1 1 1Zm5.57 32.5a3.255 3.255 0 0 1-3 4.5H10.43a3.255 3.255 0 0 1-3-4.5h49.14ZM20 6h4v47.5h1.33v-9a1.003 1.003 0 0 1 1-1h11.34a1.003 1.003 0 0 1 1 1v9H40V6h4a1 1 0 0 0 0-2H20a1 1 0 0 0 0 2Zm13 4.5h2.5V13H33Zm0 9h2.5V22H33Zm0 9h2.5V31H33Zm0 9h2.5V40H33Zm-4.5-27H31V13h-2.5Zm0 9H31V22h-2.5Zm0 9H31V31h-2.5Zm0 9H31V40h-2.5Z" class="cls-1" style="fill:url(#a)" fill=""></path></g></svg>