<svg xmlns="http://www.w3.org/2000/svg" version="1.1" xmlns:xlink="http://www.w3.org/1999/xlink" width="512" height="512" x="0" y="0" viewBox="0 0 100 100" style="enable-background:new 0 0 512 512" xml:space="preserve"><rect width="100" height="100" rx="20" ry="20" fill="#bac8d3" shape="rounded"></rect><g transform="matrix(0.6399999999999999,0,0,0.6399999999999999,18.000071411132822,17.999999313354497)"><linearGradient id="a"><stop offset="0" stop-color="#97e0ff"></stop><stop offset="1" stop-color="#1075ff"></stop></linearGradient><linearGradient xlink:href="#a" id="b" x1="7.395" x2="99.411" y1="-11.645" y2="89.195" gradientUnits="userSpaceOnUse"></linearGradient><linearGradient xlink:href="#a" id="c" x1="-10.763" x2="81.254" y1="4.924" y2="105.764" gradientUnits="userSpaceOnUse"></linearGradient><path fill="url(#b)" d="M50.1 11.718c-26.255 0-47.6 9.72-47.6 21.745 0 2.205.701 6.113 2.004 9.32 1.002 2.405 3.407 3.908 6.013 3.608l14.83-1.704c3.107-.4 5.312-3.107 5.011-6.113-.2-3.207-.4-5.31-.4-5.912 0-5.11 9.018-7.516 20.041-7.516s20.042 2.405 20.042 7.516c0 .601-.1 2.806-.4 5.912-.201 3.107 2.004 5.812 5.01 6.113l14.83 1.704c2.606.3 5.011-1.203 6.013-3.608 1.303-3.207 2.005-7.215 2.005-9.32.2-12.025-21.145-21.745-47.4-21.745z" opacity="1" data-original="url(#b)"></path><path fill="url(#c)" d="m86.68 53.902-1.11-2-11.42-1.3c-6.31-.7-10.82-6.22-10.32-12.53.2-2.2.3-3.81.3-4.71-1.4-.9-6.01-2.3-14.03-2.3s-12.63 1.4-14.03 2.3c.1.9.2 2.51.3 4.71.5 6.31-4.01 11.83-10.32 12.53l-11.42 1.3-1.11 2c-3.5 6.42-5.41 13.53-5.41 20.75v7.02c0 3.61 3.01 6.61 6.62 6.61h70.64c3.61 0 6.62-3 6.62-6.61v-7.02c0-7.22-1.81-14.43-5.31-20.75zM50.1 80.262c-8.02 0-14.63-6.51-14.63-14.63 0-8.02 6.51-14.63 14.63-14.63 8.02 0 14.63 6.51 14.63 14.63s-6.61 14.63-14.63 14.63z" opacity="1" data-original="url(#c)"></path></g></svg>