<svg xmlns="http://www.w3.org/2000/svg" version="1.1" xmlns:xlink="http://www.w3.org/1999/xlink" width="512" height="512" x="0" y="0" viewBox="0 0 100 100" style="enable-background:new 0 0 512 512" xml:space="preserve"><rect width="100" height="100" rx="20" ry="20" fill="#bac8d3" shape="rounded"></rect><g transform="matrix(0.5900000000000001,0,0,0.5900000000000001,20.499999999999993,20.50040860176086)"><linearGradient id="a"><stop offset="0" stop-color="#92caff"></stop><stop offset="1" stop-color="#3d59a8"></stop></linearGradient><linearGradient xlink:href="#a" id="b" x1="-14.974" x2="78.173" y1="18.112" y2="111.595" gradientUnits="userSpaceOnUse"></linearGradient><linearGradient xlink:href="#a" id="c" x1="-4.194" x2="88.952" y1="7.371" y2="100.854" gradientUnits="userSpaceOnUse"></linearGradient><linearGradient xlink:href="#a" id="d" x1=".275" x2="93.421" y1="2.918" y2="96.401" gradientUnits="userSpaceOnUse"></linearGradient><linearGradient xlink:href="#a" id="e" x1="10.082" x2="103.228" y1="-6.853" y2="86.63" gradientUnits="userSpaceOnUse"></linearGradient><linearGradient xlink:href="#a" id="f" x1="-4.196" x2="88.95" y1="7.373" y2="100.856" gradientUnits="userSpaceOnUse"></linearGradient><path fill="url(#b)" d="M51.18 49.092c-2.523-4.565-5.908-8.463-9.763-11.193H16.74C8.331 43.839 2.5 55.097 2.5 65.471c0 10.362 6.071 16.204 18.552 17.82V54.978a5.895 5.895 0 0 1 5.886-5.885h24.241z" opacity="1" data-original="url(#b)"></path><path fill="url(#c)" d="M94.89 52.37H26.94c-1.44 0-2.61 1.17-2.61 2.61v35.47c0 1.44 1.17 2.61 2.61 2.61h67.95c1.44 0 2.61-1.17 2.61-2.61V54.98c0-1.44-1.17-2.61-2.61-2.61zm-2.61 27.32c0 .9-.73 1.64-1.64 1.64-2.68 0-4.88 2.18-4.88 4.87 0 .9-.73 1.64-1.64 1.64H37.7c-.9 0-1.63-.74-1.63-1.64 0-2.69-2.2-4.87-4.88-4.87-.91 0-1.64-.74-1.64-1.64V65.74c0-.91.73-1.64 1.64-1.64 2.68 0 4.88-2.19 4.88-4.87 0-.91.73-1.64 1.63-1.64h46.42c.91 0 1.64.73 1.64 1.64 0 2.68 2.2 4.87 4.88 4.87.91 0 1.64.73 1.64 1.64v13.95z" opacity="1" data-original="url(#c)"></path><path fill="url(#d)" d="M15.221 34.623h27.714a2.8 2.8 0 0 0 0-5.602H15.221a2.812 2.812 0 0 0-2.806 2.807 2.81 2.81 0 0 0 2.806 2.795z" opacity="1" data-original="url(#d)"></path><path fill="url(#e)" d="m36.634 25.746 8.234-18.804h-5.176l-4.018 6.956c-.262.448-.721.742-1.245.808a1.658 1.658 0 0 1-1.387-.524l-6.628-7.24H13.289l8.233 18.804h15.112z" opacity="1" data-original="url(#e)"></path><path fill="url(#f)" d="M82.66 60.86H39.17a8.17 8.17 0 0 1-6.35 6.35v11.01c3.19.64 5.7 3.16 6.35 6.34h43.49c.64-3.18 3.17-5.7 6.34-6.34V67.21c-3.17-.65-5.7-3.17-6.34-6.35zM60.92 79.59c-3.8 0-6.88-3.09-6.88-6.88s3.08-6.88 6.88-6.88c3.79 0 6.87 3.09 6.87 6.88s-3.08 6.88-6.87 6.88z" opacity="1" data-original="url(#f)"></path></g></svg>