<svg xmlns="http://www.w3.org/2000/svg" version="1.1" xmlns:xlink="http://www.w3.org/1999/xlink" width="512" height="512" x="0" y="0" viewBox="0 0 512 512" style="enable-background:new 0 0 512 512" xml:space="preserve" class=""><rect width="512" height="512" rx="102.4" ry="102.4" fill="#bac8d3" shape="rounded"></rect><g transform="matrix(0.6399999999999998,0,0,0.6399999999999998,92.159997253418,77.15986267089849)"><linearGradient id="a"><stop offset="0" stop-color="#ff6aea"></stop><stop offset=".946" stop-color="#54b5ff"></stop></linearGradient><linearGradient xlink:href="#a" id="b" x1="256" x2="256" y1="9" y2="515.036" gradientUnits="userSpaceOnUse"></linearGradient><linearGradient xlink:href="#a" id="c" x1="256" x2="256" y1="9" y2="515.034" gradientUnits="userSpaceOnUse"></linearGradient><linearGradient xlink:href="#a" id="d" x1="99.514" x2="99.514" y1="9" y2="515.036" gradientUnits="userSpaceOnUse"></linearGradient><linearGradient xlink:href="#a" id="e" x1="412.484" x2="412.484" y1="9" y2="515.036" gradientUnits="userSpaceOnUse"></linearGradient><path fill="url(#b)" d="M203.628 241.68c-5.687 0-10.292-4.604-10.292-10.287 0-5.684 4.605-10.292 10.292-10.292 34.913-.029 69.826-.077 104.74-.077 5.705 0 10.332 4.623 10.332 10.328s-4.627 10.328-10.332 10.328h-21.123c5.079 7.427 8.27 16.315 9.563 25.723h11.56c5.705 0 10.332 4.627 10.332 10.332s-4.627 10.328-10.332 10.328h-11.673c-3.574 23.861-18.873 44.562-45.1 45.644-.135.007-.27.007-.405.007l-18.942.033 58.709 72.952c3.563 4.437 2.861 10.92-1.574 14.487-4.434 3.563-10.921 2.861-14.484-1.575l-71.765-89.172c-6.377-7.382-.844-17.353 7.576-17.353l40.48.021c14.162-.818 21.849-12.184 24.541-25.045h-72.104c-5.705 0-10.328-4.623-10.328-10.328s4.623-10.332 10.328-10.332h72.349c-2.784-14.221-11.976-25.686-28.693-25.723-14.55.001-29.106-.012-43.655.001z" opacity="1" data-original="url(#b)"></path><path fill="url(#c)" d="M458.09 222.622a19.02 19.02 0 0 1-13.494-5.592 19.017 19.017 0 0 1-5.595-13.493 5.39 5.39 0 0 0-5.388-5.392H78.387a5.39 5.39 0 0 0-5.392 5.392c0 5.267-2.138 10.04-5.592 13.493a19.031 19.031 0 0 1-13.493 5.592 5.39 5.39 0 0 0-5.39 5.391v188.459a5.393 5.393 0 0 0 5.39 5.391c5.267 0 10.04 2.138 13.493 5.588a19.042 19.042 0 0 1 5.592 13.497 5.39 5.39 0 0 0 5.392 5.391h355.227a5.388 5.388 0 0 0 5.388-5.391c0-5.267 2.138-10.04 5.595-13.497a19.03 19.03 0 0 1 13.494-5.588 5.393 5.393 0 0 0 5.39-5.391v-188.46a5.393 5.393 0 0 0-5.391-5.39zm-5.392 188.948a29.798 29.798 0 0 0-15.726 8.261 29.834 29.834 0 0 0-8.264 15.729H83.287a29.768 29.768 0 0 0-8.264-15.729 29.79 29.79 0 0 0-15.726-8.261V232.913a29.785 29.785 0 0 0 15.726-8.26 29.79 29.79 0 0 0 8.264-15.729h345.422a29.835 29.835 0 0 0 8.264 15.729 29.814 29.814 0 0 0 15.726 8.26V411.57z" opacity="1" data-original="url(#c)"></path><path fill="url(#b)" d="M474.459 187.167a23.78 23.78 0 0 0-12.064-6.505l-20.524-76.599-.012-.033c-1.695-6.323-5.814-11.378-11.092-14.422l-.004.012-.018-.012c-5.263-3.037-11.674-4.09-17.963-2.42l-.059.016-67.123 17.984-26.072-45.154a5.128 5.128 0 0 0-.56-.953 23.715 23.715 0 0 0-14.137-10.566 23.7 23.7 0 0 0-17.517 2.08 5.074 5.074 0 0 0-.961.548L62.851 180.183h-8.498c-6.549 0-12.503 2.675-16.812 6.983-4.309 4.31-6.984 10.264-6.984 16.813v236.525c0 6.55 2.676 12.5 6.984 16.812 4.309 4.31 10.263 6.984 16.812 6.984h403.291c6.553 0 12.503-2.675 16.815-6.984 4.309-4.312 6.984-10.262 6.984-16.812V203.979c0-6.549-2.675-12.503-6.984-16.812zm-59.254-89.486c.187-.036.369-.084.548-.143a13.023 13.023 0 0 1 9.63 1.363l-.004.011c2.826 1.634 5.051 4.313 6.016 7.657.041.183.089.358.143.533l19.583 73.08h-7.456l-12.938-48.29a5.384 5.384 0 0 0-6.59-3.813 19.054 19.054 0 0 1-14.49-1.889l.003-.008a19.056 19.056 0 0 1-8.898-11.6 5.385 5.385 0 0 0-6.59-3.809L135.134 180.18h-27.819zm17.319 82.502H176.72l215.493-57.741a29.789 29.789 0 0 0 12.046 13.043l.008-.006.015.006a29.816 29.816 0 0 0 17.315 3.918zm-265.08-27.257 108.658-62.733c4.006 4.733 9.291 7.978 15.021 9.513s11.921 1.371 17.751-.72l8.021 13.896zM292.15 60.184l.025-.015c3.085-1.772 6.641-2.124 9.876-1.257 3.241.865 6.144 2.949 7.923 6.029l.021.037 24.874 43.085-7.222 1.938-11.914-20.635a5.38 5.38 0 0 0-7.346-1.956c-4.554 2.633-9.762 3.162-14.487 1.898-4.733-1.27-8.977-4.328-11.601-8.879a5.365 5.365 0 0 0-7.323-1.977l-147.582 85.202-26.997 7.236zm178.515 380.32c0 3.574-1.47 6.827-3.83 9.191-2.361 2.361-5.617 3.827-9.191 3.827H54.353c-3.574 0-6.83-1.466-9.191-3.827-2.361-2.364-3.827-5.617-3.827-9.191V203.979c0-3.574 1.466-6.831 3.827-9.191 2.361-2.361 5.617-3.827 9.191-3.827h403.291c3.574 0 6.83 1.466 9.191 3.827 2.36 2.36 3.83 5.617 3.83 9.191z" opacity="1" data-original="url(#b)"></path><g fill-rule="evenodd" clip-rule="evenodd"><circle cx="99.514" cy="322.242" r="15.825" fill="url(#d)" opacity="1" data-original="url(#d)"></circle><circle cx="412.486" cy="322.242" r="15.825" fill="url(#e)" opacity="1" data-original="url(#e)"></circle></g></g></svg>