<svg xmlns="http://www.w3.org/2000/svg" version="1.1" xmlns:xlink="http://www.w3.org/1999/xlink" width="512" height="512" x="0" y="0" viewBox="0 0 512 512" style="enable-background:new 0 0 512 512" xml:space="preserve"><rect width="512" height="512" rx="102.4" ry="102.4" fill="#bac8d3" shape="rounded"></rect><g transform="matrix(0.6,0,0,0.6,102.39959716796875,97.40000610351564)"><linearGradient id="a"><stop offset="0" stop-color="#00ffed"></stop><stop offset=".99" stop-color="#9d00c6"></stop></linearGradient><linearGradient xlink:href="#a" id="b" x1="416.331" x2="416.331" y1="505.788" y2="1.515" gradientUnits="userSpaceOnUse"></linearGradient><linearGradient xlink:href="#a" id="c" x1="199" x2="199" y1="505.788" y2="1.515" gradientUnits="userSpaceOnUse"></linearGradient><path fill="url(#b)" d="M471.301 363.152c-14.059-13.891-33.492-22.485-54.969-22.485-21.479 0-40.916 8.594-54.971 22.485-14.021 13.851-22.697 33.011-22.697 54.182 0 21.167 8.676 40.323 22.697 54.178 14.055 13.892 33.492 22.485 54.971 22.485 21.477 0 40.914-8.593 54.969-22.485 14.021-13.855 22.697-33.011 22.697-54.178 0-21.171-8.676-40.332-22.697-54.182zm-1.059 29.711-55.752 58.561a6.988 6.988 0 0 1-9.672.431l-.008.008-41.955-36.938c-2.898-2.547-3.178-6.97-.627-9.872a6.991 6.991 0 0 1 9.867-.626l36.918 32.499 51.109-53.69a6.984 6.984 0 0 1 9.871-.244 6.98 6.98 0 0 1 .249 9.871z" opacity="1" data-original="url(#b)"></path><path fill="url(#c)" d="M351.572 353.199a91.848 91.848 0 0 1 27.176-18.571c.219-2.515.615-5.037.746-7.576.191-3.695.506-7.682.506-11.971V196.919c0-85.92-46.961-140.863-106.787-164.858-23.369-9.371-48.88-14.058-74.317-14.058-25.444 0-50.901 4.687-74.271 14.058C64.799 56.056 18 110.999 18 196.919v118.162c0 55.859 19.668 98.566 49.806 128.164 17.191 16.886 37.825 29.561 60.181 38.021 22.416 8.488 46.594 12.731 70.801 12.731 47.83 0 95.6-16.597 129.982-49.792a89.583 89.583 0 0 1-4.102-26.872c0-25.031 10.281-47.711 26.904-64.134zM61.508 302.346c.631 5.655 1.266 11.319 1.953 18.159a6.975 6.975 0 0 1-6.262 7.629c-3.834.375-7.252-2.425-7.625-6.262-.525-5.2-1.242-11.604-1.953-17.993-3.166-28.292-6.313-56.424-2.414-83.198 6.857-47.119 25.725-82.56 51.037-106.387 20.887-19.661 46.121-31.388 72.627-35.229 26.404-3.825 54.057.204 79.891 12.024 33.426 15.291 63.771 43.611 84.305 84.801 19.57 39.249 19.877 81.953 20.166 123.224.092 12.98.182 25.817.918 38.565a6.984 6.984 0 0 1-6.586 7.357 6.984 6.984 0 0 1-7.354-6.592c-.732-12.646-.826-25.891-.924-39.278-.277-39.611-.566-80.594-18.742-117.043-19.033-38.183-46.943-64.33-77.578-78.348-23.348-10.681-48.314-14.327-72.131-10.872-23.709 3.434-46.305 13.936-65.025 31.563-23.119 21.769-40.404 54.451-46.77 98.184-3.645 25.041-.598 52.295 2.467 79.696zm124.51 52.546c-3.943 21.5-7.82 42.671-9.162 63.418a6.99 6.99 0 0 1-7.41 6.539 6.983 6.983 0 0 1-6.535-7.41c1.387-21.456 5.355-43.09 9.379-65.063 5.998-32.714 12.133-66.202 9.691-100.235-.271-3.849 2.629-7.194 6.479-7.462a6.99 6.99 0 0 1 7.467 6.478c2.557 35.694-3.749 70.109-9.909 103.735zm35.757-40.067c-2.506 11.604-4.988 23.091-6.197 33.955-1.229 11.047-1.846 22.412-1.387 34.146.459 11.764 1.986 23.966 5.033 36.694a6.966 6.966 0 0 1-5.168 8.39 6.975 6.975 0 0 1-8.395-5.167c-3.283-13.705-4.922-26.794-5.416-39.367-.492-12.602.152-24.63 1.441-36.226 1.303-11.723 3.85-23.49 6.416-35.375 5.021-23.242 10.152-46.976 5.424-68.725-1.334-6.128-3.414-11.93-6.404-16.642-2.412-3.8-5.42-6.876-9.09-8.765a19.671 19.671 0 0 0-4.525-1.676c-4.707-1.083-9.414-.13-13.564 2.262-4.465 2.572-8.334 6.787-11.012 11.995a34.097 34.097 0 0 0-2.84 7.699c-.023.122-.049.24-.08.362-2.939 11.608-2.531 26.224-2.137 40.441.072 2.75.15 5.46.207 8.512.432 22.746-1.037 46.866-4.553 69.758-3.275 21.33-8.354 41.772-15.354 59.305a6.972 6.972 0 0 1-12.963-5.139c6.547-16.398 11.344-35.807 14.482-56.249 3.426-22.298 4.857-45.613 4.443-67.456-.045-2.506-.131-5.432-.209-8.345-.422-15.23-.857-30.875 2.52-44.217l.045-.155a48.166 48.166 0 0 1 4.023-10.921c3.883-7.536 9.668-13.753 16.48-17.676 7.119-4.101 15.307-5.708 23.627-3.792a33.413 33.413 0 0 1 7.805 2.881c6.059 3.108 10.828 7.894 14.502 13.68 3.93 6.193 6.607 13.55 8.268 21.183 5.369 24.692-.082 49.927-5.422 74.63zm57.832 104.873a6.984 6.984 0 0 1-9.379-3.088c-13.838-27.274-20.152-57.242-23.051-81.68-1.51 10.229-2.49 20.463-2.848 30.383-.822 22.758 1.6 43.77 8.354 59.159a6.976 6.976 0 0 1-3.609 9.184c-3.531 1.542-7.645-.078-9.188-3.609-7.633-17.391-10.393-40.51-9.502-65.225.977-27.055 6.309-56.172 14.365-81.729a6.919 6.919 0 0 1 2.539-3.556c3.344-2.669 6.488-2.319 9.436 1.042l.072.089.008-.008c.209.244.391.497.555.765a6.924 6.924 0 0 1 1.086 3.646c.166 1.481.176 3.255.184 5.437.084 17.154.361 73.099 24.066 119.814 1.739 3.44.352 7.639-3.088 9.376zm23.344-17.199a6.993 6.993 0 0 1-9.021-4.044c-13.211-34.533-16.633-76.749-19.4-110.883l-.178-2.218c-.961-11.865-3.041-23.531-6.357-34.765-3.174-10.758-7.461-21.118-12.959-30.867-10.428-18.481-25.443-31.461-41.621-38.419-11.99-5.151-24.592-6.966-36.369-5.229-11.584 1.713-22.402 6.889-31.045 15.735-9.68 9.912-16.76 24.479-19.369 44.018l-.023.159.023.004c-2.6 16.83-1.537 37.105-.586 55.387.184 3.458.363 6.84.529 10.632.172 3.813.33 7.861.484 12.012.139 3.755.277 7.755.41 11.804l.006.188c.324 12.377.248 24.658-.742 36.649-1.016 12.313-2.975 24.499-6.393 36.438a6.996 6.996 0 0 1-13.455-3.833c3.148-10.986 4.961-22.282 5.904-33.756.969-11.71 1.049-23.453.74-35.18l-.004-.065a2813.03 2813.03 0 0 0-.41-11.751c-.139-3.764-.299-7.694-.484-11.897-.135-3.056-.33-6.683-.525-10.459-.998-19.035-2.1-40.155.691-58.155h.02c3.064-23 11.537-39.939 23.174-51.853 10.908-11.165 24.508-17.728 39.033-19.872 14.33-2.12 29.549.022 43.912 6.195 18.795 8.081 36.201 23.086 48.238 44.424 6.074 10.771 10.777 22.094 14.221 33.76 3.609 12.235 5.867 24.852 6.896 37.607l.184 2.216c2.689 33.227 6.025 74.323 18.525 107a6.99 6.99 0 0 1-4.049 9.018zm13.428-28.251c-1.949-8.439-3.455-17.216-4.602-25.842-1.371-10.287-2.223-20.243-2.73-29.126-.488-8.561-.695-16.739-.887-24.511-.533-21.565-.994-39.949-8.313-63.602-4.408-14.245-9.873-27.791-16.973-40.042-6.986-12.052-15.588-22.868-26.383-31.88l.008-.008-.09-.073c-17.004-14.677-35.416-23.026-53.563-25.752-15.512-2.328-30.836-.562-44.906 4.858-14.123 5.437-27.07 14.575-37.768 26.969-13.932 16.142-24.027 37.825-27.975 64.094-3.641 24.284-1.057 50.41 1.539 76.586 2.246 22.685 4.496 45.414 2.9 67.504a6.987 6.987 0 0 1-7.463 6.482 6.987 6.987 0 0 1-6.48-7.466c1.521-21.049-.668-43.123-2.85-65.152-2.686-27.107-5.361-54.158-1.48-80.028 4.35-28.967 15.633-53.055 31.254-71.15 12.195-14.123 27.051-24.584 43.346-30.859 16.35-6.291 34.082-8.357 51.961-5.672 20.605 3.092 41.418 12.483 60.529 28.958l.006-.004c12.107 10.107 21.723 22.176 29.5 35.595 7.664 13.22 13.523 27.734 18.232 42.939 7.869 25.427 8.35 44.734 8.91 67.37.184 7.405.379 15.189.887 24.08.498 8.65 1.314 18.277 2.621 28.084 1.078 8.101 2.506 16.414 4.383 24.527a6.989 6.989 0 0 1-5.25 8.37 6.984 6.984 0 0 1-8.363-5.249z" opacity="1" data-original="url(#c)"></path></g></svg>