<svg xmlns="http://www.w3.org/2000/svg" version="1.1" xmlns:xlink="http://www.w3.org/1999/xlink" width="512" height="512" x="0" y="0" viewBox="0 0 100 100" style="enable-background:new 0 0 512 512" xml:space="preserve"><rect width="100" height="100" rx="20" ry="20" fill="#bac8d3" shape="rounded"></rect><g transform="matrix(0.69,0,0,0.69,15.500072727203374,15.500088691711426)"><linearGradient id="a"><stop offset="0" stop-color="#97e0ff"></stop><stop offset="1" stop-color="#1075ff"></stop></linearGradient><linearGradient xlink:href="#a" id="b" x1="-18.62" x2="73.397" y1="12.093" y2="112.934" gradientUnits="userSpaceOnUse"></linearGradient><linearGradient xlink:href="#a" id="c" x1="5.746" x2="97.763" y1="-10.141" y2="90.7" gradientUnits="userSpaceOnUse"></linearGradient><path fill="url(#b)" d="M35.908 90.253c0 1.175.49 2.252 1.37 3.036l4.016 3.33a3.761 3.761 0 0 0 2.449.881h12.535c.882 0 1.763-.294 2.448-.881l4.016-3.33a4.016 4.016 0 0 0 1.37-3.036v-6.3a3.004 3.004 0 0 0-3.003-3.004H38.797a3.004 3.004 0 0 0-3.003 3.084z" opacity="1" data-original="url(#b)"></path><path fill="url(#c)" d="M46.289 2.7C31.207 4.365 18.965 16.41 17.104 31.492 15.635 44.713 21.707 56.563 31.6 63.223c2.644 1.763 4.21 4.603 4.21 7.737v2.677a3.004 3.004 0 0 0 3.004 3.003h22.394a3.004 3.004 0 0 0 3.004-3.003v-2.58c0-3.035 1.469-5.973 4.015-7.736 9.01-5.974 14.886-16.16 14.886-27.715C83.308 16.116 66.365.546 46.29 2.7zm17.644 33.365L43.947 54.917c-1.761 1.653-4.477-.198-3.6-2.398l5.311-13.485-8.087-1.42c-1.808-.318-2.487-2.596-1.19-3.839l19.986-18.853c1.762-1.652 4.477.198 3.6 2.398l-5.31 13.486 8.087 1.42c1.808.318 2.503 2.5 1.19 3.839z" opacity="1" data-original="url(#c)"></path></g></svg>