<svg xmlns="http://www.w3.org/2000/svg" version="1.1" xmlns:xlink="http://www.w3.org/1999/xlink" width="512" height="512" x="0" y="0" viewBox="0 0 90 90" style="enable-background:new 0 0 512 512" xml:space="preserve" class=""><rect width="90" height="90" rx="18" ry="18" fill="#bac8d3" shape="rounded"></rect><g transform="matrix(0.65,0,0,0.65,15.750000000000004,14.830622816085818)"><linearGradient id="a"><stop offset="0" stop-color="#de42f4"></stop><stop offset="1" stop-color="#58ccf4"></stop></linearGradient><linearGradient xlink:href="#a" id="b" x1="5" x2="85" y1="42.382" y2="42.382" gradientUnits="userSpaceOnUse"></linearGradient><linearGradient xlink:href="#a" id="c" x1="12" x2="61" y1="48" y2="48" gradientUnits="userSpaceOnUse"></linearGradient><linearGradient xlink:href="#a" id="d" x1="64" x2="78" y1="41" y2="41" gradientUnits="userSpaceOnUse"></linearGradient><linearGradient xlink:href="#a" id="e" x1="65" x2="77" y1="54" y2="54" gradientUnits="userSpaceOnUse"></linearGradient><linearGradient xlink:href="#a" id="f" x1="65" x2="77" y1="60" y2="60" gradientUnits="userSpaceOnUse"></linearGradient><path fill="url(#b)" d="M75 22H58v-1c0-2.757-2.243-5-5-5h-2.222l10.897-7.594a2 2 0 1 0-2.287-3.281L44.532 15.478 29.675 5.125a2 2 0 1 0-2.287 3.281L38.286 16H37c-2.757 0-5 2.243-5 5v1H15C9.486 22 5 26.486 5 32v32c0 5.514 4.486 10 10 10h3.313l-2.15 2.775a2 2 0 0 0 3.163 2.45L23.372 74h44.425l4.047 5.225a1.999 1.999 0 0 0 2.806.356 1.999 1.999 0 0 0 .356-2.806L72.857 74H75c5.514 0 10-4.486 10-10V32c0-5.514-4.486-10-10-10zm-39-1c0-.552.449-1 1-1h16c.551 0 1 .448 1 1v1H36zm45 43c0 3.309-2.691 6-6 6H15c-3.309 0-6-2.691-6-6V32c0-3.309 2.691-6 6-6h60c3.309 0 6 2.691 6 6z" opacity="1" data-original="url(#b)"></path><path fill="url(#c)" d="M58 29H15c-1.654 0-3 1.346-3 3v32c0 1.654 1.346 3 3 3h43c1.654 0 3-1.346 3-3V32c0-1.654-1.346-3-3-3zm-1 34H16V33h41z" opacity="1" data-original="url(#c)"></path><path fill="url(#d)" d="M71 34c-3.86 0-7 3.141-7 7s3.14 7 7 7 7-3.141 7-7-3.14-7-7-7zm0 10c-1.654 0-3-1.346-3-3s1.346-3 3-3 3 1.346 3 3-1.346 3-3 3z" opacity="1" data-original="url(#d)"></path><path fill="url(#e)" d="M75 52h-8a2 2 0 0 0 0 4h8a2 2 0 0 0 0-4z" opacity="1" data-original="url(#e)"></path><path fill="url(#f)" d="M75 58h-8a2 2 0 0 0 0 4h8a2 2 0 0 0 0-4z" opacity="1" data-original="url(#f)"></path><g fill="url(#b)"><path d="M75 22H58v-1c0-2.757-2.243-5-5-5h-2.222l10.897-7.594a2 2 0 1 0-2.287-3.281L44.532 15.478 29.675 5.125a2 2 0 1 0-2.287 3.281L38.286 16H37c-2.757 0-5 2.243-5 5v1H15C9.486 22 5 26.486 5 32v32c0 5.514 4.486 10 10 10h3.313l-2.15 2.775a2 2 0 0 0 3.163 2.45L23.372 74h44.425l4.047 5.225a1.999 1.999 0 0 0 2.806.356 1.999 1.999 0 0 0 .356-2.806L72.857 74H75c5.514 0 10-4.486 10-10V32c0-5.514-4.486-10-10-10zm-39-1c0-.552.449-1 1-1h16c.551 0 1 .448 1 1v1H36zm45 43c0 3.309-2.691 6-6 6H15c-3.309 0-6-2.691-6-6V32c0-3.309 2.691-6 6-6h60c3.309 0 6 2.691 6 6z" fill="" opacity="1"></path><path d="M58 29H15c-1.654 0-3 1.346-3 3v32c0 1.654 1.346 3 3 3h43c1.654 0 3-1.346 3-3V32c0-1.654-1.346-3-3-3zm-1 34H16V33h41zM71 34c-3.86 0-7 3.141-7 7s3.14 7 7 7 7-3.141 7-7-3.14-7-7-7zm0 10c-1.654 0-3-1.346-3-3s1.346-3 3-3 3 1.346 3 3-1.346 3-3 3zM75 52h-8a2 2 0 0 0 0 4h8a2 2 0 0 0 0-4zM75 58h-8a2 2 0 0 0 0 4h8a2 2 0 0 0 0-4z" fill="" opacity="1"></path></g></g></svg>