<svg xmlns="http://www.w3.org/2000/svg" version="1.1" xmlns:xlink="http://www.w3.org/1999/xlink" width="512" height="512" x="0" y="0" viewBox="0 0 64 64" style="enable-background:new 0 0 512 512" xml:space="preserve" fill-rule="evenodd"><rect width="64" height="64" rx="12.8" ry="12.8" fill="#bac8d3" shape="rounded"></rect><g transform="matrix(0.7,0,0,0.7,9.600000000000001,9.750001144409183)"><linearGradient id="a" x1="0" x2="64" y1="-37" y2="-37" gradientUnits="userSpaceOnUse"><stop offset="0" stop-color="#0487d9"></stop><stop offset="1" stop-color="#04d8d9"></stop></linearGradient><g fill="url(#a)"><path d="M34.069 32.877a3.001 3.001 0 0 0-4.243 0 3.002 3.002 0 0 0 0 4.242 3.003 3.003 0 0 0 4.243 0 3.002 3.002 0 0 0 0-4.242zm-1.415 1.414a1 1 0 1 1-1.414 1.413 1 1 0 0 1 1.414-1.413z" fill="" opacity="1"></path><path d="M36.897 30.048a7.002 7.002 0 0 0-9.899 0 1 1 0 0 0 1.414 1.414 5.003 5.003 0 0 1 7.071 0 .999.999 0 1 0 1.414-1.414z" fill="" opacity="1"></path><path d="M39.725 27.22c-4.292-4.293-11.263-4.293-15.555 0a.999.999 0 1 0 1.414 1.414c3.512-3.512 9.215-3.512 12.727 0a1 1 0 0 0 1.414-1.414zM26.018 51.045V57c0 .796.316 1.559.879 2.121A2.946 2.946 0 0 0 29 60a1 1 0 0 0 0-2 1.002 1.002 0 0 1-.982-1v-5H34a1 1 0 0 0 0-2h-6.105c-.135-.825-.405-2.103-.923-3.401-.617-1.544-1.586-3.096-3.028-4.039-4.125-2.698-6.926-7.27-6.926-12.56 0-3.017.893-5.827 2.428-8.181a1 1 0 1 0-1.674-1.093A16.916 16.916 0 0 0 15.018 30c0 5.992 3.159 11.178 7.831 14.234 1.099.718 1.796 1.931 2.265 3.107.695 1.74.879 3.44.904 3.704z" fill="" opacity="1"></path><path d="M36.018 51.005V57a.997.997 0 0 1-1 1H32a1 1 0 0 0 0 2h3.018a3 3 0 0 0 3-3v-5.997c0-.005-.15-4.517 3.206-6.712 4.671-3.055 7.794-8.3 7.794-14.291 0-9.383-7.617-17-17-17a16.918 16.918 0 0 0-9.908 3.188 1.001 1.001 0 0 0 1.167 1.624A14.924 14.924 0 0 1 32.018 15c8.279 0 15 6.721 15 15 0 5.291-2.763 9.919-6.888 12.617-4.108 2.686-4.119 7.924-4.112 8.388zM33.018 10V6a1 1 0 0 0-2 0v4a1 1 0 0 0 2 0zM42.882 13.189l2-3.464a1 1 0 0 0-1.732-1l-2 3.464a1 1 0 0 0 1.732 1zM49.83 20.882l3.464-2a1 1 0 0 0-1-1.732l-3.464 2a1 1 0 0 0 1 1.732zM52 31.018h4a1 1 0 0 0 0-2h-4a1 1 0 0 0 0 2zM48.811 40.882l3.464 2a1 1 0 0 0 1-1.732l-3.464-2a1 1 0 0 0-1 1.732zM14.17 39.118l-3.464 2a1 1 0 0 0 1 1.732l3.464-2a1 1 0 0 0-1-1.732zM12 28.982H8a1 1 0 0 0 0 2h4a1 1 0 0 0 0-2zM15.189 19.118l-3.464-2a1 1 0 0 0-1 1.732l3.464 2a1 1 0 0 0 1-1.732zM22.882 12.17l-2-3.464a1 1 0 0 0-1.732 1l2 3.464a1 1 0 0 0 1.732-1z" fill="" opacity="1"></path><circle cx="20.395" cy="19" r="1" fill="" opacity="1"></circle></g></g></svg>