<svg xmlns="http://www.w3.org/2000/svg" version="1.1" xmlns:xlink="http://www.w3.org/1999/xlink" width="512" height="512" x="0" y="0" viewBox="0 0 3873 3873" style="enable-background:new 0 0 512 512" xml:space="preserve" class=""><rect width="3873" height="3873" rx="774.6" ry="774.6" fill="#bac8d3" shape="rounded"></rect><g transform="matrix(0.7,0,0,0.7,586.4252014160156,580.9312866210939)"><linearGradient id="a"><stop offset="0" stop-color="#ee0979"></stop><stop offset="1" stop-color="#ff6a00"></stop></linearGradient><linearGradient xlink:href="#a" id="b" x1="948.875" x2="1581.325" y1="2656.325" y2="2023.875" gradientTransform="matrix(1 0 0 -1 0 3874)" gradientUnits="userSpaceOnUse"></linearGradient><linearGradient xlink:href="#a" id="c" x1="375.297" x2="3073.547" y1="3098.448" y2="400.198" gradientTransform="matrix(1 0 0 -1 0 3874)" gradientUnits="userSpaceOnUse"></linearGradient><linearGradient xlink:href="#a" id="d" x1="463.513" x2="806.325" y1="1652.188" y2="1309.375" gradientTransform="matrix(1 0 0 -1 0 3874)" gradientUnits="userSpaceOnUse"></linearGradient><path fill="url(#b)" d="M960.2 1836.4H1570c33.4 0 60.5-27.1 60.5-60.5v-484c0-33.4-27.1-60.5-60.5-60.5H960.2c-33.4 0-60.5 27.1-60.5 60.5v484c0 33.4 27.1 60.5 60.5 60.5zm60.6-483.9h488.8v362.9h-488.8z" opacity="1" data-original="url(#b)"></path><path fill="url(#c)" d="M3656.9 1801.7H2335.3v-3.7c0-101.9-82.9-184.7-184.7-184.7-101.9 0-184.7 82.9-184.7 184.7v976.1h-87.2V1027.8h58.3c33.4 0 60.5-27.1 60.5-60.5V643.1c0-33.4-27.1-60.5-60.5-60.5H593.3c-33.4 0-60.5 27.1-60.5 60.5v324.1c0 33.4 27.1 60.5 60.5 60.5h58.3v934.4c-254.4-9.1-459.3 193.9-459.3 442.2 0 204.6 286.3 683 391 857.4 23.5 38.1 79.3 38.1 102.8 0 .5-.8 29.4-47.4 70.9-118.5h2622.1c33.4 0 60.5-27.1 60.5-60.5v-248.2c0-33.4-27.1-60.5-60.5-60.5h-1044v-609h1321.6c33.4 0 60.5-27.1 60.5-60.5v-242.3c.2-33.4-26.9-60.5-60.3-60.5zm-762.3 121H3037V2044h-142.4zm-121 121.3h-178.9v-121.3h178.9zm384.5-121.3H3337V2044h-178.9zm-1400.4 589.5H1060c11.6-42.5 17.4-78.4 17.4-107.9 0-90.7-27.1-177.2-77.4-250.3h757.7zm-739.5 121h739.5v140.9H955.6c24.6-51.3 45.5-98.3 62.6-140.9zM653.8 703.6h1222.7v203.1H653.8zm118.9 324.2h985V2033H875.8c-32.2-21-66.8-37.5-103.1-49.4zM634.9 3112.6c-77.6-131.2-321.4-556.7-321.4-708.2 0-177.2 144.2-321.4 321.4-321.4s321.4 144.2 321.4 321.4c0 151.8-243.7 576.8-321.4 708.2zm2683.9-90.3H826.2c41-74 63.3-117.1 68.6-127.1h2424zm-1231.9-248.2V1798c0-35.1 28.6-63.7 63.7-63.7s63.7 28.6 63.7 63.7v976.1zm248.4-851.4h138.4V2044h-138.4zM3596.4 2044H3458v-121.3h138.4z" opacity="1" data-original="url(#c)"></path><path fill="url(#d)" d="M877.4 2393.2c0-133.7-108.8-242.5-242.5-242.5s-242.5 108.8-242.5 242.5 108.8 242.5 242.5 242.5c133.7.1 242.5-108.7 242.5-242.5zm-242.5 121.6c-67 0-121.5-54.5-121.5-121.5s54.5-121.5 121.5-121.5 121.5 54.5 121.5 121.5-54.5 121.5-121.5 121.5z" opacity="1" data-original="url(#d)"></path></g></svg>