<svg xmlns="http://www.w3.org/2000/svg" version="1.1" xmlns:xlink="http://www.w3.org/1999/xlink" width="512" height="512" x="0" y="0" viewBox="0 0 64 64" style="enable-background:new 0 0 512 512" xml:space="preserve" class=""><rect width="64" height="64" rx="12.8" ry="12.8" fill="#bac8d3" shape="rounded"></rect><g transform="matrix(0.5499999999999999,0,0,0.5499999999999999,14.400000000000002,14.400000000000002)"><linearGradient id="a" x1="32" x2="32" y1="62.364" y2="3.797" gradientUnits="userSpaceOnUse"><stop offset="0" stop-color="#006df0"></stop><stop offset="1" stop-color="#00e7f0"></stop></linearGradient><linearGradient xlink:href="#a" id="b" x1="40" x2="40" y1="62.364" y2="3.797"></linearGradient><linearGradient xlink:href="#a" id="c" x1="24" x2="24" y1="62.364" y2="3.797"></linearGradient><linearGradient xlink:href="#a" id="d" x1="55" x2="55" y1="62.364" y2="3.797"></linearGradient><linearGradient xlink:href="#a" id="e" x1="9" x2="9" y1="62.364" y2="3.797"></linearGradient><g data-name="Layer 29"><path fill="url(#a)" d="M26 16h3v3a1 1 0 0 0 1 1h4a1 1 0 0 0 1-1v-3h3a1 1 0 0 0 1-1v-4a1 1 0 0 0-1-1h-3V7a1 1 0 0 0-1-1h-4a1 1 0 0 0-1 1v3h-3a1 1 0 0 0-1 1v4a1 1 0 0 0 1 1zm1-4h3a1 1 0 0 0 1-1V8h2v3a1 1 0 0 0 1 1h3v2h-3a1 1 0 0 0-1 1v3h-2v-3a1 1 0 0 0-1-1h-3zM30 46h4a1 1 0 0 0 1-1v-4a1 1 0 0 0-1-1h-4a1 1 0 0 0-1 1v4a1 1 0 0 0 1 1zm1-4h2v2h-2z" opacity="1" data-original="url(#a)" class=""></path><path fill="url(#b)" d="M38 46h4a1 1 0 0 0 1-1v-4a1 1 0 0 0-1-1h-4a1 1 0 0 0-1 1v4a1 1 0 0 0 1 1zm1-4h2v2h-2z" opacity="1" data-original="url(#b)"></path><path fill="url(#a)" d="M30 39h4a1 1 0 0 0 1-1v-4a1 1 0 0 0-1-1h-4a1 1 0 0 0-1 1v4a1 1 0 0 0 1 1zm1-4h2v2h-2z" opacity="1" data-original="url(#a)" class=""></path><path fill="url(#b)" d="M38 39h4a1 1 0 0 0 1-1v-4a1 1 0 0 0-1-1h-4a1 1 0 0 0-1 1v4a1 1 0 0 0 1 1zm1-4h2v2h-2z" opacity="1" data-original="url(#b)"></path><path fill="url(#a)" d="M30 32h4a1 1 0 0 0 1-1v-4a1 1 0 0 0-1-1h-4a1 1 0 0 0-1 1v4a1 1 0 0 0 1 1zm1-4h2v2h-2z" opacity="1" data-original="url(#a)" class=""></path><path fill="url(#c)" d="M26 46a1 1 0 0 0 1-1v-4a1 1 0 0 0-1-1h-4a1 1 0 0 0-1 1v4a1 1 0 0 0 1 1zm-3-4h2v2h-2zM22 39h4a1 1 0 0 0 1-1v-4a1 1 0 0 0-1-1h-4a1 1 0 0 0-1 1v4a1 1 0 0 0 1 1zm1-4h2v2h-2zM22 32h4a1 1 0 0 0 1-1v-4a1 1 0 0 0-1-1h-4a1 1 0 0 0-1 1v4a1 1 0 0 0 1 1zm1-4h2v2h-2z" opacity="1" data-original="url(#c)"></path><path fill="url(#b)" d="M38 32h4a1 1 0 0 0 1-1v-4a1 1 0 0 0-1-1h-4a1 1 0 0 0-1 1v4a1 1 0 0 0 1 1zm1-4h2v2h-2z" opacity="1" data-original="url(#b)"></path><g fill="url(#d)"><path d="M53 44h4a1 1 0 0 0 1-1v-4a1 1 0 0 0-1-1h-4a1 1 0 0 0-1 1v4a1 1 0 0 0 1 1zm1-4h2v2h-2zM53 58h4a1 1 0 0 0 1-1v-4a1 1 0 0 0-1-1h-4a1 1 0 0 0-1 1v4a1 1 0 0 0 1 1zm1-4h2v2h-2zM53 51h4a1 1 0 0 0 1-1v-4a1 1 0 0 0-1-1h-4a1 1 0 0 0-1 1v4a1 1 0 0 0 1 1zm1-4h2v2h-2zM53 37h4a1 1 0 0 0 1-1v-4a1 1 0 0 0-1-1h-4a1 1 0 0 0-1 1v4a1 1 0 0 0 1 1zm1-4h2v2h-2z" fill="" opacity="1"></path></g><path fill="url(#e)" d="M11 38H7a1 1 0 0 0-1 1v4a1 1 0 0 0 1 1h4a1 1 0 0 0 1-1v-4a1 1 0 0 0-1-1zm-1 4H8v-2h2zM11 52H7a1 1 0 0 0-1 1v4a1 1 0 0 0 1 1h4a1 1 0 0 0 1-1v-4a1 1 0 0 0-1-1zm-1 4H8v-2h2zM11 45H7a1 1 0 0 0-1 1v4a1 1 0 0 0 1 1h4a1 1 0 0 0 1-1v-4a1 1 0 0 0-1-1zm-1 4H8v-2h2zM11 31H7a1 1 0 0 0-1 1v4a1 1 0 0 0 1 1h4a1 1 0 0 0 1-1v-4a1 1 0 0 0-1-1zm-1 4H8v-2h2z" opacity="1" data-original="url(#e)"></path><path fill="url(#a)" d="M61 23H50v-7h1a1 1 0 0 0 1-1v-4a1 1 0 0 0-1-1h-8V3a1 1 0 0 0-1-1H22a1 1 0 0 0-1 1v7h-8a1 1 0 0 0-1 1v4a1 1 0 0 0 1 1h1v7H3a1 1 0 0 0-1 1v37a1 1 0 0 0 1 1h58a1 1 0 0 0 1-1V24a1 1 0 0 0-1-1zM14 60H4V29h10zm0-33H4v-2h10zm29-15h7v2h-7zM23 4h18v18H23zm-9 8h7v2h-7zm17 48h-6V50h6zm8 0h-6V50h6zm9 0h-7V49a1 1 0 0 0-1-1H24a1 1 0 0 0-1 1v11h-7V16h5v7a1 1 0 0 0 1 1h20a1 1 0 0 0 1-1v-7h5zm12 0H50V29h10zm0-33H50v-2h10z" opacity="1" data-original="url(#a)" class=""></path></g></g></svg>