<svg xmlns="http://www.w3.org/2000/svg" version="1.1" xmlns:xlink="http://www.w3.org/1999/xlink" width="512" height="512" x="0" y="0" viewBox="0 0 160 160" style="enable-background:new 0 0 512 512" xml:space="preserve"><rect width="160" height="160" rx="32" ry="32" fill="#bac8d3" shape="rounded"></rect><g transform="matrix(0.7,0,0,0.7,24,24.150239181518558)"><linearGradient id="a"><stop offset="0" stop-color="#1db4ff"></stop><stop offset="1" stop-color="#7832fc"></stop></linearGradient><linearGradient xlink:href="#a" id="b" x1="121.319" x2="25.47" y1="137.743" y2="41.894" gradientUnits="userSpaceOnUse"></linearGradient><linearGradient xlink:href="#a" id="c" x1="133.236" x2="35.654" y1="129.355" y2="31.774" gradientUnits="userSpaceOnUse"></linearGradient><linearGradient xlink:href="#a" id="d" x1="110.921" x2="9.837" y1="153.921" y2="52.837" gradientUnits="userSpaceOnUse"></linearGradient><linearGradient xlink:href="#a" id="e" x1="121.169" x2="20.086" y1="144.169" y2="43.085" gradientUnits="userSpaceOnUse"></linearGradient><linearGradient xlink:href="#a" id="f" x1="103.824" x2="2.741" y1="159.824" y2="58.741" gradientUnits="userSpaceOnUse"></linearGradient><linearGradient xlink:href="#a" id="g" x1="114.073" x2="12.989" y1="150.073" y2="48.989" gradientUnits="userSpaceOnUse"></linearGradient><linearGradient xlink:href="#a" id="h" x1="97.274" x2="-3.81" y1="165.274" y2="64.19" gradientUnits="userSpaceOnUse"></linearGradient><linearGradient xlink:href="#a" id="i" x1="116.371" x2="16.317" y1="146.371" y2="46.317" gradientUnits="userSpaceOnUse"></linearGradient><linearGradient xlink:href="#a" id="j" x1="107.522" x2="6.438" y1="155.522" y2="54.438" gradientUnits="userSpaceOnUse"></linearGradient><linearGradient xlink:href="#a" id="k" x1="142.933" x2="45.278" y1="119.4" y2="21.745" gradientUnits="userSpaceOnUse"></linearGradient><linearGradient xlink:href="#a" id="l" x1="161.917" x2="64.262" y1="100.417" y2="2.762" gradientUnits="userSpaceOnUse"></linearGradient><path fill="url(#b)" d="M93.757 27.034a2 2 0 1 0 3.878-.978A11.983 11.983 0 0 0 86 17H38c-6.617 0-12 5.383-12 12v86c0 5.934 4.334 10.863 10 11.819V142a2.002 2.002 0 0 0 3.199 1.601l6.804-5.101 6.804 5.101a2.001 2.001 0 0 0 2.4 0l6.798-5.1 6.801 5.1a2 2 0 0 0 2.4 0l6.797-5.099L84.8 143.6a1.996 1.996 0 0 0 2.8-.4 2 2 0 0 0-.399-2.8l-7.996-6a1.998 1.998 0 0 0-2.4 0l-6.798 5.1-6.801-5.1a2.001 2.001 0 0 0-2.4 0l-6.798 5.1-6.803-5.1a1.998 1.998 0 0 0-2.399 0L40 138.001V127h43a2 2 0 0 0 0-4H38c-4.411 0-8-3.589-8-8V29c0-4.411 3.589-8 8-8h48c3.67 0 6.86 2.481 7.757 6.034z" opacity="1" data-original="url(#b)"></path><path fill="url(#c)" d="M76 73a2 2 0 0 0-2-2H41c-.551 0-1-.449-1-1V37c0-.551.449-1 1-1h34a2 2 0 0 0 0-4H41c-2.757 0-5 2.243-5 5v33c0 2.757 2.243 5 5 5h33a2 2 0 0 0 2-2z" opacity="1" data-original="url(#c)"></path><path fill="url(#d)" d="M46 83h-8a2 2 0 0 0 0 4h8a2 2 0 0 0 0-4z" opacity="1" data-original="url(#d)"></path><path fill="url(#e)" d="M66 83h-8a2 2 0 0 0 0 4h8a2 2 0 0 0 0-4z" opacity="1" data-original="url(#e)"></path><path fill="url(#f)" d="M46 96h-8a2 2 0 0 0 0 4h8a2 2 0 0 0 0-4z" opacity="1" data-original="url(#f)"></path><path fill="url(#g)" d="M66 96h-8a2 2 0 0 0 0 4h8a2 2 0 0 0 0-4z" opacity="1" data-original="url(#g)"></path><path fill="url(#h)" d="M46 108h-8a2 2 0 0 0 0 4h8a2 2 0 0 0 0-4z" opacity="1" data-original="url(#h)"></path><path fill="url(#i)" d="M78 112h4a2 2 0 0 0 0-4h-4a2 2 0 0 0 0 4z" opacity="1" data-original="url(#i)"></path><path fill="url(#j)" d="M66 108h-8a2 2 0 0 0 0 4h8a2 2 0 0 0 0-4z" opacity="1" data-original="url(#j)"></path><path fill="url(#k)" d="M127 32H87c-3.86 0-7 3.14-7 7v56c0 3.86 3.14 7 7 7h3.612C87.704 105.733 87 109.914 87 115c0 4.361 1.651 8.088 4 10.937V141a2 2 0 0 0 4 0v-11.446c2.358 1.571 4.872 2.446 7 2.446a2 2 0 0 0 0-4c-3.777 0-11-5.062-11-13 0-6.138.956-9.95 6.178-13.754.516-.376.822-.978.822-1.617V79c0-2.757 2.243-5 5-5s5 2.243 5 5v21a2 2 0 0 0 2 2h16v.931c0 1.699-.401 3.4-1.162 4.919l-10.627 21.255A2 2 0 0 0 114 130v11a2 2 0 0 0 4 0v-10.528l10.416-20.833a15.078 15.078 0 0 0 1.584-6.708v-1.616c2.361-1.126 4-3.53 4-6.315V39c0-3.86-3.14-7-7-7zm3 63c0 1.654-1.346 3-3 3h-15V79c0-4.962-4.038-9-9-9s-9 4.038-9 9v19h-7c-1.654 0-3-1.346-3-3V39c0-1.654 1.346-3 3-3h7v29a2 2 0 0 0 4 0V36h29c1.654 0 3 1.346 3 3z" opacity="1" data-original="url(#k)"></path><path fill="url(#l)" d="M119 44h-8c-2.206 0-4 1.794-4 4v11c0 2.206 1.794 4 4 4h8c2.206 0 4-1.794 4-4V48c0-2.206-1.794-4-4-4zm-8 15V48h8l.002 11z" opacity="1" data-original="url(#l)"></path></g></svg>