<svg xmlns="http://www.w3.org/2000/svg" version="1.1" xmlns:xlink="http://www.w3.org/1999/xlink" width="512" height="512" x="0" y="0" viewBox="0 0 512 512" style="enable-background:new 0 0 512 512" xml:space="preserve"><rect width="512" height="512" rx="102.4" ry="102.4" fill="#bac8d3" shape="rounded"></rect><g transform="matrix(0.7,0,0,0.7,76.80000457763674,76.80000000000001)"><linearGradient id="a" x1="256" x2="256" y1="79.7" y2="432.3" gradientUnits="userSpaceOnUse"><stop offset="0" stop-color="#f704fe"></stop><stop offset="1" stop-color="#24bce3"></stop></linearGradient><path fill="url(#a)" d="M445.8 410.2H66.2c-13.9 0-25.1-11.2-25.1-25.1v-85.9c0-13.9 11.2-25.1 25.1-25.1h379.7c13.9 0 25.1 11.2 25.1 25.1v85.9c-.1 13.8-11.3 25.1-25.2 25.1zM66.2 283.7c-8.4 0-15.3 6.9-15.3 15.3v86c0 8.4 6.9 15.3 15.3 15.3h379.7c8.4 0 15.3-6.9 15.3-15.3v-85.9c0-8.4-6.9-15.3-15.3-15.3zm61.4 148.6h-43c-5.7 0-10.2-4.6-10.2-10.2v-16.7c0-2.7 2.2-4.9 4.9-4.9s4.9 2.2 4.9 4.9V422c0 .2.2.5.5.5h43c.2 0 .5-.2.5-.5v-16.7c0-2.7 2.2-4.9 4.9-4.9s4.9 2.2 4.9 4.9V422c-.1 5.6-4.8 10.3-10.4 10.3zm299.9 0h-43c-5.7 0-10.2-4.6-10.2-10.2v-16.7c0-2.7 2.2-4.9 4.9-4.9s4.9 2.2 4.9 4.9V422c0 .2.2.5.5.5h43c.2 0 .5-.2.5-.5v-16.7c0-2.7 2.2-4.9 4.9-4.9s4.9 2.2 4.9 4.9V422c-.2 5.6-4.8 10.3-10.4 10.3zM311.8 217c-2.2 0-4.4-.7-6.3-2.1-13.9-10.7-31-16.2-49.5-16.2s-35.7 5.6-49.5 16.2c-4.4 3.4-10.7 2.7-14.3-1.5l-6.7-7.9-.1-.1c-1.8-2.2-2.7-4.9-2.4-7.7.2-2.9 1.7-5.5 3.9-7.3l.1-.1c19-14.7 43.5-22.8 69-22.8s49.9 8.1 69 22.8c2.2 1.7 3.7 4.3 4 7.2s-.6 5.7-2.4 8l-6.8 7.9c-2.1 2.3-5 3.6-8 3.6zM256 188.9c20.7 0 39.9 6.3 55.4 18.2.2.2.7.2 1-.1l6.7-7.8c.2-.2.2-.4.2-.5 0-.2-.1-.3-.2-.5-17.3-13.4-39.7-20.7-63-20.7s-45.6 7.4-62.9 20.7c-.2.2-.3.5-.3.7s.1.4.2.5l6.7 7.8c.2.3.7.2 1 .1 15.3-12.1 34.5-18.4 55.2-18.4zm84.1-9.4c-2.3 0-4.6-.7-6.6-2.3-21.2-16.9-48.7-26.2-77.5-26.2s-56.3 9.3-77.6 26.2c-4.4 3.5-10.7 3-14.4-1.3l-6.7-7.8c-1.8-2.1-2.8-4.9-2.5-7.7.2-2.9 1.6-5.4 3.9-7.1 26.6-21.4 61.2-33.2 97.4-33.2s70.8 11.8 97.4 33.2c2.2 1.7 3.6 4.3 3.9 7.1s-.7 5.7-2.5 7.8l-6.7 7.8c-2.2 2.3-5.1 3.5-8.1 3.5zM256 141.2c31 0 60.7 10.1 83.6 28.3.3.2.7.2 1-.1l6.7-7.8c.2-.2.2-.4.2-.5 0-.2-.1-.3-.2-.4-24.8-20-57.2-31.1-91.3-31.1s-66.5 11.1-91.3 31.1c-.2.1-.2.2-.2.4s0 .3.2.5l6.7 7.9c.2.2.7.2 1 .1 22.9-18.3 52.6-28.4 83.6-28.4zm-27.5 113.3c-3 0-5.8-1.2-7.9-3.5l-6.8-7.8c-2-2.3-2.9-5.3-2.5-8.2s2-5.5 4.3-7.2c11.4-8.1 25.3-12.4 40.3-12.4 14.8 0 28.7 4.3 40.3 12.4 2.5 1.8 4.1 4.4 4.4 7.4.3 2.9-.6 5.8-2.5 8l-6.8 7.7c-3.3 3.9-9.2 4.7-13.5 1.8-12.7-8.5-30.4-8.5-43.1 0-2.1 1.3-4.1 1.8-6.2 1.8zm27.4-29.3c-12.9 0-24.8 3.7-34.6 10.7-.2.2-.2.3-.2.5s0 .4.2.7l6.8 7.8c.2.2.7.2 1.1 0 15.9-10.7 38-10.7 54 0 .3.2.6.2.7.1 0-.1.1-.1.1-.2l6.8-7.8c.2-.2.2-.3.2-.5s-.1-.3-.3-.5c-9.9-7.1-22.2-10.8-34.8-10.8zm210.2 156.6H45.9c-2.7 0-4.9-2.2-4.9-4.9s2.2-4.9 4.9-4.9H466c2.7 0 4.9 2.2 4.9 4.9s-2.1 4.9-4.8 4.9zm-319.8-98.1c-2.2 0-4.2-1.5-4.8-3.7L95.4 95.6c-1-4-4.6-6.7-7.8-6-2.7.7-4.6 3.5-4.6 6.9 0 .7.1 1.5.2 2l37.7 179.3c.6 2.6-1.1 5.2-3.8 5.8s-5.2-1.1-5.8-3.8L73.6 100.5c-.2-1.3-.4-2.7-.4-4 0-8 5-14.7 12.1-16.4 8.4-2 17.2 3.9 19.5 13.1L151 277.6c.7 2.6-.9 5.2-3.5 5.9-.4.2-.8.2-1.2.2zm219.4 0c-.4 0-.8-.1-1.2-.2-2.6-.7-4.2-3.3-3.5-5.9l46.2-184.4c2-8 8.7-13.5 16.2-13.5 1.1 0 2.2.2 3.4.4 8.4 2 13.7 11.1 11.7 20.3l-37.7 179.4c-.6 2.6-3.1 4.3-5.8 3.8-2.6-.6-4.3-3.1-3.8-5.8L429 98.3c.9-4.1-1.1-8-4.4-8.8-.6-.2-.8-.2-1.1-.2-3 0-5.9 2.6-6.8 6.1L370.4 280c-.5 2.2-2.5 3.7-4.7 3.7zm38.2 60.7H269.4c-4.9 0-8.9-4-8.9-9V320c0-4.9 4-8.9 8.9-8.9H404c4.9 0 8.9 4 8.9 8.9v15.4c-.1 5-4.1 9-9 9zm-133.6-9.8H403v-13.7H270.3zm-134.8 17.3h-16.6c-3.5 0-6.5-2.9-6.5-6.5v-3.1h-7c-3.5 0-6.5-2.9-6.5-6.5v-25.4c0-3.5 2.9-6.5 6.5-6.5h43.2c3.1 0 5.8 2.2 6.6 5.4.1.3.1.7.1 1.1v25.4c0 3.5-2.9 6.5-6.5 6.5H142v3.1c0 3.6-2.9 6.5-6.5 6.5zm-13.2-9.8h9.9V339c0-3.5 2.9-6.5 6.5-6.5h7v-18.8H109v18.8h6.9c3.5 0 6.5 2.9 6.5 6.5zm86.7 9.8h-16.6c-3.5 0-6.5-2.9-6.5-6.5v-3.1h-7c-3.5 0-6.5-2.9-6.5-6.5v-25.4c0-3.5 2.9-6.5 6.5-6.5h43.3c3.1 0 5.7 2.2 6.4 5.4.1.3.1.7.1 1.1v25.4c0 3.5-2.9 6.5-6.5 6.5h-7v3.1c.3 3.6-2.7 6.5-6.2 6.5zm-13.3-9.8h10V339c0-3.5 2.9-6.5 6.5-6.5h7v-18.8h-36.7v18.8h7c3.5 0 6.5 2.9 6.5 6.5v3.1zM59.4 308.6H45.9c-2.7 0-4.9-2.2-4.9-4.9s2.2-4.9 4.9-4.9h13.4c2.7 0 4.9 2.2 4.9 4.9.1 2.6-2 4.9-4.8 4.9zm0 24.1H45.9c-2.7 0-4.9-2.2-4.9-4.9s2.2-4.9 4.9-4.9h13.4c2.7 0 4.9 2.2 4.9 4.9.1 2.7-2 4.9-4.8 4.9zm0 24.2H45.9c-2.7 0-4.9-2.2-4.9-4.9s2.2-4.9 4.9-4.9h13.4c2.7 0 4.9 2.2 4.9 4.9s-2 4.9-4.8 4.9zm406.7-48.3h-13.4c-2.7 0-4.9-2.2-4.9-4.9s2.2-4.9 4.9-4.9h13.4c2.7 0 4.9 2.2 4.9 4.9 0 2.6-2.2 4.9-4.9 4.9zm0 24.1h-13.4c-2.7 0-4.9-2.2-4.9-4.9s2.2-4.9 4.9-4.9h13.4c2.7 0 4.9 2.2 4.9 4.9s-2.2 4.9-4.9 4.9zm0 24.2h-13.4c-2.7 0-4.9-2.2-4.9-4.9s2.2-4.9 4.9-4.9h13.4c2.7 0 4.9 2.2 4.9 4.9s-2.2 4.9-4.9 4.9z" opacity="1" data-original="url(#a)"></path></g></svg>