<svg xmlns="http://www.w3.org/2000/svg" version="1.1" xmlns:xlink="http://www.w3.org/1999/xlink" width="512" height="512" x="0" y="0" viewBox="0 0 64 64" style="enable-background:new 0 0 512 512" xml:space="preserve" class=""><rect width="64" height="64" rx="12.8" ry="12.8" fill="#bac8d3" shape="rounded"></rect><g transform="matrix(0.69,0,0,0.69,9.920000295639042,9.920310420989992)"><linearGradient id="a" x1="3.753" x2="59.357" y1="60.463" y2="4.503" gradientUnits="userSpaceOnUse"><stop offset="0" stop-color="#03e9b0"></stop><stop offset="1" stop-color="#002b9f"></stop></linearGradient><linearGradient xlink:href="#a" id="b" x1="3.717" x2="59.321" y1="60.428" y2="4.468"></linearGradient><linearGradient xlink:href="#a" id="c" x1="-2.238" x2="53.366" y1="54.511" y2="-1.449"></linearGradient><linearGradient xlink:href="#a" id="d" x1=".57" x2="56.174" y1="57.301" y2="1.341"></linearGradient><linearGradient xlink:href="#a" id="e" x1="-.988" x2="54.616" y1="55.753" y2="-.207"></linearGradient><linearGradient xlink:href="#a" id="f" x1="5.948" x2="61.552" y1="62.645" y2="6.685"></linearGradient><linearGradient xlink:href="#a" id="g" x1="9.171" x2="64.775" y1="65.847" y2="9.887"></linearGradient><linearGradient xlink:href="#a" id="h" x1="11.109" x2="66.713" y1="67.772" y2="11.812"></linearGradient><linearGradient xlink:href="#a" id="i" x1="13.046" x2="68.65" y1="69.697" y2="13.737"></linearGradient><linearGradient xlink:href="#a" id="j" x1="3.74" x2="59.344" y1="60.451" y2="4.49"></linearGradient><g data-name="Layer 2"><path fill="url(#a)" d="M58.56 41.244a.75.75 0 0 1-.75-.75v-21.6a5.138 5.138 0 0 0-5.132-5.132h-36.74a.75.75 0 0 1 0-1.5h36.74a6.639 6.639 0 0 1 6.632 6.632v21.6a.75.75 0 0 1-.75.75z" opacity="1" data-original="url(#a)"></path><path fill="url(#b)" d="M46.3 51.74H9.7a5.015 5.015 0 0 1-5.01-5.009V25.249A5.015 5.015 0 0 1 9.7 20.24h36.6a5.015 5.015 0 0 1 5.009 5.009v21.482A5.015 5.015 0 0 1 46.3 51.74zm-36.6-30a3.513 3.513 0 0 0-3.51 3.509v21.482A3.513 3.513 0 0 0 9.7 50.24h36.6a3.513 3.513 0 0 0 3.509-3.509V25.249A3.513 3.513 0 0 0 46.3 21.74z" opacity="1" data-original="url(#b)"></path><path fill="url(#c)" d="M18.652 37.479a3.991 3.991 0 1 1 3.991-3.991 4 4 0 0 1-3.991 3.991zm0-6.482a2.491 2.491 0 1 0 2.491 2.491A2.493 2.493 0 0 0 18.652 31z" opacity="1" data-original="url(#c)"></path><path fill="url(#d)" d="M22.313 42.1h-7.327a2.237 2.237 0 0 1-2.234-2.236 5.929 5.929 0 0 1 2.921-5.093.75.75 0 0 1 .985.2 2.478 2.478 0 0 0 3.99 0 .752.752 0 0 1 .983-.2 5.912 5.912 0 0 1 2.918 5.094 2.238 2.238 0 0 1-2.236 2.235zm-6.381-5.7a4.423 4.423 0 0 0-1.68 3.457.736.736 0 0 0 .734.736h7.327a.737.737 0 0 0 .736-.736 4.367 4.367 0 0 0-1.287-3.111 4.26 4.26 0 0 0-.39-.347 3.977 3.977 0 0 1-5.44 0z" opacity="1" data-original="url(#d)"></path><path fill="url(#e)" d="M27.72 45.81H9.58a.75.75 0 0 1-.75-.75V26.92a.75.75 0 0 1 .75-.75h18.14a.75.75 0 0 1 .75.75v18.14a.75.75 0 0 1-.75.75zm-17.39-1.5h16.64V27.67H10.33z" opacity="1" data-original="url(#e)"></path><path fill="url(#f)" d="M43.284 29.642h-7.6a.75.75 0 0 1 0-1.5h7.6a.75.75 0 0 1 0 1.5z" opacity="1" data-original="url(#f)"></path><path fill="url(#g)" d="M46.2 36.088H32.772a.75.75 0 0 1 0-1.5H46.2a.75.75 0 0 1 0 1.5z" opacity="1" data-original="url(#g)"></path><path fill="url(#h)" d="M46.2 39.963H32.772a.75.75 0 0 1 0-1.5H46.2a.75.75 0 0 1 0 1.5z" opacity="1" data-original="url(#h)"></path><path fill="url(#i)" d="M46.2 43.837H32.772a.75.75 0 0 1 0-1.5H46.2a.75.75 0 0 1 0 1.5z" opacity="1" data-original="url(#i)"></path><path fill="url(#b)" d="M46.3 51.74H9.7a5.015 5.015 0 0 1-5.01-5.009V25.249A5.015 5.015 0 0 1 9.7 20.24h36.6a5.015 5.015 0 0 1 5.009 5.009v21.482A5.015 5.015 0 0 1 46.3 51.74zm-36.6-30a3.513 3.513 0 0 0-3.51 3.509v21.482A3.513 3.513 0 0 0 9.7 50.24h36.6a3.513 3.513 0 0 0 3.509-3.509V25.249A3.513 3.513 0 0 0 46.3 21.74z" opacity="1" data-original="url(#b)"></path><path fill="url(#j)" d="M54.56 45.244a.75.75 0 0 1-.75-.75V21.952a4.2 4.2 0 0 0-4.193-4.192H11.938a.75.75 0 1 1 0-1.5h37.679a5.7 5.7 0 0 1 5.693 5.692v22.542a.75.75 0 0 1-.75.75z" opacity="1" data-original="url(#j)"></path><path fill="url(#c)" d="M18.652 37.479a3.991 3.991 0 1 1 3.991-3.991 4 4 0 0 1-3.991 3.991zm0-6.482a2.491 2.491 0 1 0 2.491 2.491A2.493 2.493 0 0 0 18.652 31z" opacity="1" data-original="url(#c)"></path><path fill="url(#d)" d="M22.313 42.1h-7.327a2.237 2.237 0 0 1-2.234-2.236 5.929 5.929 0 0 1 2.921-5.093.75.75 0 0 1 .985.2 2.478 2.478 0 0 0 3.99 0 .752.752 0 0 1 .983-.2 5.912 5.912 0 0 1 2.918 5.094 2.238 2.238 0 0 1-2.236 2.235zm-6.381-5.7a4.423 4.423 0 0 0-1.68 3.457.736.736 0 0 0 .734.736h7.327a.737.737 0 0 0 .736-.736 4.367 4.367 0 0 0-1.287-3.111 4.26 4.26 0 0 0-.39-.347 3.977 3.977 0 0 1-5.44 0z" opacity="1" data-original="url(#d)"></path><path fill="url(#e)" d="M27.72 45.81H9.58a.75.75 0 0 1-.75-.75V26.92a.75.75 0 0 1 .75-.75h18.14a.75.75 0 0 1 .75.75v18.14a.75.75 0 0 1-.75.75zm-17.39-1.5h16.64V27.67H10.33z" opacity="1" data-original="url(#e)"></path><path fill="url(#f)" d="M43.284 29.642h-7.6a.75.75 0 0 1 0-1.5h7.6a.75.75 0 0 1 0 1.5z" opacity="1" data-original="url(#f)"></path><path fill="url(#g)" d="M46.2 36.088H32.772a.75.75 0 0 1 0-1.5H46.2a.75.75 0 0 1 0 1.5z" opacity="1" data-original="url(#g)"></path><path fill="url(#h)" d="M46.2 39.963H32.772a.75.75 0 0 1 0-1.5H46.2a.75.75 0 0 1 0 1.5z" opacity="1" data-original="url(#h)"></path><path fill="url(#i)" d="M46.2 43.837H32.772a.75.75 0 0 1 0-1.5H46.2a.75.75 0 0 1 0 1.5z" opacity="1" data-original="url(#i)"></path></g></g></svg>