<svg xmlns="http://www.w3.org/2000/svg" version="1.1" xmlns:xlink="http://www.w3.org/1999/xlink" width="512" height="512" x="0" y="0" viewBox="0 0 64 64" style="enable-background:new 0 0 512 512" xml:space="preserve" class=""><rect width="64" height="64" rx="12.8" ry="12.8" fill="#bac8d3" shape="rounded"></rect><g transform="matrix(0.64,0,0,0.64,11.52,11.520361862182618)"><linearGradient id="a" x1="9.159" x2="71.347" y1="72.138" y2="9.951" gradientUnits="userSpaceOnUse"><stop offset="0" stop-color="#ab20ec"></stop><stop offset="1" stop-color="#0071fc"></stop></linearGradient><linearGradient xlink:href="#a" id="b" x1="-9.138" x2="53.049" y1="53.841" y2="-8.347"></linearGradient><linearGradient xlink:href="#a" id="c" x1="-1.489" x2="60.698" y1="61.489" y2="-.698"></linearGradient><linearGradient xlink:href="#a" id="d" x1="13.511" x2="75.698" y1="76.489" y2="14.302"></linearGradient><path fill="url(#a)" d="M33.142 63c-7.021 0-13.614-2.734-18.566-7.699l-.006-.006-2.861 2.868a1.001 1.001 0 0 1-1.708-.706V46a1 1 0 0 1 1-1h11.428a1 1 0 0 1 .708 1.706l-2.872 2.879.01.011c3.435 3.439 8.004 5.333 12.867 5.333s9.433-1.895 12.869-5.334a.997.997 0 0 1 1.414 0 .999.999 0 0 1 0 1.414 20.057 20.057 0 0 1-14.283 5.921 20.055 20.055 0 0 1-15.021-6.703 1 1 0 0 1 .043-1.367l1.854-1.859H12v8.039l1.876-1.881a1.001 1.001 0 0 1 1.477.067c.227.245.424.451.638.665 4.574 4.586 10.665 7.111 17.15 7.111s12.577-2.525 17.151-7.111a.999.999 0 1 1 1.416 1.412c-4.952 4.964-11.546 7.699-18.566 7.699z" opacity="1" data-original="url(#a)"></path><path fill="url(#b)" d="M51 19H39.572a1 1 0 0 1-.708-1.706l2.872-2.879-.01-.01c-3.435-3.44-8.005-5.334-12.867-5.334s-9.433 1.895-12.869 5.334a.999.999 0 1 1-1.414-1.414A20.057 20.057 0 0 1 28.859 7.07a20.055 20.055 0 0 1 15.021 6.704 1 1 0 0 1-.043 1.366l-1.854 1.859h8.018V8.961l-1.876 1.881c-.193.193-.488.279-.729.293a1.004 1.004 0 0 1-.717-.325 23.23 23.23 0 0 0-.668-.699C41.437 5.525 35.346 3 28.861 3S16.284 5.525 11.71 10.111a1 1 0 1 1-1.416-1.412C15.244 3.734 21.838 1 28.858 1c7.021 0 13.614 2.734 18.566 7.699l.006.006 2.861-2.868a.998.998 0 0 1 1.708.706V18a1 1 0 0 1-1 1z" opacity="1" data-original="url(#b)"></path><g fill="url(#c)"><path d="M54 47H2a1 1 0 0 1-1-1V18a1 1 0 0 1 1-1h52a1 1 0 0 1 1 1v28a1 1 0 0 1-1 1zM3 45h50V19H3z" fill="" opacity="1"></path><path d="M46 43H10a1 1 0 0 1-1-1c0-1.654-1.346-3-3-3a1 1 0 0 1-1-1V26a1 1 0 0 1 1-1c1.654 0 3-1.346 3-3a1 1 0 0 1 1-1h36a1 1 0 0 1 1 1c0 1.654 1.346 3 3 3a1 1 0 0 1 1 1v12a1 1 0 0 1-1 1c-1.654 0-3 1.346-3 3a1 1 0 0 1-1 1zm-35.101-2h34.202A5.013 5.013 0 0 1 49 37.101V26.9a5.013 5.013 0 0 1-3.899-3.899H10.899A5.013 5.013 0 0 1 7 26.9v10.201A5.013 5.013 0 0 1 10.899 41z" fill="" opacity="1"></path><path d="M28 39c-3.86 0-7-3.14-7-7s3.14-7 7-7 7 3.14 7 7-3.14 7-7 7zm0-12c-2.757 0-5 2.243-5 5s2.243 5 5 5 5-2.243 5-5-2.243-5-5-5z" fill="" opacity="1"></path></g><path fill="url(#d)" d="M58 47a1 1 0 0 1-1-1V18a1 1 0 0 1 2 0v28a1 1 0 0 1-1 1z" opacity="1" data-original="url(#d)"></path><path fill="url(#d)" d="M62 47h-8a1 1 0 0 1 0-2h7V19h-7a1 1 0 0 1 0-2h8a1 1 0 0 1 1 1v28a1 1 0 0 1-1 1z" opacity="1" data-original="url(#d)"></path></g></svg>