<svg xmlns="http://www.w3.org/2000/svg" version="1.1" xmlns:xlink="http://www.w3.org/1999/xlink" width="512" height="512" x="0" y="0" viewBox="0 0 6.827 6.827" style="enable-background:new 0 0 512 512" xml:space="preserve" class=""><rect width="6.827" height="6.827" rx="1.3654" ry="1.3654" fill="#bac8d3" shape="rounded"></rect><g transform="matrix(0.6,0,0,0.6,1.365064251422882,1.3650000572204588)"><defs><linearGradient id="a" x1=".566" x2="6.245" y1=".574" y2="6.253" gradientUnits="userSpaceOnUse"><stop offset="0" style="stop-color:#D33230" stop-color="#d33230"></stop><stop offset="1" style="stop-color:#FD8F04" stop-color="#fd8f04"></stop></linearGradient></defs><path d="M1.217 3.517h1.638a.08.08 0 0 0 .08-.08V2.072a.08.08 0 0 0-.08-.08H1.217a.08.08 0 0 0-.08.08v1.365c0 .045.036.08.08.08zm.08-1.365h1.478v1.205H1.297V2.152zm.385 1.692h-.465a.08.08 0 0 0-.08.08V5.12c0 .044.036.08.08.08h.465a.08.08 0 0 0 .08-.08V3.923a.08.08 0 0 0-.08-.08zm-.08 1.196h-.305V4.003h.306V5.04zm1.253-1.196H2.39a.08.08 0 0 0-.08.08V5.12c0 .044.036.08.08.08h.465a.08.08 0 0 0 .08-.08V3.923a.08.08 0 0 0-.08-.08zm-.08 1.196H2.47V4.003h.305V5.04zm3.622.936H3.321V4.141h3.076a.08.08 0 0 0 .08-.08v-.83a.08.08 0 0 0-.08-.08H3.32V1.767h.322a.08.08 0 0 0 .073-.112L3.314.74A.08.08 0 0 0 3.24.69H.83a.08.08 0 0 0-.073.048l-.402.915a.08.08 0 0 0 .073.112h.322v4.29c0 .044.036.08.08.08H6.397a.08.08 0 0 0 0-.16zM4.353 3.312l-.524.669h-.424l.524-.67h.424zm.627 0-.524.669h-.424l.523-.67h.425zm.627 0-.524.669h-.424l.523-.67h.425zm.626 0-.523.669h-.424l.523-.67h.424zm-.32.669.405-.517v.517h-.405zm-2.187-.67-.405.518v-.517h.405zM.883.852H3.19l.331.755H.552L.883.851zm2.278.915v3.76H.911v-3.76h2.25zm-2.25 3.92h2.25v.29H.911v-.29z" class="fil0" style="fill:url(#a)" fill=""></path></g></svg>