<svg xmlns="http://www.w3.org/2000/svg" version="1.1" xmlns:xlink="http://www.w3.org/1999/xlink" width="512" height="512" x="0" y="0" viewBox="0 0 450 450" style="enable-background:new 0 0 512 512" xml:space="preserve"><rect width="450" height="450" rx="90" ry="90" fill="#bac8d3" shape="rounded"></rect><g transform="matrix(0.68,0,0,0.68,71.9999963378906,72.00078811645508)"><linearGradient id="a" x1="94.104" x2="355.846" y1="324.624" y2="62.881" gradientTransform="matrix(1 0 0 -1 0 452)" gradientUnits="userSpaceOnUse"><stop offset="0" stop-color="#00dbde"></stop><stop offset="1" stop-color="#fc00ff"></stop></linearGradient><path fill="url(#a)" d="M225 446.04c-10.2 0-18.6-8.3-18.6-18.6v-16.6l-54.1 31.3c-1.5.9-3.5.9-5 0s-2.5-2.5-2.5-4.3v-49.3c0-1.8 1-3.4 2.5-4.3l48-27.7-7.3-118.3-140.5 37.6c-1.5.4-3.1.1-4.3-.9-1.2-.9-2-2.4-2-4v-49.8c0-1.8 1-3.4 2.5-4.3l136.6-78.9c-2.3-19.3-10.2-111.8 42.8-133.6a5 5 0 0 1 3.8 0c53 21.8 45.1 114.3 42.8 133.6l136.6 78.9c1.5.9 2.5 2.5 2.5 4.3v49.8c0 1.6-.7 3-2 4-1.2.9-2.8 1.3-4.3.9L262 238.24l-7.3 118.2 48 27.7c1.5.9 2.5 2.5 2.5 4.3v49.3c0 1.8-1 3.4-2.5 4.3s-3.5.9-5 0l-54.1-31.3v16.6c-.1 10.4-8.4 18.7-18.6 18.7zm-13.6-48.9c.9 0 1.7.2 2.5.7 1.5.9 2.5 2.5 2.5 4.3v25.3c0 4.7 3.9 8.6 8.6 8.6s8.6-3.9 8.6-8.6v-25.3c0-1.8 1-3.4 2.5-4.3s3.5-.9 5 0l54.1 31.3v-37.8l-48.2-27.8c-1.6-.9-2.6-2.7-2.5-4.6l7.8-127.4c.1-1.5.9-2.9 2.1-3.8s2.8-1.2 4.2-.8l140.1 37.5v-40.4l-137-79.1c-1.8-1-2.7-3-2.4-5 .1-1 14.2-102.7-34.4-125.5-48.6 22.7-34.5 124.4-34.4 125.5.3 2-.7 4-2.4 5l-137 79.1v40.4l140.1-37.5c1.4-.4 3-.1 4.2.8s2 2.3 2.1 3.8l7.8 127.4c.1 1.9-.8 3.7-2.5 4.6l-48.1 27.8v37.8l54.1-31.3c.8-.4 1.7-.7 2.6-.7zm173.2-146.2c-.4 0-.9-.1-1.3-.2l-144.9-38.8c-2.7-.7-4.3-3.5-3.5-6.1.7-2.7 3.5-4.3 6.1-3.5l138.6 37.1v-4.2l-138.7-80.1c-2.4-1.4-3.2-4.4-1.8-6.8s4.4-3.2 6.8-1.8l141.2 81.5c1.5.9 2.5 2.5 2.5 4.3v13.6c0 1.6-.7 3-2 4-.9.7-2 1-3 1zm-319.2 0c-1.1 0-2.2-.4-3-1-1.2-.9-2-2.4-2-4v-13.6c0-1.8 1-3.4 2.5-4.3l141.2-81.5c2.4-1.4 5.4-.6 6.8 1.8s.6 5.4-1.8 6.8l-138.7 80.1v4.2l138.6-37.1c2.7-.7 5.4.9 6.1 3.5.7 2.7-.9 5.4-3.5 6.1l-144.9 38.9c-.5.1-.9.1-1.3.1zm8.4-40.7c-2.8 0-5-2.2-5-5v-18.4c0-14 9.7-25.4 21.6-25.4 11.7 0 21.2 10.8 21.6 24.5.1 2.8-2.1 5.1-4.8 5.1-2.8.1-5.1-2.1-5.1-4.8-.2-8.2-5.5-14.8-11.6-14.8-6.3 0-11.6 7.1-11.6 15.4v18.4c-.1 2.8-2.3 5-5.1 5zm57.1-33c-2.8 0-5-2.2-5-5v-17.8c0-14 9.7-25.4 21.6-25.4 11.4 0 20.9 10.5 21.6 23.8.1 2.8-2 5.1-4.7 5.3-2.8.1-5.1-2-5.3-4.7-.4-7.9-5.6-14.3-11.6-14.3-6.3 0-11.6 7.1-11.6 15.4v17.8c0 2.7-2.2 4.9-5 4.9zm245.2 33c-2.8 0-5-2.2-5-5v-18.4c0-8.4-5.3-15.4-11.6-15.4-6.2 0-11.4 6.6-11.6 14.8-.1 2.8-2.4 5-5.1 4.8-2.8-.1-4.9-2.4-4.8-5.1.4-13.7 9.9-24.5 21.6-24.5 11.9 0 21.6 11.4 21.6 25.4v18.4c-.1 2.8-2.3 5-5.1 5zm-57.1-33c-2.8 0-5-2.2-5-5v-17.8c0-8.4-5.3-15.4-11.6-15.4-6 0-11.2 6.4-11.6 14.3-.1 2.8-2.5 4.9-5.3 4.7-2.8-.1-4.9-2.5-4.7-5.3.7-13.4 10.2-23.8 21.6-23.8 11.9 0 21.6 11.4 21.6 25.4v17.8c0 2.9-2.2 5.1-5 5.1z" opacity="1" data-original="url(#a)"></path></g></svg>