<svg xmlns="http://www.w3.org/2000/svg" version="1.1" xmlns:xlink="http://www.w3.org/1999/xlink" width="512" height="512" x="0" y="0" viewBox="0 0 450 449" style="enable-background:new 0 0 512 512" xml:space="preserve" class=""><rect width="450" height="449" rx="90" ry="90" fill="#bac8d3" shape="rounded"></rect><g transform="matrix(0.57,0,0,0.57,96.75,93.95500000000001)"><linearGradient id="a"><stop offset="0" stop-color="#00efd1"></stop><stop offset="1" stop-color="#00acea"></stop></linearGradient><linearGradient xlink:href="#a" id="b" x1="225" x2="225" y1="-25.5" y2="466.5" gradientUnits="userSpaceOnUse"></linearGradient><linearGradient xlink:href="#a" id="c" x1="224" x2="224" y1="-25.5" y2="466.5" gradientUnits="userSpaceOnUse"></linearGradient><path fill="url(#b)" d="M389.25 61.5H321V50.531C321 23.156 299.95.5 273.566.5H169.5C143.117.5 122 23.156 122 50.531V61.5H60.75C27.414 61.5 0 90 0 124.664v54.734A10.337 10.337 0 0 0 10.293 189.5H18v183.754c0 34.66 26.945 63.246 60.281 63.246h293.434c33.336 0 60.285-28.586 60.285-63.246V189.5h7.707c5.602-.023 10.164-4.504 10.293-10.102v-54.734C450 90 422.586 61.5 389.25 61.5zM142 50.531c0-16.347 12.145-30.031 27.5-30.031h104.066C288.922 20.5 301 34.184 301 50.531V61.5H142zM20 124.664C20 101.031 38.441 81.5 60.75 81.5h328.5c22.309 0 40.75 19.531 40.75 43.164V169.5H20zm392 248.59c0 23.633-17.98 43.246-40.285 43.246H78.28C55.977 416.5 38 396.887 38 373.254V189.5h374zm0 0" opacity="1" data-original="url(#b)"></path><path fill="url(#c)" d="M158 323.5h36v37c0 5.523 4.477 10 10 10h39c5.523 0 10-4.477 10-10v-37h37c5.523 0 10-4.477 10-10v-39c0-5.523-4.477-10-10-10h-37v-36c0-5.523-4.477-10-10-10h-39c-5.523 0-10 4.477-10 10v36h-36c-5.523 0-10 4.477-10 10v39c0 5.523 4.477 10 10 10zm10-39h36c5.523 0 10-4.477 10-10v-36h19v36c0 5.523 4.477 10 10 10h37v19h-37c-5.523 0-10 4.477-10 10v37h-19v-37c0-5.523-4.477-10-10-10h-36zm0 0" opacity="1" data-original="url(#c)"></path></g></svg>