<svg xmlns="http://www.w3.org/2000/svg" version="1.1" xmlns:xlink="http://www.w3.org/1999/xlink" width="512" height="512" x="0" y="0" viewBox="0 0 24 24" style="enable-background:new 0 0 512 512" xml:space="preserve" class=""><rect width="24" height="24" rx="4.8" ry="4.8" fill="#bac8d3" shape="rounded"></rect><g transform="matrix(0.7,0,0,0.7,3.614658558368683,3.631082010269166)"><linearGradient id="a" x1="22.1" x2="2.927" y1="12.073" y2="16.288" gradientUnits="userSpaceOnUse"><stop offset="0" stop-color="#f55555"></stop><stop offset="1" stop-color="#fccf31"></stop></linearGradient><path fill="url(#a)" fill-rule="evenodd" d="M7.793 4.5a1 1 0 0 1 1.414 0l1.5 1.5h8.516a1 1 0 0 1 .848.47l1.875 3a1 1 0 0 1-.848 1.53H21v8h.5a.5.5 0 1 1 0 1h-19a.5.5 0 0 1 0-1H3v-8.293l-.146.146a.5.5 0 1 1-.708-.707zM7.5 19h2v-5h-2zm3 0v-5a1 1 0 0 0-1-1h-2a1 1 0 0 0-1 1v5H4V9.707l4.5-4.5 4.5 4.5V19zm9.5-8v8h-6v-8.293l.146.146A.498.498 0 0 0 14.5 11zm1.098-1-1.875-3h-7.516l3 3z" clip-rule="evenodd" opacity="1" data-original="url(#a)"></path></g></svg>