<svg xmlns="http://www.w3.org/2000/svg" version="1.1" xmlns:xlink="http://www.w3.org/1999/xlink" width="512" height="512" x="0" y="0" viewBox="0 0 64 64" style="enable-background:new 0 0 512 512" xml:space="preserve" class=""><rect width="64" height="64" rx="12.8" ry="12.8" fill="#bac8d3" shape="rounded"></rect><g transform="matrix(0.8500000000000001,0,0,0.8500000000000001,4.800008010864257,4.79992504119873)"><linearGradient id="a" x1="6.953" x2="39.353" y1="14.317" y2="49.057" gradientUnits="userSpaceOnUse"><stop offset="0" stop-color="#8460c2"></stop><stop offset="1" stop-color="#2e0065"></stop></linearGradient><linearGradient xlink:href="#a" id="b" x1="10.278" x2="42.678" y1="11.216" y2="45.956" gradientTransform="rotate(180 38.217 41.173)"></linearGradient><linearGradient xlink:href="#a" id="c" x1="3.629" x2="36.029" y1="17.418" y2="52.158"></linearGradient><linearGradient xlink:href="#a" id="d" x1="9.772" x2="42.172" y1="11.688" y2="46.428"></linearGradient><linearGradient xlink:href="#a" id="e" x1="13.097" x2="45.497" y1="8.587" y2="43.327" gradientTransform="rotate(180 38.217 35.522)"></linearGradient><linearGradient xlink:href="#a" id="f" x1="6.447" x2="38.847" y1="14.789" y2="49.529"></linearGradient><linearGradient xlink:href="#a" id="g" x1="6.044" x2="38.444" y1="15.165" y2="49.905"></linearGradient><linearGradient xlink:href="#a" id="h" x1="15.342" x2="47.742" y1="6.493" y2="41.233"></linearGradient><path fill="url(#a)" d="M30.305 40.043h3.391v2.261h-3.391z" opacity="1" data-original="url(#a)"></path><path fill="url(#b)" d="M36.521 40.043h3.391v2.261h-3.391z" transform="rotate(180 38.217 41.173)" opacity="1" data-original="url(#b)"></path><path fill="url(#c)" d="M24.088 40.043h3.391v2.261h-3.391z" opacity="1" data-original="url(#c)"></path><path fill="url(#d)" d="M30.305 34.391h3.391v2.261h-3.391z" opacity="1" data-original="url(#d)"></path><path fill="url(#e)" d="M36.521 34.391h3.391v2.261h-3.391z" transform="rotate(180 38.217 35.522)" opacity="1" data-original="url(#e)"></path><path fill="url(#f)" d="M24.088 34.391h3.391v2.261h-3.391z" opacity="1" data-original="url(#f)"></path><path fill="url(#g)" d="M46.694 49.848H17.306a3.265 3.265 0 0 1-3.261-3.261v-3.153a1.018 1.018 0 0 1 .02-.197c1.068-5.338 8.442-12.267 10.153-13.815v-1.813a1 1 0 0 1 1-1h4.521a1 1 0 0 1 1 1v1.26h2.522v-1.26a1 1 0 0 1 1-1h4.521a1 1 0 0 1 1 1v1.813c1.711 1.548 9.085 8.477 10.154 13.815a1.018 1.018 0 0 1 .02.197v3.153a3.265 3.265 0 0 1-3.262 3.26zm-30.65-6.311v3.05a1.262 1.262 0 0 0 1.262 1.26h29.388a1.262 1.262 0 0 0 1.261-1.26v-3.05c-1.135-5.25-9.744-12.838-9.831-12.915a.998.998 0 0 1-.342-.752v-1.261h-2.521v1.26a1 1 0 0 1-1 1h-4.522a1 1 0 0 1-1-1v-1.26h-2.521v1.26a.998.998 0 0 1-.342.753c-.087.077-8.696 7.665-9.831 12.915z" opacity="1" data-original="url(#g)"></path><path fill="url(#h)" d="M49.352 30.565a.993.993 0 0 1-.275-.039l-7.59-2.169a1 1 0 0 1-.696-1.204l.864-3.46A32.228 32.228 0 0 0 32 21.91a32.228 32.228 0 0 0-9.655 1.782l.864 3.46a1 1 0 0 1-.695 1.204l-7.591 2.17a1 1 0 0 1-1.257-.775l-1.648-8.654a1 1 0 0 1 .453-1.036c.387-.241 9.596-5.91 19.529-5.91s19.142 5.669 19.53 5.91a1 1 0 0 1 .452 1.036l-1.648 8.654a1 1 0 0 1-.982.813zM42.966 26.7l5.608 1.603 1.312-6.886c-2.153-1.218-9.904-5.265-17.886-5.265S16.267 20.2 14.114 21.417l1.312 6.886 5.608-1.603-.848-3.4a1 1 0 0 1 .601-1.172A34.569 34.569 0 0 1 32 19.911a34.569 34.569 0 0 1 11.213 2.217 1 1 0 0 1 .601 1.173z" opacity="1" data-original="url(#h)"></path></g></svg>