<svg xmlns="http://www.w3.org/2000/svg" version="1.1" xmlns:xlink="http://www.w3.org/1999/xlink" width="512" height="512" x="0" y="0" viewBox="0 0 24 24" style="enable-background:new 0 0 512 512" xml:space="preserve"><rect width="24" height="24" rx="4.8" ry="4.8" fill="#bac8d3" shape="rounded"></rect><g transform="matrix(0.68,0,0,0.68,3.8400000000000016,3.8400000000000016)"><linearGradient id="a" x1="3" x2="21" y1="12" y2="12" gradientUnits="userSpaceOnUse"><stop offset="0" stop-color="#3584e4"></stop><stop offset="1" stop-color="#33d17a"></stop></linearGradient><g fill="url(#a)" stroke-linecap="round" stroke-linejoin="round"><path d="M4.5 3C3.678 3 3 3.678 3 4.5v15c0 .822.678 1.5 1.5 1.5h9c.822 0 1.5-.678 1.5-1.5V18h4.5c.823 0 1.5-.677 1.5-1.5v-9c0-.823-.677-1.5-1.5-1.5H15V4.5c0-.822-.678-1.5-1.5-1.5zm0 1h9c.286 0 .5.214.5.5v15c0 .286-.214.5-.5.5h-9a.488.488 0 0 1-.5-.5v-15c0-.286.214-.5.5-.5zM15 7h4.5c.282 0 .5.218.5.5V9h-5zm0 3h5v6.5c0 .282-.218.5-.5.5H15z" fill="" opacity="1"></path><path d="M6 17c-.546 0-1 .454-1 1s.454 1 1 1 1-.454 1-1-.454-1-1-1zM9 17c-.546 0-1 .454-1 1s.454 1 1 1 1-.454 1-1-.454-1-1-1zM12 17c-.546 0-1 .454-1 1s.454 1 1 1 1-.454 1-1-.454-1-1-1zM6 14.5c-.546 0-1 .454-1 1s.454 1 1 1 1-.454 1-1-.454-1-1-1zM9 14.5c-.546 0-1 .454-1 1s.454 1 1 1 1-.454 1-1-.454-1-1-1zM12 14.5c-.546 0-1 .454-1 1s.454 1 1 1 1-.454 1-1-.454-1-1-1zM6 12c-.546 0-1 .454-1 1s.454 1 1 1 1-.454 1-1-.454-1-1-1zM9 12c-.546 0-1 .454-1 1s.454 1 1 1 1-.454 1-1-.454-1-1-1zM12 12c-.546 0-1 .454-1 1s.454 1 1 1 1-.454 1-1-.454-1-1-1zM5.5 7a.5.5 0 0 0-.5.5v3a.5.5 0 0 0 .5.5h7a.5.5 0 0 0 .5-.5v-3a.5.5 0 0 0-.5-.5zM6 8h6v2H6zM5.5 5a.5.5 0 0 0-.5.5.5.5 0 0 0 .5.5h7a.5.5 0 0 0 .5-.5.5.5 0 0 0-.5-.5zM16.5 13a.5.5 0 0 0-.5.5v2a.5.5 0 0 0 .5.5h2a.5.5 0 0 0 .5-.5v-2a.5.5 0 0 0-.5-.5zm.5 1h1v1h-1zM16.5 11a.5.5 0 0 0-.5.5.5.5 0 0 0 .5.5h2a.5.5 0 0 0 .5-.5.5.5 0 0 0-.5-.5z" fill="" opacity="1"></path></g></g></svg>