<svg xmlns="http://www.w3.org/2000/svg" version="1.1" xmlns:xlink="http://www.w3.org/1999/xlink" width="512" height="512" x="0" y="0" viewBox="0 0 491.5 491.5" style="enable-background:new 0 0 512 512" xml:space="preserve" class=""><rect width="491.5" height="491.5" rx="98.3" ry="98.3" fill="#bac8d3" shape="rounded"></rect><g transform="matrix(-0.65,7.960204194457797e-17,-7.960204194457797e-17,-0.65,405.5975234985352,405.4875094413758)"><linearGradient id="a" x1="245.76" x2="245.76" y1="25.91" y2="465.61" gradientUnits="userSpaceOnUse"><stop offset="0" stop-color="#f704fe"></stop><stop offset="1" stop-color="#24bce3"></stop></linearGradient><path fill="url(#a)" d="M196.7 174c2.6 0 5.2.9 7.3 2.6 2.9 2.3 4.5 5.7 4.5 9.3v260.7c0 5.2 4.2 9.4 9.4 9.4h55.6c5.2 0 9.4-4.2 9.4-9.4V185.9c0-3.7 1.6-7.1 4.5-9.3 2.9-2.3 6.6-3.1 10.1-2.2l55.8 13.3c4.8 1.2 8.4-1.4 10.1-4.2s2.5-7.1-.7-10.9L253 38.9c-1.8-2.2-4.4-3.4-7.3-3.4-2.8 0-5.5 1.2-7.3 3.4L128.6 172.5c-3.2 3.8-2.4 8.2-.7 10.9 1.7 2.8 5.3 5.3 10.1 4.2l55.9-13.3c.9-.2 1.9-.3 2.8-.3zm76.9 291.6H218c-10.5 0-19-8.5-19-19V185.9c0-1-.5-1.6-.9-1.8-.3-.3-1-.7-2-.4L140.3 197c-8.1 1.9-16.1-1.4-20.5-8.4s-3.8-15.7 1.4-22.1L231.1 32.8c3.6-4.4 9-6.9 14.7-6.9s11 2.5 14.7 6.9l109.9 133.6c5.3 6.4 5.8 15.1 1.4 22.1s-12.4 10.3-20.5 8.4l-55.8-13.3c-1-.2-1.6.2-2 .4-.3.3-.9.8-.9 1.8v260.7c0 10.6-8.6 19.1-19 19.1z" opacity="1" data-original="url(#a)"></path></g></svg>