<svg xmlns="http://www.w3.org/2000/svg" version="1.1" xmlns:xlink="http://www.w3.org/1999/xlink" width="512" height="512" x="0" y="0" viewBox="0 0 512 512" style="enable-background:new 0 0 512 512" xml:space="preserve"><rect width="512" height="512" rx="102.4" ry="102.4" fill="#bac8d3" shape="rounded"></rect><g transform="matrix(0.6399999999999999,0,0,0.6399999999999999,92.15820922851563,82.16000549316408)"><linearGradient id="a" x1="441.2" x2="70.95" y1="150.98" y2="521.22" gradientUnits="userSpaceOnUse"><stop offset=".2" stop-color="#0fafd1"></stop><stop offset="1" stop-color="#7d57a3"></stop></linearGradient><path fill="url(#a)" d="M421.9 262.97v40.96c0 4.17-3.37 7.54-7.54 7.54h-40.93c-4.17 0-7.54-3.37-7.54-7.54v-40.96c0-4.14 3.37-7.51 7.54-7.51h40.93c4.17 0 7.54 3.37 7.54 7.51zm-15.05 33.42v-25.88h-25.91v25.88zm7.51 95.84h-40.93c-4.17 0-7.54-3.37-7.54-7.54v-40.93c0-4.17 3.37-7.54 7.54-7.54h40.93c4.17 0 7.54 3.37 7.54 7.54v40.93c0 4.17-3.37 7.54-7.54 7.54zm-33.42-15.05h25.91v-25.91h-25.91zm-39.8-114.21v40.96c0 4.17-3.37 7.54-7.54 7.54h-40.96c-4.14 0-7.51-3.37-7.51-7.54v-40.96c0-4.14 3.37-7.51 7.51-7.51h40.96c4.17 0 7.54 3.37 7.54 7.51zm-15.08 33.42v-25.88h-25.88v25.88zm7.54 95.84h-40.96c-4.14 0-7.51-3.37-7.51-7.54v-40.93c0-4.17 3.37-7.54 7.51-7.54h40.96c4.17 0 7.54 3.37 7.54 7.54v40.93c0 4.17-3.37 7.54-7.54 7.54zm-33.42-15.05h25.88v-25.91h-25.88zm-84.53-99.16H110.09v213.36h105.56zm241.14-57.17h-.4c-2.1 0-4-.85-5.36-2.27l-140.2-140.2-88.07 88.1 41.53 41.53c2.92 2.92 2.92 7.71 0 10.63a7.52 7.52 0 0 1-5.33 2.21h-28.23v270.54h240.44V220.85H456.8zm-278.9-77.95L128.4 93.41 16 205.8h36.48l70.58-70.58a7.526 7.526 0 0 1 10.66 0l70.58 70.58h36.48l-33.99-33.99-.03-.03-28.88-28.88zm23.3 77.95c-1.25 0-2.41-.28-3.43-.82l-.06-.03h-.03l-.06-.03-.03-.03-.03-.03h-.06l-.03-.03-.06-.03-.03-.03-.03-.03-.06-.03h-.03l-.06-.03-.06-.06-.06-.03-.03-.03c-.08-.06-.17-.08-.23-.14l-.06-.03-.03-.03-.06-.06-.06-.03-.03-.03-.06-.03-.03-.03-.03-.03-.03-.03-.06-.06h-.03l-.06-.06-.06-.06h-.03l-.06-.06-.06-.06-.08-.09-.06-.06a.76.76 0 0 1-.2-.2l-67.41-67.41-67.41 67.41c-.08.09-.14.14-.2.2l-.08.06-.06.09-.06.06h-.03l-.06.06-.06.06h-.03l-.06.06-.06.06-.03.03-.06.03-.03.03-.03.03-.03.03-.06.03-.08.06-.03.03-.03.03c-.08.06-.17.08-.23.14l-.06.03-.03.03-.08.06-.03.03h-.06l-.03.03-.03.03-.06.03-.03.03-.06.03h-.03l-.06.03-.03.03-.06.03h-.03l-.03.03c-1.05.54-2.21.82-3.43.82H40.96v270.54h53.92v-220.9c0-4.14 3.37-7.51 7.51-7.51h113.1v-42.12h-14.46zm-7.34-83.28 15.31 15.31 96.07-90.17.28-.28a7.526 7.526 0 0 1 10.66 0l10.88 10.89 132.83 132.49h36.11L310.84 20.61zm-67.29 223.6c0-4.17 3.37-7.54 7.54-7.54s7.51 3.37 7.51 7.54v21.97c0 4.17-3.37 7.54-7.51 7.54s-7.54-3.37-7.54-7.54z" opacity="1" data-original="url(#a)"></path></g></svg>