<svg xmlns="http://www.w3.org/2000/svg" version="1.1" xmlns:xlink="http://www.w3.org/1999/xlink" width="512" height="512" x="0" y="0" viewBox="0 0 512 512" style="enable-background:new 0 0 512 512" xml:space="preserve" class=""><rect width="512" height="512" rx="102.4" ry="102.4" fill="#bac8d3" shape="rounded"></rect><g transform="matrix(0.6499999999999998,0,0,0.6499999999999998,89.59999465942388,89.6087481975556)"><linearGradient id="a"><stop offset="0" stop-color="#b16836"></stop><stop offset="1" stop-color="#974921"></stop></linearGradient><linearGradient xlink:href="#a" id="b" x1="-10.34" x2="418.43" y1="444.34" y2="15.57" gradientTransform="matrix(1 0 0 -1 0 512)" gradientUnits="userSpaceOnUse"></linearGradient><linearGradient xlink:href="#a" id="c" x1="-13.261" x2="415.499" y1="441.419" y2="12.649" gradientTransform="matrix(1 0 0 -1 0 512)" gradientUnits="userSpaceOnUse"></linearGradient><linearGradient xlink:href="#a" id="d" x1="134.468" x2="563.238" y1="589.158" y2="160.388" gradientTransform="matrix(1 0 0 -1 0 512)" gradientUnits="userSpaceOnUse"></linearGradient><linearGradient xlink:href="#a" id="e" x1="92.203" x2="520.972" y1="546.893" y2="118.123" gradientTransform="matrix(1 0 0 -1 0 512)" gradientUnits="userSpaceOnUse"></linearGradient><path fill="url(#b)" d="M256 231c-56.9 0-103 46.1-103 103s46.1 103 103 103 103-46.1 103-103-46.1-103-103-103zm15.6 71.8h30.8c3.2 0 5.8 2.6 5.8 5.8s-2.6 5.8-5.8 5.8h-30.6c-2.8 17-17.5 29.6-34.8 29.6h-13.4l40.5 40.5c2.2 2.3 2 6-.3 8.2-2.2 2.1-5.7 2.1-7.9 0l-50.3-50.3c-2.3-2.2-2.3-5.9 0-8.1 1.1-1.1 2.6-1.7 4.1-1.7H237c10.9 0 20.4-7.5 23-18.1h-50.3c-3.2 0-5.8-2.6-5.8-5.8s2.6-5.8 5.8-5.8h50.2c-2.7-10.4-12.1-17.6-22.9-17.6h-27.3c-3.2.1-5.9-2.3-6-5.5s2.3-5.9 5.5-6h93.2c3.2.1 5.7 2.8 5.5 6-.1 3-2.5 5.4-5.5 5.5H263c4.5 4.8 7.5 10.9 8.6 17.5z" opacity="1" data-original="url(#b)"></path><path fill="url(#c)" d="M327.2 159.5c-6 3.9-12.9 6-20.1 6H204.9c-7.1 0-14.1-2.1-20.1-6-74.9 31.7-128.1 110.2-128.1 190C56.7 452.8 146 512 256 512s199.3-59.2 199.3-162.5c0-79.8-53.2-158.4-128.1-190zM256 448c-63 0-114-51-114-114s51-114 114-114 114 51 114 114c-.1 62.9-51.1 113.9-114 114z" opacity="1" data-original="url(#c)"></path><path fill="url(#d)" d="M209.2 92.3h93.6l23-43.3c7.8-13.5 3.1-30.7-10.3-38.5-2.2-1.3-4.5-2.2-6.9-2.8-38.7-10.2-66.4-10.2-105.1 0-15.1 3.9-24.1 19.3-20.2 34.3.6 2.4 1.6 4.8 2.9 7z" opacity="1" data-original="url(#d)"></path><path fill="url(#e)" d="M204.9 103.3h102.2c14.1 0 25.6 11.5 25.6 25.6 0 14.1-11.5 25.6-25.6 25.6H204.9c-14.1 0-25.6-11.5-25.6-25.6 0-14.1 11.5-25.6 25.6-25.6z" opacity="1" data-original="url(#e)"></path></g></svg>