<svg xmlns="http://www.w3.org/2000/svg" version="1.1" xmlns:xlink="http://www.w3.org/1999/xlink" width="512" height="512" x="0" y="0" viewBox="0 0 491.5 491.5" style="enable-background:new 0 0 512 512" xml:space="preserve"><rect width="491.5" height="491.5" rx="98.3" ry="98.3" fill="#bac8d3" shape="rounded"></rect><g transform="matrix(0.69,0,0,0.69,76.18250473022462,66.18250000000003)"><linearGradient id="a" x1="245.75" x2="245.75" y1="35.5" y2="456" gradientUnits="userSpaceOnUse"><stop offset="0" stop-color="#f704fe"></stop><stop offset="1" stop-color="#24bce3"></stop></linearGradient><path fill="url(#a)" d="M71.8 441.7h347.9V456H71.8zm8.6-24h330.8V432H80.4zm170.2-87.8h21.5v78.2h-21.5zm-31.1 0H241v78.2h-21.5zm-22.7 64.8v13.4h13.1v-78.2h-16.4v58.5c2 1.4 3.3 3.7 3.3 6.3zm97.9 13.4v-13.4c0-2.6 1.3-4.9 3.2-6.3v-58.5h-16.4v78.2zM193.5 297.3H298v23H193.5zm0-42.9v33.3H298v-33.3c-2-1.4-3.3-3.7-3.3-6.3v-13.4h-98v13.4c.1 2.6-1.2 4.9-3.2 6.3zm110.8-19.8H334v11.7h-29.7zm3.3 21.3h23.2v131h-23.2zm-3.3 140.6H334v11.7h-29.7zm-146.9 0h29.7v11.7h-29.7zm3.3-140.6h23.2v131h-23.2zm-3.3-21.3h29.7v11.7h-29.7zm-68.3 0h29.7v11.7H89.1zm3.3 21.3h23.2v131H92.4zm-3.3 140.6h29.7v11.7H89.1zm283.6 0h29.7v11.7h-29.7zm3.2-140.6h23.2v131h-23.2zm-3.2-21.3h29.7v11.7h-29.7zm-29 0V248c0 2.6-1.3 4.9-3.3 6.4v134c2 1.4 3.2 3.7 3.2 6.4v13.4H363v-13.4c0-2.6 1.3-4.9 3.2-6.4v-134c-2-1.4-3.3-3.7-3.3-6.4v-13.4zm-218.5 19.8v134c2 1.4 3.2 3.7 3.2 6.3v13.4h19.4v-13.4c0-2.6 1.3-4.9 3.2-6.3v-134c-2-1.4-3.3-3.7-3.3-6.4v-13.4h-19.4V248c.2 2.6-1.1 5-3.1 6.4zm-44.8-52.9h330.8V225H80.4zm-2-9.6h334.8L250.6 94.1V66.7h39.2V35.5H241V94.1zM276 147.7c0 16.7-13.5 30.2-30.2 30.2-16.6 0-30.2-13.5-30.2-30.2s13.5-30.2 30.2-30.2c16.6 0 30.2 13.5 30.2 30.2zm-50.8 0c0 11.4 9.2 20.6 20.6 20.6s20.6-9.2 20.6-20.6-9.2-20.6-20.6-20.6-20.6 9.2-20.6 20.6z" opacity="1" data-original="url(#a)"></path></g></svg>