<svg xmlns="http://www.w3.org/2000/svg" version="1.1" xmlns:xlink="http://www.w3.org/1999/xlink" width="512" height="512" x="0" y="0" viewBox="0 0 120 120" style="enable-background:new 0 0 512 512" xml:space="preserve" class=""><rect width="120" height="120" rx="24" ry="24" fill="#bac8d3" shape="rounded"></rect><g transform="matrix(0.69,0,0,0.69,18.6,17.98000000000001)"><linearGradient id="a" x1="60" x2="60" y1="19" y2="97" gradientUnits="userSpaceOnUse"><stop offset="0" stop-color="#017c32"></stop><stop offset="1" stop-color="#003c68"></stop></linearGradient><g fill="url(#a)"><path d="M51 56a2 2 0 0 0 2-2v-8a2 2 0 0 0-2-2H38a2 2 0 0 0-2 2v8a2 2 0 0 0 2 2z" fill="" opacity="1"></path><path fill-rule="evenodd" d="M104 81a6 6 0 0 0 6-6V25a6 6 0 0 0-6-6H26a6 6 0 0 0-6 6v50a6 6 0 0 0 6 6zM75.035 37.248a2 2 0 0 1 2.717.787c1.937 3.514 3.019 7.388 3.019 11.465s-1.083 7.95-3.02 11.465a2 2 0 1 1-3.503-1.93c1.637-2.97 2.523-6.184 2.523-9.535s-.886-6.565-2.523-9.535a2 2 0 0 1 .787-2.717zm-9.87 6.934a2 2 0 0 1 2.652.983 10.33 10.33 0 0 1 .971 4.335 10.33 10.33 0 0 1-.97 4.335 2 2 0 0 1-3.635-1.67c.404-.88.605-1.769.605-2.665s-.201-1.785-.605-2.665a2 2 0 0 1 .982-2.653zM57 46v8a6 6 0 0 1-6 6H38a6 6 0 0 1-6-6v-8a6 6 0 0 1 6-6h13a6 6 0 0 1 6 6z" clip-rule="evenodd" fill="" opacity="1"></path><path d="M99 91v-6H26c-5.523 0-10-4.477-10-10V35c-3.586 0-6 1.975-6 6v50a6 6 0 0 0 6 6h77a6 6 0 0 0 6-6z" fill="" opacity="1"></path></g></g></svg>