<svg xmlns="http://www.w3.org/2000/svg" version="1.1" xmlns:xlink="http://www.w3.org/1999/xlink" width="512" height="512" x="0" y="0" viewBox="0 0 100 100" style="enable-background:new 0 0 512 512" xml:space="preserve"><rect width="100" height="100" rx="20" ry="20" fill="#bac8d3" shape="rounded"></rect><g transform="matrix(0.66,0,0,0.66,17,17.00016342163086)"><linearGradient id="a"><stop offset="0" stop-color="#97e0ff"></stop><stop offset="1" stop-color="#1075ff"></stop></linearGradient><linearGradient xlink:href="#a" id="b" x1="-3.779" x2="88.238" y1="-1.449" y2="99.391" gradientUnits="userSpaceOnUse"></linearGradient><linearGradient xlink:href="#a" id="c" x1="2.575" x2="94.592" y1="-7.247" y2="93.593" gradientUnits="userSpaceOnUse"></linearGradient><path fill="url(#b)" d="m76.638 24.339-9.557 15.168 5.575 10.983 6.3-6.454zm-53.276 0-2.318 19.697 6.3 6.442 5.586-10.983zM50 78.555a140.525 140.525 0 0 1-36.576-4.267v5.456A134.14 134.14 0 0 0 50 84.19a134.207 134.207 0 0 0 36.576-4.458v-5.444A140.525 140.525 0 0 1 50 78.555z" opacity="1" data-original="url(#b)"></path><path fill="url(#c)" d="M97.5 31.483 86.98 69.497A132.993 132.993 0 0 1 50 74.074a132.496 132.496 0 0 1-36.98-4.577L2.5 31.483l23.833 24.368c.856.88 2.259.904 3.138.048.179-.179.333-.38.44-.618L50 15.792l20.089 39.489c.32.653.939 1.105 1.652 1.212a2.293 2.293 0 0 0 1.926-.642z" opacity="1" data-original="url(#c)"></path></g></svg>